<?xml version="1.0" standalone="no"?>
 <!DOCTYPE svg PUBLIC "-//W3C//DTD SVG 1.1//EN" 
 "http://www.w3.org/Graphics/SVG/1.1/DTD/svg11.dtd"> 
<svg
  xmlns:svg="http://www.w3.org/2000/svg"
  xmlns="http://www.w3.org/2000/svg"
  xmlns:xlink="http://www.w3.org/1999/xlink"
  version="1.1"
  width="297.0022mm" height="210.0072mm" viewBox="0.0000 0.0000 297.0022 210.0072">
<title>SVG Image created as Accelerometer_Gyroscope_Magnetometer_LSM9DS1TR_breakout-User_Drawings.svg date 2025/07/14 10:41:48 </title>
  <desc>Image generated by PCBNEW </desc>
<g style="fill:#000000; fill-opacity:1.0000;stroke:#000000; stroke-opacity:1.0000;
stroke-linecap:round; stroke-linejoin:round;"
 transform="translate(0 0) scale(1 1)">
</g>
<g style="fill:none; 
stroke:#000000; stroke-width:0.1200; stroke-opacity:1; 
stroke-linecap:round; stroke-linejoin:round;">
<path d="M110.9000 129.1000
L110.1000 129.1000
" />
<path d="M110.1000 129.1000
L110.1000 127.5000
" />
<path d="M110.1000 127.5000
L110.9000 127.5000
" />
<path d="M110.9000 127.5000
L110.9000 129.1000
" />
<path d="M109.4000 109.7000
L109.4000 111.3000
" />
<path d="M108.6000 111.3000
L108.6000 109.7000
" />
<path d="M108.6000 109.7000
L109.4000 109.7000
" />
<path d="M109.4000 111.3000
L108.6000 111.3000
" />
<path d="M114.9000 137.7000
L114.9000 136.2000
" />
<path d="M115.7000 137.7000
L114.9000 137.7000
" />
<path d="M115.7000 136.2000
L115.7000 137.7000
" />
<path d="M114.9000 136.2000
L115.7000 136.2000
" />
<path d="M114.2000 127.5000
L114.2000 129.1000
" />
<path d="M114.2000 129.1000
L113.4000 129.1000
" />
<path d="M113.4000 127.5000
L114.2000 127.5000
" />
<path d="M113.4000 129.1000
L113.4000 127.5000
" />
<path d="M111.2000 116.3000
L111.2000 113.1000
" />
<path d="M112.8000 116.3000
L111.2000 116.3000
" />
<path d="M111.2000 113.1000
L112.8000 113.1000
" />
<path d="M112.8000 113.1000
L112.8000 116.3000
" />
<path d="M108.3000 116.8000
L108.3000 116.0000
" />
<path d="M109.8000 116.0000
L109.8000 116.8000
" />
<path d="M108.3000 116.0000
L109.8000 116.0000
" />
<path d="M109.8000 116.8000
L108.3000 116.8000
" />
<path d="M119.4000 107.7000
L118.6000 107.7000
" />
<path d="M118.6000 106.1000
L119.4000 106.1000
" />
<path d="M118.6000 107.7000
L118.6000 106.1000
" />
<path d="M119.4000 106.1000
L119.4000 107.7000
" />
<path d="M109.7000 118.4000
L108.2000 118.4000
" />
<path d="M109.7000 117.6000
L109.7000 118.4000
" />
<path d="M108.2000 117.6000
L109.7000 117.6000
" />
<path d="M108.2000 118.4000
L108.2000 117.6000
" />
<path d="M110.1000 109.7000
L110.9000 109.7000
" />
<path d="M110.9000 109.7000
L110.9000 111.3000
" />
<path d="M110.1000 111.3000
L110.1000 109.7000
" />
<path d="M110.9000 111.3000
L110.1000 111.3000
" />
<path d="M106.9250 119.1000
L108.4250 119.1000
" />
<path d="M108.4250 119.1000
L108.4250 119.9000
" />
<path d="M106.9250 119.9000
L106.9250 119.1000
" />
<path d="M108.4250 119.9000
L106.9250 119.9000
" />
<path d="M111.8000 127.5000
L112.6000 127.5000
" />
<path d="M111.8000 129.1000
L111.8000 127.5000
" />
<path d="M112.6000 129.1000
L111.8000 129.1000
" />
<path d="M112.6000 127.5000
L112.6000 129.1000
" />
<path d="M109.3000 129.1000
L108.5000 129.1000
" />
<path d="M109.3000 127.5000
L109.3000 129.1000
" />
<path d="M108.5000 129.1000
L108.5000 127.5000
" />
<path d="M108.5000 127.5000
L109.3000 127.5000
" />
<path d="M111.8000 117.6000
L113.3000 117.6000
" />
<path d="M113.3000 118.4000
L111.8000 118.4000
" />
<path d="M111.8000 118.4000
L111.8000 117.6000
" />
<path d="M113.3000 117.6000
L113.3000 118.4000
" />
<path d="M117.4000 106.1000
L117.4000 107.7000
" />
<path d="M116.6000 106.1000
L117.4000 106.1000
" />
<path d="M116.6000 107.7000
L116.6000 106.1000
" />
<path d="M117.4000 107.7000
L116.6000 107.7000
" />
<path d="M120.9500 134.3500
L120.9500 135.1500
" />
<path d="M120.9500 135.1500
L119.4500 135.1500
" />
<path d="M119.4500 134.3500
L120.9500 134.3500
" />
<path d="M119.4500 135.1500
L119.4500 134.3500
" />
<path style="fill:none; 
stroke:#000000; stroke-width:0.1200; stroke-opacity:1; 
stroke-linecap:round; stroke-linejoin:round;fill:none"
d="M 121.7700,126.0800
119.2300,126.0800
119.2300,115.9200
121.7700,115.9200
Z" /> 
<path style="fill:none; 
stroke:#000000; stroke-width:0.1200; stroke-opacity:1; 
stroke-linecap:round; stroke-linejoin:round;fill:none"
d="M 100.2300,109.5700
102.7700,109.5700
102.7700,132.4300
100.2300,132.4300
Z" /> 
</g>
<g style="fill:#000000; fill-opacity:1.0000; stroke:none;">
<circle cx="103.0000" cy="105.0000" r="1.6000" /> 
</g>
<g style="fill:#000000; fill-opacity:1.0000; stroke:none;">
<circle cx="103.0000" cy="137.0000" r="1.6000" /> 
</g>
<g style="fill:#000000; fill-opacity:1.0000; stroke:none;">
<circle cx="120.5000" cy="124.8100" r="0.5000" /> 
</g>
<g style="fill:#000000; fill-opacity:1.0000; stroke:none;">
<circle cx="120.5000" cy="122.2700" r="0.5000" /> 
</g>
<g style="fill:#000000; fill-opacity:1.0000; stroke:none;">
<circle cx="120.5000" cy="119.7300" r="0.5000" /> 
</g>
<g style="fill:#000000; fill-opacity:1.0000; stroke:none;">
<circle cx="120.5000" cy="117.1900" r="0.5000" /> 
</g>
<g style="fill:#000000; fill-opacity:1.0000; stroke:none;">
<circle cx="101.5000" cy="110.8400" r="0.5000" /> 
</g>
<g style="fill:#000000; fill-opacity:1.0000; stroke:none;">
<circle cx="101.5000" cy="113.3800" r="0.5000" /> 
</g>
<g style="fill:#000000; fill-opacity:1.0000; stroke:none;">
<circle cx="101.5000" cy="115.9200" r="0.5000" /> 
</g>
<g style="fill:#000000; fill-opacity:1.0000; stroke:none;">
<circle cx="101.5000" cy="118.4600" r="0.5000" /> 
</g>
<g style="fill:#000000; fill-opacity:1.0000; stroke:none;">
<circle cx="101.5000" cy="121.0000" r="0.5000" /> 
</g>
<g style="fill:#000000; fill-opacity:1.0000; stroke:none;">
<circle cx="101.5000" cy="123.5400" r="0.5000" /> 
</g>
<g style="fill:#000000; fill-opacity:1.0000; stroke:none;">
<circle cx="101.5000" cy="126.0800" r="0.5000" /> 
</g>
<g style="fill:#000000; fill-opacity:1.0000; stroke:none;">
<circle cx="101.5000" cy="128.6200" r="0.5000" /> 
</g>
<g style="fill:#000000; fill-opacity:1.0000; stroke:none;">
<circle cx="101.5000" cy="131.1600" r="0.5000" /> 
</g>
<g style="fill:#FFFFFF; fill-opacity:1.0000; stroke:none;">
<circle cx="103.0000" cy="105.0000" r="1.6000" /> 
</g>
<g style="fill:#FFFFFF; fill-opacity:1.0000; stroke:none;">
<circle cx="103.0000" cy="137.0000" r="1.6000" /> 
</g>
<g style="fill:#FFFFFF; fill-opacity:1.0000; stroke:none;">
<circle cx="120.5000" cy="124.8100" r="0.5000" /> 
</g>
<g style="fill:#FFFFFF; fill-opacity:1.0000; stroke:none;">
<circle cx="120.5000" cy="122.2700" r="0.5000" /> 
</g>
<g style="fill:#FFFFFF; fill-opacity:1.0000; stroke:none;">
<circle cx="120.5000" cy="119.7300" r="0.5000" /> 
</g>
<g style="fill:#FFFFFF; fill-opacity:1.0000; stroke:none;">
<circle cx="120.5000" cy="117.1900" r="0.5000" /> 
</g>
<g style="fill:#FFFFFF; fill-opacity:1.0000; stroke:none;">
<circle cx="101.5000" cy="110.8400" r="0.5000" /> 
</g>
<g style="fill:#FFFFFF; fill-opacity:1.0000; stroke:none;">
<circle cx="101.5000" cy="113.3800" r="0.5000" /> 
</g>
<g style="fill:#FFFFFF; fill-opacity:1.0000; stroke:none;">
<circle cx="101.5000" cy="115.9200" r="0.5000" /> 
</g>
<g style="fill:#FFFFFF; fill-opacity:1.0000; stroke:none;">
<circle cx="101.5000" cy="118.4600" r="0.5000" /> 
</g>
<g style="fill:#FFFFFF; fill-opacity:1.0000; stroke:none;">
<circle cx="101.5000" cy="121.0000" r="0.5000" /> 
</g>
<g style="fill:#FFFFFF; fill-opacity:1.0000; stroke:none;">
<circle cx="101.5000" cy="123.5400" r="0.5000" /> 
</g>
<g style="fill:#FFFFFF; fill-opacity:1.0000; stroke:none;">
<circle cx="101.5000" cy="126.0800" r="0.5000" /> 
</g>
<g style="fill:#FFFFFF; fill-opacity:1.0000; stroke:none;">
<circle cx="101.5000" cy="128.6200" r="0.5000" /> 
</g>
<g style="fill:#FFFFFF; fill-opacity:1.0000; stroke:none;">
<circle cx="101.5000" cy="131.1600" r="0.5000" /> 
</g> 
</svg>
