<?xml version="1.0" standalone="no"?>
 <!DOCTYPE svg PUBLIC "-//W3C//DTD SVG 1.1//EN" 
 "http://www.w3.org/Graphics/SVG/1.1/DTD/svg11.dtd"> 
<svg
  xmlns:svg="http://www.w3.org/2000/svg"
  xmlns="http://www.w3.org/2000/svg"
  xmlns:xlink="http://www.w3.org/1999/xlink"
  version="1.1"
  width="297.0022mm" height="210.0072mm" viewBox="0.0000 0.0000 297.0022 210.0072">
<title>SVG Image created as Accelerometer_Gyroscope_Magnetometer_LSM9DS1TR_breakout-F_Mask.svg date 2025/07/25 15:52:33 </title>
  <desc>Image generated by PCBNEW </desc>
<g style="fill:#000000; fill-opacity:1.0000;stroke:#000000; stroke-opacity:1.0000;
stroke-linecap:round; stroke-linejoin:round;"
 transform="translate(0 0) scale(1 1)">
<path style="fill:#000000; fill-opacity:1.0000; stroke:none;fill-rule:evenodd;"
d="M 109.9000,127.2050
109.9076,127.1667
109.9293,127.1343
109.9617,127.1126
110.0000,127.1050
111.0000,127.1050
111.0383,127.1126
111.0707,127.1343
111.0924,127.1667
111.1000,127.2050
111.1000,127.8450
111.0924,127.8833
111.0707,127.9157
111.0383,127.9374
111.0000,127.9450
110.0000,127.9450
109.9617,127.9374
109.9293,127.9157
109.9076,127.8833
109.9000,127.8450
Z" /> 
<path style="fill:#000000; fill-opacity:1.0000; stroke:none;fill-rule:evenodd;"
d="M 109.9000,128.7550
109.9076,128.7167
109.9293,128.6843
109.9617,128.6626
110.0000,128.6550
111.0000,128.6550
111.0383,128.6626
111.0707,128.6843
111.0924,128.7167
111.1000,128.7550
111.1000,129.3950
111.0924,129.4333
111.0707,129.4657
111.0383,129.4874
111.0000,129.4950
110.0000,129.4950
109.9617,129.4874
109.9293,129.4657
109.9076,129.4333
109.9000,129.3950
Z" /> 
</g>
<g style="fill:#000000; fill-opacity:1.0000; stroke:none;">
<circle cx="111.0000" cy="138.1000" r="1.6000" /> 
<path style="fill:#000000; fill-opacity:1.0000; stroke:none;fill-rule:evenodd;"
d="M 108.4000,109.4050
108.4076,109.3667
108.4293,109.3343
108.4617,109.3126
108.5000,109.3050
109.5000,109.3050
109.5383,109.3126
109.5707,109.3343
109.5924,109.3667
109.6000,109.4050
109.6000,110.0450
109.5924,110.0833
109.5707,110.1157
109.5383,110.1374
109.5000,110.1450
108.5000,110.1450
108.4617,110.1374
108.4293,110.1157
108.4076,110.0833
108.4000,110.0450
Z" /> 
<path style="fill:#000000; fill-opacity:1.0000; stroke:none;fill-rule:evenodd;"
d="M 108.4000,110.9550
108.4076,110.9167
108.4293,110.8843
108.4617,110.8626
108.5000,110.8550
109.5000,110.8550
109.5383,110.8626
109.5707,110.8843
109.5924,110.9167
109.6000,110.9550
109.6000,111.5950
109.5924,111.6333
109.5707,111.6657
109.5383,111.6874
109.5000,111.6950
108.5000,111.6950
108.4617,111.6874
108.4293,111.6657
108.4076,111.6333
108.4000,111.5950
Z" /> 
<path style="fill:#000000; fill-opacity:1.0000; stroke:none;fill-rule:evenodd;"
d="M 114.8000,138.1600
114.7617,138.1524
114.7293,138.1307
114.7076,138.0983
114.7000,138.0600
114.7000,137.4000
114.7076,137.3617
114.7293,137.3293
114.7617,137.3076
114.8000,137.3000
115.8000,137.3000
115.8383,137.3076
115.8707,137.3293
115.8924,137.3617
115.9000,137.4000
115.9000,138.0600
115.8924,138.0983
115.8707,138.1307
115.8383,138.1524
115.8000,138.1600
Z" /> 
<path style="fill:#000000; fill-opacity:1.0000; stroke:none;fill-rule:evenodd;"
d="M 114.8000,136.7000
114.7617,136.6924
114.7293,136.6707
114.7076,136.6383
114.7000,136.6000
114.7000,135.9400
114.7076,135.9017
114.7293,135.8693
114.7617,135.8476
114.8000,135.8400
115.8000,135.8400
115.8383,135.8476
115.8707,135.8693
115.8924,135.9017
115.9000,135.9400
115.9000,136.6000
115.8924,136.6383
115.8707,136.6707
115.8383,136.6924
115.8000,136.7000
Z" /> 
<path style="fill:#000000; fill-opacity:1.0000; stroke:none;fill-rule:evenodd;"
d="M 112.9000,135.3250
112.8924,135.3633
112.8707,135.3957
112.8383,135.4174
112.8000,135.4250
112.2000,135.4250
112.1617,135.4174
112.1293,135.3957
112.1076,135.3633
112.1000,135.3250
112.1000,133.7750
112.1076,133.7367
112.1293,133.7043
112.1617,133.6826
112.2000,133.6750
112.8000,133.6750
112.8383,133.6826
112.8707,133.7043
112.8924,133.7367
112.9000,133.7750
Z" /> 
<path style="fill:#000000; fill-opacity:1.0000; stroke:none;fill-rule:evenodd;"
d="M 111.9000,135.3250
111.8924,135.3633
111.8707,135.3957
111.8383,135.4174
111.8000,135.4250
111.2000,135.4250
111.1617,135.4174
111.1293,135.3957
111.1076,135.3633
111.1000,135.3250
111.1000,133.7750
111.1076,133.7367
111.1293,133.7043
111.1617,133.6826
111.2000,133.6750
111.8000,133.6750
111.8383,133.6826
111.8707,133.7043
111.8924,133.7367
111.9000,133.7750
Z" /> 
<path style="fill:#000000; fill-opacity:1.0000; stroke:none;fill-rule:evenodd;"
d="M 110.9000,135.3250
110.8924,135.3633
110.8707,135.3957
110.8383,135.4174
110.8000,135.4250
110.2000,135.4250
110.1617,135.4174
110.1293,135.3957
110.1076,135.3633
110.1000,135.3250
110.1000,133.7750
110.1076,133.7367
110.1293,133.7043
110.1617,133.6826
110.2000,133.6750
110.8000,133.6750
110.8383,133.6826
110.8707,133.7043
110.8924,133.7367
110.9000,133.7750
Z" /> 
<path style="fill:#000000; fill-opacity:1.0000; stroke:none;fill-rule:evenodd;"
d="M 109.9000,135.3250
109.8924,135.3633
109.8707,135.3957
109.8383,135.4174
109.8000,135.4250
109.2000,135.4250
109.1617,135.4174
109.1293,135.3957
109.1076,135.3633
109.1000,135.3250
109.1000,133.7750
109.1076,133.7367
109.1293,133.7043
109.1617,133.6826
109.2000,133.6750
109.8000,133.6750
109.8383,133.6826
109.8707,133.7043
109.8924,133.7367
109.9000,133.7750
Z" /> 
<path style="fill:#000000; fill-opacity:1.0000; stroke:none;fill-rule:evenodd;"
d="M 109.1000,139.7500
109.0924,139.7883
109.0707,139.8207
109.0383,139.8424
109.0000,139.8500
107.8000,139.8500
107.7617,139.8424
107.7293,139.8207
107.7076,139.7883
107.7000,139.7500
107.7000,137.9500
107.7076,137.9117
107.7293,137.8793
107.7617,137.8576
107.8000,137.8500
109.0000,137.8500
109.0383,137.8576
109.0707,137.8793
109.0924,137.9117
109.1000,137.9500
Z" /> 
<path style="fill:#000000; fill-opacity:1.0000; stroke:none;fill-rule:evenodd;"
d="M 114.3000,139.7500
114.2924,139.7883
114.2707,139.8207
114.2383,139.8424
114.2000,139.8500
113.0000,139.8500
112.9617,139.8424
112.9293,139.8207
112.9076,139.7883
112.9000,139.7500
112.9000,137.9500
112.9076,137.9117
112.9293,137.8793
112.9617,137.8576
113.0000,137.8500
114.2000,137.8500
114.2383,137.8576
114.2707,137.8793
114.2924,137.9117
114.3000,137.9500
Z" /> 
<path style="fill:#000000; fill-opacity:1.0000; stroke:none;fill-rule:evenodd;"
d="M 113.2000,127.2050
113.2076,127.1667
113.2293,127.1343
113.2617,127.1126
113.3000,127.1050
114.3000,127.1050
114.3383,127.1126
114.3707,127.1343
114.3924,127.1667
114.4000,127.2050
114.4000,127.8450
114.3924,127.8833
114.3707,127.9157
114.3383,127.9374
114.3000,127.9450
113.3000,127.9450
113.2617,127.9374
113.2293,127.9157
113.2076,127.8833
113.2000,127.8450
Z" /> 
<path style="fill:#000000; fill-opacity:1.0000; stroke:none;fill-rule:evenodd;"
d="M 113.2000,128.7550
113.2076,128.7167
113.2293,128.6843
113.2617,128.6626
113.3000,128.6550
114.3000,128.6550
114.3383,128.6626
114.3707,128.6843
114.3924,128.7167
114.4000,128.7550
114.4000,129.3950
114.3924,129.4333
114.3707,129.4657
114.3383,129.4874
114.3000,129.4950
113.3000,129.4950
113.2617,129.4874
113.2293,129.4657
113.2076,129.4333
113.2000,129.3950
Z" /> 
<path style="fill:#000000; fill-opacity:1.0000; stroke:none;fill-rule:evenodd;"
d="M 115.8000,133.5000
115.8076,133.4617
115.8293,133.4293
115.8617,133.4076
115.9000,133.4000
116.4000,133.4000
116.4383,133.4076
116.4707,133.4293
116.4924,133.4617
116.5000,133.5000
116.5000,134.5000
116.4924,134.5383
116.4707,134.5707
116.4383,134.5924
116.4000,134.6000
115.9000,134.6000
115.8617,134.5924
115.8293,134.5707
115.8076,134.5383
115.8000,134.5000
Z" /> 
<path style="fill:#000000; fill-opacity:1.0000; stroke:none;fill-rule:evenodd;"
d="M 116.5000,133.5000
116.5076,133.4617
116.5293,133.4293
116.5617,133.4076
116.6000,133.4000
117.1000,133.4000
117.1383,133.4076
117.1707,133.4293
117.1924,133.4617
117.2000,133.5000
117.2000,134.5000
117.1924,134.5383
117.1707,134.5707
117.1383,134.5924
117.1000,134.6000
116.6000,134.6000
116.5617,134.5924
116.5293,134.5707
116.5076,134.5383
116.5000,134.5000
Z" /> 
<path style="fill:#000000; fill-opacity:1.0000; stroke:none;fill-rule:evenodd;"
d="M 112.9750,116.7250
112.9674,116.7633
112.9457,116.7957
112.9133,116.8174
112.8750,116.8250
111.1250,116.8250
111.0867,116.8174
111.0543,116.7957
111.0326,116.7633
111.0250,116.7250
111.0250,115.7250
111.0326,115.6867
111.0543,115.6543
111.0867,115.6326
111.1250,115.6250
112.8750,115.6250
112.9133,115.6326
112.9457,115.6543
112.9674,115.6867
112.9750,115.7250
Z" /> 
<path style="fill:#000000; fill-opacity:1.0000; stroke:none;fill-rule:evenodd;"
d="M 112.9750,113.6750
112.9674,113.7133
112.9457,113.7457
112.9133,113.7674
112.8750,113.7750
111.1250,113.7750
111.0867,113.7674
111.0543,113.7457
111.0326,113.7133
111.0250,113.6750
111.0250,112.6750
111.0326,112.6367
111.0543,112.6043
111.0867,112.5826
111.1250,112.5750
112.8750,112.5750
112.9133,112.5826
112.9457,112.6043
112.9674,112.6367
112.9750,112.6750
Z" /> 
<path style="fill:#000000; fill-opacity:1.0000; stroke:none;fill-rule:evenodd;"
d="M 107.8400,115.9000
107.8476,115.8617
107.8693,115.8293
107.9017,115.8076
107.9400,115.8000
108.6000,115.8000
108.6383,115.8076
108.6707,115.8293
108.6924,115.8617
108.7000,115.9000
108.7000,116.9000
108.6924,116.9383
108.6707,116.9707
108.6383,116.9924
108.6000,117.0000
107.9400,117.0000
107.9017,116.9924
107.8693,116.9707
107.8476,116.9383
107.8400,116.9000
Z" /> 
<path style="fill:#000000; fill-opacity:1.0000; stroke:none;fill-rule:evenodd;"
d="M 109.3000,115.9000
109.3076,115.8617
109.3293,115.8293
109.3617,115.8076
109.4000,115.8000
110.0600,115.8000
110.0983,115.8076
110.1307,115.8293
110.1524,115.8617
110.1600,115.9000
110.1600,116.9000
110.1524,116.9383
110.1307,116.9707
110.0983,116.9924
110.0600,117.0000
109.4000,117.0000
109.3617,116.9924
109.3293,116.9707
109.3076,116.9383
109.3000,116.9000
Z" /> 
<path style="fill:#000000; fill-opacity:1.0000; stroke:none;fill-rule:evenodd;"
d="M 118.4000,105.8050
118.4076,105.7667
118.4293,105.7343
118.4617,105.7126
118.5000,105.7050
119.5000,105.7050
119.5383,105.7126
119.5707,105.7343
119.5924,105.7667
119.6000,105.8050
119.6000,106.4450
119.5924,106.4833
119.5707,106.5157
119.5383,106.5374
119.5000,106.5450
118.5000,106.5450
118.4617,106.5374
118.4293,106.5157
118.4076,106.4833
118.4000,106.4450
Z" /> 
<path style="fill:#000000; fill-opacity:1.0000; stroke:none;fill-rule:evenodd;"
d="M 118.4000,107.3550
118.4076,107.3167
118.4293,107.2843
118.4617,107.2626
118.5000,107.2550
119.5000,107.2550
119.5383,107.2626
119.5707,107.2843
119.5924,107.3167
119.6000,107.3550
119.6000,107.9950
119.5924,108.0333
119.5707,108.0657
119.5383,108.0874
119.5000,108.0950
118.5000,108.0950
118.4617,108.0874
118.4293,108.0657
118.4076,108.0333
118.4000,107.9950
Z" /> 
<path style="fill:#000000; fill-opacity:1.0000; stroke:none;fill-rule:evenodd;"
d="M 110.1600,118.5000
110.1524,118.5383
110.1307,118.5707
110.0983,118.5924
110.0600,118.6000
109.4000,118.6000
109.3617,118.5924
109.3293,118.5707
109.3076,118.5383
109.3000,118.5000
109.3000,117.5000
109.3076,117.4617
109.3293,117.4293
109.3617,117.4076
109.4000,117.4000
110.0600,117.4000
110.0983,117.4076
110.1307,117.4293
110.1524,117.4617
110.1600,117.5000
Z" /> 
<path style="fill:#000000; fill-opacity:1.0000; stroke:none;fill-rule:evenodd;"
d="M 108.7000,118.5000
108.6924,118.5383
108.6707,118.5707
108.6383,118.5924
108.6000,118.6000
107.9400,118.6000
107.9017,118.5924
107.8693,118.5707
107.8476,118.5383
107.8400,118.5000
107.8400,117.5000
107.8476,117.4617
107.8693,117.4293
107.9017,117.4076
107.9400,117.4000
108.6000,117.4000
108.6383,117.4076
108.6707,117.4293
108.6924,117.4617
108.7000,117.5000
Z" /> 
<path style="fill:#000000; fill-opacity:1.0000; stroke:none;fill-rule:evenodd;"
d="M 111.1000,111.5950
111.0924,111.6333
111.0707,111.6657
111.0383,111.6874
111.0000,111.6950
110.0000,111.6950
109.9617,111.6874
109.9293,111.6657
109.9076,111.6333
109.9000,111.5950
109.9000,110.9550
109.9076,110.9167
109.9293,110.8843
109.9617,110.8626
110.0000,110.8550
111.0000,110.8550
111.0383,110.8626
111.0707,110.8843
111.0924,110.9167
111.1000,110.9550
Z" /> 
<path style="fill:#000000; fill-opacity:1.0000; stroke:none;fill-rule:evenodd;"
d="M 111.1000,110.0450
111.0924,110.0833
111.0707,110.1157
111.0383,110.1374
111.0000,110.1450
110.0000,110.1450
109.9617,110.1374
109.9293,110.1157
109.9076,110.0833
109.9000,110.0450
109.9000,109.4050
109.9076,109.3667
109.9293,109.3343
109.9617,109.3126
110.0000,109.3050
111.0000,109.3050
111.0383,109.3126
111.0707,109.3343
111.0924,109.3667
111.1000,109.4050
Z" /> 
<path style="fill:#000000; fill-opacity:1.0000; stroke:none;fill-rule:evenodd;"
d="M 106.4650,119.0000
106.4726,118.9617
106.4943,118.9293
106.5267,118.9076
106.5650,118.9000
107.2250,118.9000
107.2633,118.9076
107.2957,118.9293
107.3174,118.9617
107.3250,119.0000
107.3250,120.0000
107.3174,120.0383
107.2957,120.0707
107.2633,120.0924
107.2250,120.1000
106.5650,120.1000
106.5267,120.0924
106.4943,120.0707
106.4726,120.0383
106.4650,120.0000
Z" /> 
<path style="fill:#000000; fill-opacity:1.0000; stroke:none;fill-rule:evenodd;"
d="M 107.9250,119.0000
107.9326,118.9617
107.9543,118.9293
107.9867,118.9076
108.0250,118.9000
108.6850,118.9000
108.7233,118.9076
108.7557,118.9293
108.7774,118.9617
108.7850,119.0000
108.7850,120.0000
108.7774,120.0383
108.7557,120.0707
108.7233,120.0924
108.6850,120.1000
108.0250,120.1000
107.9867,120.0924
107.9543,120.0707
107.9326,120.0383
107.9250,120.0000
Z" /> 
<path style="fill:#000000; fill-opacity:1.0000; stroke:none;fill-rule:evenodd;"
d="M 113.3500,130.0000
113.3576,129.9617
113.3793,129.9293
113.4117,129.9076
113.4500,129.9000
113.9500,129.9000
113.9883,129.9076
114.0207,129.9293
114.0424,129.9617
114.0500,130.0000
114.0500,131.0000
114.0424,131.0383
114.0207,131.0707
113.9883,131.0924
113.9500,131.1000
113.4500,131.1000
113.4117,131.0924
113.3793,131.0707
113.3576,131.0383
113.3500,131.0000
Z" /> 
<path style="fill:#000000; fill-opacity:1.0000; stroke:none;fill-rule:evenodd;"
d="M 113.3088,129.9191
113.3451,129.9691
113.3500,130.0000
113.3500,131.0000
113.3309,131.0588
113.2809,131.0951
113.2500,131.1000
112.7500,131.1000
112.6912,131.0809
112.6549,131.0309
112.6500,131.0000
112.6500,130.0000
112.6691,129.9412
112.7191,129.9049
112.7500,129.9000
113.2500,129.9000
Z" /> 
<path style="fill:#000000; fill-opacity:1.0000; stroke:none;fill-rule:evenodd;"
d="M 111.9500,130.0000
111.9576,129.9617
111.9793,129.9293
112.0117,129.9076
112.0500,129.9000
112.5500,129.9000
112.5883,129.9076
112.6207,129.9293
112.6424,129.9617
112.6500,130.0000
112.6500,131.0000
112.6424,131.0383
112.6207,131.0707
112.5883,131.0924
112.5500,131.1000
112.0500,131.1000
112.0117,131.0924
111.9793,131.0707
111.9576,131.0383
111.9500,131.0000
Z" /> 
<path style="fill:#000000; fill-opacity:1.0000; stroke:none;fill-rule:evenodd;"
d="M 111.6000,127.2050
111.6076,127.1667
111.6293,127.1343
111.6617,127.1126
111.7000,127.1050
112.7000,127.1050
112.7383,127.1126
112.7707,127.1343
112.7924,127.1667
112.8000,127.2050
112.8000,127.8450
112.7924,127.8833
112.7707,127.9157
112.7383,127.9374
112.7000,127.9450
111.7000,127.9450
111.6617,127.9374
111.6293,127.9157
111.6076,127.8833
111.6000,127.8450
Z" /> 
<path style="fill:#000000; fill-opacity:1.0000; stroke:none;fill-rule:evenodd;"
d="M 111.6000,128.7550
111.6076,128.7167
111.6293,128.6843
111.6617,128.6626
111.7000,128.6550
112.7000,128.6550
112.7383,128.6626
112.7707,128.6843
112.7924,128.7167
112.8000,128.7550
112.8000,129.3950
112.7924,129.4333
112.7707,129.4657
112.7383,129.4874
112.7000,129.4950
111.7000,129.4950
111.6617,129.4874
111.6293,129.4657
111.6076,129.4333
111.6000,129.3950
Z" /> 
<path style="fill:#000000; fill-opacity:1.0000; stroke:none;fill-rule:evenodd;"
d="M 118.3500,104.1000
118.3576,104.0617
118.3793,104.0293
118.4117,104.0076
118.4500,104.0000
118.9500,104.0000
118.9883,104.0076
119.0207,104.0293
119.0424,104.0617
119.0500,104.1000
119.0500,105.1000
119.0424,105.1383
119.0207,105.1707
118.9883,105.1924
118.9500,105.2000
118.4500,105.2000
118.4117,105.1924
118.3793,105.1707
118.3576,105.1383
118.3500,105.1000
Z" /> 
<path style="fill:#000000; fill-opacity:1.0000; stroke:none;fill-rule:evenodd;"
d="M 118.3088,104.0191
118.3451,104.0691
118.3500,104.1000
118.3500,105.1000
118.3309,105.1588
118.2809,105.1951
118.2500,105.2000
117.7500,105.2000
117.6912,105.1809
117.6549,105.1309
117.6500,105.1000
117.6500,104.1000
117.6691,104.0412
117.7191,104.0049
117.7500,104.0000
118.2500,104.0000
Z" /> 
<path style="fill:#000000; fill-opacity:1.0000; stroke:none;fill-rule:evenodd;"
d="M 116.9500,104.1000
116.9576,104.0617
116.9793,104.0293
117.0117,104.0076
117.0500,104.0000
117.5500,104.0000
117.5883,104.0076
117.6207,104.0293
117.6424,104.0617
117.6500,104.1000
117.6500,105.1000
117.6424,105.1383
117.6207,105.1707
117.5883,105.1924
117.5500,105.2000
117.0500,105.2000
117.0117,105.1924
116.9793,105.1707
116.9576,105.1383
116.9500,105.1000
Z" /> 
<path style="fill:#000000; fill-opacity:1.0000; stroke:none;fill-rule:evenodd;"
d="M 113.6500,110.2000
113.6576,110.1617
113.6793,110.1293
113.7117,110.1076
113.7500,110.1000
114.2500,110.1000
114.2883,110.1076
114.3207,110.1293
114.3424,110.1617
114.3500,110.2000
114.3500,111.2000
114.3424,111.2383
114.3207,111.2707
114.2883,111.2924
114.2500,111.3000
113.7500,111.3000
113.7117,111.2924
113.6793,111.2707
113.6576,111.2383
113.6500,111.2000
Z" /> 
<path style="fill:#000000; fill-opacity:1.0000; stroke:none;fill-rule:evenodd;"
d="M 113.6088,110.1191
113.6451,110.1691
113.6500,110.2000
113.6500,111.2000
113.6309,111.2588
113.5809,111.2951
113.5500,111.3000
113.0500,111.3000
112.9912,111.2809
112.9549,111.2309
112.9500,111.2000
112.9500,110.2000
112.9691,110.1412
113.0191,110.1049
113.0500,110.1000
113.5500,110.1000
Z" /> 
<path style="fill:#000000; fill-opacity:1.0000; stroke:none;fill-rule:evenodd;"
d="M 112.2500,110.2000
112.2576,110.1617
112.2793,110.1293
112.3117,110.1076
112.3500,110.1000
112.8500,110.1000
112.8883,110.1076
112.9207,110.1293
112.9424,110.1617
112.9500,110.2000
112.9500,111.2000
112.9424,111.2383
112.9207,111.2707
112.8883,111.2924
112.8500,111.3000
112.3500,111.3000
112.3117,111.2924
112.2793,111.2707
112.2576,111.2383
112.2500,111.2000
Z" /> 
<path style="fill:#000000; fill-opacity:1.0000; stroke:none;fill-rule:evenodd;"
d="M 119.2500,109.9000
119.2883,109.9076
119.3207,109.9293
119.3424,109.9617
119.3500,110.0000
119.3500,110.3000
119.3424,110.3383
119.3207,110.3707
119.2883,110.3924
119.2500,110.4000
118.5900,110.4000
118.5517,110.3924
118.5193,110.3707
118.4976,110.3383
118.4900,110.3000
118.4900,110.0000
118.4976,109.9617
118.5193,109.9293
118.5517,109.9076
118.5900,109.9000
Z" /> 
<path style="fill:#000000; fill-opacity:1.0000; stroke:none;fill-rule:evenodd;"
d="M 119.2500,109.2500
119.2883,109.2576
119.3207,109.2793
119.3424,109.3117
119.3500,109.3500
119.3500,109.6500
119.3424,109.6883
119.3207,109.7207
119.2883,109.7424
119.2500,109.7500
118.5900,109.7500
118.5517,109.7424
118.5193,109.7207
118.4976,109.6883
118.4900,109.6500
118.4900,109.3500
118.4976,109.3117
118.5193,109.2793
118.5517,109.2576
118.5900,109.2500
Z" /> 
<path style="fill:#000000; fill-opacity:1.0000; stroke:none;fill-rule:evenodd;"
d="M 119.2500,108.6000
119.2883,108.6076
119.3207,108.6293
119.3424,108.6617
119.3500,108.7000
119.3500,109.0000
119.3424,109.0383
119.3207,109.0707
119.2883,109.0924
119.2500,109.1000
118.5900,109.1000
118.5517,109.0924
118.5193,109.0707
118.4976,109.0383
118.4900,109.0000
118.4900,108.7000
118.4976,108.6617
118.5193,108.6293
118.5517,108.6076
118.5900,108.6000
Z" /> 
<path style="fill:#000000; fill-opacity:1.0000; stroke:none;fill-rule:evenodd;"
d="M 117.4100,108.6000
117.4483,108.6076
117.4807,108.6293
117.5024,108.6617
117.5100,108.7000
117.5100,109.0000
117.5024,109.0383
117.4807,109.0707
117.4483,109.0924
117.4100,109.1000
116.7500,109.1000
116.7117,109.0924
116.6793,109.0707
116.6576,109.0383
116.6500,109.0000
116.6500,108.7000
116.6576,108.6617
116.6793,108.6293
116.7117,108.6076
116.7500,108.6000
Z" /> 
<path style="fill:#000000; fill-opacity:1.0000; stroke:none;fill-rule:evenodd;"
d="M 117.4100,109.2500
117.4483,109.2576
117.4807,109.2793
117.5024,109.3117
117.5100,109.3500
117.5100,109.6500
117.5024,109.6883
117.4807,109.7207
117.4483,109.7424
117.4100,109.7500
116.7500,109.7500
116.7117,109.7424
116.6793,109.7207
116.6576,109.6883
116.6500,109.6500
116.6500,109.3500
116.6576,109.3117
116.6793,109.2793
116.7117,109.2576
116.7500,109.2500
Z" /> 
<path style="fill:#000000; fill-opacity:1.0000; stroke:none;fill-rule:evenodd;"
d="M 117.4100,109.9000
117.4483,109.9076
117.4807,109.9293
117.5024,109.9617
117.5100,110.0000
117.5100,110.3000
117.5024,110.3383
117.4807,110.3707
117.4483,110.3924
117.4100,110.4000
116.7500,110.4000
116.7117,110.3924
116.6793,110.3707
116.6576,110.3383
116.6500,110.3000
116.6500,110.0000
116.6576,109.9617
116.6793,109.9293
116.7117,109.9076
116.7500,109.9000
Z" /> 
<path style="fill:#000000; fill-opacity:1.0000; stroke:none;fill-rule:evenodd;"
d="M 108.3000,127.2050
108.3076,127.1667
108.3293,127.1343
108.3617,127.1126
108.4000,127.1050
109.4000,127.1050
109.4383,127.1126
109.4707,127.1343
109.4924,127.1667
109.5000,127.2050
109.5000,127.8450
109.4924,127.8833
109.4707,127.9157
109.4383,127.9374
109.4000,127.9450
108.4000,127.9450
108.3617,127.9374
108.3293,127.9157
108.3076,127.8833
108.3000,127.8450
Z" /> 
<path style="fill:#000000; fill-opacity:1.0000; stroke:none;fill-rule:evenodd;"
d="M 108.3000,128.7550
108.3076,128.7167
108.3293,128.6843
108.3617,128.6626
108.4000,128.6550
109.4000,128.6550
109.4383,128.6626
109.4707,128.6843
109.4924,128.7167
109.5000,128.7550
109.5000,129.3950
109.4924,129.4333
109.4707,129.4657
109.4383,129.4874
109.4000,129.4950
108.4000,129.4950
108.3617,129.4874
108.3293,129.4657
108.3076,129.4333
108.3000,129.3950
Z" /> 
<path style="fill:#000000; fill-opacity:1.0000; stroke:none;fill-rule:evenodd;"
d="M 110.0500,130.0000
110.0576,129.9617
110.0793,129.9293
110.1117,129.9076
110.1500,129.9000
110.6500,129.9000
110.6883,129.9076
110.7207,129.9293
110.7424,129.9617
110.7500,130.0000
110.7500,131.0000
110.7424,131.0383
110.7207,131.0707
110.6883,131.0924
110.6500,131.1000
110.1500,131.1000
110.1117,131.0924
110.0793,131.0707
110.0576,131.0383
110.0500,131.0000
Z" /> 
<path style="fill:#000000; fill-opacity:1.0000; stroke:none;fill-rule:evenodd;"
d="M 110.0088,129.9191
110.0451,129.9691
110.0500,130.0000
110.0500,131.0000
110.0309,131.0588
109.9809,131.0951
109.9500,131.1000
109.4500,131.1000
109.3912,131.0809
109.3549,131.0309
109.3500,131.0000
109.3500,130.0000
109.3691,129.9412
109.4191,129.9049
109.4500,129.9000
109.9500,129.9000
Z" /> 
<path style="fill:#000000; fill-opacity:1.0000; stroke:none;fill-rule:evenodd;"
d="M 108.6500,130.0000
108.6576,129.9617
108.6793,129.9293
108.7117,129.9076
108.7500,129.9000
109.2500,129.9000
109.2883,129.9076
109.3207,129.9293
109.3424,129.9617
109.3500,130.0000
109.3500,131.0000
109.3424,131.0383
109.3207,131.0707
109.2883,131.0924
109.2500,131.1000
108.7500,131.1000
108.7117,131.0924
108.6793,131.0707
108.6576,131.0383
108.6500,131.0000
Z" /> 
<path style="fill:#000000; fill-opacity:1.0000; stroke:none;fill-rule:evenodd;"
d="M 111.3400,117.5000
111.3476,117.4617
111.3693,117.4293
111.4017,117.4076
111.4400,117.4000
112.1000,117.4000
112.1383,117.4076
112.1707,117.4293
112.1924,117.4617
112.2000,117.5000
112.2000,118.5000
112.1924,118.5383
112.1707,118.5707
112.1383,118.5924
112.1000,118.6000
111.4400,118.6000
111.4017,118.5924
111.3693,118.5707
111.3476,118.5383
111.3400,118.5000
Z" /> 
<path style="fill:#000000; fill-opacity:1.0000; stroke:none;fill-rule:evenodd;"
d="M 112.8000,117.5000
112.8076,117.4617
112.8293,117.4293
112.8617,117.4076
112.9000,117.4000
113.5600,117.4000
113.5983,117.4076
113.6307,117.4293
113.6524,117.4617
113.6600,117.5000
113.6600,118.5000
113.6524,118.5383
113.6307,118.5707
113.5983,118.5924
113.5600,118.6000
112.9000,118.6000
112.8617,118.5924
112.8293,118.5707
112.8076,118.5383
112.8000,118.5000
Z" /> 
<path style="fill:#000000; fill-opacity:1.0000; stroke:none;fill-rule:evenodd;"
d="M 109.1000,106.6750
109.1076,106.6367
109.1293,106.6043
109.1617,106.5826
109.2000,106.5750
109.8000,106.5750
109.8383,106.5826
109.8707,106.6043
109.8924,106.6367
109.9000,106.6750
109.9000,108.2250
109.8924,108.2633
109.8707,108.2957
109.8383,108.3174
109.8000,108.3250
109.2000,108.3250
109.1617,108.3174
109.1293,108.2957
109.1076,108.2633
109.1000,108.2250
Z" /> 
<path style="fill:#000000; fill-opacity:1.0000; stroke:none;fill-rule:evenodd;"
d="M 110.1000,106.6750
110.1076,106.6367
110.1293,106.6043
110.1617,106.5826
110.2000,106.5750
110.8000,106.5750
110.8383,106.5826
110.8707,106.6043
110.8924,106.6367
110.9000,106.6750
110.9000,108.2250
110.8924,108.2633
110.8707,108.2957
110.8383,108.3174
110.8000,108.3250
110.2000,108.3250
110.1617,108.3174
110.1293,108.2957
110.1076,108.2633
110.1000,108.2250
Z" /> 
<path style="fill:#000000; fill-opacity:1.0000; stroke:none;fill-rule:evenodd;"
d="M 111.1000,106.6750
111.1076,106.6367
111.1293,106.6043
111.1617,106.5826
111.2000,106.5750
111.8000,106.5750
111.8383,106.5826
111.8707,106.6043
111.8924,106.6367
111.9000,106.6750
111.9000,108.2250
111.8924,108.2633
111.8707,108.2957
111.8383,108.3174
111.8000,108.3250
111.2000,108.3250
111.1617,108.3174
111.1293,108.2957
111.1076,108.2633
111.1000,108.2250
Z" /> 
<path style="fill:#000000; fill-opacity:1.0000; stroke:none;fill-rule:evenodd;"
d="M 112.1000,106.6750
112.1076,106.6367
112.1293,106.6043
112.1617,106.5826
112.2000,106.5750
112.8000,106.5750
112.8383,106.5826
112.8707,106.6043
112.8924,106.6367
112.9000,106.6750
112.9000,108.2250
112.8924,108.2633
112.8707,108.2957
112.8383,108.3174
112.8000,108.3250
112.2000,108.3250
112.1617,108.3174
112.1293,108.2957
112.1076,108.2633
112.1000,108.2250
Z" /> 
<path style="fill:#000000; fill-opacity:1.0000; stroke:none;fill-rule:evenodd;"
d="M 112.9000,102.2500
112.9076,102.2117
112.9293,102.1793
112.9617,102.1576
113.0000,102.1500
114.2000,102.1500
114.2383,102.1576
114.2707,102.1793
114.2924,102.2117
114.3000,102.2500
114.3000,104.0500
114.2924,104.0883
114.2707,104.1207
114.2383,104.1424
114.2000,104.1500
113.0000,104.1500
112.9617,104.1424
112.9293,104.1207
112.9076,104.0883
112.9000,104.0500
Z" /> 
<path style="fill:#000000; fill-opacity:1.0000; stroke:none;fill-rule:evenodd;"
d="M 107.7000,102.2500
107.7076,102.2117
107.7293,102.1793
107.7617,102.1576
107.8000,102.1500
109.0000,102.1500
109.0383,102.1576
109.0707,102.1793
109.0924,102.2117
109.1000,102.2500
109.1000,104.0500
109.0924,104.0883
109.0707,104.1207
109.0383,104.1424
109.0000,104.1500
107.8000,104.1500
107.7617,104.1424
107.7293,104.1207
107.7076,104.0883
107.7000,104.0500
Z" /> 
<path style="fill:#000000; fill-opacity:1.0000; stroke:none;fill-rule:evenodd;"
d="M 116.2500,135.7500
116.2576,135.7117
116.2793,135.6793
116.3117,135.6576
116.3500,135.6500
117.4500,135.6500
117.4883,135.6576
117.5207,135.6793
117.5424,135.7117
117.5500,135.7500
117.5500,136.3500
117.5424,136.3883
117.5207,136.4207
117.4883,136.4424
117.4500,136.4500
116.3500,136.4500
116.3117,136.4424
116.2793,136.4207
116.2576,136.3883
116.2500,136.3500
Z" /> 
<path style="fill:#000000; fill-opacity:1.0000; stroke:none;fill-rule:evenodd;"
d="M 116.2500,136.7000
116.2576,136.6617
116.2793,136.6293
116.3117,136.6076
116.3500,136.6000
117.4500,136.6000
117.4883,136.6076
117.5207,136.6293
117.5424,136.6617
117.5500,136.7000
117.5500,137.3000
117.5424,137.3383
117.5207,137.3707
117.4883,137.3924
117.4500,137.4000
116.3500,137.4000
116.3117,137.3924
116.2793,137.3707
116.2576,137.3383
116.2500,137.3000
Z" /> 
<path style="fill:#000000; fill-opacity:1.0000; stroke:none;fill-rule:evenodd;"
d="M 116.2500,137.6500
116.2576,137.6117
116.2793,137.5793
116.3117,137.5576
116.3500,137.5500
117.4500,137.5500
117.4883,137.5576
117.5207,137.5793
117.5424,137.6117
117.5500,137.6500
117.5500,138.2500
117.5424,138.2883
117.5207,138.3207
117.4883,138.3424
117.4500,138.3500
116.3500,138.3500
116.3117,138.3424
116.2793,138.3207
116.2576,138.2883
116.2500,138.2500
Z" /> 
<path style="fill:#000000; fill-opacity:1.0000; stroke:none;fill-rule:evenodd;"
d="M 118.8500,137.6500
118.8576,137.6117
118.8793,137.5793
118.9117,137.5576
118.9500,137.5500
120.0500,137.5500
120.0883,137.5576
120.1207,137.5793
120.1424,137.6117
120.1500,137.6500
120.1500,138.2500
120.1424,138.2883
120.1207,138.3207
120.0883,138.3424
120.0500,138.3500
118.9500,138.3500
118.9117,138.3424
118.8793,138.3207
118.8576,138.2883
118.8500,138.2500
Z" /> 
<path style="fill:#000000; fill-opacity:1.0000; stroke:none;fill-rule:evenodd;"
d="M 118.8500,135.7500
118.8576,135.7117
118.8793,135.6793
118.9117,135.6576
118.9500,135.6500
120.0500,135.6500
120.0883,135.6576
120.1207,135.6793
120.1424,135.7117
120.1500,135.7500
120.1500,136.3500
120.1424,136.3883
120.1207,136.4207
120.0883,136.4424
120.0500,136.4500
118.9500,136.4500
118.9117,136.4424
118.8793,136.4207
118.8576,136.3883
118.8500,136.3500
Z" /> 
<path style="fill:#000000; fill-opacity:1.0000; stroke:none;fill-rule:evenodd;"
d="M 109.6100,119.0500
109.6483,119.0576
109.6807,119.0793
109.7024,119.1117
109.7100,119.1500
109.7100,119.8500
109.7024,119.8883
109.6807,119.9207
109.6483,119.9424
109.6100,119.9500
109.3800,119.9500
109.3417,119.9424
109.3093,119.9207
109.2876,119.8883
109.2800,119.8500
109.2800,119.1500
109.2876,119.1117
109.3093,119.0793
109.3417,119.0576
109.3800,119.0500
Z" /> 
<path style="fill:#000000; fill-opacity:1.0000; stroke:none;fill-rule:evenodd;"
d="M 108.8000,120.2400
108.8076,120.2017
108.8293,120.1693
108.8617,120.1476
108.9000,120.1400
109.6000,120.1400
109.6383,120.1476
109.6707,120.1693
109.6924,120.2017
109.7000,120.2400
109.7000,120.4700
109.6924,120.5083
109.6707,120.5407
109.6383,120.5624
109.6000,120.5700
108.9000,120.5700
108.8617,120.5624
108.8293,120.5407
108.8076,120.5083
108.8000,120.4700
Z" /> 
<path style="fill:#000000; fill-opacity:1.0000; stroke:none;fill-rule:evenodd;"
d="M 108.8000,120.6700
108.8076,120.6317
108.8293,120.5993
108.8617,120.5776
108.9000,120.5700
109.6000,120.5700
109.6383,120.5776
109.6707,120.5993
109.6924,120.6317
109.7000,120.6700
109.7000,120.9000
109.6924,120.9383
109.6707,120.9707
109.6383,120.9924
109.6000,121.0000
108.9000,121.0000
108.8617,120.9924
108.8293,120.9707
108.8076,120.9383
108.8000,120.9000
Z" /> 
<path style="fill:#000000; fill-opacity:1.0000; stroke:none;fill-rule:evenodd;"
d="M 108.8000,121.1000
108.8076,121.0617
108.8293,121.0293
108.8617,121.0076
108.9000,121.0000
109.6000,121.0000
109.6383,121.0076
109.6707,121.0293
109.6924,121.0617
109.7000,121.1000
109.7000,121.3300
109.6924,121.3683
109.6707,121.4007
109.6383,121.4224
109.6000,121.4300
108.9000,121.4300
108.8617,121.4224
108.8293,121.4007
108.8076,121.3683
108.8000,121.3300
Z" /> 
<path style="fill:#000000; fill-opacity:1.0000; stroke:none;fill-rule:evenodd;"
d="M 108.8000,121.5300
108.8076,121.4917
108.8293,121.4593
108.8617,121.4376
108.9000,121.4300
109.6000,121.4300
109.6383,121.4376
109.6707,121.4593
109.6924,121.4917
109.7000,121.5300
109.7000,121.7600
109.6924,121.7983
109.6707,121.8307
109.6383,121.8524
109.6000,121.8600
108.9000,121.8600
108.8617,121.8524
108.8293,121.8307
108.8076,121.7983
108.8000,121.7600
Z" /> 
<path style="fill:#000000; fill-opacity:1.0000; stroke:none;fill-rule:evenodd;"
d="M 109.3800,122.9500
109.3417,122.9424
109.3093,122.9207
109.2876,122.8883
109.2800,122.8500
109.2800,122.1500
109.2876,122.1117
109.3093,122.0793
109.3417,122.0576
109.3800,122.0500
109.6100,122.0500
109.6483,122.0576
109.6807,122.0793
109.7024,122.1117
109.7100,122.1500
109.7100,122.8500
109.7024,122.8883
109.6807,122.9207
109.6483,122.9424
109.6100,122.9500
Z" /> 
<path style="fill:#000000; fill-opacity:1.0000; stroke:none;fill-rule:evenodd;"
d="M 109.8100,122.9500
109.7717,122.9424
109.7393,122.9207
109.7176,122.8883
109.7100,122.8500
109.7100,122.1500
109.7176,122.1117
109.7393,122.0793
109.7717,122.0576
109.8100,122.0500
110.0400,122.0500
110.0783,122.0576
110.1107,122.0793
110.1324,122.1117
110.1400,122.1500
110.1400,122.8500
110.1324,122.8883
110.1107,122.9207
110.0783,122.9424
110.0400,122.9500
Z" /> 
<path style="fill:#000000; fill-opacity:1.0000; stroke:none;fill-rule:evenodd;"
d="M 110.2400,122.9500
110.2017,122.9424
110.1693,122.9207
110.1476,122.8883
110.1400,122.8500
110.1400,122.1500
110.1476,122.1117
110.1693,122.0793
110.2017,122.0576
110.2400,122.0500
110.4700,122.0500
110.5083,122.0576
110.5407,122.0793
110.5624,122.1117
110.5700,122.1500
110.5700,122.8500
110.5624,122.8883
110.5407,122.9207
110.5083,122.9424
110.4700,122.9500
Z" /> 
<path style="fill:#000000; fill-opacity:1.0000; stroke:none;fill-rule:evenodd;"
d="M 110.6700,122.9500
110.6317,122.9424
110.5993,122.9207
110.5776,122.8883
110.5700,122.8500
110.5700,122.1500
110.5776,122.1117
110.5993,122.0793
110.6317,122.0576
110.6700,122.0500
110.9000,122.0500
110.9383,122.0576
110.9707,122.0793
110.9924,122.1117
111.0000,122.1500
111.0000,122.8500
110.9924,122.8883
110.9707,122.9207
110.9383,122.9424
110.9000,122.9500
Z" /> 
<path style="fill:#000000; fill-opacity:1.0000; stroke:none;fill-rule:evenodd;"
d="M 111.1000,122.9500
111.0617,122.9424
111.0293,122.9207
111.0076,122.8883
111.0000,122.8500
111.0000,122.1500
111.0076,122.1117
111.0293,122.0793
111.0617,122.0576
111.1000,122.0500
111.3300,122.0500
111.3683,122.0576
111.4007,122.0793
111.4224,122.1117
111.4300,122.1500
111.4300,122.8500
111.4224,122.8883
111.4007,122.9207
111.3683,122.9424
111.3300,122.9500
Z" /> 
<path style="fill:#000000; fill-opacity:1.0000; stroke:none;fill-rule:evenodd;"
d="M 111.5300,122.9500
111.4917,122.9424
111.4593,122.9207
111.4376,122.8883
111.4300,122.8500
111.4300,122.1500
111.4376,122.1117
111.4593,122.0793
111.4917,122.0576
111.5300,122.0500
111.7600,122.0500
111.7983,122.0576
111.8307,122.0793
111.8524,122.1117
111.8600,122.1500
111.8600,122.8500
111.8524,122.8883
111.8307,122.9207
111.7983,122.9424
111.7600,122.9500
Z" /> 
<path style="fill:#000000; fill-opacity:1.0000; stroke:none;fill-rule:evenodd;"
d="M 111.9600,122.9500
111.9217,122.9424
111.8893,122.9207
111.8676,122.8883
111.8600,122.8500
111.8600,122.1500
111.8676,122.1117
111.8893,122.0793
111.9217,122.0576
111.9600,122.0500
112.1900,122.0500
112.2283,122.0576
112.2607,122.0793
112.2824,122.1117
112.2900,122.1500
112.2900,122.8500
112.2824,122.8883
112.2607,122.9207
112.2283,122.9424
112.1900,122.9500
Z" /> 
<path style="fill:#000000; fill-opacity:1.0000; stroke:none;fill-rule:evenodd;"
d="M 112.3900,122.9500
112.3517,122.9424
112.3193,122.9207
112.2976,122.8883
112.2900,122.8500
112.2900,122.1500
112.2976,122.1117
112.3193,122.0793
112.3517,122.0576
112.3900,122.0500
112.6200,122.0500
112.6583,122.0576
112.6907,122.0793
112.7124,122.1117
112.7200,122.1500
112.7200,122.8500
112.7124,122.8883
112.6907,122.9207
112.6583,122.9424
112.6200,122.9500
Z" /> 
<path style="fill:#000000; fill-opacity:1.0000; stroke:none;fill-rule:evenodd;"
d="M 113.2000,121.7600
113.1924,121.7983
113.1707,121.8307
113.1383,121.8524
113.1000,121.8600
112.4000,121.8600
112.3617,121.8524
112.3293,121.8307
112.3076,121.7983
112.3000,121.7600
112.3000,121.5300
112.3076,121.4917
112.3293,121.4593
112.3617,121.4376
112.4000,121.4300
113.1000,121.4300
113.1383,121.4376
113.1707,121.4593
113.1924,121.4917
113.2000,121.5300
Z" /> 
<path style="fill:#000000; fill-opacity:1.0000; stroke:none;fill-rule:evenodd;"
d="M 113.2000,121.3300
113.1924,121.3683
113.1707,121.4007
113.1383,121.4224
113.1000,121.4300
112.4000,121.4300
112.3617,121.4224
112.3293,121.4007
112.3076,121.3683
112.3000,121.3300
112.3000,121.1000
112.3076,121.0617
112.3293,121.0293
112.3617,121.0076
112.4000,121.0000
113.1000,121.0000
113.1383,121.0076
113.1707,121.0293
113.1924,121.0617
113.2000,121.1000
Z" /> 
<path style="fill:#000000; fill-opacity:1.0000; stroke:none;fill-rule:evenodd;"
d="M 113.2000,120.9000
113.1924,120.9383
113.1707,120.9707
113.1383,120.9924
113.1000,121.0000
112.4000,121.0000
112.3617,120.9924
112.3293,120.9707
112.3076,120.9383
112.3000,120.9000
112.3000,120.6700
112.3076,120.6317
112.3293,120.5993
112.3617,120.5776
112.4000,120.5700
113.1000,120.5700
113.1383,120.5776
113.1707,120.5993
113.1924,120.6317
113.2000,120.6700
Z" /> 
<path style="fill:#000000; fill-opacity:1.0000; stroke:none;fill-rule:evenodd;"
d="M 113.2000,120.4700
113.1924,120.5083
113.1707,120.5407
113.1383,120.5624
113.1000,120.5700
112.4000,120.5700
112.3617,120.5624
112.3293,120.5407
112.3076,120.5083
112.3000,120.4700
112.3000,120.2400
112.3076,120.2017
112.3293,120.1693
112.3617,120.1476
112.4000,120.1400
113.1000,120.1400
113.1383,120.1476
113.1707,120.1693
113.1924,120.2017
113.2000,120.2400
Z" /> 
<path style="fill:#000000; fill-opacity:1.0000; stroke:none;fill-rule:evenodd;"
d="M 112.6200,119.0500
112.6583,119.0576
112.6907,119.0793
112.7124,119.1117
112.7200,119.1500
112.7200,119.8500
112.7124,119.8883
112.6907,119.9207
112.6583,119.9424
112.6200,119.9500
112.3900,119.9500
112.3517,119.9424
112.3193,119.9207
112.2976,119.8883
112.2900,119.8500
112.2900,119.1500
112.2976,119.1117
112.3193,119.0793
112.3517,119.0576
112.3900,119.0500
Z" /> 
<path style="fill:#000000; fill-opacity:1.0000; stroke:none;fill-rule:evenodd;"
d="M 112.1900,119.0500
112.2283,119.0576
112.2607,119.0793
112.2824,119.1117
112.2900,119.1500
112.2900,119.8500
112.2824,119.8883
112.2607,119.9207
112.2283,119.9424
112.1900,119.9500
111.9600,119.9500
111.9217,119.9424
111.8893,119.9207
111.8676,119.8883
111.8600,119.8500
111.8600,119.1500
111.8676,119.1117
111.8893,119.0793
111.9217,119.0576
111.9600,119.0500
Z" /> 
<path style="fill:#000000; fill-opacity:1.0000; stroke:none;fill-rule:evenodd;"
d="M 111.7600,119.0500
111.7983,119.0576
111.8307,119.0793
111.8524,119.1117
111.8600,119.1500
111.8600,119.8500
111.8524,119.8883
111.8307,119.9207
111.7983,119.9424
111.7600,119.9500
111.5300,119.9500
111.4917,119.9424
111.4593,119.9207
111.4376,119.8883
111.4300,119.8500
111.4300,119.1500
111.4376,119.1117
111.4593,119.0793
111.4917,119.0576
111.5300,119.0500
Z" /> 
<path style="fill:#000000; fill-opacity:1.0000; stroke:none;fill-rule:evenodd;"
d="M 111.3300,119.0500
111.3683,119.0576
111.4007,119.0793
111.4224,119.1117
111.4300,119.1500
111.4300,119.8500
111.4224,119.8883
111.4007,119.9207
111.3683,119.9424
111.3300,119.9500
111.1000,119.9500
111.0617,119.9424
111.0293,119.9207
111.0076,119.8883
111.0000,119.8500
111.0000,119.1500
111.0076,119.1117
111.0293,119.0793
111.0617,119.0576
111.1000,119.0500
Z" /> 
<path style="fill:#000000; fill-opacity:1.0000; stroke:none;fill-rule:evenodd;"
d="M 110.9000,119.0500
110.9383,119.0576
110.9707,119.0793
110.9924,119.1117
111.0000,119.1500
111.0000,119.8500
110.9924,119.8883
110.9707,119.9207
110.9383,119.9424
110.9000,119.9500
110.6700,119.9500
110.6317,119.9424
110.5993,119.9207
110.5776,119.8883
110.5700,119.8500
110.5700,119.1500
110.5776,119.1117
110.5993,119.0793
110.6317,119.0576
110.6700,119.0500
Z" /> 
<path style="fill:#000000; fill-opacity:1.0000; stroke:none;fill-rule:evenodd;"
d="M 110.4700,119.0500
110.5083,119.0576
110.5407,119.0793
110.5624,119.1117
110.5700,119.1500
110.5700,119.8500
110.5624,119.8883
110.5407,119.9207
110.5083,119.9424
110.4700,119.9500
110.2400,119.9500
110.2017,119.9424
110.1693,119.9207
110.1476,119.8883
110.1400,119.8500
110.1400,119.1500
110.1476,119.1117
110.1693,119.0793
110.2017,119.0576
110.2400,119.0500
Z" /> 
<path style="fill:#000000; fill-opacity:1.0000; stroke:none;fill-rule:evenodd;"
d="M 110.0400,119.0500
110.0783,119.0576
110.1107,119.0793
110.1324,119.1117
110.1400,119.1500
110.1400,119.8500
110.1324,119.8883
110.1107,119.9207
110.0783,119.9424
110.0400,119.9500
109.8100,119.9500
109.7717,119.9424
109.7393,119.9207
109.7176,119.8883
109.7100,119.8500
109.7100,119.1500
109.7176,119.1117
109.7393,119.0793
109.7717,119.0576
109.8100,119.0500
Z" /> 
<path style="fill:#000000; fill-opacity:1.0000; stroke:none;fill-rule:evenodd;"
d="M 117.6000,107.9950
117.5924,108.0333
117.5707,108.0657
117.5383,108.0874
117.5000,108.0950
116.5000,108.0950
116.4617,108.0874
116.4293,108.0657
116.4076,108.0333
116.4000,107.9950
116.4000,107.3550
116.4076,107.3167
116.4293,107.2843
116.4617,107.2626
116.5000,107.2550
117.5000,107.2550
117.5383,107.2626
117.5707,107.2843
117.5924,107.3167
117.6000,107.3550
Z" /> 
<path style="fill:#000000; fill-opacity:1.0000; stroke:none;fill-rule:evenodd;"
d="M 117.6000,106.4450
117.5924,106.4833
117.5707,106.5157
117.5383,106.5374
117.5000,106.5450
116.5000,106.5450
116.4617,106.5374
116.4293,106.5157
116.4076,106.4833
116.4000,106.4450
116.4000,105.8050
116.4076,105.7667
116.4293,105.7343
116.4617,105.7126
116.5000,105.7050
117.5000,105.7050
117.5383,105.7126
117.5707,105.7343
117.5924,105.7667
117.6000,105.8050
Z" /> 
</g>
<g style="fill:#000000; fill-opacity:1.0000; stroke:none;">
<circle cx="103.0000" cy="105.0000" r="1.6000" /> 
<path style="fill:#000000; fill-opacity:1.0000; stroke:none;fill-rule:evenodd;"
d="M 121.4100,135.2500
121.4024,135.2883
121.3807,135.3207
121.3483,135.3424
121.3100,135.3500
120.6500,135.3500
120.6117,135.3424
120.5793,135.3207
120.5576,135.2883
120.5500,135.2500
120.5500,134.2500
120.5576,134.2117
120.5793,134.1793
120.6117,134.1576
120.6500,134.1500
121.3100,134.1500
121.3483,134.1576
121.3807,134.1793
121.4024,134.2117
121.4100,134.2500
Z" /> 
<path style="fill:#000000; fill-opacity:1.0000; stroke:none;fill-rule:evenodd;"
d="M 119.9500,135.2500
119.9424,135.2883
119.9207,135.3207
119.8883,135.3424
119.8500,135.3500
119.1900,135.3500
119.1517,135.3424
119.1193,135.3207
119.0976,135.2883
119.0900,135.2500
119.0900,134.2500
119.0976,134.2117
119.1193,134.1793
119.1517,134.1576
119.1900,134.1500
119.8500,134.1500
119.8883,134.1576
119.9207,134.1793
119.9424,134.2117
119.9500,134.2500
Z" /> 
</g>
<g style="fill:#000000; fill-opacity:1.0000; stroke:none;">
<circle cx="103.0000" cy="137.0000" r="1.6000" /> 
</g>
<g style="fill:#000000; fill-opacity:1.0000; stroke:none;">
<circle cx="120.5000" cy="124.8100" r="0.9500" /> 
</g>
<g style="fill:#000000; fill-opacity:1.0000; stroke:none;">
<circle cx="120.5000" cy="122.2700" r="0.9500" /> 
</g>
<g style="fill:#000000; fill-opacity:1.0000; stroke:none;">
<circle cx="120.5000" cy="119.7300" r="0.9500" /> 
</g>
<g style="fill:#000000; fill-opacity:1.0000; stroke:none;">
<circle cx="120.5000" cy="117.1900" r="0.9500" /> 
</g>
<g style="fill:#000000; fill-opacity:1.0000; stroke:none;">
<circle cx="101.5000" cy="110.8400" r="0.9500" /> 
</g>
<g style="fill:#000000; fill-opacity:1.0000; stroke:none;">
<circle cx="101.5000" cy="113.3800" r="0.9500" /> 
</g>
<g style="fill:#000000; fill-opacity:1.0000; stroke:none;">
<circle cx="101.5000" cy="115.9200" r="0.9500" /> 
</g>
<g style="fill:#000000; fill-opacity:1.0000; stroke:none;">
<circle cx="101.5000" cy="118.4600" r="0.9500" /> 
</g>
<g style="fill:#000000; fill-opacity:1.0000; stroke:none;">
<circle cx="101.5000" cy="121.0000" r="0.9500" /> 
</g>
<g style="fill:#000000; fill-opacity:1.0000; stroke:none;">
<circle cx="101.5000" cy="123.5400" r="0.9500" /> 
</g>
<g style="fill:#000000; fill-opacity:1.0000; stroke:none;">
<circle cx="101.5000" cy="126.0800" r="0.9500" /> 
</g>
<g style="fill:#000000; fill-opacity:1.0000; stroke:none;">
<circle cx="101.5000" cy="128.6200" r="0.9500" /> 
</g>
<g style="fill:#000000; fill-opacity:1.0000; stroke:none;">
<circle cx="101.5000" cy="131.1600" r="0.9500" /> 
</g>
<g style="fill:#FFFFFF; fill-opacity:1.0000; stroke:none;">
<circle cx="103.0000" cy="105.0000" r="1.6000" /> 
</g>
<g style="fill:#FFFFFF; fill-opacity:1.0000; stroke:none;">
<circle cx="103.0000" cy="137.0000" r="1.6000" /> 
</g>
<g style="fill:#FFFFFF; fill-opacity:1.0000; stroke:none;">
<circle cx="120.5000" cy="124.8100" r="0.5000" /> 
</g>
<g style="fill:#FFFFFF; fill-opacity:1.0000; stroke:none;">
<circle cx="120.5000" cy="122.2700" r="0.5000" /> 
</g>
<g style="fill:#FFFFFF; fill-opacity:1.0000; stroke:none;">
<circle cx="120.5000" cy="119.7300" r="0.5000" /> 
</g>
<g style="fill:#FFFFFF; fill-opacity:1.0000; stroke:none;">
<circle cx="120.5000" cy="117.1900" r="0.5000" /> 
</g>
<g style="fill:#FFFFFF; fill-opacity:1.0000; stroke:none;">
<circle cx="101.5000" cy="110.8400" r="0.5000" /> 
</g>
<g style="fill:#FFFFFF; fill-opacity:1.0000; stroke:none;">
<circle cx="101.5000" cy="113.3800" r="0.5000" /> 
</g>
<g style="fill:#FFFFFF; fill-opacity:1.0000; stroke:none;">
<circle cx="101.5000" cy="115.9200" r="0.5000" /> 
</g>
<g style="fill:#FFFFFF; fill-opacity:1.0000; stroke:none;">
<circle cx="101.5000" cy="118.4600" r="0.5000" /> 
</g>
<g style="fill:#FFFFFF; fill-opacity:1.0000; stroke:none;">
<circle cx="101.5000" cy="121.0000" r="0.5000" /> 
</g>
<g style="fill:#FFFFFF; fill-opacity:1.0000; stroke:none;">
<circle cx="101.5000" cy="123.5400" r="0.5000" /> 
</g>
<g style="fill:#FFFFFF; fill-opacity:1.0000; stroke:none;">
<circle cx="101.5000" cy="126.0800" r="0.5000" /> 
</g>
<g style="fill:#FFFFFF; fill-opacity:1.0000; stroke:none;">
<circle cx="101.5000" cy="128.6200" r="0.5000" /> 
</g>
<g style="fill:#FFFFFF; fill-opacity:1.0000; stroke:none;">
<circle cx="101.5000" cy="131.1600" r="0.5000" /> 
</g> 
</svg>
