<?xml version="1.0" standalone="no"?>
 <!DOCTYPE svg PUBLIC "-//W3C//DTD SVG 1.1//EN" 
 "http://www.w3.org/Graphics/SVG/1.1/DTD/svg11.dtd"> 
<svg
  xmlns:svg="http://www.w3.org/2000/svg"
  xmlns="http://www.w3.org/2000/svg"
  xmlns:xlink="http://www.w3.org/1999/xlink"
  version="1.1"
  width="297.0022mm" height="210.0072mm" viewBox="0.0000 0.0000 297.0022 210.0072">
<title>SVG Image created as Capacitive_soil_sensor-F_Mask.svg date 2025/07/25 16:29:54 </title>
  <desc>Image generated by PCBNEW </desc>
<g style="fill:#000000; fill-opacity:1.0000;stroke:#000000; stroke-opacity:1.0000;
stroke-linecap:round; stroke-linejoin:round;"
 transform="translate(0 0) scale(1 1)">
<path style="fill:#000000; fill-opacity:1.0000; stroke:none;fill-rule:evenodd;"
d="M 88.6175,63.9000
88.5792,63.8924
88.5468,63.8707
88.5251,63.8383
88.5175,63.8000
88.5175,62.8000
88.5251,62.7617
88.5468,62.7293
88.5792,62.7076
88.6175,62.7000
89.2575,62.7000
89.2958,62.7076
89.3282,62.7293
89.3499,62.7617
89.3575,62.8000
89.3575,63.8000
89.3499,63.8383
89.3282,63.8707
89.2958,63.8924
89.2575,63.9000
Z" /> 
<path style="fill:#000000; fill-opacity:1.0000; stroke:none;fill-rule:evenodd;"
d="M 90.1675,63.9000
90.1292,63.8924
90.0968,63.8707
90.0751,63.8383
90.0675,63.8000
90.0675,62.8000
90.0751,62.7617
90.0968,62.7293
90.1292,62.7076
90.1675,62.7000
90.8075,62.7000
90.8458,62.7076
90.8782,62.7293
90.8999,62.7617
90.9075,62.8000
90.9075,63.8000
90.8999,63.8383
90.8782,63.8707
90.8458,63.8924
90.8075,63.9000
Z" /> 
<path style="fill:#000000; fill-opacity:1.0000; stroke:none;fill-rule:evenodd;"
d="M 89.4400,66.6000
89.4476,66.5617
89.4693,66.5293
89.5017,66.5076
89.5400,66.5000
90.2000,66.5000
90.2383,66.5076
90.2707,66.5293
90.2924,66.5617
90.3000,66.6000
90.3000,67.6000
90.2924,67.6383
90.2707,67.6707
90.2383,67.6924
90.2000,67.7000
89.5400,67.7000
89.5017,67.6924
89.4693,67.6707
89.4476,67.6383
89.4400,67.6000
Z" /> 
<path style="fill:#000000; fill-opacity:1.0000; stroke:none;fill-rule:evenodd;"
d="M 90.9000,66.6000
90.9076,66.5617
90.9293,66.5293
90.9617,66.5076
91.0000,66.5000
91.6600,66.5000
91.6983,66.5076
91.7307,66.5293
91.7524,66.5617
91.7600,66.6000
91.7600,67.6000
91.7524,67.6383
91.7307,67.6707
91.6983,67.6924
91.6600,67.7000
91.0000,67.7000
90.9617,67.6924
90.9293,67.6707
90.9076,67.6383
90.9000,67.6000
Z" /> 
<path style="fill:#000000; fill-opacity:1.0000; stroke:none;fill-rule:evenodd;"
d="M 89.9000,74.6000
89.9076,74.5617
89.9293,74.5293
89.9617,74.5076
90.0000,74.5000
90.5000,74.5000
90.5383,74.5076
90.5707,74.5293
90.5924,74.5617
90.6000,74.6000
90.6000,75.6000
90.5924,75.6383
90.5707,75.6707
90.5383,75.6924
90.5000,75.7000
90.0000,75.7000
89.9617,75.6924
89.9293,75.6707
89.9076,75.6383
89.9000,75.6000
Z" /> 
<path style="fill:#000000; fill-opacity:1.0000; stroke:none;fill-rule:evenodd;"
d="M 90.6000,74.6000
90.6076,74.5617
90.6293,74.5293
90.6617,74.5076
90.7000,74.5000
91.2000,74.5000
91.2383,74.5076
91.2707,74.5293
91.2924,74.5617
91.3000,74.6000
91.3000,75.6000
91.2924,75.6383
91.2707,75.6707
91.2383,75.6924
91.2000,75.7000
90.7000,75.7000
90.6617,75.6924
90.6293,75.6707
90.6076,75.6383
90.6000,75.6000
Z" /> 
<path style="fill:#000000; fill-opacity:1.0000; stroke:none;fill-rule:evenodd;"
d="M 104.8000,59.8050
104.8383,59.8126
104.8707,59.8343
104.8924,59.8667
104.9000,59.9050
104.9000,60.5650
104.8924,60.6033
104.8707,60.6357
104.8383,60.6574
104.8000,60.6650
103.8000,60.6650
103.7617,60.6574
103.7293,60.6357
103.7076,60.6033
103.7000,60.5650
103.7000,59.9050
103.7076,59.8667
103.7293,59.8343
103.7617,59.8126
103.8000,59.8050
Z" /> 
<path style="fill:#000000; fill-opacity:1.0000; stroke:none;fill-rule:evenodd;"
d="M 104.8000,61.2650
104.8383,61.2726
104.8707,61.2943
104.8924,61.3267
104.9000,61.3650
104.9000,62.0250
104.8924,62.0633
104.8707,62.0957
104.8383,62.1174
104.8000,62.1250
103.8000,62.1250
103.7617,62.1174
103.7293,62.0957
103.7076,62.0633
103.7000,62.0250
103.7000,61.3650
103.7076,61.3267
103.7293,61.2943
103.7617,61.2726
103.8000,61.2650
Z" /> 
<path style="fill:#000000; fill-opacity:1.0000; stroke:none;fill-rule:evenodd;"
d="M 92.9000,63.2900
92.8924,63.3283
92.8707,63.3607
92.8383,63.3824
92.8000,63.3900
91.8000,63.3900
91.7617,63.3824
91.7293,63.3607
91.7076,63.3283
91.7000,63.2900
91.7000,62.6500
91.7076,62.6117
91.7293,62.5793
91.7617,62.5576
91.8000,62.5500
92.8000,62.5500
92.8383,62.5576
92.8707,62.5793
92.8924,62.6117
92.9000,62.6500
Z" /> 
<path style="fill:#000000; fill-opacity:1.0000; stroke:none;fill-rule:evenodd;"
d="M 92.9000,61.7400
92.8924,61.7783
92.8707,61.8107
92.8383,61.8324
92.8000,61.8400
91.8000,61.8400
91.7617,61.8324
91.7293,61.8107
91.7076,61.7783
91.7000,61.7400
91.7000,61.1000
91.7076,61.0617
91.7293,61.0293
91.7617,61.0076
91.8000,61.0000
92.8000,61.0000
92.8383,61.0076
92.8707,61.0293
92.8924,61.0617
92.9000,61.1000
Z" /> 
</g>
<g style="fill:#000000; fill-opacity:1.0000; stroke:none;">
<circle cx="88.7750" cy="56.7750" r="1.6000" /> 
<path style="fill:#000000; fill-opacity:1.0000; stroke:none;fill-rule:evenodd;"
d="M 103.2950,76.9000
103.3333,76.9076
103.3657,76.9293
103.3874,76.9617
103.3950,77.0000
103.3950,78.0000
103.3874,78.0383
103.3657,78.0707
103.3333,78.0924
103.2950,78.1000
102.6550,78.1000
102.6167,78.0924
102.5843,78.0707
102.5626,78.0383
102.5550,78.0000
102.5550,77.0000
102.5626,76.9617
102.5843,76.9293
102.6167,76.9076
102.6550,76.9000
Z" /> 
<path style="fill:#000000; fill-opacity:1.0000; stroke:none;fill-rule:evenodd;"
d="M 101.7450,76.9000
101.7833,76.9076
101.8157,76.9293
101.8374,76.9617
101.8450,77.0000
101.8450,78.0000
101.8374,78.0383
101.8157,78.0707
101.7833,78.0924
101.7450,78.1000
101.1050,78.1000
101.0667,78.0924
101.0343,78.0707
101.0126,78.0383
101.0050,78.0000
101.0050,77.0000
101.0126,76.9617
101.0343,76.9293
101.0667,76.9076
101.1050,76.9000
Z" /> 
<path style="fill:#000000; fill-opacity:1.0000; stroke:none;fill-rule:evenodd;"
d="M 91.5000,65.0000
91.5076,64.9617
91.5293,64.9293
91.5617,64.9076
91.6000,64.9000
92.1000,64.9000
92.1383,64.9076
92.1707,64.9293
92.1924,64.9617
92.2000,65.0000
92.2000,66.0000
92.1924,66.0383
92.1707,66.0707
92.1383,66.0924
92.1000,66.1000
91.6000,66.1000
91.5617,66.0924
91.5293,66.0707
91.5076,66.0383
91.5000,66.0000
Z" /> 
<path style="fill:#000000; fill-opacity:1.0000; stroke:none;fill-rule:evenodd;"
d="M 92.2000,65.0000
92.2076,64.9617
92.2293,64.9293
92.2617,64.9076
92.3000,64.9000
92.8000,64.9000
92.8383,64.9076
92.8707,64.9293
92.8924,64.9617
92.9000,65.0000
92.9000,66.0000
92.8924,66.0383
92.8707,66.0707
92.8383,66.0924
92.8000,66.1000
92.3000,66.1000
92.2617,66.0924
92.2293,66.0707
92.2076,66.0383
92.2000,66.0000
Z" /> 
<path style="fill:#000000; fill-opacity:1.0000; stroke:none;fill-rule:evenodd;"
d="M 101.3100,74.2700
101.3024,74.3083
101.2807,74.3407
101.2483,74.3624
101.2100,74.3700
100.5500,74.3700
100.5117,74.3624
100.4793,74.3407
100.4576,74.3083
100.4500,74.2700
100.4500,73.2700
100.4576,73.2317
100.4793,73.1993
100.5117,73.1776
100.5500,73.1700
101.2100,73.1700
101.2483,73.1776
101.2807,73.1993
101.3024,73.2317
101.3100,73.2700
Z" /> 
<path style="fill:#000000; fill-opacity:1.0000; stroke:none;fill-rule:evenodd;"
d="M 99.8500,74.2700
99.8424,74.3083
99.8207,74.3407
99.7883,74.3624
99.7500,74.3700
99.0900,74.3700
99.0517,74.3624
99.0193,74.3407
98.9976,74.3083
98.9900,74.2700
98.9900,73.2700
98.9976,73.2317
99.0193,73.1993
99.0517,73.1776
99.0900,73.1700
99.7500,73.1700
99.7883,73.1776
99.8207,73.1993
99.8424,73.2317
99.8500,73.2700
Z" /> 
<path style="fill:#000000; fill-opacity:1.0000; stroke:none;fill-rule:evenodd;"
d="M 99.4050,65.6250
99.4433,65.6326
99.4757,65.6543
99.4974,65.6867
99.5050,65.7250
99.5050,67.2750
99.4974,67.3133
99.4757,67.3457
99.4433,67.3674
99.4050,67.3750
98.8050,67.3750
98.7667,67.3674
98.7343,67.3457
98.7126,67.3133
98.7050,67.2750
98.7050,65.7250
98.7126,65.6867
98.7343,65.6543
98.7667,65.6326
98.8050,65.6250
Z" /> 
<path style="fill:#000000; fill-opacity:1.0000; stroke:none;fill-rule:evenodd;"
d="M 98.1350,65.6250
98.1733,65.6326
98.2057,65.6543
98.2274,65.6867
98.2350,65.7250
98.2350,67.2750
98.2274,67.3133
98.2057,67.3457
98.1733,67.3674
98.1350,67.3750
97.5350,67.3750
97.4967,67.3674
97.4643,67.3457
97.4426,67.3133
97.4350,67.2750
97.4350,65.7250
97.4426,65.6867
97.4643,65.6543
97.4967,65.6326
97.5350,65.6250
Z" /> 
<path style="fill:#000000; fill-opacity:1.0000; stroke:none;fill-rule:evenodd;"
d="M 96.8650,65.6250
96.9033,65.6326
96.9357,65.6543
96.9574,65.6867
96.9650,65.7250
96.9650,67.2750
96.9574,67.3133
96.9357,67.3457
96.9033,67.3674
96.8650,67.3750
96.2650,67.3750
96.2267,67.3674
96.1943,67.3457
96.1726,67.3133
96.1650,67.2750
96.1650,65.7250
96.1726,65.6867
96.1943,65.6543
96.2267,65.6326
96.2650,65.6250
Z" /> 
<path style="fill:#000000; fill-opacity:1.0000; stroke:none;fill-rule:evenodd;"
d="M 95.5950,65.6250
95.6333,65.6326
95.6657,65.6543
95.6874,65.6867
95.6950,65.7250
95.6950,67.2750
95.6874,67.3133
95.6657,67.3457
95.6333,67.3674
95.5950,67.3750
94.9950,67.3750
94.9567,67.3674
94.9243,67.3457
94.9026,67.3133
94.8950,67.2750
94.8950,65.7250
94.9026,65.6867
94.9243,65.6543
94.9567,65.6326
94.9950,65.6250
Z" /> 
<path style="fill:#000000; fill-opacity:1.0000; stroke:none;fill-rule:evenodd;"
d="M 95.5950,70.8250
95.6333,70.8326
95.6657,70.8543
95.6874,70.8867
95.6950,70.9250
95.6950,72.4750
95.6874,72.5133
95.6657,72.5457
95.6333,72.5674
95.5950,72.5750
94.9950,72.5750
94.9567,72.5674
94.9243,72.5457
94.9026,72.5133
94.8950,72.4750
94.8950,70.9250
94.9026,70.8867
94.9243,70.8543
94.9567,70.8326
94.9950,70.8250
Z" /> 
<path style="fill:#000000; fill-opacity:1.0000; stroke:none;fill-rule:evenodd;"
d="M 96.8650,70.8250
96.9033,70.8326
96.9357,70.8543
96.9574,70.8867
96.9650,70.9250
96.9650,72.4750
96.9574,72.5133
96.9357,72.5457
96.9033,72.5674
96.8650,72.5750
96.2650,72.5750
96.2267,72.5674
96.1943,72.5457
96.1726,72.5133
96.1650,72.4750
96.1650,70.9250
96.1726,70.8867
96.1943,70.8543
96.2267,70.8326
96.2650,70.8250
Z" /> 
<path style="fill:#000000; fill-opacity:1.0000; stroke:none;fill-rule:evenodd;"
d="M 98.1350,70.8250
98.1733,70.8326
98.2057,70.8543
98.2274,70.8867
98.2350,70.9250
98.2350,72.4750
98.2274,72.5133
98.2057,72.5457
98.1733,72.5674
98.1350,72.5750
97.5350,72.5750
97.4967,72.5674
97.4643,72.5457
97.4426,72.5133
97.4350,72.4750
97.4350,70.9250
97.4426,70.8867
97.4643,70.8543
97.4967,70.8326
97.5350,70.8250
Z" /> 
<path style="fill:#000000; fill-opacity:1.0000; stroke:none;fill-rule:evenodd;"
d="M 99.4050,70.8250
99.4433,70.8326
99.4757,70.8543
99.4974,70.8867
99.5050,70.9250
99.5050,72.4750
99.4974,72.5133
99.4757,72.5457
99.4433,72.5674
99.4050,72.5750
98.8050,72.5750
98.7667,72.5674
98.7343,72.5457
98.7126,72.5133
98.7050,72.4750
98.7050,70.9250
98.7126,70.8867
98.7343,70.8543
98.7667,70.8326
98.8050,70.8250
Z" /> 
<path style="fill:#000000; fill-opacity:1.0000; stroke:none;fill-rule:evenodd;"
d="M 98.1000,57.0300
98.0617,57.0224
98.0293,57.0007
98.0076,56.9683
98.0000,56.9300
98.0000,56.2700
98.0076,56.2317
98.0293,56.1993
98.0617,56.1776
98.1000,56.1700
99.1000,56.1700
99.1383,56.1776
99.1707,56.1993
99.1924,56.2317
99.2000,56.2700
99.2000,56.9300
99.1924,56.9683
99.1707,57.0007
99.1383,57.0224
99.1000,57.0300
Z" /> 
<path style="fill:#000000; fill-opacity:1.0000; stroke:none;fill-rule:evenodd;"
d="M 98.1000,55.5700
98.0617,55.5624
98.0293,55.5407
98.0076,55.5083
98.0000,55.4700
98.0000,54.8100
98.0076,54.7717
98.0293,54.7393
98.0617,54.7176
98.1000,54.7100
99.1000,54.7100
99.1383,54.7176
99.1707,54.7393
99.1924,54.7717
99.2000,54.8100
99.2000,55.4700
99.1924,55.5083
99.1707,55.5407
99.1383,55.5624
99.1000,55.5700
Z" /> 
<path style="fill:#000000; fill-opacity:1.0000; stroke:none;fill-rule:evenodd;"
d="M 98.7000,83.7532
98.6924,83.7915
98.6707,83.8239
98.6383,83.8456
98.6000,83.8532
97.8000,83.8532
97.7617,83.8456
97.7293,83.8239
97.7076,83.7915
97.7000,83.7532
97.7000,83.2532
97.7076,83.2149
97.7293,83.1825
97.7617,83.1608
97.8000,83.1532
98.6000,83.1532
98.6383,83.1608
98.6707,83.1825
98.6924,83.2149
98.7000,83.2532
Z" /> 
<path style="fill:#000000; fill-opacity:1.0000; stroke:none;fill-rule:evenodd;"
d="M 96.5000,83.7532
96.4924,83.7915
96.4707,83.8239
96.4383,83.8456
96.4000,83.8532
95.6000,83.8532
95.5617,83.8456
95.5293,83.8239
95.5076,83.7915
95.5000,83.7532
95.5000,83.2532
95.5076,83.2149
95.5293,83.1825
95.5617,83.1608
95.6000,83.1532
96.4000,83.1532
96.4383,83.1608
96.4707,83.1825
96.4924,83.2149
96.5000,83.2532
Z" /> 
<path style="fill:#000000; fill-opacity:1.0000; stroke:none;fill-rule:evenodd;"
d="M 104.3000,58.1000
103.1000,58.1000
103.1000,56.9000
104.3000,56.9000
Z" /> 
<path style="fill:#000000; fill-opacity:1.0000; stroke:none;fill-rule:evenodd;"
d="M 101.2000,57.3000
99.7000,57.3000
99.7000,55.7000
101.2000,55.7000
Z" /> 
<path style="fill:#000000; fill-opacity:1.0000; stroke:none;fill-rule:evenodd;"
d="M 104.3000,56.1000
103.1000,56.1000
103.1000,54.9000
104.3000,54.9000
Z" /> 
<path style="fill:#000000; fill-opacity:1.0000; stroke:none;fill-rule:evenodd;"
d="M 98.1950,81.5000
98.2333,81.5076
98.2657,81.5293
98.2874,81.5617
98.2950,81.6000
98.2950,82.6000
98.2874,82.6383
98.2657,82.6707
98.2333,82.6924
98.1950,82.7000
97.5550,82.7000
97.5167,82.6924
97.4843,82.6707
97.4626,82.6383
97.4550,82.6000
97.4550,81.6000
97.4626,81.5617
97.4843,81.5293
97.5167,81.5076
97.5550,81.5000
Z" /> 
<path style="fill:#000000; fill-opacity:1.0000; stroke:none;fill-rule:evenodd;"
d="M 96.6450,81.5000
96.6833,81.5076
96.7157,81.5293
96.7374,81.5617
96.7450,81.6000
96.7450,82.6000
96.7374,82.6383
96.7157,82.6707
96.6833,82.6924
96.6450,82.7000
96.0050,82.7000
95.9667,82.6924
95.9343,82.6707
95.9126,82.6383
95.9050,82.6000
95.9050,81.6000
95.9126,81.5617
95.9343,81.5293
95.9667,81.5076
96.0050,81.5000
Z" /> 
<path style="fill:#000000; fill-opacity:1.0000; stroke:none;fill-rule:evenodd;"
d="M 96.9200,76.8000
96.9583,76.8076
96.9907,76.8293
97.0124,76.8617
97.0200,76.9000
97.0200,77.9000
97.0124,77.9383
96.9907,77.9707
96.9583,77.9924
96.9200,78.0000
96.2800,78.0000
96.2417,77.9924
96.2093,77.9707
96.1876,77.9383
96.1800,77.9000
96.1800,76.9000
96.1876,76.8617
96.2093,76.8293
96.2417,76.8076
96.2800,76.8000
Z" /> 
<path style="fill:#000000; fill-opacity:1.0000; stroke:none;fill-rule:evenodd;"
d="M 95.3700,76.8000
95.4083,76.8076
95.4407,76.8293
95.4624,76.8617
95.4700,76.9000
95.4700,77.9000
95.4624,77.9383
95.4407,77.9707
95.4083,77.9924
95.3700,78.0000
94.7300,78.0000
94.6917,77.9924
94.6593,77.9707
94.6376,77.9383
94.6300,77.9000
94.6300,76.9000
94.6376,76.8617
94.6593,76.8293
94.6917,76.8076
94.7300,76.8000
Z" /> 
<path style="fill:#000000; fill-opacity:1.0000; stroke:none;fill-rule:evenodd;"
d="M 88.6175,61.9600
88.5792,61.9524
88.5468,61.9307
88.5251,61.8983
88.5175,61.8600
88.5175,60.8600
88.5251,60.8217
88.5468,60.7893
88.5792,60.7676
88.6175,60.7600
89.2575,60.7600
89.2958,60.7676
89.3282,60.7893
89.3499,60.8217
89.3575,60.8600
89.3575,61.8600
89.3499,61.8983
89.3282,61.9307
89.2958,61.9524
89.2575,61.9600
Z" /> 
<path style="fill:#000000; fill-opacity:1.0000; stroke:none;fill-rule:evenodd;"
d="M 90.1675,61.9600
90.1292,61.9524
90.0968,61.9307
90.0751,61.8983
90.0675,61.8600
90.0675,60.8600
90.0751,60.8217
90.0968,60.7893
90.1292,60.7676
90.1675,60.7600
90.8075,60.7600
90.8458,60.7676
90.8782,60.7893
90.8999,60.8217
90.9075,60.8600
90.9075,61.8600
90.8999,61.8983
90.8782,61.9307
90.8458,61.9524
90.8075,61.9600
Z" /> 
<path style="fill:#000000; fill-opacity:1.0000; stroke:none;fill-rule:evenodd;"
d="M 93.7000,61.1000
93.7076,61.0617
93.7293,61.0293
93.7617,61.0076
93.8000,61.0000
94.8000,61.0000
94.8383,61.0076
94.8707,61.0293
94.8924,61.0617
94.9000,61.1000
94.9000,61.7400
94.8924,61.7783
94.8707,61.8107
94.8383,61.8324
94.8000,61.8400
93.8000,61.8400
93.7617,61.8324
93.7293,61.8107
93.7076,61.7783
93.7000,61.7400
Z" /> 
<path style="fill:#000000; fill-opacity:1.0000; stroke:none;fill-rule:evenodd;"
d="M 93.7000,62.6500
93.7076,62.6117
93.7293,62.5793
93.7617,62.5576
93.8000,62.5500
94.8000,62.5500
94.8383,62.5576
94.8707,62.5793
94.8924,62.6117
94.9000,62.6500
94.9000,63.2900
94.8924,63.3283
94.8707,63.3607
94.8383,63.3824
94.8000,63.3900
93.8000,63.3900
93.7617,63.3824
93.7293,63.3607
93.7076,63.3283
93.7000,63.2900
Z" /> 
<path style="fill:#000000; fill-opacity:1.0000; stroke:none;fill-rule:evenodd;"
d="M 89.4400,72.6000
89.4476,72.5617
89.4693,72.5293
89.5017,72.5076
89.5400,72.5000
90.2000,72.5000
90.2383,72.5076
90.2707,72.5293
90.2924,72.5617
90.3000,72.6000
90.3000,73.6000
90.2924,73.6383
90.2707,73.6707
90.2383,73.6924
90.2000,73.7000
89.5400,73.7000
89.5017,73.6924
89.4693,73.6707
89.4476,73.6383
89.4400,73.6000
Z" /> 
<path style="fill:#000000; fill-opacity:1.0000; stroke:none;fill-rule:evenodd;"
d="M 90.9000,72.6000
90.9076,72.5617
90.9293,72.5293
90.9617,72.5076
91.0000,72.5000
91.6600,72.5000
91.6983,72.5076
91.7307,72.5293
91.7524,72.5617
91.7600,72.6000
91.7600,73.6000
91.7524,73.6383
91.7307,73.6707
91.6983,73.6924
91.6600,73.7000
91.0000,73.7000
90.9617,73.6924
90.9293,73.6707
90.9076,73.6383
90.9000,73.6000
Z" /> 
<path style="fill:#000000; fill-opacity:1.0000; stroke:none;fill-rule:evenodd;"
d="M 91.8500,68.1500
91.8883,68.1576
91.9207,68.1793
91.9424,68.2117
91.9500,68.2500
91.9500,69.3500
91.9424,69.3883
91.9207,69.4207
91.8883,69.4424
91.8500,69.4500
91.2500,69.4500
91.2117,69.4424
91.1793,69.4207
91.1576,69.3883
91.1500,69.3500
91.1500,68.2500
91.1576,68.2117
91.1793,68.1793
91.2117,68.1576
91.2500,68.1500
Z" /> 
<path style="fill:#000000; fill-opacity:1.0000; stroke:none;fill-rule:evenodd;"
d="M 90.9000,68.1500
90.9383,68.1576
90.9707,68.1793
90.9924,68.2117
91.0000,68.2500
91.0000,69.3500
90.9924,69.3883
90.9707,69.4207
90.9383,69.4424
90.9000,69.4500
90.3000,69.4500
90.2617,69.4424
90.2293,69.4207
90.2076,69.3883
90.2000,69.3500
90.2000,68.2500
90.2076,68.2117
90.2293,68.1793
90.2617,68.1576
90.3000,68.1500
Z" /> 
<path style="fill:#000000; fill-opacity:1.0000; stroke:none;fill-rule:evenodd;"
d="M 89.9500,68.1500
89.9883,68.1576
90.0207,68.1793
90.0424,68.2117
90.0500,68.2500
90.0500,69.3500
90.0424,69.3883
90.0207,69.4207
89.9883,69.4424
89.9500,69.4500
89.3500,69.4500
89.3117,69.4424
89.2793,69.4207
89.2576,69.3883
89.2500,69.3500
89.2500,68.2500
89.2576,68.2117
89.2793,68.1793
89.3117,68.1576
89.3500,68.1500
Z" /> 
<path style="fill:#000000; fill-opacity:1.0000; stroke:none;fill-rule:evenodd;"
d="M 89.9500,70.7500
89.9883,70.7576
90.0207,70.7793
90.0424,70.8117
90.0500,70.8500
90.0500,71.9500
90.0424,71.9883
90.0207,72.0207
89.9883,72.0424
89.9500,72.0500
89.3500,72.0500
89.3117,72.0424
89.2793,72.0207
89.2576,71.9883
89.2500,71.9500
89.2500,70.8500
89.2576,70.8117
89.2793,70.7793
89.3117,70.7576
89.3500,70.7500
Z" /> 
<path style="fill:#000000; fill-opacity:1.0000; stroke:none;fill-rule:evenodd;"
d="M 91.8500,70.7500
91.8883,70.7576
91.9207,70.7793
91.9424,70.8117
91.9500,70.8500
91.9500,71.9500
91.9424,71.9883
91.9207,72.0207
91.8883,72.0424
91.8500,72.0500
91.2500,72.0500
91.2117,72.0424
91.1793,72.0207
91.1576,71.9883
91.1500,71.9500
91.1500,70.8500
91.1576,70.8117
91.1793,70.7793
91.2117,70.7576
91.2500,70.7500
Z" /> 
<path style="fill:#000000; fill-opacity:1.0000; stroke:none;fill-rule:evenodd;"
d="M 96.9300,59.2950
96.8917,59.2874
96.8593,59.2657
96.8376,59.2333
96.8300,59.1950
96.8300,58.1950
96.8376,58.1567
96.8593,58.1243
96.8917,58.1026
96.9300,58.0950
97.5700,58.0950
97.6083,58.1026
97.6407,58.1243
97.6624,58.1567
97.6700,58.1950
97.6700,59.1950
97.6624,59.2333
97.6407,59.2657
97.6083,59.2874
97.5700,59.2950
Z" /> 
<path style="fill:#000000; fill-opacity:1.0000; stroke:none;fill-rule:evenodd;"
d="M 98.4800,59.2950
98.4417,59.2874
98.4093,59.2657
98.3876,59.2333
98.3800,59.1950
98.3800,58.1950
98.3876,58.1567
98.4093,58.1243
98.4417,58.1026
98.4800,58.0950
99.1200,58.0950
99.1583,58.1026
99.1907,58.1243
99.2124,58.1567
99.2200,58.1950
99.2200,59.1950
99.2124,59.2333
99.1907,59.2657
99.1583,59.2874
99.1200,59.2950
Z" /> 
<path style="fill:#000000; fill-opacity:1.0000; stroke:none;fill-rule:evenodd;"
d="M 103.8600,69.6000
103.8524,69.6383
103.8307,69.6707
103.7983,69.6924
103.7600,69.7000
103.1000,69.7000
103.0617,69.6924
103.0293,69.6707
103.0076,69.6383
103.0000,69.6000
103.0000,68.6000
103.0076,68.5617
103.0293,68.5293
103.0617,68.5076
103.1000,68.5000
103.7600,68.5000
103.7983,68.5076
103.8307,68.5293
103.8524,68.5617
103.8600,68.6000
Z" /> 
<path style="fill:#000000; fill-opacity:1.0000; stroke:none;fill-rule:evenodd;"
d="M 102.4000,69.6000
102.3924,69.6383
102.3707,69.6707
102.3383,69.6924
102.3000,69.7000
101.6400,69.7000
101.6017,69.6924
101.5693,69.6707
101.5476,69.6383
101.5400,69.6000
101.5400,68.6000
101.5476,68.5617
101.5693,68.5293
101.6017,68.5076
101.6400,68.5000
102.3000,68.5000
102.3383,68.5076
102.3707,68.5293
102.3924,68.5617
102.4000,68.6000
Z" /> 
<path style="fill:#000000; fill-opacity:1.0000; stroke:none;fill-rule:evenodd;"
d="M 95.7750,59.9900
95.7826,59.9517
95.8043,59.9193
95.8367,59.8976
95.8750,59.8900
97.5250,59.8900
97.5633,59.8976
97.5957,59.9193
97.6174,59.9517
97.6250,59.9900
97.6250,60.5900
97.6174,60.6283
97.5957,60.6607
97.5633,60.6824
97.5250,60.6900
95.8750,60.6900
95.8367,60.6824
95.8043,60.6607
95.7826,60.6283
95.7750,60.5900
Z" /> 
<path style="fill:#000000; fill-opacity:1.0000; stroke:none;fill-rule:evenodd;"
d="M 95.7750,61.2600
95.7826,61.2217
95.8043,61.1893
95.8367,61.1676
95.8750,61.1600
97.5250,61.1600
97.5633,61.1676
97.5957,61.1893
97.6174,61.2217
97.6250,61.2600
97.6250,61.8600
97.6174,61.8983
97.5957,61.9307
97.5633,61.9524
97.5250,61.9600
95.8750,61.9600
95.8367,61.9524
95.8043,61.9307
95.7826,61.8983
95.7750,61.8600
Z" /> 
<path style="fill:#000000; fill-opacity:1.0000; stroke:none;fill-rule:evenodd;"
d="M 95.7750,62.5300
95.7826,62.4917
95.8043,62.4593
95.8367,62.4376
95.8750,62.4300
97.5250,62.4300
97.5633,62.4376
97.5957,62.4593
97.6174,62.4917
97.6250,62.5300
97.6250,63.1300
97.6174,63.1683
97.5957,63.2007
97.5633,63.2224
97.5250,63.2300
95.8750,63.2300
95.8367,63.2224
95.8043,63.2007
95.7826,63.1683
95.7750,63.1300
Z" /> 
<path style="fill:#000000; fill-opacity:1.0000; stroke:none;fill-rule:evenodd;"
d="M 95.7750,63.8000
95.7826,63.7617
95.8043,63.7293
95.8367,63.7076
95.8750,63.7000
97.5250,63.7000
97.5633,63.7076
97.5957,63.7293
97.6174,63.7617
97.6250,63.8000
97.6250,64.4000
97.6174,64.4383
97.5957,64.4707
97.5633,64.4924
97.5250,64.5000
95.8750,64.5000
95.8367,64.4924
95.8043,64.4707
95.7826,64.4383
95.7750,64.4000
Z" /> 
<path style="fill:#000000; fill-opacity:1.0000; stroke:none;fill-rule:evenodd;"
d="M 100.9750,63.8000
100.9826,63.7617
101.0043,63.7293
101.0367,63.7076
101.0750,63.7000
102.7250,63.7000
102.7633,63.7076
102.7957,63.7293
102.8174,63.7617
102.8250,63.8000
102.8250,64.4000
102.8174,64.4383
102.7957,64.4707
102.7633,64.4924
102.7250,64.5000
101.0750,64.5000
101.0367,64.4924
101.0043,64.4707
100.9826,64.4383
100.9750,64.4000
Z" /> 
<path style="fill:#000000; fill-opacity:1.0000; stroke:none;fill-rule:evenodd;"
d="M 100.9750,62.5300
100.9826,62.4917
101.0043,62.4593
101.0367,62.4376
101.0750,62.4300
102.7250,62.4300
102.7633,62.4376
102.7957,62.4593
102.8174,62.4917
102.8250,62.5300
102.8250,63.1300
102.8174,63.1683
102.7957,63.2007
102.7633,63.2224
102.7250,63.2300
101.0750,63.2300
101.0367,63.2224
101.0043,63.2007
100.9826,63.1683
100.9750,63.1300
Z" /> 
<path style="fill:#000000; fill-opacity:1.0000; stroke:none;fill-rule:evenodd;"
d="M 100.9750,61.2600
100.9826,61.2217
101.0043,61.1893
101.0367,61.1676
101.0750,61.1600
102.7250,61.1600
102.7633,61.1676
102.7957,61.1893
102.8174,61.2217
102.8250,61.2600
102.8250,61.8600
102.8174,61.8983
102.7957,61.9307
102.7633,61.9524
102.7250,61.9600
101.0750,61.9600
101.0367,61.9524
101.0043,61.9307
100.9826,61.8983
100.9750,61.8600
Z" /> 
<path style="fill:#000000; fill-opacity:1.0000; stroke:none;fill-rule:evenodd;"
d="M 100.9750,59.9900
100.9826,59.9517
101.0043,59.9193
101.0367,59.8976
101.0750,59.8900
102.7250,59.8900
102.7633,59.8976
102.7957,59.9193
102.8174,59.9517
102.8250,59.9900
102.8250,60.5900
102.8174,60.6283
102.7957,60.6607
102.7633,60.6824
102.7250,60.6900
101.0750,60.6900
101.0367,60.6824
101.0043,60.6607
100.9826,60.6283
100.9750,60.5900
Z" /> 
</g>
<g style="fill:#000000; fill-opacity:1.0000; stroke:none;">
<circle cx="89.1000" cy="51.1000" r="1.6000" /> 
<path style="fill:#000000; fill-opacity:1.0000; stroke:none;fill-rule:evenodd;"
d="M 90.8075,58.7600
90.8458,58.7676
90.8782,58.7893
90.8999,58.8217
90.9075,58.8600
90.9075,59.8600
90.8999,59.8983
90.8782,59.9307
90.8458,59.9524
90.8075,59.9600
90.1675,59.9600
90.1292,59.9524
90.0968,59.9307
90.0751,59.8983
90.0675,59.8600
90.0675,58.8600
90.0751,58.8217
90.0968,58.7893
90.1292,58.7676
90.1675,58.7600
Z" /> 
<path style="fill:#000000; fill-opacity:1.0000; stroke:none;fill-rule:evenodd;"
d="M 89.2575,58.7600
89.2958,58.7676
89.3282,58.7893
89.3499,58.8217
89.3575,58.8600
89.3575,59.8600
89.3499,59.8983
89.3282,59.9307
89.2958,59.9524
89.2575,59.9600
88.6175,59.9600
88.5792,59.9524
88.5468,59.9307
88.5251,59.8983
88.5175,59.8600
88.5175,58.8600
88.5251,58.8217
88.5468,58.7893
88.5792,58.7676
88.6175,58.7600
Z" /> 
</g>
<g style="fill:#000000; fill-opacity:1.0000; stroke:none;">
<circle cx="105.1000" cy="51.1000" r="1.6000" /> 
<path style="fill:#000000; fill-opacity:1.0000; stroke:none;fill-rule:evenodd;"
d="M 97.0850,75.3000
97.0774,75.3383
97.0557,75.3707
97.0233,75.3924
96.9850,75.4000
96.3250,75.4000
96.2867,75.3924
96.2543,75.3707
96.2326,75.3383
96.2250,75.3000
96.2250,74.3000
96.2326,74.2617
96.2543,74.2293
96.2867,74.2076
96.3250,74.2000
96.9850,74.2000
97.0233,74.2076
97.0557,74.2293
97.0774,74.2617
97.0850,74.3000
Z" /> 
<path style="fill:#000000; fill-opacity:1.0000; stroke:none;fill-rule:evenodd;"
d="M 95.6250,75.3000
95.6174,75.3383
95.5957,75.3707
95.5633,75.3924
95.5250,75.4000
94.8650,75.4000
94.8267,75.3924
94.7943,75.3707
94.7726,75.3383
94.7650,75.3000
94.7650,74.3000
94.7726,74.2617
94.7943,74.2293
94.8267,74.2076
94.8650,74.2000
95.5250,74.2000
95.5633,74.2076
95.5957,74.2293
95.6174,74.2617
95.6250,74.3000
Z" /> 
<path style="fill:#000000; fill-opacity:1.0000; stroke:none;fill-rule:evenodd;"
d="M 101.5400,66.5000
101.5476,66.4617
101.5693,66.4293
101.6017,66.4076
101.6400,66.4000
102.3000,66.4000
102.3383,66.4076
102.3707,66.4293
102.3924,66.4617
102.4000,66.5000
102.4000,67.5000
102.3924,67.5383
102.3707,67.5707
102.3383,67.5924
102.3000,67.6000
101.6400,67.6000
101.6017,67.5924
101.5693,67.5707
101.5476,67.5383
101.5400,67.5000
Z" /> 
<path style="fill:#000000; fill-opacity:1.0000; stroke:none;fill-rule:evenodd;"
d="M 103.0000,66.5000
103.0076,66.4617
103.0293,66.4293
103.0617,66.4076
103.1000,66.4000
103.7600,66.4000
103.7983,66.4076
103.8307,66.4293
103.8524,66.4617
103.8600,66.5000
103.8600,67.5000
103.8524,67.5383
103.8307,67.5707
103.7983,67.5924
103.7600,67.6000
103.1000,67.6000
103.0617,67.5924
103.0293,67.5707
103.0076,67.5383
103.0000,67.5000
Z" /> 
<path style="fill:#000000; fill-opacity:1.0000; stroke:none;fill-rule:evenodd;"
d="M 97.4300,78.0000
97.3917,77.9924
97.3593,77.9707
97.3376,77.9383
97.3300,77.9000
97.3300,76.9000
97.3376,76.8617
97.3593,76.8293
97.3917,76.8076
97.4300,76.8000
98.0700,76.8000
98.1083,76.8076
98.1407,76.8293
98.1624,76.8617
98.1700,76.9000
98.1700,77.9000
98.1624,77.9383
98.1407,77.9707
98.1083,77.9924
98.0700,78.0000
Z" /> 
<path style="fill:#000000; fill-opacity:1.0000; stroke:none;fill-rule:evenodd;"
d="M 98.9800,78.0000
98.9417,77.9924
98.9093,77.9707
98.8876,77.9383
98.8800,77.9000
98.8800,76.9000
98.8876,76.8617
98.9093,76.8293
98.9417,76.8076
98.9800,76.8000
99.6200,76.8000
99.6583,76.8076
99.6907,76.8293
99.7124,76.8617
99.7200,76.9000
99.7200,77.9000
99.7124,77.9383
99.6907,77.9707
99.6583,77.9924
99.6200,78.0000
Z" /> 
</g>
<g style="fill:#000000; fill-opacity:1.0000; stroke:none;">
<circle cx="94.5600" cy="49.5000" r="0.9500" /> 
</g>
<g style="fill:#000000; fill-opacity:1.0000; stroke:none;">
<circle cx="97.1000" cy="49.5000" r="0.9500" /> 
</g>
<g style="fill:#000000; fill-opacity:1.0000; stroke:none;">
<circle cx="99.6400" cy="49.5000" r="0.9500" /> 
</g>
<g style="fill:#FFFFFF; fill-opacity:1.0000; stroke:none;">
<circle cx="89.1000" cy="51.1000" r="1.6000" /> 
</g>
<g style="fill:#FFFFFF; fill-opacity:1.0000; stroke:none;">
<circle cx="105.1000" cy="51.1000" r="1.6000" /> 
</g>
<g style="fill:#FFFFFF; fill-opacity:1.0000; stroke:none;">
<circle cx="94.5600" cy="49.5000" r="0.5000" /> 
</g>
<g style="fill:#FFFFFF; fill-opacity:1.0000; stroke:none;">
<circle cx="97.1000" cy="49.5000" r="0.5000" /> 
</g>
<g style="fill:#FFFFFF; fill-opacity:1.0000; stroke:none;">
<circle cx="99.6400" cy="49.5000" r="0.5000" /> 
</g> 
</svg>
