<?xml version="1.0" standalone="no"?>
 <!DOCTYPE svg PUBLIC "-//W3C//DTD SVG 1.1//EN" 
 "http://www.w3.org/Graphics/SVG/1.1/DTD/svg11.dtd"> 
<svg
  xmlns:svg="http://www.w3.org/2000/svg"
  xmlns="http://www.w3.org/2000/svg"
  xmlns:xlink="http://www.w3.org/1999/xlink"
  version="1.1"
  width="297.0022mm" height="210.0072mm" viewBox="0.0000 0.0000 297.0022 210.0072">
<title>SVG Image created as Capacitive_soil_sensor-User_Drawings.svg date 2025/07/25 16:29:54 </title>
  <desc>Image generated by PCBNEW </desc>
<g style="fill:#000000; fill-opacity:1.0000;stroke:#000000; stroke-opacity:1.0000;
stroke-linecap:round; stroke-linejoin:round;"
 transform="translate(0 0) scale(1 1)">
</g>
<g style="fill:none; 
stroke:#000000; stroke-width:0.1200; stroke-opacity:1; 
stroke-linecap:round; stroke-linejoin:round;">
<path d="M88.9125 63.7000
L88.9125 62.9000
" />
<path d="M88.9125 62.9000
L90.5125 62.9000
" />
<path d="M90.5125 63.7000
L88.9125 63.7000
" />
<path d="M90.5125 62.9000
L90.5125 63.7000
" />
<path d="M91.4000 66.7000
L91.4000 67.5000
" />
<path d="M91.4000 67.5000
L89.9000 67.5000
" />
<path d="M89.9000 67.5000
L89.9000 66.7000
" />
<path d="M89.9000 66.7000
L91.4000 66.7000
" />
<path d="M103.9000 61.7650
L103.9000 60.2650
" />
<path d="M103.9000 60.2650
L104.7000 60.2650
" />
<path d="M104.7000 60.2650
L104.7000 61.7650
" />
<path d="M104.7000 61.7650
L103.9000 61.7650
" />
<path d="M91.9000 62.9950
L91.9000 61.3950
" />
<path d="M92.7000 61.3950
L92.7000 62.9950
" />
<path d="M91.9000 61.3950
L92.7000 61.3950
" />
<path d="M92.7000 62.9950
L91.9000 62.9950
" />
<path d="M103.0000 77.9000
L101.4000 77.9000
" />
<path d="M101.4000 77.9000
L101.4000 77.1000
" />
<path d="M103.0000 77.1000
L103.0000 77.9000
" />
<path d="M101.4000 77.1000
L103.0000 77.1000
" />
<path d="M100.8500 73.3700
L100.8500 74.1700
" />
<path d="M100.8500 74.1700
L99.3500 74.1700
" />
<path d="M99.3500 73.3700
L100.8500 73.3700
" />
<path d="M99.3500 74.1700
L99.3500 73.3700
" />
<path d="M98.2000 56.5700
L98.2000 55.0700
" />
<path d="M99.0000 55.0700
L99.0000 56.5700
" />
<path d="M99.0000 56.5700
L98.2000 56.5700
" />
<path d="M98.2000 55.0700
L99.0000 55.0700
" />
<path style="fill:none; 
stroke:#000000; stroke-width:0.1200; stroke-opacity:1; 
stroke-linecap:round; stroke-linejoin:round;fill:none"
d="M 97.6080,83.8842
96.5920,83.8842
96.5920,83.1222
97.6080,83.1222
Z" /> 
<circle cx="96.3380" cy="84.1382" r="0.1796" /> 
<path d="M96.3000 82.5000
L96.3000 81.7000
" />
<path d="M97.9000 82.5000
L96.3000 82.5000
" />
<path d="M97.9000 81.7000
L97.9000 82.5000
" />
<path d="M96.3000 81.7000
L97.9000 81.7000
" />
<path d="M96.6250 77.8000
L95.0250 77.8000
" />
<path d="M96.6250 77.0000
L96.6250 77.8000
" />
<path d="M95.0250 77.0000
L96.6250 77.0000
" />
<path d="M95.0250 77.8000
L95.0250 77.0000
" />
<path d="M88.9125 61.7600
L88.9125 60.9600
" />
<path d="M90.5125 60.9600
L90.5125 61.7600
" />
<path d="M90.5125 61.7600
L88.9125 61.7600
" />
<path d="M88.9125 60.9600
L90.5125 60.9600
" />
<path d="M94.7000 61.3950
L94.7000 62.9950
" />
<path d="M93.9000 61.3950
L94.7000 61.3950
" />
<path d="M93.9000 62.9950
L93.9000 61.3950
" />
<path d="M94.7000 62.9950
L93.9000 62.9950
" />
<path d="M89.9000 73.5000
L89.9000 72.7000
" />
<path d="M89.9000 72.7000
L91.4000 72.7000
" />
<path d="M91.4000 73.5000
L89.9000 73.5000
" />
<path d="M91.4000 72.7000
L91.4000 73.5000
" />
<path d="M97.2250 59.0950
L97.2250 58.2950
" />
<path d="M97.2250 58.2950
L98.8250 58.2950
" />
<path d="M98.8250 58.2950
L98.8250 59.0950
" />
<path d="M98.8250 59.0950
L97.2250 59.0950
" />
<path d="M103.4000 69.5000
L101.9000 69.5000
" />
<path d="M101.9000 69.5000
L101.9000 68.7000
" />
<path d="M101.9000 68.7000
L103.4000 68.7000
" />
<path d="M103.4000 68.7000
L103.4000 69.5000
" />
<path d="M88.9125 58.9600
L90.5125 58.9600
" />
<path d="M90.5125 59.7600
L88.9125 59.7600
" />
<path d="M88.9125 59.7600
L88.9125 58.9600
" />
<path d="M90.5125 58.9600
L90.5125 59.7600
" />
<path d="M96.6250 75.2000
L95.1250 75.2000
" />
<path d="M96.6250 74.4000
L96.6250 75.2000
" />
<path d="M95.1250 74.4000
L96.6250 74.4000
" />
<path d="M95.1250 75.2000
L95.1250 74.4000
" />
<path d="M102.0000 67.4000
L102.0000 66.6000
" />
<path d="M103.5000 66.6000
L103.5000 67.4000
" />
<path d="M103.5000 67.4000
L102.0000 67.4000
" />
<path d="M102.0000 66.6000
L103.5000 66.6000
" />
<path d="M99.3250 77.0000
L99.3250 77.8000
" />
<path d="M97.7250 77.8000
L97.7250 77.0000
" />
<path d="M97.7250 77.0000
L99.3250 77.0000
" />
<path d="M99.3250 77.8000
L97.7250 77.8000
" />
<path style="fill:none; 
stroke:#000000; stroke-width:0.1200; stroke-opacity:1; 
stroke-linecap:round; stroke-linejoin:round;fill:none"
d="M 93.2900,50.7700
100.9100,50.7700
100.9100,48.2300
93.2900,48.2300
Z" /> 
</g>
<g style="fill:#000000; fill-opacity:1.0000; stroke:none;">
<circle cx="89.1000" cy="51.1000" r="1.6000" /> 
</g>
<g style="fill:#000000; fill-opacity:1.0000; stroke:none;">
<circle cx="105.1000" cy="51.1000" r="1.6000" /> 
</g>
<g style="fill:#000000; fill-opacity:1.0000; stroke:none;">
<circle cx="94.5600" cy="49.5000" r="0.5000" /> 
</g>
<g style="fill:#000000; fill-opacity:1.0000; stroke:none;">
<circle cx="97.1000" cy="49.5000" r="0.5000" /> 
</g>
<g style="fill:#000000; fill-opacity:1.0000; stroke:none;">
<circle cx="99.6400" cy="49.5000" r="0.5000" /> 
</g>
<g style="fill:#FFFFFF; fill-opacity:1.0000; stroke:none;">
<circle cx="89.1000" cy="51.1000" r="1.6000" /> 
</g>
<g style="fill:#FFFFFF; fill-opacity:1.0000; stroke:none;">
<circle cx="105.1000" cy="51.1000" r="1.6000" /> 
</g>
<g style="fill:#FFFFFF; fill-opacity:1.0000; stroke:none;">
<circle cx="94.5600" cy="49.5000" r="0.5000" /> 
</g>
<g style="fill:#FFFFFF; fill-opacity:1.0000; stroke:none;">
<circle cx="97.1000" cy="49.5000" r="0.5000" /> 
</g>
<g style="fill:#FFFFFF; fill-opacity:1.0000; stroke:none;">
<circle cx="99.6400" cy="49.5000" r="0.5000" /> 
</g> 
</svg>
