<?xml version="1.0" standalone="no"?>
 <!DOCTYPE svg PUBLIC "-//W3C//DTD SVG 1.1//EN" 
 "http://www.w3.org/Graphics/SVG/1.1/DTD/svg11.dtd"> 
<svg
  xmlns:svg="http://www.w3.org/2000/svg"
  xmlns="http://www.w3.org/2000/svg"
  xmlns:xlink="http://www.w3.org/1999/xlink"
  version="1.1"
  width="297.0022mm" height="210.0072mm" viewBox="0.0000 0.0000 297.0022 210.0072">
<title>SVG Image created as Capacitive_soil_sensor-F_Silkscreen.svg date 2025/07/28 13:41:47 </title>
  <desc>Image generated by PCBNEW </desc>
<g style="fill:#000000; fill-opacity:1.0000;stroke:#000000; stroke-opacity:1.0000;
stroke-linecap:round; stroke-linejoin:round;"
 transform="translate(0 0) scale(1 1)">
</g>
<g style="fill:none; 
stroke:#000000; stroke-width:0.3000; stroke-opacity:1; 
stroke-linecap:round; stroke-linejoin:round;">
<path d="M86.1000 87.1000
L108.1000 87.1000
" />
</g>
<g style="fill:none; 
stroke:#000000; stroke-width:0.2000; stroke-opacity:1; 
stroke-linecap:round; stroke-linejoin:round;">
<path d="M89.5625 62.9500
L89.8625 62.9500
" />
<path d="M89.5625 63.6500
L89.8625 63.6500
" />
<path d="M90.4000 66.7000
L90.8000 66.7000
" />
<path d="M90.4000 67.5000
L90.8000 67.5000
" />
<path style="fill:#000000; fill-opacity:1.0000; 
stroke:#000000; stroke-width:0.0100; stroke-opacity:1; 
stroke-linecap:round; stroke-linejoin:round;fill-rule:evenodd;"
d="M 90.1300,75.8600
90.1300,76.4700
90.1200,76.5300
90.1000,76.5900
90.0700,76.6600
90.0300,76.7200
89.9600,76.7400
89.8300,76.7400
89.7600,76.6900
89.7100,76.6500
89.6900,76.6000
89.6700,76.5300
89.6700,76.4600
89.7300,76.4400
89.7800,76.4700
89.7800,76.5300
89.8100,76.5900
89.8700,76.6400
89.9400,76.6400
89.9800,76.5900
90.0100,76.5300
90.0100,76.4600
90.0100,75.9100
90.0100,75.8500
90.0700,75.8300
Z" /> 
<path style="fill:#000000; fill-opacity:1.0000; 
stroke:#000000; stroke-width:0.0100; stroke-opacity:1; 
stroke-linecap:round; stroke-linejoin:round;fill-rule:evenodd;"
d="M 91.3900,75.8600
91.4400,75.9000
91.4800,75.9400
91.5000,76.0000
91.5100,76.0700
91.5000,76.1400
91.4900,76.2100
91.4600,76.2600
91.4200,76.3200
91.2000,76.5900
91.1900,76.6400
91.4600,76.6400
91.5200,76.6500
91.5200,76.7100
91.4700,76.7400
91.0600,76.7400
91.0300,76.6900
91.0300,76.6200
91.0700,76.5700
91.3300,76.2500
91.3700,76.1900
91.3900,76.1300
91.3900,76.0600
91.3800,76.0000
91.3300,75.9400
91.2700,75.9300
91.2000,75.9600
91.1700,76.0200
91.1600,76.0800
91.1300,76.1300
91.0600,76.1300
91.0500,76.0600
91.0600,76.0000
91.0800,75.9400
91.1100,75.9000
91.1700,75.8500
91.2500,75.8300
91.3100,75.8300
Z" /> 
<path style="fill:#000000; fill-opacity:1.0000; 
stroke:#000000; stroke-width:0.0100; stroke-opacity:1; 
stroke-linecap:round; stroke-linejoin:round;fill-rule:evenodd;"
d="M 90.7100,75.8600
90.7600,75.9000
90.8000,75.9400
90.8200,76.0000
90.8400,76.0700
90.8300,76.1400
90.8100,76.2000
90.7900,76.2500
90.7400,76.2900
90.6700,76.3300
90.6000,76.3400
90.4700,76.3400
90.4600,76.4000
90.4600,76.6700
90.4500,76.7300
90.3900,76.7400
90.3700,76.7400
90.3400,76.6900
90.3400,75.9500
90.4600,75.9500
90.4600,76.2200
90.5200,76.2300
90.5900,76.2300
90.6400,76.2300
90.6900,76.1800
90.7200,76.1200
90.7200,76.0700
90.7000,76.0100
90.6500,75.9500
90.5800,75.9400
90.5200,75.9400
90.4600,75.9500
90.3400,75.9500
90.3400,75.8800
90.3700,75.8300
90.6400,75.8300
Z" /> 
<path style="fill:#000000; fill-opacity:1.0000; 
stroke:#000000; stroke-width:0.0100; stroke-opacity:1; 
stroke-linecap:round; stroke-linejoin:round;fill-rule:evenodd;"
d="M 94.6100,51.1000
94.6700,51.1100
94.7200,51.1200
94.7700,51.1800
94.7800,51.2600
94.7800,51.3400
94.7400,51.3700
94.6800,51.3900
94.6200,51.4000
94.5300,51.4000
94.4100,51.4000
94.3100,51.4000
94.2300,51.3900
94.1800,51.3800
94.1300,51.3400
94.1100,51.2600
94.1200,51.1700
94.1700,51.1200
94.2100,51.1100
94.2800,51.1000
94.3800,51.0900
94.5100,51.0900
Z" /> 
<path style="fill:#000000; fill-opacity:1.0000; 
stroke:#000000; stroke-width:0.0100; stroke-opacity:1; 
stroke-linecap:round; stroke-linejoin:round;fill-rule:evenodd;"
d="M 94.7000,52.2200
94.6900,52.2900
94.6100,52.2900
94.2200,52.2300
94.1500,52.2100
94.2300,52.2000
94.6200,52.1500
94.7000,52.1400
Z" /> 
<path style="fill:#000000; fill-opacity:1.0000; 
stroke:#000000; stroke-width:0.0100; stroke-opacity:1; 
stroke-linecap:round; stroke-linejoin:round;fill-rule:evenodd;"
d="M 95.2600,48.0700
95.2600,52.6800
94.9600,52.5900
94.9800,52.5300
94.9800,52.4500
94.9700,52.3900
94.9000,52.3500
94.8900,52.2800
94.8900,52.1200
94.9400,52.0600
94.9800,52.0000
94.9800,51.9200
94.9700,51.8500
94.8900,51.8600
93.9600,52.0900
93.9100,52.1300
93.9100,52.2900
93.9500,52.3400
94.8700,52.5800
94.9600,52.5900
95.2600,52.6900
95.2500,52.7600
95.2400,52.8400
95.2300,52.9200
95.2000,53.0000
95.1700,53.0700
95.1300,53.1400
95.0800,53.2000
95.0300,53.2600
94.9700,53.3200
94.9100,53.3700
94.8400,53.4100
94.7700,53.4400
94.7000,53.4700
94.6200,53.4900
94.5400,53.5000
94.4600,53.5100
94.3800,53.5000
94.3000,53.4900
94.2300,53.4700
94.1500,53.4400
94.0800,53.4100
94.0100,53.3700
93.9500,53.3200
93.8900,53.2600
93.8400,53.2000
93.7900,53.1400
93.7500,53.0700
93.7200,53.0000
93.6900,52.9200
93.6800,52.8400
93.6700,52.7700
93.6600,52.7100
93.6600,51.2400
93.9100,51.2400
93.9100,51.3300
93.9400,51.4000
93.9800,51.4700
94.0300,51.5200
94.1000,51.5600
94.1600,51.5800
94.2200,51.5900
94.3100,51.6000
94.4100,51.6000
94.5200,51.6000
94.6100,51.6000
94.6900,51.5900
94.7500,51.5700
94.8100,51.5500
94.8700,51.5000
94.9300,51.4400
94.9600,51.3800
94.9700,51.3000
94.9800,51.2100
94.9800,51.1300
94.9400,51.0700
94.8900,51.0100
94.8200,50.9700
94.7600,50.9400
94.7000,50.9200
94.6300,50.9100
94.5400,50.9000
94.4300,50.9000
94.3300,50.9100
94.2400,50.9100
94.1700,50.9200
94.1100,50.9400
94.0500,50.9700
93.9900,51.0300
93.9400,51.0900
93.9200,51.1600
93.9100,51.2400
93.6600,51.2400
93.6600,48.0100
93.7300,48.0000
95.2400,48.0000
Z" /> 
</g>
<g style="fill:none; 
stroke:#000000; stroke-width:0.2000; stroke-opacity:1; 
stroke-linecap:round; stroke-linejoin:round;">
<path d="M104.7000 60.7650
L104.7000 61.1650
" />
<path d="M103.9000 60.7650
L103.9000 61.1650
" />
<path d="M91.9500 62.3450
L91.9500 62.0450
" />
<path d="M92.6500 62.3450
L92.6500 62.0450
" />
<path d="M102.3500 77.1500
L102.0500 77.1500
" />
<path d="M102.3500 77.8500
L102.0500 77.8500
" />
<path d="M100.3500 74.1700
L99.9500 74.1700
" />
<path d="M100.3500 73.3700
L99.9500 73.3700
" />
<path style="fill:none; 
stroke:#000000; stroke-width:0.1200; stroke-opacity:1; 
stroke-linecap:round; stroke-linejoin:round;fill:none"
d="M 99.7000,66.4900
94.7000,66.4900
94.7000,71.7000
99.7000,71.7000
Z" /> 
</g>
<g style="fill:none; 
stroke:#000000; stroke-width:0.0600; stroke-opacity:1; 
stroke-linecap:round; stroke-linejoin:round;">
<circle cx="99.1050" cy="68.1000" r="0.3500" /> 
</g>
<g style="fill:none; 
stroke:#000000; stroke-width:0.2000; stroke-opacity:1; 
stroke-linecap:round; stroke-linejoin:round;">
<path d="M99.0000 56.0700
L99.0000 55.6700
" />
<path d="M98.2000 56.0700
L98.2000 55.6700
" />
<path d="M96.5920 83.1222
L97.6300 83.1222
" />
<path d="M97.6080 83.8842
L96.5920 83.8842
" />
</g>
<g style="fill:#000000; fill-opacity:1.0000; stroke:none;">
<circle cx="96.3380" cy="84.1382" r="0.2000" /> 
<path style="fill:none; 
stroke:#000000; stroke-width:0.1200; stroke-opacity:1; 
stroke-linecap:round; stroke-linejoin:round;fill:none"
d="M 100.0000,58.3500
103.8000,58.3500
103.8000,54.6500
100.0000,54.6500
Z" /> 
<path style="fill:#000000; fill-opacity:1.0000; stroke:none;fill-rule:evenodd;"
d="M 95.0019,87.5416
95.0918,87.5809
95.1631,87.6412
95.2133,87.7174
95.2394,87.7898
95.2545,87.8738
95.2617,87.9752
95.2641,88.1000
95.2617,88.2248
95.2545,88.3262
95.2394,88.4102
95.2133,88.4826
95.1631,88.5588
95.0918,88.6191
95.0019,88.6584
94.8958,88.6715
94.7896,88.6584
94.6997,88.6191
94.6285,88.5588
94.5783,88.4826
94.5521,88.4102
94.5370,88.3262
94.5298,88.2248
94.5275,88.1000
94.6830,88.1000
94.6846,88.2064
94.6894,88.2937
94.7180,88.4143
94.7886,88.4921
94.8958,88.5207
95.0029,88.4921
95.0736,88.4143
95.1021,88.2937
95.1069,88.2064
95.1085,88.1000
95.1069,87.9936
95.1021,87.9063
95.0736,87.7857
95.0029,87.7079
94.8958,87.6793
94.7886,87.7079
94.7180,87.7857
94.6894,87.9063
94.6846,87.9936
94.6830,88.1000
94.5275,88.1000
94.5298,87.9752
94.5370,87.8738
94.5521,87.7898
94.5783,87.7174
94.6285,87.6412
94.6997,87.5809
94.7896,87.5416
94.8958,87.5285
Z" /> 
<path style="fill:#000000; fill-opacity:1.0000; stroke:none;fill-rule:evenodd;"
d="M 103.7524,87.5539
103.7619,87.5761
103.7619,88.6239
103.7524,88.6461
103.7302,88.6556
103.6429,88.6556
103.6207,88.6461
103.6111,88.6239
103.6111,87.5761
103.6207,87.5539
103.6429,87.5444
103.7302,87.5444
Z" /> 
<path style="fill:#000000; fill-opacity:1.0000; stroke:none;fill-rule:evenodd;"
d="M 96.7202,87.5567
96.8071,87.5936
96.8781,87.6515
96.9293,87.7269
96.9528,87.7932
96.9659,87.8746
96.9718,87.9754
96.9738,88.1000
96.9718,88.2246
96.9659,88.3254
96.9528,88.4068
96.9293,88.4731
96.8781,88.5485
96.8071,88.6064
96.7202,88.6433
96.6214,88.6556
96.3277,88.6556
96.3055,88.6461
96.2959,88.6239
96.2959,87.7111
96.4467,87.7111
96.4467,88.4889
96.4626,88.5048
96.6214,88.5048
96.7166,88.4794
96.7865,88.4080
96.8127,88.2929
96.8168,88.2062
96.8182,88.1000
96.8168,87.9938
96.8127,87.9071
96.7865,87.7920
96.7166,87.7206
96.6214,87.6952
96.4626,87.6952
96.4467,87.7111
96.2959,87.7111
96.2959,87.5761
96.3055,87.5539
96.3277,87.5444
96.6214,87.5444
Z" /> 
<path style="fill:#000000; fill-opacity:1.0000; stroke:none;fill-rule:evenodd;"
d="M 91.8827,87.5539
91.8922,87.5761
91.8922,88.3254
91.9061,88.4133
91.9478,88.4739
92.0133,88.5090
92.0986,88.5207
92.1869,88.5076
92.2518,88.4683
92.2917,88.4064
92.3050,88.3254
92.3050,87.5761
92.3145,87.5539
92.3367,87.5444
92.4240,87.5444
92.4462,87.5539
92.4558,87.5761
92.4558,88.3096
92.4448,88.4162
92.4120,88.5053
92.3573,88.5770
92.2848,88.6295
92.1986,88.6610
92.0986,88.6715
91.9946,88.6612
91.9070,88.6302
91.8358,88.5786
91.7834,88.5075
91.7519,88.4178
91.7414,88.3096
91.7414,87.5761
91.7509,87.5539
91.7731,87.5444
91.8605,87.5444
Z" /> 
<path style="fill:#000000; fill-opacity:1.0000; stroke:none;fill-rule:evenodd;"
d="M 102.2911,87.5375
102.3713,87.5645
102.4372,87.6095
102.5033,87.7051
102.5253,87.8301
102.5253,87.8508
102.5158,87.8730
102.4935,87.8825
102.4062,87.8825
102.3840,87.8730
102.3745,87.8508
102.3745,87.8301
102.3624,87.7666
102.3260,87.7190
102.2687,87.6892
102.1935,87.6793
102.1183,87.6892
102.0609,87.7190
102.0125,87.8269
102.0266,87.8936
102.0689,87.9444
102.1457,87.9841
102.2633,88.0174
102.3784,88.0615
102.4665,88.1365
102.5225,88.2353
102.5412,88.3508
102.5300,88.4393
102.4967,88.5175
102.4431,88.5824
102.3713,88.6310
102.2848,88.6614
102.1871,88.6715
102.0857,88.6612
101.9974,88.6302
101.9250,88.5804
101.8712,88.5135
101.8379,88.4320
101.8268,88.3381
101.8268,88.3127
101.8363,88.2905
101.8585,88.2810
101.9474,88.2810
101.9697,88.2905
101.9792,88.3127
101.9792,88.3381
101.9937,88.4115
102.0371,88.4699
102.1040,88.5080
102.1887,88.5207
102.2679,88.5094
102.3308,88.4754
102.3719,88.4233
102.3856,88.3572
102.3721,88.2832
102.3316,88.2262
102.2606,88.1827
102.1554,88.1492
102.0278,88.1044
101.9339,88.0365
101.8762,87.9452
101.8569,87.8301
101.8679,87.7440
101.9006,87.6698
101.9526,87.6095
102.0212,87.5650
102.1036,87.5376
102.1967,87.5285
Z" /> 
<path style="fill:#000000; fill-opacity:1.0000; stroke:none;fill-rule:evenodd;"
d="M 103.1506,87.5416
103.2404,87.5809
103.3117,87.6412
103.3619,87.7174
103.3881,87.7898
103.4032,87.8738
103.4103,87.9752
103.4127,88.1000
103.4103,88.2248
103.4032,88.3262
103.3881,88.4102
103.3619,88.4826
103.3117,88.5588
103.2404,88.6191
103.1506,88.6584
103.0444,88.6715
102.9382,88.6584
102.8483,88.6191
102.7771,88.5588
102.7269,88.4826
102.7007,88.4102
102.6856,88.3262
102.6785,88.2248
102.6761,88.1000
102.8317,88.1000
102.8333,88.2064
102.8380,88.2937
102.8666,88.4143
102.9372,88.4921
103.0444,88.5207
103.1516,88.4921
103.2222,88.4143
103.2508,88.2937
103.2555,88.2064
103.2571,88.1000
103.2555,87.9936
103.2508,87.9063
103.2222,87.7857
103.1516,87.7079
103.0444,87.6793
102.9372,87.7079
102.8666,87.7857
102.8380,87.9063
102.8333,87.9936
102.8317,88.1000
102.6761,88.1000
102.6785,87.9752
102.6856,87.8738
102.7007,87.7898
102.7269,87.7174
102.7771,87.6412
102.8483,87.5809
102.9382,87.5416
103.0444,87.5285
Z" /> 
<path style="fill:#000000; fill-opacity:1.0000; stroke:none;fill-rule:evenodd;"
d="M 91.3477,87.5551
91.4287,87.5872
91.4965,87.6384
91.5477,87.7063
91.5799,87.7873
91.5906,87.8777
91.5799,87.9682
91.5477,88.0492
91.4965,88.1171
91.4287,88.1683
91.3477,88.2004
91.2572,88.2111
91.1064,88.2111
91.0905,88.2270
91.0905,88.6239
91.0810,88.6461
91.0588,88.6556
90.9715,88.6556
90.9492,88.6461
90.9397,88.6239
90.9397,87.7111
91.0905,87.7111
91.0905,88.0444
91.1064,88.0603
91.2572,88.0603
91.3290,88.0476
91.3858,88.0095
91.4227,87.9512
91.4350,87.8777
91.4227,87.8043
91.3858,87.7460
91.3290,87.7079
91.2572,87.6952
91.1064,87.6952
91.0905,87.7111
90.9397,87.7111
90.9397,87.5761
90.9492,87.5539
90.9715,87.5444
91.2572,87.5444
Z" /> 
<path style="fill:#000000; fill-opacity:1.0000; stroke:none;fill-rule:evenodd;"
d="M 99.6678,87.5539
99.6773,87.5761
99.6773,87.6634
99.6678,87.6857
99.6456,87.6952
99.2677,87.6952
99.2519,87.7111
99.2519,87.9968
99.2677,88.0127
99.6281,88.0127
99.6503,88.0222
99.6598,88.0444
99.6598,88.1317
99.6503,88.1540
99.6281,88.1635
99.2677,88.1635
99.2519,88.1794
99.2519,88.6239
99.2423,88.6461
99.2201,88.6556
99.1328,88.6556
99.1106,88.6461
99.1010,88.6239
99.1010,87.5761
99.1106,87.5539
99.1328,87.5444
99.6456,87.5444
Z" /> 
<path style="fill:#000000; fill-opacity:1.0000; stroke:none;fill-rule:evenodd;"
d="M 95.8681,87.5549
95.9483,87.5864
96.0165,87.6368
96.0689,87.7039
96.1023,87.7851
96.1134,87.8777
96.0950,87.9926
96.0400,88.0873
95.9483,88.1619
95.9149,88.2000
95.9229,88.2270
96.1070,88.6016
96.1134,88.6270
96.1054,88.6469
96.0816,88.6556
95.9848,88.6556
95.9467,88.6302
95.7800,88.2802
95.7562,88.2302
95.7260,88.2111
95.6292,88.2111
95.6133,88.2270
95.6133,88.6239
95.6038,88.6461
95.5816,88.6556
95.4942,88.6556
95.4720,88.6461
95.4625,88.6239
95.4625,87.7111
95.6133,87.7111
95.6133,88.0444
95.6292,88.0603
95.7800,88.0603
95.8498,88.0480
95.9070,88.0111
95.9451,87.9532
95.9578,87.8777
95.9451,87.8023
95.9070,87.7444
95.8498,87.7075
95.7800,87.6952
95.6292,87.6952
95.6133,87.7111
95.4625,87.7111
95.4625,87.5761
95.4720,87.5539
95.4942,87.5444
95.7800,87.5444
Z" /> 
<path style="fill:#000000; fill-opacity:1.0000; stroke:none;fill-rule:evenodd;"
d="M 100.2708,87.5416
100.3607,87.5809
100.4320,87.6412
100.4822,87.7174
100.5084,87.7898
100.5234,87.8738
100.5306,87.9752
100.5330,88.1000
100.5306,88.2248
100.5234,88.3262
100.5084,88.4102
100.4822,88.4826
100.4320,88.5588
100.3607,88.6191
100.2708,88.6584
100.1647,88.6715
100.0585,88.6584
99.9686,88.6191
99.8974,88.5588
99.8472,88.4826
99.8210,88.4102
99.8059,88.3262
99.7987,88.2248
99.7964,88.1000
99.9519,88.1000
99.9535,88.2064
99.9583,88.2937
99.9869,88.4143
100.0575,88.4921
100.1647,88.5207
100.2718,88.4921
100.3425,88.4143
100.3710,88.2937
100.3758,88.2064
100.3774,88.1000
100.3758,87.9936
100.3710,87.9063
100.3425,87.7857
100.2718,87.7079
100.1647,87.6793
100.0575,87.7079
99.9869,87.7857
99.9583,87.9063
99.9535,87.9936
99.9519,88.1000
99.7964,88.1000
99.7987,87.9752
99.8059,87.8738
99.8210,87.7898
99.8472,87.7174
99.8974,87.6412
99.9686,87.5809
100.0585,87.5416
100.1647,87.5285
Z" /> 
<path style="fill:#000000; fill-opacity:1.0000; stroke:none;fill-rule:evenodd;"
d="M 101.1370,87.5549
101.2172,87.5864
101.2854,87.6368
101.3378,87.7039
101.3712,87.7851
101.3823,87.8777
101.3639,87.9926
101.3089,88.0873
101.2172,88.1619
101.1838,88.2000
101.1918,88.2270
101.3759,88.6016
101.3823,88.6270
101.3743,88.6469
101.3505,88.6556
101.2537,88.6556
101.2156,88.6302
101.0489,88.2802
101.0251,88.2302
100.9949,88.2111
100.8981,88.2111
100.8822,88.2270
100.8822,88.6239
100.8727,88.6461
100.8505,88.6556
100.7632,88.6556
100.7409,88.6461
100.7314,88.6239
100.7314,87.7111
100.8822,87.7111
100.8822,88.0444
100.8981,88.0603
101.0489,88.0603
101.1188,88.0480
101.1759,88.0111
101.2140,87.9532
101.2267,87.8777
101.2140,87.8023
101.1759,87.7444
101.1188,87.7075
101.0489,87.6952
100.8981,87.6952
100.8822,87.7111
100.7314,87.7111
100.7314,87.5761
100.7409,87.5539
100.7632,87.5444
101.0489,87.5444
Z" /> 
<path style="fill:#000000; fill-opacity:1.0000; stroke:none;fill-rule:evenodd;"
d="M 98.3478,87.5549
98.4279,87.5864
98.4962,87.6368
98.5486,87.7039
98.5819,87.7851
98.5930,87.8777
98.5747,87.9926
98.5197,88.0873
98.4279,88.1619
98.3946,88.2000
98.4025,88.2270
98.5867,88.6016
98.5930,88.6270
98.5851,88.6469
98.5613,88.6556
98.4645,88.6556
98.4264,88.6302
98.2597,88.2802
98.2359,88.2302
98.2057,88.2111
98.1089,88.2111
98.0930,88.2270
98.0930,88.6239
98.0835,88.6461
98.0612,88.6556
97.9739,88.6556
97.9517,88.6461
97.9422,88.6239
97.9422,87.7111
98.0930,87.7111
98.0930,88.0444
98.1089,88.0603
98.2597,88.0603
98.3295,88.0480
98.3867,88.0111
98.4248,87.9532
98.4375,87.8777
98.4248,87.8023
98.3867,87.7444
98.3295,87.7075
98.2597,87.6952
98.1089,87.6952
98.0930,87.7111
97.9422,87.7111
97.9422,87.5761
97.9517,87.5539
97.9739,87.5444
98.2597,87.5444
Z" /> 
<path style="fill:#000000; fill-opacity:1.0000; stroke:none;fill-rule:evenodd;"
d="M 104.1414,87.5539
104.1509,87.5761
104.1509,88.4889
104.1668,88.5048
104.5224,88.5048
104.5446,88.5143
104.5541,88.5366
104.5541,88.6239
104.5446,88.6461
104.5224,88.6556
104.0318,88.6556
104.0096,88.6461
104.0001,88.6239
104.0001,87.5761
104.0096,87.5539
104.0318,87.5444
104.1191,87.5444
Z" /> 
<path style="fill:#000000; fill-opacity:1.0000; stroke:none;fill-rule:evenodd;"
d="M 93.2479,87.5539
93.2575,87.5761
93.2575,87.6634
93.2479,87.6857
93.2257,87.6952
93.0162,87.6952
93.0003,87.7111
93.0003,88.6239
92.9908,88.6461
92.9685,88.6556
92.8812,88.6556
92.8590,88.6461
92.8495,88.6239
92.8495,87.7111
92.8336,87.6952
92.6225,87.6952
92.6002,87.6857
92.5907,87.6634
92.5907,87.5761
92.6002,87.5539
92.6225,87.5444
93.2257,87.5444
Z" /> 
<path style="fill:#000000; fill-opacity:1.0000; stroke:none;fill-rule:evenodd;"
d="M 97.7390,87.5539
97.7485,87.5761
97.7485,87.6634
97.7390,87.6857
97.7167,87.6952
97.3389,87.6952
97.3230,87.7111
97.3230,87.9968
97.3389,88.0127
97.6993,88.0127
97.7215,88.0222
97.7310,88.0444
97.7310,88.1317
97.7215,88.1540
97.6993,88.1635
97.3389,88.1635
97.3230,88.1794
97.3230,88.4889
97.3389,88.5048
97.7199,88.5048
97.7421,88.5143
97.7517,88.5366
97.7517,88.6239
97.7421,88.6461
97.7199,88.6556
97.2040,88.6556
97.1818,88.6461
97.1722,88.6239
97.1722,87.5761
97.1818,87.5539
97.2040,87.5444
97.7167,87.5444
Z" /> 
<path style="fill:#000000; fill-opacity:1.0000; stroke:none;fill-rule:evenodd;"
d="M 90.2182,87.5499
90.2317,87.5714
90.5365,88.3492
90.5492,88.3651
90.5571,88.3540
90.5571,87.5761
90.5666,87.5539
90.5889,87.5444
90.6698,87.5444
90.6921,87.5539
90.7016,87.5761
90.7016,88.6239
90.6921,88.6461
90.6698,88.6556
90.5381,88.6556
90.5182,88.6501
90.5047,88.6286
90.1999,87.8444
90.1872,87.8285
90.1793,87.8396
90.1793,88.6239
90.1698,88.6461
90.1475,88.6556
90.0666,88.6556
90.0444,88.6461
90.0348,88.6239
90.0348,87.5761
90.0444,87.5539
90.0666,87.5444
90.1983,87.5444
Z" /> 
<path style="fill:#000000; fill-opacity:1.0000; stroke:none;fill-rule:evenodd;"
d="M 89.7872,87.5539
89.7967,87.5761
89.7967,88.6239
89.7872,88.6461
89.7650,88.6556
89.6776,88.6556
89.6554,88.6461
89.6459,88.6239
89.6459,87.5761
89.6554,87.5539
89.6776,87.5444
89.7650,87.5444
Z" /> 
<path style="fill:#000000; fill-opacity:1.0000; stroke:none;fill-rule:evenodd;"
d="M 94.1355,87.5533
94.2107,87.5801
94.2739,87.6238
94.3219,87.6833
94.3522,87.7561
94.3624,87.8396
94.3377,87.9587
94.2719,88.0540
94.2623,88.0714
94.2719,88.0889
94.3167,88.1357
94.3528,88.1968
94.3766,88.2647
94.3846,88.3318
94.3735,88.4227
94.3401,88.5016
94.2879,88.5665
94.2203,88.6151
94.1403,88.6455
94.0512,88.6556
93.7575,88.6556
93.7353,88.6461
93.7258,88.6239
93.7258,88.1603
93.8766,88.1603
93.8766,88.4889
93.8925,88.5048
94.0512,88.5048
94.1211,88.4931
94.1782,88.4580
94.2163,88.4030
94.2290,88.3318
94.2161,88.2587
94.1774,88.1984
94.1201,88.1579
94.0512,88.1444
93.8925,88.1444
93.8766,88.1603
93.7258,88.1603
93.7258,87.7111
93.8766,87.7111
93.8766,87.9857
93.8925,88.0016
94.0512,88.0016
94.1639,87.9571
94.1961,87.9055
94.2068,87.8396
94.1647,87.7317
94.0512,87.6952
93.8925,87.6952
93.8766,87.7111
93.7258,87.7111
93.7258,87.5761
93.7353,87.5539
93.7575,87.5444
94.0512,87.5444
Z" /> 
</g>
<g style="fill:none; 
stroke:#000000; stroke-width:0.2000; stroke-opacity:1; 
stroke-linecap:round; stroke-linejoin:round;">
<path d="M97.2500 82.4500
L96.9500 82.4500
" />
<path d="M97.2500 81.7500
L96.9500 81.7500
" />
<path style="fill:#000000; fill-opacity:1.0000; 
stroke:#000000; stroke-width:0.0100; stroke-opacity:1; 
stroke-linecap:round; stroke-linejoin:round;fill-rule:evenodd;"
d="M 97.9000,48.0600
97.9000,52.9100
97.8500,52.9600
97.1400,53.3200
97.0700,53.3200
96.3500,52.9700
96.3000,52.9200
96.3000,52.6000
96.3000,52.5400
96.3000,51.9500
96.5500,51.9500
96.5500,52.3500
96.6000,52.3900
97.0800,52.3900
97.1000,52.3300
97.1100,52.2500
97.1500,52.1900
97.1700,52.1100
97.2200,52.0600
97.3000,52.0400
97.3800,52.0600
97.4200,52.1200
97.4100,52.2000
97.3500,52.2500
97.3100,52.3000
97.3100,52.3800
97.3700,52.4100
97.4500,52.4000
97.5200,52.3600
97.5700,52.3000
97.6000,52.2400
97.6200,52.1500
97.6200,52.1200
97.6000,52.0400
97.5600,51.9800
97.5000,51.9300
97.4300,51.9000
97.3500,51.8800
97.2600,51.8800
97.1800,51.9000
97.1100,51.9300
97.0600,51.9800
97.0200,52.0500
97.0000,52.1300
97.0000,52.2200
97.0200,52.2900
96.9500,52.3000
96.7900,52.3000
96.7400,52.2600
96.7400,51.9400
96.6800,51.9100
96.6000,51.9100
96.5500,51.9500
96.3000,51.9500
96.3000,50.9800
96.5500,50.9800
96.5500,51.0600
96.5900,51.1200
97.2900,51.2600
97.3400,51.2800
96.5600,51.4500
96.5500,51.5100
96.5500,51.5900
96.5700,51.6500
96.6500,51.6400
97.5800,51.4000
97.6200,51.3500
97.6200,51.1900
97.5600,51.1500
96.6300,50.9200
96.5600,50.9100
96.5500,50.9800
96.3000,50.9800
96.3000,48.0100
96.3700,48.0000
97.8800,48.0000
Z" /> 
<path style="fill:#000000; fill-opacity:1.0000; stroke:none;fill-rule:evenodd;"
d="M 93.9091,85.2447
93.9206,85.2713
93.9206,85.3761
93.9091,85.4028
93.8825,85.4142
93.6310,85.4142
93.6119,85.4333
93.6119,86.5286
93.6005,86.5553
93.5738,86.5667
93.4691,86.5667
93.4424,86.5553
93.4310,86.5286
93.4310,85.4333
93.4119,85.4142
93.1586,85.4142
93.1319,85.4028
93.1205,85.3761
93.1205,85.2713
93.1319,85.2447
93.1586,85.2332
93.8825,85.2332
Z" /> 
<path style="fill:#000000; fill-opacity:1.0000; stroke:none;fill-rule:evenodd;"
d="M 99.5670,85.2447
99.5784,85.2713
99.5784,86.3667
99.5975,86.3858
100.0242,86.3858
100.0508,86.3972
100.0623,86.4239
100.0623,86.5286
100.0508,86.5553
100.0242,86.5667
99.4355,86.5667
99.4089,86.5553
99.3974,86.5286
99.3974,85.2713
99.4089,85.2447
99.4355,85.2332
99.5403,85.2332
Z" /> 
<path style="fill:#000000; fill-opacity:1.0000; stroke:none;fill-rule:evenodd;"
d="M 92.9376,85.2447
92.9490,85.2713
92.9490,86.5286
92.9376,86.5553
92.9109,86.5667
92.8061,86.5667
92.7795,86.5553
92.7680,86.5286
92.7680,85.2713
92.7795,85.2447
92.8061,85.2332
92.9109,85.2332
Z" /> 
<path style="fill:#000000; fill-opacity:1.0000; stroke:none;fill-rule:evenodd;"
d="M 97.3467,85.2250
97.4429,85.2574
97.5220,85.3114
97.6013,85.4261
97.6277,85.5761
97.6277,85.6009
97.6163,85.6276
97.5896,85.6390
97.4848,85.6390
97.4581,85.6276
97.4467,85.6009
97.4467,85.5761
97.4322,85.4999
97.3886,85.4428
97.3198,85.4071
97.2295,85.3952
97.1393,85.4071
97.0705,85.4428
97.0124,85.5723
97.0293,85.6523
97.0800,85.7133
97.1722,85.7609
97.3134,85.8009
97.4515,85.8538
97.5572,85.9438
97.6244,86.0624
97.6467,86.2010
97.6334,86.3072
97.5934,86.4010
97.5291,86.4789
97.4429,86.5372
97.3391,86.5737
97.2219,86.5858
97.1002,86.5734
96.9943,86.5363
96.9074,86.4765
96.8428,86.3963
96.8028,86.2984
96.7895,86.1857
96.7895,86.1553
96.8009,86.1286
96.8276,86.1172
96.9343,86.1172
96.9609,86.1286
96.9724,86.1553
96.9724,86.1857
96.9897,86.2739
97.0419,86.3439
97.1221,86.3896
97.2238,86.4048
97.3188,86.3913
97.3943,86.3505
97.4436,86.2879
97.4600,86.2086
97.4439,86.1198
97.3953,86.0514
97.3100,85.9993
97.1838,85.9591
97.0307,85.9052
96.9181,85.8238
96.8488,85.7143
96.8257,85.5761
96.8388,85.4728
96.8781,85.3837
96.9405,85.3114
97.0228,85.2580
97.1217,85.2252
97.2334,85.2142
Z" /> 
<path style="fill:#000000; fill-opacity:1.0000; stroke:none;fill-rule:evenodd;"
d="M 91.1916,85.2409
91.2040,85.2618
91.5526,86.5077
91.5584,86.5401
91.5488,86.5582
91.5260,86.5667
91.4155,86.5667
91.3793,86.5382
91.2955,86.2467
91.2831,86.2267
91.2593,86.2200
91.2193,86.2200
90.9430,86.2200
90.9068,86.2467
90.8230,86.5382
90.7868,86.5667
90.6763,86.5667
90.6535,86.5582
90.6440,86.5401
90.6497,86.5077
90.7835,86.0295
90.9659,86.0295
90.9830,86.0429
91.2193,86.0429
91.2345,86.0219
91.1107,85.4904
91.1031,85.4790
91.0992,85.4790
91.0916,85.4904
90.9678,86.0219
90.9659,86.0295
90.7835,86.0295
90.9983,85.2618
91.0107,85.2409
91.0345,85.2332
91.1678,85.2332
Z" /> 
<path style="fill:#000000; fill-opacity:1.0000; stroke:none;fill-rule:evenodd;"
d="M 96.2313,85.2447
96.2428,85.2713
96.2428,85.3761
96.2313,85.4028
96.2047,85.4142
95.7513,85.4142
95.7322,85.4333
95.7322,85.7762
95.7513,85.7952
96.1837,85.7952
96.2104,85.8067
96.2218,85.8333
96.2218,85.9381
96.2104,85.9648
96.1837,85.9762
95.7513,85.9762
95.7322,85.9952
95.7322,86.3667
95.7513,86.3858
96.2085,86.3858
96.2351,86.3972
96.2466,86.4239
96.2466,86.5286
96.2351,86.5553
96.2085,86.5667
95.5893,86.5667
95.5627,86.5553
95.5512,86.5286
95.5512,85.2713
95.5627,85.2447
95.5893,85.2332
96.2047,85.2332
Z" /> 
<path style="fill:#000000; fill-opacity:1.0000; stroke:none;fill-rule:evenodd;"
d="M 101.1053,85.2250
101.2015,85.2574
101.2805,85.3114
101.3598,85.4261
101.3862,85.5761
101.3862,85.6009
101.3748,85.6276
101.3481,85.6390
101.2434,85.6390
101.2167,85.6276
101.2053,85.6009
101.2053,85.5761
101.1907,85.4999
101.1472,85.4428
101.0784,85.4071
100.9881,85.3952
100.8979,85.4071
100.8290,85.4428
100.7709,85.5723
100.7878,85.6523
100.8386,85.7133
100.9307,85.7609
101.0719,85.8009
101.2100,85.8538
101.3158,85.9438
101.3829,86.0624
101.4053,86.2010
101.3920,86.3072
101.3520,86.4010
101.2877,86.4789
101.2015,86.5372
101.0976,86.5737
100.9805,86.5858
100.8588,86.5734
100.7528,86.5363
100.6659,86.4765
100.6014,86.3963
100.5614,86.2984
100.5480,86.1857
100.5480,86.1553
100.5595,86.1286
100.5861,86.1172
100.6928,86.1172
100.7195,86.1286
100.7309,86.1553
100.7309,86.1857
100.7483,86.2739
100.8005,86.3439
100.8807,86.3896
100.9824,86.4048
101.0774,86.3913
101.1529,86.3505
101.2022,86.2879
101.2186,86.2086
101.2024,86.1198
101.1538,86.0514
101.0686,85.9993
100.9424,85.9591
100.7893,85.9052
100.6766,85.8238
100.6073,85.7143
100.5842,85.5761
100.5973,85.4728
100.6366,85.3837
100.6990,85.3114
100.7814,85.2580
100.8802,85.2252
100.9919,85.2142
Z" /> 
<path style="fill:#000000; fill-opacity:1.0000; stroke:none;fill-rule:evenodd;"
d="M 88.2932,85.2269
88.3973,85.2650
88.4837,85.3285
88.5482,85.4144
88.5870,85.5198
88.5999,85.6447
88.5885,85.6685
88.5618,85.6790
88.4551,85.6790
88.4284,85.6676
88.4170,85.6409
88.4006,85.5376
88.3513,85.4599
88.2734,85.4114
88.1713,85.3952
88.0408,85.4295
87.9560,85.5247
87.9236,85.6714
87.9179,85.7762
87.9160,85.9000
87.9179,86.0238
87.9236,86.1286
87.9560,86.2753
88.0408,86.3705
88.1713,86.4048
88.2734,86.3886
88.3513,86.3401
88.4006,86.2624
88.4170,86.1591
88.4284,86.1324
88.4551,86.1210
88.5618,86.1210
88.5885,86.1315
88.5999,86.1553
88.5870,86.2802
88.5482,86.3856
88.4837,86.4715
88.3973,86.5350
88.2932,86.5731
88.1713,86.5858
88.0436,86.5703
87.9350,86.5239
87.8488,86.4522
87.7884,86.3610
87.7572,86.2746
87.7398,86.1753
87.7319,86.0536
87.7293,85.9000
87.7319,85.7464
87.7398,85.6247
87.7572,85.5254
87.7884,85.4390
87.8488,85.3478
87.9350,85.2761
88.0436,85.2297
88.1713,85.2142
Z" /> 
<path style="fill:#000000; fill-opacity:1.0000; stroke:none;fill-rule:evenodd;"
d="M 102.2949,85.2447
102.3064,85.2713
102.3064,85.3761
102.2949,85.4028
102.2683,85.4142
101.8149,85.4142
101.7958,85.4333
101.7958,85.7762
101.8149,85.7952
102.2473,85.7952
102.2740,85.8067
102.2854,85.8333
102.2854,85.9381
102.2740,85.9648
102.2473,85.9762
101.8149,85.9762
101.7958,85.9952
101.7958,86.3667
101.8149,86.3858
102.2721,86.3858
102.2987,86.3972
102.3102,86.4239
102.3102,86.5286
102.2987,86.5553
102.2721,86.5667
101.6529,86.5667
101.6263,86.5553
101.6148,86.5286
101.6148,85.2713
101.6263,85.2447
101.6529,85.2332
102.2683,85.2332
Z" /> 
<path style="fill:#000000; fill-opacity:1.0000; stroke:none;fill-rule:evenodd;"
d="M 105.1370,85.2299
105.2448,85.2771
105.3303,85.3495
105.3906,85.4409
105.4220,85.5278
105.4401,85.6285
105.4487,85.7502
105.4515,85.9000
105.4487,86.0498
105.4401,86.1715
105.4220,86.2722
105.3906,86.3591
105.3303,86.4505
105.2448,86.5229
105.1370,86.5701
105.0096,86.5858
104.8822,86.5701
104.7743,86.5229
104.6888,86.4505
104.6286,86.3591
104.5971,86.2722
104.5790,86.1715
104.5705,86.0498
104.5676,85.9000
104.7543,85.9000
104.7562,86.0276
104.7619,86.1324
104.7962,86.2772
104.8810,86.3705
105.0096,86.4048
105.1381,86.3705
105.2229,86.2772
105.2572,86.1324
105.2629,86.0276
105.2648,85.9000
105.2629,85.7724
105.2572,85.6676
105.2229,85.5228
105.1381,85.4295
105.0096,85.3952
104.8810,85.4295
104.7962,85.5228
104.7619,85.6676
104.7562,85.7724
104.7543,85.9000
104.5676,85.9000
104.5705,85.7502
104.5790,85.6285
104.5971,85.5278
104.6286,85.4409
104.6888,85.3495
104.7743,85.2771
104.8822,85.2299
105.0096,85.2142
Z" /> 
<path style="fill:#000000; fill-opacity:1.0000; stroke:none;fill-rule:evenodd;"
d="M 98.3780,85.2299
98.4859,85.2771
98.5714,85.3495
98.6316,85.4409
98.6631,85.5278
98.6812,85.6285
98.6897,85.7502
98.6926,85.9000
98.6897,86.0498
98.6812,86.1715
98.6631,86.2722
98.6316,86.3591
98.5714,86.4505
98.4859,86.5229
98.3780,86.5701
98.2506,86.5858
98.1232,86.5701
98.0154,86.5229
97.9299,86.4505
97.8696,86.3591
97.8382,86.2722
97.8201,86.1715
97.8115,86.0498
97.8087,85.9000
97.9954,85.9000
97.9973,86.0276
98.0030,86.1324
98.0373,86.2772
98.1220,86.3705
98.2506,86.4048
98.3792,86.3705
98.4640,86.2772
98.4983,86.1324
98.5040,86.0276
98.5059,85.9000
98.5040,85.7724
98.4983,85.6676
98.4640,85.5228
98.3792,85.4295
98.2506,85.3952
98.1220,85.4295
98.0373,85.5228
98.0030,85.6676
97.9973,85.7724
97.9954,85.9000
97.8087,85.9000
97.8115,85.7502
97.8201,85.6285
97.8382,85.5278
97.8696,85.4409
97.9299,85.3495
98.0154,85.2771
98.1232,85.2299
98.2506,85.2142
Z" /> 
<path style="fill:#000000; fill-opacity:1.0000; stroke:none;fill-rule:evenodd;"
d="M 90.2763,85.2461
90.3734,85.2847
90.4549,85.3461
90.5163,85.4276
90.5549,85.5247
90.5678,85.6333
90.5549,85.7419
90.5163,85.8390
90.4549,85.9205
90.3734,85.9819
90.2763,86.0205
90.1677,86.0333
89.9867,86.0333
89.9677,86.0524
89.9677,86.5286
89.9562,86.5553
89.9296,86.5667
89.8248,86.5667
89.7981,86.5553
89.7867,86.5286
89.7867,85.4333
89.9677,85.4333
89.9677,85.8333
89.9867,85.8524
90.1677,85.8524
90.2539,85.8371
90.3220,85.7914
90.3663,85.7214
90.3811,85.6333
90.3663,85.5452
90.3220,85.4752
90.2539,85.4295
90.1677,85.4142
89.9867,85.4142
89.9677,85.4333
89.7867,85.4333
89.7867,85.2713
89.7981,85.2447
89.8248,85.2332
90.1677,85.2332
Z" /> 
<path style="fill:#000000; fill-opacity:1.0000; stroke:none;fill-rule:evenodd;"
d="M 92.2461,85.2269
92.3502,85.2650
92.4366,85.3285
92.5011,85.4144
92.5399,85.5198
92.5528,85.6447
92.5413,85.6685
92.5147,85.6790
92.4080,85.6790
92.3813,85.6676
92.3699,85.6409
92.3535,85.5376
92.3042,85.4599
92.2263,85.4114
92.1241,85.3952
91.9936,85.4295
91.9089,85.5247
91.8765,85.6714
91.8708,85.7762
91.8689,85.9000
91.8708,86.0238
91.8765,86.1286
91.9089,86.2753
91.9936,86.3705
92.1241,86.4048
92.2263,86.3886
92.3042,86.3401
92.3535,86.2624
92.3699,86.1591
92.3813,86.1324
92.4080,86.1210
92.5147,86.1210
92.5413,86.1315
92.5528,86.1553
92.5399,86.2802
92.5011,86.3856
92.4366,86.4715
92.3502,86.5350
92.2461,86.5731
92.1241,86.5858
91.9965,86.5703
91.8879,86.5239
91.8017,86.4522
91.7412,86.3610
91.7100,86.2746
91.6927,86.1753
91.6848,86.0536
91.6822,85.9000
91.6848,85.7464
91.6927,85.6247
91.7100,85.5254
91.7412,85.4390
91.8017,85.3478
91.8879,85.2761
91.9965,85.2297
92.1241,85.2142
Z" /> 
<path style="fill:#000000; fill-opacity:1.0000; stroke:none;fill-rule:evenodd;"
d="M 99.1003,85.2447
99.1117,85.2713
99.1117,86.5286
99.1003,86.5553
99.0736,86.5667
98.9688,86.5667
98.9421,86.5553
98.9307,86.5286
98.9307,85.2713
98.9421,85.2447
98.9688,85.2332
99.0736,85.2332
Z" /> 
<path style="fill:#000000; fill-opacity:1.0000; stroke:none;fill-rule:evenodd;"
d="M 106.1764,85.2459
106.2726,85.2837
106.3545,85.3442
106.4174,85.4247
106.4574,85.5221
106.4707,85.6333
106.4487,85.7711
106.3826,85.8848
106.2726,85.9743
106.2326,86.0200
106.2421,86.0524
106.4631,86.5020
106.4707,86.5325
106.4612,86.5563
106.4326,86.5667
106.3164,86.5667
106.2707,86.5363
106.0706,86.1162
106.0421,86.0562
106.0059,86.0333
105.8897,86.0333
105.8706,86.0524
105.8706,86.5286
105.8592,86.5553
105.8325,86.5667
105.7277,86.5667
105.7011,86.5553
105.6896,86.5286
105.6896,85.4333
105.8706,85.4333
105.8706,85.8333
105.8897,85.8524
106.0706,85.8524
106.1545,85.8376
106.2230,85.7933
106.2688,85.7238
106.2840,85.6333
106.2688,85.5428
106.2230,85.4733
106.1545,85.4290
106.0706,85.4142
105.8897,85.4142
105.8706,85.4333
105.6896,85.4333
105.6896,85.2713
105.7011,85.2447
105.7277,85.2332
106.0706,85.2332
Z" /> 
<path style="fill:#000000; fill-opacity:1.0000; stroke:none;fill-rule:evenodd;"
d="M 89.2485,85.2409
89.2609,85.2618
89.6095,86.5077
89.6153,86.5401
89.6057,86.5582
89.5829,86.5667
89.4724,86.5667
89.4362,86.5382
89.3524,86.2467
89.3400,86.2267
89.3162,86.2200
89.2762,86.2200
88.9999,86.2200
88.9637,86.2467
88.8799,86.5382
88.8437,86.5667
88.7332,86.5667
88.7104,86.5582
88.7009,86.5401
88.7066,86.5077
88.8404,86.0295
89.0228,86.0295
89.0399,86.0429
89.2762,86.0429
89.2914,86.0219
89.1676,85.4904
89.1600,85.4790
89.1561,85.4790
89.1485,85.4904
89.0247,86.0219
89.0228,86.0295
88.8404,86.0295
89.0552,85.2618
89.0676,85.2409
89.0914,85.2332
89.2247,85.2332
Z" /> 
<path style="fill:#000000; fill-opacity:1.0000; stroke:none;fill-rule:evenodd;"
d="M 102.7588,85.2399
102.7750,85.2656
103.1408,86.1991
103.1560,86.2181
103.1655,86.2048
103.1655,85.2713
103.1769,85.2447
103.2036,85.2332
103.3008,85.2332
103.3274,85.2447
103.3389,85.2713
103.3389,86.5286
103.3274,86.5553
103.3008,86.5667
103.1427,86.5667
103.1188,86.5601
103.1027,86.5344
102.7369,85.5933
102.7217,85.5742
102.7121,85.5876
102.7121,86.5286
102.7007,86.5553
102.6740,86.5667
102.5769,86.5667
102.5502,86.5553
102.5388,86.5286
102.5388,85.2713
102.5502,85.2447
102.5769,85.2332
102.7350,85.2332
Z" /> 
<path style="fill:#000000; fill-opacity:1.0000; stroke:none;fill-rule:evenodd;"
d="M 94.6330,85.2618
94.8978,86.2772
94.9093,86.2886
94.9131,86.2886
94.9245,86.2772
95.1893,85.2618
95.2255,85.2332
95.3474,85.2332
95.3703,85.2418
95.3798,85.2599
95.3741,85.2923
95.0216,86.5382
94.9855,86.5667
94.8369,86.5667
94.8007,86.5382
94.4501,85.2923
94.4444,85.2599
94.4540,85.2418
94.4768,85.2332
94.5968,85.2332
Z" /> 
<path style="fill:#000000; fill-opacity:1.0000; stroke:none;fill-rule:evenodd;"
d="M 104.1056,85.2250
104.2018,85.2574
104.2809,85.3114
104.3602,85.4261
104.3866,85.5761
104.3866,85.6009
104.3752,85.6276
104.3485,85.6390
104.2437,85.6390
104.2171,85.6276
104.2056,85.6009
104.2056,85.5761
104.1911,85.4999
104.1475,85.4428
104.0787,85.4071
103.9885,85.3952
103.8982,85.4071
103.8294,85.4428
103.7713,85.5723
103.7882,85.6523
103.8389,85.7133
103.9311,85.7609
104.0723,85.8009
104.2104,85.8538
104.3161,85.9438
104.3833,86.0624
104.4057,86.2010
104.3923,86.3072
104.3523,86.4010
104.2880,86.4789
104.2018,86.5372
104.0980,86.5737
103.9809,86.5858
103.8592,86.5734
103.7532,86.5363
103.6663,86.4765
103.6018,86.3963
103.5618,86.2984
103.5484,86.1857
103.5484,86.1553
103.5599,86.1286
103.5865,86.1172
103.6932,86.1172
103.7199,86.1286
103.7313,86.1553
103.7313,86.1857
103.7487,86.2739
103.8008,86.3439
103.8811,86.3896
103.9828,86.4048
104.0778,86.3913
104.1533,86.3505
104.2026,86.2879
104.2190,86.2086
104.2028,86.1198
104.1542,86.0514
104.0690,85.9993
103.9428,85.9591
103.7896,85.9052
103.6770,85.8238
103.6077,85.7143
103.5846,85.5761
103.5977,85.4728
103.6370,85.3837
103.6994,85.3114
103.7818,85.2580
103.8806,85.2252
103.9923,85.2142
Z" /> 
<path style="fill:#000000; fill-opacity:1.0000; stroke:none;fill-rule:evenodd;"
d="M 94.2615,85.2447
94.2730,85.2713
94.2730,86.5286
94.2615,86.5553
94.2349,86.5667
94.1301,86.5667
94.1034,86.5553
94.0920,86.5286
94.0920,85.2713
94.1034,85.2447
94.1301,85.2332
94.2349,85.2332
Z" /> 
</g>
<g style="fill:none; 
stroke:#000000; stroke-width:0.2000; stroke-opacity:1; 
stroke-linecap:round; stroke-linejoin:round;">
<path d="M95.9750 77.7500
L95.6750 77.7500
" />
<path d="M95.9750 77.0500
L95.6750 77.0500
" />
<path d="M89.5625 61.7100
L89.8625 61.7100
" />
<path d="M89.5625 61.0100
L89.8625 61.0100
" />
<path style="fill:#000000; fill-opacity:1.0000; stroke:none;fill-rule:evenodd;"
d="M 104.9857,53.5703
104.9952,53.5925
104.9952,53.8020
105.0111,53.8179
105.9239,53.8179
105.9461,53.8274
105.9556,53.8497
105.9556,53.9370
105.9461,53.9592
105.9239,53.9687
105.0111,53.9687
104.9952,53.9846
104.9952,54.1957
104.9857,54.2180
104.9634,54.2275
104.8761,54.2275
104.8539,54.2180
104.8444,54.1957
104.8444,53.5925
104.8539,53.5703
104.8761,53.5607
104.9634,53.5607
Z" /> 
<path style="fill:#000000; fill-opacity:1.0000; stroke:none;fill-rule:evenodd;"
d="M 105.7393,55.0879
105.8175,55.1212
105.8824,55.1748
105.9310,55.2467
105.9614,55.3332
105.9715,55.4308
105.9612,55.5322
105.9302,55.6205
105.8804,55.6929
105.8135,55.7467
105.7320,55.7801
105.6381,55.7912
105.6127,55.7912
105.5905,55.7816
105.5810,55.7594
105.5810,55.6705
105.5905,55.6483
105.6127,55.6388
105.6381,55.6388
105.7115,55.6243
105.7699,55.5808
105.8080,55.5140
105.8207,55.4292
105.8094,55.3500
105.7754,55.2871
105.7233,55.2461
105.6572,55.2324
105.5832,55.2459
105.5262,55.2863
105.4827,55.3574
105.4492,55.4626
105.4044,55.5902
105.3365,55.6840
105.2452,55.7418
105.1301,55.7610
105.0440,55.7501
104.9698,55.7173
104.9095,55.6654
104.8650,55.5967
104.8376,55.5143
104.8285,55.4213
104.8375,55.3268
104.8645,55.2467
104.9095,55.1808
105.0051,55.1147
105.1301,55.0927
105.1508,55.0927
105.1730,55.1022
105.1825,55.1244
105.1825,55.2117
105.1730,55.2340
105.1508,55.2435
105.1301,55.2435
105.0666,55.2556
105.0190,55.2919
104.9892,55.3492
104.9793,55.4245
104.9892,55.4997
105.0190,55.5570
105.1269,55.6054
105.1936,55.5913
105.2444,55.5491
105.2841,55.4723
105.3174,55.3546
105.3615,55.2395
105.4365,55.1514
105.5353,55.0954
105.6508,55.0768
Z" /> 
<path style="fill:#000000; fill-opacity:1.0000; stroke:none;fill-rule:evenodd;"
d="M 105.5794,58.3089
105.5889,58.3312
105.5889,58.7169
105.5794,58.7392
105.5572,58.7487
105.4778,58.7487
105.4556,58.7392
105.4460,58.7169
105.4460,58.3312
105.4556,58.3089
105.4778,58.2994
105.5572,58.2994
Z" /> 
<path style="fill:#000000; fill-opacity:1.0000; stroke:none;fill-rule:evenodd;"
d="M 104.8936,58.8646
105.9318,59.1583
105.9556,59.1884
105.9556,59.3122
105.9318,59.3424
104.8936,59.6345
104.8666,59.6393
104.8515,59.6313
104.8444,59.6123
104.8444,59.5123
104.8682,59.4821
105.7143,59.2614
105.7238,59.2519
105.7238,59.2487
105.7143,59.2392
104.8682,59.0186
104.8444,58.9884
104.8444,58.8868
104.8515,58.8677
104.8666,58.8598
Z" /> 
<path style="fill:#000000; fill-opacity:1.0000; stroke:none;fill-rule:evenodd;"
d="M 105.5248,57.3985
105.6262,57.4057
105.7102,57.4207
105.7826,57.4469
105.8588,57.4971
105.9191,57.5684
105.9584,57.6583
105.9715,57.7644
105.9584,57.8706
105.9191,57.9605
105.8588,58.0317
105.7826,58.0819
105.7102,58.1081
105.6262,58.1232
105.5248,58.1303
105.4000,58.1327
105.2752,58.1303
105.1738,58.1232
105.0898,58.1081
105.0174,58.0819
104.9412,58.0317
104.8809,57.9605
104.8416,57.8706
104.8285,57.7644
104.9793,57.7644
105.0079,57.8716
105.0857,57.9422
105.2063,57.9708
105.2936,57.9756
105.4000,57.9772
105.5064,57.9756
105.5937,57.9708
105.7143,57.9422
105.7921,57.8716
105.8207,57.7644
105.7921,57.6573
105.7143,57.5866
105.5937,57.5581
105.5064,57.5533
105.4000,57.5517
105.2936,57.5533
105.2063,57.5581
105.0857,57.5866
105.0079,57.6573
104.9793,57.7644
104.8285,57.7644
104.8416,57.6583
104.8809,57.5684
104.9412,57.4971
105.0174,57.4469
105.0898,57.4207
105.1738,57.4057
105.2752,57.3985
105.4000,57.3961
Z" /> 
<path style="fill:#000000; fill-opacity:1.0000; stroke:none;fill-rule:evenodd;"
d="M 104.9857,56.6310
104.9952,56.6532
104.9952,57.0310
105.0111,57.0469
105.2968,57.0469
105.3127,57.0310
105.3127,56.6706
105.3222,56.6484
105.3444,56.6389
105.4317,56.6389
105.4540,56.6484
105.4635,56.6706
105.4635,57.0310
105.4794,57.0469
105.9239,57.0469
105.9461,57.0564
105.9556,57.0786
105.9556,57.1659
105.9461,57.1882
105.9239,57.1977
104.8761,57.1977
104.8539,57.1882
104.8444,57.1659
104.8444,56.6532
104.8539,56.6310
104.8761,56.6214
104.9634,56.6214
Z" /> 
<path style="fill:#000000; fill-opacity:1.0000; stroke:none;fill-rule:evenodd;"
d="M 104.9857,55.8959
104.9952,55.9182
104.9952,56.2960
105.0111,56.3119
105.2968,56.3119
105.3127,56.2960
105.3127,55.9356
105.3222,55.9134
105.3444,55.9039
105.4317,55.9039
105.4540,55.9134
105.4635,55.9356
105.4635,56.2960
105.4794,56.3119
105.9239,56.3119
105.9461,56.3214
105.9556,56.3436
105.9556,56.4309
105.9461,56.4532
105.9239,56.4627
104.8761,56.4627
104.8539,56.4532
104.8444,56.4309
104.8444,55.9182
104.8539,55.8959
104.8761,55.8864
104.9634,55.8864
Z" /> 
<path style="fill:#000000; fill-opacity:1.0000; stroke:none;fill-rule:evenodd;"
d="M 105.9461,54.3323
105.9556,54.3545
105.9556,54.8704
105.9461,54.8926
105.9239,54.9022
104.8761,54.9022
104.8539,54.8926
104.8444,54.8704
104.8444,54.3577
104.8539,54.3354
104.8761,54.3259
104.9634,54.3259
104.9857,54.3354
104.9952,54.3577
104.9952,54.7355
105.0111,54.7514
105.2968,54.7514
105.3127,54.7355
105.3127,54.3751
105.3222,54.3529
105.3444,54.3434
105.4317,54.3434
105.4540,54.3529
105.4635,54.3751
105.4635,54.7355
105.4794,54.7514
105.7889,54.7514
105.8048,54.7355
105.8048,54.3545
105.8143,54.3323
105.8366,54.3227
105.9239,54.3227
Z" /> 
</g>
<g style="fill:none; 
stroke:#000000; stroke-width:0.2000; stroke-opacity:1; 
stroke-linecap:round; stroke-linejoin:round;">
<path d="M94.6500 62.0450
L94.6500 62.3450
" />
<path d="M93.9500 62.0450
L93.9500 62.3450
" />
<path d="M90.4000 73.5000
L90.8000 73.5000
" />
<path d="M90.4000 72.7000
L90.8000 72.7000
" />
<path style="fill:#000000; fill-opacity:1.0000; 
stroke:#000000; stroke-width:0.0100; stroke-opacity:1; 
stroke-linecap:round; stroke-linejoin:round;fill-rule:evenodd;"
d="M 100.3400,48.0500
100.3400,54.0100
100.3100,54.0700
98.8000,54.0700
98.7400,54.0500
98.7400,53.7300
98.7400,53.6700
98.7400,53.1100
98.9900,53.1100
98.9900,53.2000
99.0000,53.2800
99.0300,53.3500
99.0700,53.4200
99.1300,53.4700
99.1900,53.5100
99.2700,53.5400
99.3400,53.5500
99.4100,53.5500
99.5000,53.5500
99.6000,53.5500
99.6800,53.5500
99.7500,53.5400
99.8200,53.5200
99.8900,53.4900
99.9600,53.4400
100.0000,53.3800
100.0300,53.3100
100.0500,53.2300
100.0600,53.1300
100.0500,53.0500
100.0200,52.9800
99.9800,52.9100
99.9300,52.8600
99.8600,52.8200
99.7900,52.8000
99.7000,52.7900
99.4600,52.7900
99.4300,52.8500
99.4300,53.0900
99.4300,53.1700
99.5100,53.1800
99.5900,53.1800
99.6200,53.1200
99.6300,53.0500
99.7200,53.0500
99.8000,53.0700
99.8500,53.1200
99.8600,53.2000
99.8400,53.2800
99.7900,53.3300
99.7500,53.3400
99.6700,53.3500
99.5700,53.3500
99.4500,53.3500
99.3500,53.3500
99.2900,53.3400
99.2400,53.3200
99.2000,53.2600
99.1900,53.1700
99.2000,53.0900
99.2500,53.0300
99.3200,52.9900
99.3200,52.8400
99.2700,52.7900
99.1900,52.8000
99.1300,52.8400
99.0700,52.9000
99.0300,52.9600
99.0000,53.0300
98.9900,53.1100
98.7400,53.1100
98.7400,51.9200
98.9900,51.9200
98.9900,52.0000
99.0300,52.0400
99.5100,52.0400
99.5900,52.0500
99.5200,52.0800
99.0000,52.2800
98.9900,52.3600
98.9900,52.5200
99.0500,52.5500
100.0000,52.5500
100.0600,52.5100
100.0600,52.4300
100.0600,52.3700
99.9800,52.3500
99.5100,52.3500
99.5500,52.3100
100.0000,52.1400
100.0500,52.1000
100.0600,52.0100
100.0600,51.9300
100.0400,51.8600
99.9700,51.8500
99.0100,51.8500
98.9900,51.9200
98.7400,51.9200
98.7400,51.2300
98.9900,51.2300
98.9900,51.3200
98.9900,51.5600
99.0300,51.6100
99.9800,51.6100
100.0500,51.5900
100.0600,51.5200
100.0600,51.2800
100.0600,51.2500
100.0400,51.1700
100.0100,51.1000
99.9700,51.0300
99.9100,50.9800
99.8500,50.9400
99.7900,50.9200
99.7200,50.9100
99.6300,50.9100
99.5300,50.9000
99.4300,50.9000
99.3400,50.9100
99.2600,50.9200
99.2000,50.9400
99.1400,50.9700
99.0800,51.0200
99.0400,51.0900
99.0100,51.1500
98.9900,51.2300
98.7400,51.2300
98.7400,48.0300
98.8000,48.0000
100.3100,48.0000
Z" /> 
<path style="fill:#000000; fill-opacity:1.0000; 
stroke:#000000; stroke-width:0.0100; stroke-opacity:1; 
stroke-linecap:round; stroke-linejoin:round;fill-rule:evenodd;"
d="M 99.7500,51.1200
99.7900,51.1300
99.8400,51.1800
99.8600,51.2600
99.8600,51.3400
99.8500,51.4100
99.2100,51.4100
99.1800,51.3600
99.1800,51.2800
99.2000,51.1900
99.2400,51.1400
99.2900,51.1200
99.3600,51.1100
99.4500,51.1100
99.5700,51.1100
99.6700,51.1100
Z" /> 
<path style="fill:none; 
stroke:#000000; stroke-width:0.1200; stroke-opacity:1; 
stroke-linecap:round; stroke-linejoin:round;fill:none"
d="M 92.0500,69.2900
89.1500,69.2900
89.1500,70.9100
92.0500,70.9100
Z" /> 
</g>
<g style="fill:none; 
stroke:#000000; stroke-width:0.1200; stroke-opacity:1; 
stroke-linecap:round; stroke-linejoin:round;">
<circle cx="91.5000" cy="69.7000" r="0.2000" /> 
<path style="fill:#000000; fill-opacity:1.0000; stroke:none;fill-rule:evenodd;"
d="M 92.8942,55.6639
92.9065,55.6668
92.9674,55.6892
93.0215,55.7220
93.0678,55.7635
93.1053,55.8124
93.1332,55.8669
93.1504,55.9256
93.1560,55.9868
93.1492,56.0491
93.1462,56.0619
93.1237,56.1231
93.0909,56.1773
93.0493,56.2238
93.0005,56.2614
92.9459,56.2894
92.8871,56.3068
92.8257,56.3125
92.7632,56.3058
92.7469,56.3019
92.6863,56.2791
92.6326,56.2458
92.5867,56.2037
92.5497,56.1544
92.5223,56.0994
92.5056,56.0403
92.5010,55.9845
92.7188,55.9845
92.7219,56.0011
92.7296,56.0228
92.7342,56.0327
92.7532,56.0583
92.7800,56.0789
92.8098,56.0915
92.8282,56.0939
92.8448,56.0909
92.8664,56.0831
92.8763,56.0786
92.9019,56.0595
92.9225,56.0328
92.9351,56.0029
92.9376,55.9845
92.9316,55.9552
92.9157,55.9259
92.8929,55.9015
92.8763,55.8905
92.8546,55.8814
92.8348,55.8759
92.8282,55.8752
92.8116,55.8782
92.7899,55.8860
92.7801,55.8905
92.7544,55.9096
92.7338,55.9363
92.7212,55.9662
92.7188,55.9845
92.5010,55.9845
92.5006,55.9787
92.5080,55.9162
92.5105,55.9062
92.5329,55.8451
92.5657,55.7909
92.6074,55.7446
92.6564,55.7071
92.7111,55.6794
92.7700,55.6623
92.8315,55.6568
Z" /> 
<path style="fill:#000000; fill-opacity:1.0000; stroke:none;fill-rule:evenodd;"
d="M 92.5320,53.2551
92.5630,53.2704
92.5672,53.2737
92.5777,53.2852
92.5934,53.3059
92.6127,53.3334
92.6337,53.3650
92.6439,53.3811
92.6751,53.4302
92.7063,53.4780
92.7384,53.5258
92.7723,53.5748
92.8089,53.6262
92.8491,53.6813
92.8939,53.7414
92.9440,53.8077
93.0005,53.8814
93.0642,53.9638
93.1017,54.0120
93.1548,54.0804
93.2004,54.1392
93.2396,54.1899
93.2733,54.2338
93.3024,54.2721
93.3280,54.3061
93.3510,54.3372
93.3724,54.3667
93.3932,54.3957
93.4144,54.4258
93.4245,54.4402
93.5081,54.5647
93.5806,54.6830
93.6423,54.7963
93.6939,54.9056
93.7358,55.0120
93.7684,55.1165
93.7923,55.2203
93.8030,55.2851
93.8085,55.3418
93.8110,55.4073
93.8106,55.4770
93.8073,55.5464
93.8012,55.6111
93.7958,55.6483
93.7663,55.7811
93.7245,55.9084
93.6704,56.0297
93.6044,56.1446
93.5266,56.2527
93.4372,56.3536
93.4267,56.3642
93.3266,56.4549
93.2193,56.5340
93.1051,56.6013
92.9844,56.6567
92.8576,56.6999
92.7249,56.7309
92.7107,56.7334
92.6845,56.7369
92.6488,56.7401
92.6066,56.7429
92.5608,56.7453
92.5143,56.7470
92.4700,56.7481
92.4308,56.7483
92.3996,56.7477
92.3803,56.7461
92.3243,56.7376
92.2792,56.7303
92.2424,56.7238
92.2112,56.7175
92.1832,56.7109
92.1653,56.7063
92.0386,56.6655
91.9180,56.6128
91.8041,56.5489
91.6976,56.4744
91.5993,56.3902
91.5097,56.2967
91.4296,56.1948
91.3597,56.0851
91.3005,55.9682
91.2529,55.8449
91.2314,55.7726
91.2140,55.6995
91.2016,55.6271
91.1936,55.5506
91.1895,55.4752
91.1896,55.4663
91.4091,55.4663
91.4152,55.5545
91.4235,55.6153
91.4498,55.7345
91.4886,55.8484
91.5397,55.9566
91.6030,56.0586
91.6781,56.1540
91.7387,56.2177
91.8294,56.2977
91.9247,56.3654
92.0255,56.4212
92.1325,56.4654
92.2465,56.4985
92.3684,56.5208
92.4282,56.5275
92.4561,56.5288
92.4937,56.5285
92.5371,56.5269
92.5824,56.5242
92.6258,56.5206
92.6632,56.5164
92.6778,56.5142
92.7978,56.4875
92.9122,56.4484
93.0205,56.3971
93.1224,56.3337
93.2178,56.2583
93.2801,56.1988
93.3619,56.1056
93.4312,56.0068
93.4881,55.9024
93.5327,55.7922
93.5649,55.6760
93.5765,55.6153
93.5881,55.5181
93.5908,55.4218
93.5842,55.3257
93.5680,55.2288
93.5419,55.1303
93.5058,55.0292
93.4592,54.9246
93.4018,54.8157
93.3335,54.7016
93.2539,54.5814
93.2365,54.5563
93.2206,54.5338
93.2051,54.5119
93.1890,54.4897
93.1716,54.4661
93.1521,54.4400
93.1297,54.4102
93.1034,54.3758
93.0726,54.3356
93.0364,54.2885
92.9939,54.2335
92.9444,54.1695
92.9083,54.1230
92.8320,54.0240
92.7640,53.9349
92.7040,53.8553
92.6517,53.7845
92.6065,53.7220
92.5680,53.6673
92.5479,53.6377
92.5302,53.6117
92.5152,53.5906
92.5046,53.5764
92.5000,53.5715
92.4951,53.5769
92.4842,53.5914
92.4691,53.6128
92.4521,53.6377
92.4131,53.6944
92.3654,53.7610
92.3095,53.8370
92.2457,53.9219
92.1743,54.0154
92.1241,54.0804
92.0867,54.1286
92.0477,54.1790
92.0091,54.2290
91.9727,54.2760
91.9407,54.3175
91.9150,54.3510
91.9131,54.3535
91.8185,54.4798
91.7346,54.5988
91.6610,54.7111
91.5975,54.8177
91.5438,54.9192
91.4995,55.0164
91.4643,55.1102
91.4380,55.2013
91.4203,55.2905
91.4107,55.3786
91.4091,55.4663
91.1896,55.4663
91.1907,55.3621
91.2025,55.2503
91.2252,55.1383
91.2592,55.0246
91.3048,54.9077
91.3528,54.8051
91.3794,54.7536
91.4074,54.7023
91.4375,54.6505
91.4704,54.5969
91.5068,54.5407
91.5473,54.4808
91.5928,54.4162
91.6437,54.3459
91.7010,54.2690
91.7651,54.1844
91.8369,54.0910
91.8956,54.0155
91.9641,53.9273
92.0249,53.8485
92.0788,53.7777
92.1268,53.7138
92.1698,53.6555
92.2088,53.6016
92.2445,53.5507
92.2779,53.5017
92.3100,53.4532
92.3415,53.4041
92.3561,53.3811
92.3772,53.3483
92.3976,53.3185
92.4153,53.2942
92.4285,53.2779
92.4328,53.2737
92.4629,53.2567
92.4973,53.2506
Z" /> 
<path style="fill:#000000; fill-opacity:1.0000; stroke:none;fill-rule:evenodd;"
d="M 93.0540,54.7806
93.0618,54.7822
93.0705,54.7841
93.0723,54.7844
93.0986,54.7953
93.1237,54.8153
93.1433,54.8406
93.1531,54.8653
93.1550,54.8742
93.1567,54.8822
93.1577,54.8898
93.1575,54.8976
93.1556,54.9061
93.1515,54.9159
93.1448,54.9276
93.1349,54.9417
93.1214,54.9587
93.1037,54.9793
93.0814,55.0040
93.0539,55.0333
93.0208,55.0678
92.9815,55.1081
92.9357,55.1547
92.8827,55.2082
92.8221,55.2691
92.7533,55.3380
92.6760,55.4155
92.5896,55.5020
92.5833,55.5083
92.5032,55.5885
92.4271,55.6644
92.3555,55.7357
92.2888,55.8018
92.2277,55.8622
92.1725,55.9165
92.1238,55.9641
92.0822,56.0045
92.0481,56.0372
92.0220,56.0618
92.0046,56.0776
91.9962,56.0843
91.9960,56.0844
91.9598,56.0930
91.9226,56.0894
91.9082,56.0843
91.8785,56.0644
91.8574,56.0355
91.8462,56.0005
91.8462,55.9619
91.8467,55.9589
91.8482,55.9542
91.8515,55.9480
91.8571,55.9399
91.8656,55.9292
91.8774,55.9154
91.8931,55.8980
91.9131,55.8766
91.9379,55.8505
91.9681,55.8193
92.0042,55.7824
92.0467,55.7393
92.0960,55.6894
92.1527,55.6324
92.2173,55.5675
92.2903,55.4944
92.3722,55.4124
92.4235,55.3611
92.5111,55.2734
92.5896,55.1949
92.6595,55.1251
92.7214,55.0634
92.7758,55.0094
92.8232,54.9625
92.8643,54.9224
92.8995,54.8884
92.9295,54.8601
92.9548,54.8370
92.9759,54.8187
92.9935,54.8045
93.0079,54.7941
93.0199,54.7869
93.0300,54.7825
93.0386,54.7803
93.0464,54.7798
Z" /> 
<path style="fill:#000000; fill-opacity:1.0000; stroke:none;fill-rule:evenodd;"
d="M 92.2379,54.5700
92.2502,54.5729
92.3111,54.5953
92.3651,54.6280
92.4114,54.6696
92.4489,54.7184
92.4768,54.7729
92.4940,54.8316
92.4997,54.8929
92.4928,54.9552
92.4898,54.9679
92.4674,55.0291
92.4346,55.0834
92.3930,55.1298
92.3441,55.1675
92.2895,55.1955
92.2308,55.2128
92.1693,55.2186
92.1068,55.2119
92.0905,55.2080
92.0299,55.1851
91.9762,55.1519
91.9304,55.1098
91.8933,55.0604
91.8660,55.0055
91.8493,54.9464
91.8447,54.8906
92.0624,54.8906
92.0684,54.9200
92.0843,54.9492
92.1071,54.9737
92.1237,54.9846
92.1454,54.9938
92.1652,54.9993
92.1718,55.0000
92.1884,54.9969
92.2101,54.9892
92.2199,54.9846
92.2456,54.9656
92.2662,54.9388
92.2788,54.9090
92.2812,54.8906
92.2752,54.8612
92.2594,54.8320
92.2366,54.8075
92.2199,54.7966
92.1982,54.7874
92.1784,54.7819
92.1718,54.7812
92.1424,54.7872
92.1132,54.8031
92.0887,54.8259
92.0778,54.8425
92.0686,54.8642
92.0631,54.8840
92.0624,54.8906
91.8447,54.8906
91.8442,54.8848
91.8517,54.8222
91.8541,54.8123
91.8765,54.7511
91.9094,54.6970
91.9510,54.6507
92.0000,54.6132
92.0547,54.5854
92.1136,54.5684
92.1752,54.5629
Z" /> 
</g>
<g style="fill:none; 
stroke:#000000; stroke-width:0.2000; stroke-opacity:1; 
stroke-linecap:round; stroke-linejoin:round;">
<path d="M97.8750 58.3450
L98.1750 58.3450
" />
<path d="M97.8750 59.0450
L98.1750 59.0450
" />
<path d="M102.9000 68.7000
L102.5000 68.7000
" />
<path d="M102.9000 69.5000
L102.5000 69.5000
" />
<path style="fill:none; 
stroke:#000000; stroke-width:0.1200; stroke-opacity:1; 
stroke-linecap:round; stroke-linejoin:round;fill:none"
d="M 96.6900,59.6950
101.9000,59.6950
101.9000,64.6950
96.6900,64.6950
Z" /> 
</g>
<g style="fill:none; 
stroke:#000000; stroke-width:0.0600; stroke-opacity:1; 
stroke-linecap:round; stroke-linejoin:round;">
<circle cx="98.3000" cy="60.2900" r="0.3500" /> 
<path style="fill:#000000; fill-opacity:1.0000; 
stroke:#000000; stroke-width:0.0100; stroke-opacity:1; 
stroke-linecap:round; stroke-linejoin:round;fill-rule:evenodd;"
d="M 92.9900,63.8700
92.9900,64.6800
92.9700,64.7400
92.9000,64.7400
92.8700,64.6900
92.8700,64.0100
92.8200,64.0300
92.7100,64.1000
92.6700,64.0800
92.6900,64.0200
92.8300,63.8800
92.8800,63.8300
92.9500,63.8300
Z" /> 
<path style="fill:#000000; fill-opacity:1.0000; 
stroke:#000000; stroke-width:0.0100; stroke-opacity:1; 
stroke-linecap:round; stroke-linejoin:round;fill-rule:evenodd;"
d="M 92.3500,63.8600
92.2900,63.9500
92.2300,63.9400
92.1600,63.9400
92.1000,63.9500
92.1000,64.2200
92.1600,64.2300
92.2300,64.2300
92.2800,64.2300
92.3300,64.1800
92.3600,64.1200
92.3600,64.0700
92.3400,64.0100
92.3000,63.9500
92.3500,63.8600
92.4100,63.9000
92.4500,63.9400
92.4700,64.0000
92.4800,64.0700
92.4800,64.1400
92.4600,64.2000
92.4300,64.2500
92.3800,64.2900
92.3200,64.3300
92.2500,64.3400
92.1100,64.3400
92.1000,64.4000
92.1000,64.6700
92.1000,64.7300
92.0300,64.7400
92.0100,64.7400
91.9900,64.6900
91.9900,63.8800
92.0100,63.8300
92.2800,63.8300
Z" /> 
<path style="fill:#000000; fill-opacity:1.0000; 
stroke:#000000; stroke-width:0.0100; stroke-opacity:1; 
stroke-linecap:round; stroke-linejoin:round;fill-rule:evenodd;"
d="M 91.7700,63.8600
91.7700,64.4700
91.7600,64.5300
91.7500,64.5900
91.7100,64.6600
91.6700,64.7200
91.6100,64.7400
91.4700,64.7400
91.4000,64.6900
91.3600,64.6500
91.3300,64.6000
91.3200,64.5300
91.3200,64.4600
91.3800,64.4400
91.4300,64.4700
91.4300,64.5300
91.4600,64.5900
91.5100,64.6400
91.5800,64.6400
91.6300,64.5900
91.6500,64.5300
91.6600,64.4600
91.6600,63.9100
91.6600,63.8500
91.7200,63.8300
Z" /> 
</g>
<g style="fill:none; 
stroke:#000000; stroke-width:0.2000; stroke-opacity:1; 
stroke-linecap:round; stroke-linejoin:round;">
<path d="M89.8625 59.7100
L89.5625 59.7100
" />
<path d="M89.8625 59.0100
L89.5625 59.0100
" />
<path style="fill:#000000; fill-opacity:1.0000; stroke:none;fill-rule:evenodd;"
d="M 105.6046,79.7738
105.6045,80.0511
105.6041,80.2863
105.6034,80.4829
105.6022,80.6444
105.6005,80.7742
105.5982,80.8757
105.5951,80.9523
105.5912,81.0075
105.5863,81.0448
105.5805,81.0675
105.5735,81.0792
105.5686,81.0823
105.4761,81.0951
105.3864,81.0679
105.3606,81.0507
105.3171,81.0203
105.2781,81.0088
105.2304,81.0167
105.1609,81.0447
105.1236,81.0618
104.9878,81.1047
104.8386,81.1184
104.6954,81.1018
104.6468,81.0875
104.4856,81.0067
104.3519,80.8909
104.2495,80.7439
104.2017,80.6341
104.1812,80.5456
104.1669,80.4240
104.1590,80.2811
104.1577,80.1623
104.4681,80.1623
104.4717,80.3334
104.4854,80.4662
104.5123,80.5673
104.5556,80.6435
104.6185,80.7015
104.7042,80.7478
104.7577,80.7691
104.8594,80.7881
104.9751,80.7826
105.0818,80.7540
105.1040,80.7436
105.1884,80.6808
105.2630,80.5915
105.2871,80.5506
105.3025,80.4978
105.3152,80.4113
105.3245,80.3028
105.3297,80.1843
105.3302,80.0673
105.3254,79.9637
105.3218,79.9286
105.2846,79.7906
105.2145,79.6781
105.1176,79.5954
105.0000,79.5468
104.8678,79.5365
104.7791,79.5517
104.6756,79.5877
104.5969,79.6368
104.5398,79.7047
104.5014,79.7972
104.4789,79.9202
104.4691,80.0796
104.4681,80.1623
104.1577,80.1623
104.1574,80.1290
104.1620,79.9794
104.1730,79.8444
104.1902,79.7359
104.2024,79.6915
104.2775,79.5357
104.3815,79.4067
104.5080,79.3074
104.6507,79.2410
104.8032,79.2107
104.9593,79.2195
105.0856,79.2582
105.1486,79.2838
105.1958,79.2959
105.2297,79.2895
105.2528,79.2600
105.2677,79.2025
105.2769,79.1124
105.2828,78.9847
105.2862,78.8766
105.2976,78.4925
105.4511,78.4858
105.6046,78.4790
Z" /> 
<path style="fill:#000000; fill-opacity:1.0000; stroke:none;fill-rule:evenodd;"
d="M 100.6451,79.2325
100.7827,79.2671
100.8995,79.3292
101.0058,79.4227
101.0216,79.4399
101.0920,79.5309
101.1426,79.6296
101.1770,79.7468
101.1990,79.8933
101.2060,79.9728
101.2132,80.0629
101.2169,80.1332
101.2123,80.1863
101.1944,80.2245
101.1586,80.2505
101.0999,80.2667
101.0136,80.2757
100.8949,80.2798
100.7388,80.2816
100.6070,80.2828
100.0448,80.2889
100.0514,80.3912
100.0783,80.5358
100.1379,80.6489
100.2287,80.7294
100.3494,80.7759
100.4640,80.7879
100.5990,80.7762
100.7032,80.7359
100.7839,80.6631
100.8258,80.5994
100.8793,80.5029
101.0305,80.5096
101.1817,80.5163
101.1755,80.5939
101.1529,80.6850
101.1042,80.7879
101.0390,80.8859
100.9667,80.9624
100.9665,80.9626
100.8319,81.0463
100.6711,81.1012
100.4954,81.1246
100.3404,81.1173
100.2527,81.1004
100.1678,81.0762
100.1428,81.0667
100.0459,81.0099
99.9455,80.9246
99.8555,80.8245
99.7909,80.7250
99.7465,80.6047
99.7158,80.4516
99.6997,80.2764
99.6996,80.0901
99.7077,79.9829
100.0561,79.9829
100.4711,79.9767
100.8861,79.9705
100.8808,79.8829
100.8523,79.7676
100.7859,79.6674
100.6894,79.5936
100.6868,79.5923
100.5752,79.5565
100.4492,79.5493
100.3255,79.5696
100.2204,79.6162
100.2047,79.6273
100.1178,79.7190
100.0672,79.8296
100.0561,79.9135
100.0561,79.9829
99.7077,79.9829
99.7093,79.9613
99.7174,79.9135
99.7423,79.7666
99.7968,79.6080
99.8763,79.4798
99.9843,79.3766
100.1191,79.2951
100.1981,79.2583
100.2627,79.2361
100.3297,79.2249
100.4161,79.2213
100.4764,79.2212
Z" /> 
<path style="fill:#000000; fill-opacity:1.0000; stroke:none;fill-rule:evenodd;"
d="M 99.3533,78.4856
99.4990,78.4925
99.5050,79.7659
99.5061,80.0398
99.5069,80.2717
99.5072,80.4653
99.5068,80.6241
99.5058,80.7516
99.5040,80.8515
99.5013,80.9272
99.4976,80.9823
99.4929,81.0204
99.4870,81.0451
99.4799,81.0598
99.4722,81.0677
99.4014,81.0939
99.3200,81.0853
99.2540,81.0507
99.2014,81.0169
99.1516,81.0086
99.0902,81.0260
99.0279,81.0561
98.9222,81.0931
98.7931,81.1117
98.6593,81.1110
98.5393,81.0901
98.5161,81.0824
98.4108,81.0265
98.3036,80.9402
98.2078,80.8362
98.1366,80.7268
98.1339,80.7215
98.0909,80.5998
98.0617,80.4468
98.0464,80.2744
98.0455,80.1748
98.3512,80.1748
98.3573,80.3159
98.3743,80.4448
98.4020,80.5503
98.4340,80.6129
98.5353,80.7145
98.6549,80.7751
98.7886,80.7933
98.9078,80.7751
99.0099,80.7386
99.0877,80.6892
99.1439,80.6209
99.1816,80.5280
99.2036,80.4047
99.2129,80.2450
99.2138,80.1638
99.2126,80.0296
99.2085,79.9312
99.2003,79.8593
99.1872,79.8041
99.1714,79.7636
99.1024,79.6615
99.0074,79.5894
98.8950,79.5478
98.7740,79.5374
98.6529,79.5588
98.5406,79.6125
98.4456,79.6992
98.4346,79.7133
98.3976,79.7908
98.3713,79.9010
98.3558,80.0327
98.3512,80.1748
98.0455,80.1748
98.0448,80.0946
98.0571,79.9194
98.0831,79.7607
98.1229,79.6305
98.1342,79.6055
98.2295,79.4575
98.3512,79.3422
98.4932,79.2619
98.6494,79.2194
98.8137,79.2171
98.9762,79.2563
99.0499,79.2799
99.1096,79.2919
99.1362,79.2911
99.1489,79.2787
99.1580,79.2485
99.1641,79.1945
99.1677,79.1105
99.1694,78.9905
99.1696,78.9082
99.1709,78.7814
99.1740,78.6696
99.1787,78.5811
99.1846,78.5243
99.1888,78.5084
99.2206,78.4907
99.2894,78.4842
Z" /> 
<path style="fill:#000000; fill-opacity:1.0000; stroke:none;fill-rule:evenodd;"
d="M 96.7184,79.2165
96.7919,79.2321
96.8517,79.2523
97.0057,79.3311
97.1299,79.4418
97.2288,79.5885
97.2412,79.6129
97.3160,79.7649
97.3160,80.1520
97.3158,80.2939
97.3142,80.3992
97.3103,80.4766
97.3030,80.5349
97.2911,80.5830
97.2736,80.6296
97.2504,80.6811
97.1612,80.8274
97.0426,80.9515
96.9051,81.0430
96.8804,81.0546
96.7825,81.0846
96.6592,81.1039
96.5296,81.1110
96.4129,81.1043
96.3663,81.0956
96.1988,81.0306
96.0539,80.9273
95.9352,80.7886
95.8774,80.6884
95.8549,80.6410
95.8387,80.5985
95.8276,80.5527
95.8207,80.4950
95.8170,80.4172
95.8155,80.3109
95.8152,80.1676
95.8152,80.1671
96.1300,80.1671
96.1367,80.3199
96.1549,80.4539
96.1833,80.5597
96.2123,80.6174
96.2979,80.7007
96.4092,80.7552
96.5349,80.7788
96.6642,80.7697
96.7861,80.7259
96.7988,80.7188
96.8651,80.6734
96.9141,80.6211
96.9481,80.5547
96.9698,80.4666
96.9815,80.3495
96.9856,80.1961
96.9858,80.1596
96.9842,80.0395
96.9796,79.9308
96.9726,79.8442
96.9639,79.7903
96.9620,79.7844
96.8998,79.6804
96.8069,79.6008
96.6930,79.5495
96.5680,79.5305
96.4417,79.5476
96.4003,79.5623
96.2995,79.6153
96.2273,79.6820
96.1787,79.7707
96.1489,79.8894
96.1358,80.0047
96.1300,80.1671
95.8152,80.1671
95.8152,80.1638
95.8155,80.0190
95.8171,79.9113
95.8209,79.8321
95.8279,79.7732
95.8390,79.7261
95.8552,79.6823
95.8744,79.6398
95.9617,79.4891
96.0690,79.3732
96.1945,79.2881
96.2638,79.2541
96.3299,79.2328
96.4088,79.2204
96.5167,79.2134
96.5201,79.2133
96.6334,79.2109
Z" /> 
<path style="fill:#000000; fill-opacity:1.0000; stroke:none;fill-rule:evenodd;"
d="M 101.5605,79.2310
101.5901,79.2315
101.6557,79.2411
101.6967,79.2758
101.7227,79.3450
101.7267,79.3623
101.7477,79.4166
101.7826,79.4332
101.8367,79.4125
101.8837,79.3800
102.0016,79.3076
102.1351,79.2621
102.2659,79.2411
102.3693,79.2371
102.4365,79.2534
102.4741,79.2944
102.4885,79.3645
102.4893,79.3938
102.4826,79.4844
102.4575,79.5390
102.4065,79.5657
102.3236,79.5727
102.1718,79.5858
102.0488,79.6266
101.9507,79.6930
101.9022,79.7382
101.8642,79.7825
101.8354,79.8322
101.8146,79.8934
101.8004,79.9721
101.7916,80.0746
101.7870,80.2069
101.7851,80.3751
101.7848,80.4862
101.7844,80.6684
101.7827,80.8102
101.7782,80.9165
101.7695,80.9926
101.7554,81.0434
101.7343,81.0741
101.7049,81.0896
101.6659,81.0950
101.6178,81.0955
101.5477,81.0896
101.4922,81.0759
101.4830,81.0716
101.4730,81.0630
101.4648,81.0474
101.4582,81.0205
101.4531,80.9780
101.4493,80.9156
101.4467,80.8291
101.4449,80.7142
101.4439,80.5667
101.4434,80.3822
101.4432,80.1566
101.4432,80.1538
101.4431,79.9244
101.4432,79.7365
101.4441,79.5858
101.4466,79.4683
101.4512,79.3799
101.4586,79.3165
101.4694,79.2740
101.4844,79.2483
101.5041,79.2353
101.5293,79.2309
Z" /> 
<path style="fill:#000000; fill-opacity:1.0000; stroke:none;fill-rule:evenodd;"
d="M 90.9626,77.0913
91.0351,77.1035
91.2508,77.1519
91.4445,77.2136
91.6243,77.2929
91.7983,77.3944
91.9744,77.5226
92.1608,77.6820
92.2958,77.8087
92.3984,77.9095
92.4913,78.0036
92.5687,78.0850
92.6250,78.1478
92.6545,78.1859
92.6560,78.1885
92.6786,78.2560
92.6885,78.3324
92.6885,78.3352
92.6855,78.3734
92.6728,78.4100
92.6452,78.4527
92.5977,78.5088
92.5248,78.5858
92.4839,78.6277
92.4069,78.7078
92.3432,78.7773
92.2987,78.8294
92.2795,78.8571
92.2792,78.8587
92.2944,78.8850
92.3340,78.9317
92.3833,78.9823
92.4759,79.0855
92.5744,79.2171
92.6693,79.3624
92.7508,79.5072
92.7994,79.6111
92.8564,79.7578
92.8974,79.8871
92.9247,80.0124
92.9409,80.1470
92.9482,80.3040
92.9494,80.4367
92.9451,80.6350
92.9308,80.8017
92.9036,80.9500
92.8605,81.0932
92.7986,81.2445
92.7448,81.3577
92.5925,81.6162
92.4053,81.8500
92.1877,82.0555
91.9447,82.2285
91.6810,82.3652
91.4038,82.4611
91.2431,82.4929
91.0565,82.5130
90.8608,82.5206
90.6733,82.5153
90.5108,82.4963
90.5021,82.4947
90.1972,82.4146
89.9129,82.2940
89.6496,82.1331
89.6282,82.1176
89.5595,82.0627
89.4704,81.9852
89.3686,81.8925
89.2618,81.7918
89.1576,81.6907
89.0638,81.5963
88.9878,81.5160
88.9375,81.4571
88.9328,81.4509
88.8816,81.3502
88.8725,81.2745
89.3218,81.2745
89.3426,81.3282
89.3909,81.3941
89.4688,81.4782
89.5786,81.5861
89.5802,81.5877
89.7264,81.7233
89.8548,81.8298
89.9749,81.9139
90.0968,81.9825
90.2301,82.0424
90.2346,82.0442
90.3815,82.0974
90.5196,82.1325
90.6640,82.1518
90.8294,82.1577
90.9376,82.1560
91.0701,82.1506
91.1721,82.1418
91.2586,82.1272
91.3447,82.1045
91.4204,82.0798
91.6820,81.9670
91.9175,81.8182
92.1240,81.6362
92.2990,81.4238
92.4396,81.1838
92.5433,80.9192
92.5551,80.8788
92.5815,80.7697
92.5974,80.6605
92.6048,80.5340
92.6060,80.4367
92.5989,80.2355
92.5749,80.0607
92.5300,79.8949
92.4603,79.7210
92.4223,79.6408
92.3920,79.5802
92.3632,79.5272
92.3320,79.4771
92.2944,79.4252
92.2464,79.3669
92.1841,79.2975
92.1036,79.2122
92.0008,79.1065
91.8719,78.9755
91.7962,78.8990
91.6358,78.7378
91.5023,78.6063
91.3911,78.5008
91.2978,78.4180
91.2181,78.3544
91.1475,78.3064
91.0816,78.2706
91.0159,78.2435
90.9460,78.2217
90.9296,78.2172
90.7339,78.1879
90.5362,78.2005
90.3446,78.2527
90.1670,78.3422
90.0116,78.4665
89.9821,78.4973
89.8535,78.6691
89.7676,78.8544
89.7249,79.0500
89.7258,79.2525
89.7709,79.4585
89.8241,79.5927
89.8498,79.6429
89.8812,79.6935
89.9226,79.7491
89.9781,79.8149
90.0520,79.8955
90.1485,79.9960
90.2717,80.1211
90.3307,80.1804
90.4606,80.3105
90.5627,80.4119
90.6414,80.4882
90.7012,80.5430
90.7463,80.5797
90.7811,80.6021
90.8100,80.6137
90.8373,80.6180
90.8649,80.6186
90.9629,80.6008
91.0326,80.5501
91.0694,80.4708
91.0740,80.4229
91.0723,80.3965
91.0647,80.3695
91.0479,80.3379
91.0183,80.2973
90.9725,80.2437
90.9069,80.1729
90.8181,80.0807
90.7026,79.9629
90.6226,79.8818
90.4799,79.7367
90.3665,79.6186
90.2788,79.5229
90.2138,79.4446
90.1681,79.3791
90.1383,79.3214
90.1213,79.2669
90.1137,79.2108
90.1122,79.1483
90.1123,79.1392
90.1327,79.0153
90.1924,78.8952
90.2938,78.7743
90.3317,78.7382
90.4654,78.6399
90.6015,78.5864
90.7388,78.5779
90.8758,78.6146
90.9662,78.6641
91.0090,78.6981
91.0781,78.7599
91.1682,78.8442
91.2738,78.9461
91.3898,79.0605
91.5087,79.1804
91.6486,79.3238
91.7600,79.4405
91.8471,79.5355
91.9141,79.6135
91.9652,79.6795
92.0045,79.7383
92.0343,79.7907
92.1145,79.9666
92.1643,80.1368
92.1883,80.3197
92.1921,80.4367
92.1721,80.6732
92.1121,80.8947
92.0162,81.0977
91.8883,81.2793
91.7325,81.4361
91.5526,81.5650
91.3527,81.6628
91.1368,81.7262
90.9088,81.7521
90.6728,81.7373
90.5943,81.7230
90.4486,81.6843
90.3161,81.6304
90.1875,81.5559
90.0538,81.4553
89.9058,81.3231
89.8764,81.2951
89.7632,81.1886
89.6750,81.1133
89.6056,81.0671
89.5492,81.0479
89.4996,81.0536
89.4509,81.0822
89.4004,81.1280
89.3530,81.1803
89.3260,81.2271
89.3218,81.2745
88.8725,81.2745
88.8694,81.2484
88.8970,81.1552
88.9056,81.1410
88.9370,81.1014
88.9918,81.0394
89.0615,80.9645
89.1137,80.9103
89.2844,80.7359
89.1655,80.6033
88.9700,80.3534
88.8152,80.0869
88.7016,79.8073
88.6298,79.5182
88.6002,79.2231
88.6039,79.1389
88.9606,79.1389
88.9657,79.3230
88.9850,79.4914
89.0015,79.5707
89.0372,79.7001
89.0767,79.8162
89.1240,79.9243
89.1825,80.0298
89.2562,80.1382
89.3486,80.2549
89.4634,80.3853
89.6045,80.5348
89.7754,80.7089
89.7893,80.7229
89.9422,80.8754
90.0686,80.9987
90.1733,81.0965
90.2610,81.1728
90.3363,81.2312
90.4041,81.2757
90.4690,81.3101
90.5358,81.3382
90.5605,81.3473
90.6746,81.3745
90.8138,81.3881
90.9597,81.3875
91.0939,81.3726
91.1569,81.3580
91.3273,81.2852
91.4863,81.1756
91.6247,81.0374
91.7336,80.8792
91.7827,80.7736
91.8311,80.5859
91.8413,80.3871
91.8143,80.1891
91.7509,80.0038
91.7182,79.9406
91.6859,79.8959
91.6262,79.8248
91.5440,79.7327
91.4446,79.6253
91.3327,79.5081
91.2234,79.3964
91.0937,79.2658
90.9915,79.1641
90.9126,79.0877
90.8527,79.0330
90.8076,78.9963
90.7729,78.9742
90.7444,78.9629
90.7178,78.9590
90.7026,78.9586
90.6292,78.9695
90.5668,79.0088
90.5465,79.0279
90.5021,79.0793
90.4865,79.1251
90.4905,79.1794
90.4989,79.2085
90.5172,79.2432
90.5490,79.2876
90.5977,79.3457
90.6668,79.4214
90.7596,79.5188
90.8798,79.6418
90.9553,79.7184
91.0938,79.8594
91.2031,79.9728
91.2867,80.0625
91.3479,80.1326
91.3903,80.1870
91.4173,80.2297
91.4324,80.2647
91.4336,80.2688
91.4583,80.4141
91.4427,80.5475
91.3852,80.6752
91.2961,80.7906
91.1666,80.9066
91.0311,80.9784
90.8909,81.0057
90.7474,80.9880
90.6648,80.9578
90.6184,80.9277
90.5464,80.8698
90.4540,80.7892
90.3469,80.6912
90.2304,80.5811
90.1099,80.4641
89.9910,80.3454
89.8790,80.2305
89.7793,80.1244
89.6975,80.0324
89.6621,79.9897
89.5250,79.7841
89.4303,79.5633
89.3788,79.3295
89.3689,79.1642
89.3906,78.9230
89.4522,78.6968
89.5502,78.4891
89.6808,78.3037
89.8405,78.1443
90.0255,78.0146
90.2324,77.9182
90.4573,77.8588
90.6761,77.8400
90.8674,77.8487
91.0383,77.8785
91.1969,77.9333
91.3515,78.0165
91.5101,78.1321
91.6810,78.2836
91.7032,78.3048
91.8186,78.4126
91.9093,78.4902
91.9735,78.5362
92.0066,78.5493
92.0741,78.5314
92.1419,78.4852
92.2001,78.4219
92.2388,78.3528
92.2481,78.2891
92.2455,78.2776
92.2218,78.2412
92.1700,78.1821
92.0968,78.1065
92.0089,78.0210
91.9132,77.9317
91.8164,77.8450
91.7254,77.7673
91.6470,77.7049
91.5881,77.6642
91.3689,77.5567
91.1287,77.4785
90.8801,77.4322
90.6353,77.4204
90.4952,77.4311
90.2101,77.4893
89.9475,77.5865
89.7093,77.7209
89.4976,77.8910
89.3146,78.0949
89.1622,78.3310
89.0425,78.5976
89.0273,78.6408
88.9918,78.7829
88.9695,78.9539
88.9606,79.1389
88.6039,79.1389
88.6133,78.9255
88.6697,78.6289
88.7698,78.3369
88.8235,78.2196
88.9699,77.9720
89.1504,77.7492
89.3602,77.5537
89.5945,77.3879
89.8484,77.2544
90.1170,77.1555
90.3955,77.0937
90.6790,77.0715
Z" /> 
<path style="fill:#000000; fill-opacity:1.0000; stroke:none;fill-rule:evenodd;"
d="M 103.3579,79.2185
103.5192,79.2575
103.6674,79.3307
103.7947,79.4387
103.7976,79.4418
103.8695,79.5343
103.9190,79.6316
103.9490,79.7439
103.9623,79.8811
103.9625,80.0304
103.9560,80.2662
103.3875,80.2775
102.8190,80.2889
102.8246,80.3976
102.8505,80.5384
102.9105,80.6506
103.0019,80.7313
103.1218,80.7779
103.2282,80.7888
103.3731,80.7725
103.4884,80.7223
103.5756,80.6374
103.6001,80.5987
103.6535,80.5029
103.8047,80.5096
103.9560,80.5163
103.9497,80.5939
103.9271,80.6850
103.8785,80.7879
103.8132,80.8859
103.7409,80.9624
103.7407,80.9626
103.6049,81.0470
103.4429,81.1018
103.2649,81.1245
103.1102,81.1170
102.9407,81.0725
102.7889,80.9885
102.6607,80.8692
102.5659,80.7260
102.5229,80.6103
102.4920,80.4614
102.4748,80.2903
102.4725,80.1079
102.4760,80.0358
102.4812,79.9830
102.8243,79.9830
103.2423,79.9768
103.6603,79.9705
103.6551,79.8829
103.6265,79.7676
103.5602,79.6674
103.4636,79.5936
103.4611,79.5923
103.3684,79.5620
103.2576,79.5507
103.1451,79.5576
103.0472,79.5822
102.9973,79.6088
102.9040,79.6993
102.8508,79.8046
102.8362,79.8775
102.8243,79.9830
102.4812,79.9830
102.4922,79.8716
102.5188,79.7405
102.5589,79.6306
102.6160,79.5300
102.6232,79.5193
102.7349,79.3948
102.8719,79.3019
103.0266,79.2412
103.1911,79.2133
Z" /> 
<path style="fill:#000000; fill-opacity:1.0000; stroke:none;fill-rule:evenodd;"
d="M 97.8151,78.4959
97.8309,78.5084
97.8345,78.5361
97.8378,78.6050
97.8409,78.7110
97.8436,78.8497
97.8459,79.0168
97.8478,79.2082
97.8491,79.4196
97.8499,79.6467
97.8501,79.7813
97.8500,80.0535
97.8497,80.2838
97.8489,80.4758
97.8477,80.6330
97.8458,80.7589
97.8432,80.8572
97.8399,80.9314
97.8356,80.9850
97.8304,81.0217
97.8240,81.0450
97.8164,81.0585
97.8147,81.0604
97.7651,81.0848
97.6920,81.0952
97.6151,81.0913
97.5545,81.0723
97.5475,81.0677
97.5392,81.0590
97.5322,81.0437
97.5264,81.0182
97.5218,80.9789
97.5182,80.9225
97.5156,80.8451
97.5138,80.7434
97.5128,80.6137
97.5125,80.4525
97.5128,80.2563
97.5136,80.0214
97.5147,79.7659
97.5207,78.4925
97.6664,78.4856
97.7606,78.4854
Z" /> 
<path style="fill:#000000; fill-opacity:1.0000; stroke:none;fill-rule:evenodd;"
d="M 95.0050,78.4947
95.1486,78.5315
95.2062,78.5565
95.3603,78.6580
95.4762,78.7841
95.5538,78.9345
95.5929,79.1092
95.5932,79.1116
95.5948,79.2042
95.5728,79.2618
95.5212,79.2914
95.4343,79.2997
95.4342,79.2997
95.3462,79.2923
95.2921,79.2644
95.2619,79.2070
95.2485,79.1379
95.2122,79.0214
95.1408,78.9290
95.0395,78.8641
94.9138,78.8302
94.7733,78.8302
94.6387,78.8632
94.5379,78.9252
94.4725,79.0145
94.4440,79.1292
94.4445,79.2013
94.4620,79.2947
94.5007,79.3708
94.5656,79.4336
94.6618,79.4869
94.7945,79.5346
94.9266,79.5704
95.1409,79.6355
95.3147,79.7159
95.4511,79.8138
95.5532,79.9315
95.6226,80.0674
95.6566,80.2053
95.6657,80.3598
95.6506,80.5133
95.6116,80.6483
95.6021,80.6695
95.5054,80.8187
95.3754,80.9410
95.2179,81.0329
95.0388,81.0908
94.8877,81.1100
94.7652,81.1105
94.6563,81.1012
94.5971,81.0893
94.4198,81.0172
94.2693,80.9115
94.1497,80.7766
94.0646,80.6172
94.0181,80.4377
94.0149,80.4109
94.0103,80.3146
94.0249,80.2542
94.0646,80.2219
94.1355,80.2101
94.1709,80.2093
94.2693,80.2153
94.3307,80.2366
94.3623,80.2781
94.3713,80.3446
94.3713,80.3451
94.3897,80.4772
94.4463,80.5865
94.5427,80.6755
94.6091,80.7147
94.7093,80.7476
94.8306,80.7610
94.9527,80.7544
95.0534,80.7278
95.1671,80.6565
95.2515,80.5573
95.3021,80.4392
95.3140,80.3111
95.3053,80.2514
95.2799,80.1675
95.2416,80.0997
95.1842,80.0437
95.1019,79.9954
94.9886,79.9507
94.8382,79.9054
94.7781,79.8893
94.6149,79.8419
94.4875,79.7934
94.3865,79.7390
94.3023,79.6741
94.2644,79.6371
94.1739,79.5115
94.1153,79.3626
94.0904,79.2012
94.1010,79.0381
94.1436,78.8954
94.2186,78.7718
94.3274,78.6591
94.4579,78.5680
94.5486,78.5257
94.6883,78.4910
94.8460,78.4810
Z" /> 
</g>
<g style="fill:none; 
stroke:#000000; stroke-width:0.2000; stroke-opacity:1; 
stroke-linecap:round; stroke-linejoin:round;">
<path d="M96.1250 74.4000
L95.7250 74.4000
" />
<path d="M96.1250 75.2000
L95.7250 75.2000
" />
<path d="M102.5000 67.4000
L102.9000 67.4000
" />
<path d="M102.5000 66.6000
L102.9000 66.6000
" />
<path d="M98.3750 77.0500
L98.6750 77.0500
" />
<path d="M98.3750 77.7500
L98.6750 77.7500
" />
</g>
<g style="fill:#000000; fill-opacity:1.0000; stroke:none;">
<circle cx="89.1000" cy="51.1000" r="1.6000" /> 
</g>
<g style="fill:#000000; fill-opacity:1.0000; stroke:none;">
<circle cx="105.1000" cy="51.1000" r="1.6000" /> 
</g>
<g style="fill:#000000; fill-opacity:1.0000; stroke:none;">
<circle cx="94.5600" cy="49.5000" r="0.5000" /> 
</g>
<g style="fill:#000000; fill-opacity:1.0000; stroke:none;">
<circle cx="97.1000" cy="49.5000" r="0.5000" /> 
</g>
<g style="fill:#000000; fill-opacity:1.0000; stroke:none;">
<circle cx="99.6400" cy="49.5000" r="0.5000" /> 
</g>
<g style="fill:#FFFFFF; fill-opacity:1.0000; stroke:none;">
<circle cx="89.1000" cy="51.1000" r="1.6000" /> 
</g>
<g style="fill:#FFFFFF; fill-opacity:1.0000; stroke:none;">
<circle cx="105.1000" cy="51.1000" r="1.6000" /> 
</g>
<g style="fill:#FFFFFF; fill-opacity:1.0000; stroke:none;">
<circle cx="94.5600" cy="49.5000" r="0.5000" /> 
</g>
<g style="fill:#FFFFFF; fill-opacity:1.0000; stroke:none;">
<circle cx="97.1000" cy="49.5000" r="0.5000" /> 
</g>
<g style="fill:#FFFFFF; fill-opacity:1.0000; stroke:none;">
<circle cx="99.6400" cy="49.5000" r="0.5000" /> 
</g> 
</svg>
