<?xml version="1.0" standalone="no"?>
 <!DOCTYPE svg PUBLIC "-//W3C//DTD SVG 1.1//EN" 
 "http://www.w3.org/Graphics/SVG/1.1/DTD/svg11.dtd"> 
<svg
  xmlns:svg="http://www.w3.org/2000/svg"
  xmlns="http://www.w3.org/2000/svg"
  xmlns:xlink="http://www.w3.org/1999/xlink"
  version="1.1"
  width="297.0022mm" height="210.0072mm" viewBox="0.0000 0.0000 297.0022 210.0072">
<title>SVG Image created as Dasduino_CORE-User_Drawings.svg date 2025/07/10 09:00:19 </title>
  <desc>Image generated by PCBNEW </desc>
<g style="fill:#000000; fill-opacity:1.0000;stroke:#000000; stroke-opacity:1.0000;
stroke-linecap:round; stroke-linejoin:round;"
 transform="translate(0 0) scale(1 1)">
</g>
<g style="fill:none; 
stroke:#000000; stroke-width:0.1200; stroke-opacity:1; 
stroke-linecap:round; stroke-linejoin:round;">
<path d="M126.6823 135.1379
L125.6217 136.1985
" />
<path d="M125.6217 136.1985
L125.0560 135.6328
" />
<path d="M125.0560 135.6328
L126.1166 134.5722
" />
<path d="M126.1166 134.5722
L126.6823 135.1379
" />
<path d="M91.9045 134.2000
L90.4045 134.2000
" />
<path d="M91.9045 133.4000
L91.9045 134.2000
" />
<path d="M90.4045 134.2000
L90.4045 133.4000
" />
<path d="M90.4045 133.4000
L91.9045 133.4000
" />
<path d="M113.3030 139.0828
L112.7373 139.6485
" />
<path d="M112.2424 138.0222
L113.3030 139.0828
" />
<path d="M112.7373 139.6485
L111.6767 138.5879
" />
<path d="M111.6767 138.5879
L112.2424 138.0222
" />
<path d="M125.8373 141.1985
L124.7060 140.0672
" />
<path d="M126.4030 140.6328
L125.8373 141.1985
" />
<path d="M125.2717 139.5015
L126.4030 140.6328
" />
<path d="M124.7060 140.0672
L125.2717 139.5015
" />
<path d="M79.8045 148.4000
L79.8045 149.0000
" />
<path d="M79.8045 149.0000
L78.8045 149.0000
" />
<path d="M78.8045 148.4000
L79.8045 148.4000
" />
<path d="M78.8045 149.0000
L78.8045 148.4000
" />
<path d="M73.0045 143.1600
L73.0045 145.5600
" />
<path d="M69.0045 145.5600
L69.0045 143.1600
" />
<path d="M73.0045 145.5600
L69.0045 145.5600
" />
<path d="M69.0045 143.1600
L73.0045 143.1600
" />
<path d="M86.6345 147.6000
L87.4345 147.6000
" />
<path d="M87.4345 147.6000
L87.4345 149.2000
" />
<path d="M87.4345 149.2000
L86.6345 149.2000
" />
<path d="M86.6345 149.2000
L86.6345 147.6000
" />
<path d="M99.5045 134.5000
L98.7045 134.5000
" />
<path d="M98.7045 134.5000
L98.7045 133.0000
" />
<path d="M99.5045 133.0000
L99.5045 134.5000
" />
<path d="M98.7045 133.0000
L99.5045 133.0000
" />
<path d="M81.9045 140.9000
L81.9045 141.7000
" />
<path d="M81.9045 141.7000
L80.3045 141.7000
" />
<path d="M80.3045 140.9000
L81.9045 140.9000
" />
<path d="M80.3045 141.7000
L80.3045 140.9000
" />
<path d="M96.7285 130.9785
L96.7285 132.4785
" />
<path d="M96.7285 132.4785
L95.9285 132.4785
" />
<path d="M95.9285 132.4785
L95.9285 130.9785
" />
<path d="M95.9285 130.9785
L96.7285 130.9785
" />
<path d="M123.7560 141.0672
L124.3217 140.5015
" />
<path d="M125.4530 141.6328
L124.8873 142.1985
" />
<path d="M124.3217 140.5015
L125.4530 141.6328
" />
<path d="M124.8873 142.1985
L123.7560 141.0672
" />
<path d="M80.8045 146.5000
L80.8045 145.9000
" />
<path d="M80.8045 145.9000
L81.8045 145.9000
" />
<path d="M81.8045 145.9000
L81.8045 146.5000
" />
<path d="M81.8045 146.5000
L80.8045 146.5000
" />
<path d="M78.8045 146.5000
L78.8045 145.9000
" />
<path d="M79.8045 145.9000
L79.8045 146.5000
" />
<path d="M78.8045 145.9000
L79.8045 145.9000
" />
<path d="M79.8045 146.5000
L78.8045 146.5000
" />
<path d="M65.7095 144.8360
L67.3095 144.8360
" />
<path d="M67.3095 145.6360
L65.7095 145.6360
" />
<path d="M67.3095 144.8360
L67.3095 145.6360
" />
<path d="M65.7095 145.6360
L65.7095 144.8360
" />
<path d="M95.1785 130.5785
L92.9785 130.5785
" />
<path d="M95.1785 132.7785
L95.1785 130.5785
" />
<path d="M92.9785 130.5785
L92.9785 132.7785
" />
<path d="M92.9785 132.7785
L95.1785 132.7785
" />
<circle cx="94.6785" cy="132.2785" r="0.2236" /> 
<path d="M82.4045 137.8300
L80.2045 137.8300
" />
<path d="M80.2045 137.8300
L80.2045 135.8300
" />
<path d="M80.2045 135.8300
L82.4045 135.8300
" />
<path d="M82.4045 135.8300
L82.4045 137.8300
" />
<path d="M81.0045 135.8300
L81.0045 137.8300
" />
</g>
<g style="fill:none; 
stroke:#000000; stroke-width:0.2000; stroke-opacity:1; 
stroke-linecap:round; stroke-linejoin:round;">
<circle cx="79.8045" cy="135.9300" r="0.1000" /> 
</g>
<g style="fill:none; 
stroke:#000000; stroke-width:0.1200; stroke-opacity:1; 
stroke-linecap:round; stroke-linejoin:round;">
<path d="M76.8045 127.7000
L75.8045 127.7000
" />
<path d="M75.8045 127.1000
L76.8045 127.1000
" />
<path d="M75.8045 127.7000
L75.8045 127.1000
" />
<path d="M76.8045 127.1000
L76.8045 127.7000
" />
<path d="M114.8373 141.8485
L113.7767 140.7879
" />
<path d="M114.3424 140.2222
L115.4030 141.2828
" />
<path d="M113.7767 140.7879
L114.3424 140.2222
" />
<path d="M115.4030 141.2828
L114.8373 141.8485
" />
<path d="M65.7095 143.0580
L67.3095 143.0580
" />
<path d="M67.3095 143.0580
L67.3095 143.8580
" />
<path d="M65.7095 143.8580
L65.7095 143.0580
" />
<path d="M67.3095 143.8580
L65.7095 143.8580
" />
<path d="M85.0545 145.6000
L83.4545 145.6000
" />
<path d="M83.4545 145.6000
L83.4545 144.8000
" />
<path d="M85.0545 144.8000
L85.0545 145.6000
" />
<path d="M83.4545 144.8000
L85.0545 144.8000
" />
<path d="M80.8045 149.0000
L80.8045 148.4000
" />
<path d="M81.8045 148.4000
L81.8045 149.0000
" />
<path d="M80.8045 148.4000
L81.8045 148.4000
" />
<path d="M81.8045 149.0000
L80.8045 149.0000
" />
<path d="M77.2245 146.7500
L74.1845 146.7500
" />
<path d="M77.2245 145.3500
L77.2245 146.7500
" />
<path d="M74.1845 145.3500
L77.2245 145.3500
" />
<path d="M74.1845 146.7500
L74.1845 145.3500
" />
<circle cx="74.8045" cy="146.4500" r="0.1414" /> 
<path d="M92.1785 132.4785
L91.3785 132.4785
" />
<path d="M91.3785 132.4785
L91.3785 130.9785
" />
<path d="M91.3785 130.9785
L92.1785 130.9785
" />
<path d="M92.1785 130.9785
L92.1785 132.4785
" />
<path d="M67.1545 130.8500
L66.5545 130.8500
" />
<path d="M67.1545 129.8500
L67.1545 130.8500
" />
<path d="M66.5545 130.8500
L66.5545 129.8500
" />
<path d="M66.5545 129.8500
L67.1545 129.8500
" />
<path d="M72.8045 148.8500
L72.8045 147.2500
" />
<path d="M73.6045 147.2500
L73.6045 148.8500
" />
<path d="M72.8045 147.2500
L73.6045 147.2500
" />
<path d="M73.6045 148.8500
L72.8045 148.8500
" />
<path d="M107.7420 131.7875
L106.7420 131.7875
" />
<path d="M107.7420 131.1875
L107.7420 131.7875
" />
<path d="M106.7420 131.7875
L106.7420 131.1875
" />
<path d="M106.7420 131.1875
L107.7420 131.1875
" />
<path d="M83.4545 148.5500
L85.0545 148.5500
" />
<path d="M85.0545 149.3500
L83.4545 149.3500
" />
<path d="M85.0545 148.5500
L85.0545 149.3500
" />
<path d="M83.4545 149.3500
L83.4545 148.5500
" />
<path d="M75.8045 126.4000
L75.8045 125.8000
" />
<path d="M76.8045 126.4000
L75.8045 126.4000
" />
<path d="M75.8045 125.8000
L76.8045 125.8000
" />
<path d="M76.8045 125.8000
L76.8045 126.4000
" />
<path d="M95.3045 134.5500
L95.3045 133.7500
" />
<path d="M96.8045 134.5500
L95.3045 134.5500
" />
<path d="M96.8045 133.7500
L96.8045 134.5500
" />
<path d="M95.3045 133.7500
L96.8045 133.7500
" />
<path d="M87.4545 144.9500
L87.4545 146.5500
" />
<path d="M86.6545 146.5500
L86.6545 144.9500
" />
<path d="M87.4545 146.5500
L86.6545 146.5500
" />
<path d="M86.6545 144.9500
L87.4545 144.9500
" />
<path style="fill:none; 
stroke:#000000; stroke-width:0.1200; stroke-opacity:1; 
stroke-linecap:round; stroke-linejoin:round;fill:none"
d="M 74.9295,130.1550
78.2795,130.1550
78.2795,133.5050
74.9295,133.5050
Z" /> 
<path d="M85.7705 134.2000
L85.7705 135.0000
" />
<path d="M85.7705 135.0000
L84.2705 135.0000
" />
<path d="M84.2705 134.2000
L85.7705 134.2000
" />
<path d="M84.2705 135.0000
L84.2705 134.2000
" />
<path d="M80.6705 131.9000
L81.6705 131.9000
" />
<path d="M87.6705 131.9000
L88.6705 131.9000
" />
<path d="M88.6705 131.9000
L88.6705 124.1000
" />
<path d="M80.6705 124.1000
L80.6705 131.9000
" />
<path d="M87.6705 130.5000
L87.6705 131.9000
" />
<path d="M81.6705 130.5000
L87.6705 130.5000
" />
<path d="M81.6705 131.9000
L81.6705 130.5000
" />
<path d="M88.6705 124.1000
L80.6705 124.1000
" />
<path d="M80.3045 139.4000
L81.9045 139.4000
" />
<path d="M81.9045 140.2000
L80.3045 140.2000
" />
<path d="M81.9045 139.4000
L81.9045 140.2000
" />
<path d="M80.3045 140.2000
L80.3045 139.4000
" />
<path d="M86.3045 142.1000
L86.3045 143.6000
" />
<path d="M86.3045 143.6000
L85.5045 143.6000
" />
<path d="M85.5045 142.1000
L86.3045 142.1000
" />
<path d="M85.5045 143.6000
L85.5045 142.1000
" />
<path d="M126.4166 136.3722
L126.9823 136.9379
" />
<path d="M125.3560 137.4328
L126.4166 136.3722
" />
<path d="M125.9217 137.9985
L125.3560 137.4328
" />
<path d="M126.9823 136.9379
L125.9217 137.9985
" />
<path d="M121.1560 131.1828
L122.2166 130.1222
" />
<path d="M122.2166 130.1222
L122.7823 130.6879
" />
<path d="M121.7217 131.7485
L121.1560 131.1828
" />
<path d="M122.7823 130.6879
L121.7217 131.7485
" />
<path d="M68.3545 130.8500
L67.7545 130.8500
" />
<path d="M67.7545 129.8500
L68.3545 129.8500
" />
<path d="M68.3545 129.8500
L68.3545 130.8500
" />
<path d="M67.7545 130.8500
L67.7545 129.8500
" />
<path d="M83.4045 136.9000
L83.4045 139.9000
" />
<path d="M86.4045 136.9000
L83.4045 136.9000
" />
<path d="M83.4045 139.9000
L86.4045 139.9000
" />
<path d="M86.4045 139.9000
L86.4045 136.9000
" />
<circle cx="84.0045" cy="139.2000" r="0.2828" /> 
<path d="M84.4545 143.7000
L83.6545 143.7000
" />
<path d="M83.6545 143.7000
L83.6545 142.1000
" />
<path d="M83.6545 142.1000
L84.4545 142.1000
" />
<path d="M84.4545 142.1000
L84.4545 143.7000
" />
<path style="fill:none; 
stroke:#000000; stroke-width:0.1200; stroke-opacity:1; 
stroke-linecap:round; stroke-linejoin:round;fill:none"
d="M 74.9295,140.1550
78.2795,140.1550
78.2795,143.5050
74.9295,143.5050
Z" /> 
<path d="M80.5045 134.3000
L82.0045 134.3000
" />
<path d="M82.0045 134.3000
L82.0045 135.1000
" />
<path d="M82.0045 135.1000
L80.5045 135.1000
" />
<path d="M80.5045 135.1000
L80.5045 134.3000
" />
<path style="fill:none; 
stroke:#000000; stroke-width:0.1200; stroke-opacity:1; 
stroke-linecap:round; stroke-linejoin:round;fill:none"
d="M 75.4465,148.4190
76.4625,148.4190
76.4625,149.1810
75.4465,149.1810
Z" /> 
<circle cx="76.7165" cy="148.1650" r="0.1796" /> 
<path d="M109.7545 131.2000
L109.7545 131.8000
" />
<path d="M109.7545 131.8000
L108.7545 131.8000
" />
<path d="M108.7545 131.8000
L108.7545 131.2000
" />
<path d="M108.7545 131.2000
L109.7545 131.2000
" />
<path style="fill:none; 
stroke:#000000; stroke-width:0.1200; stroke-opacity:1; 
stroke-linecap:round; stroke-linejoin:round;fill:none"
d="M 89.2745,149.5300
127.3745,149.5300
127.3745,146.9900
89.2745,146.9900
Z" /> 
<path style="fill:none; 
stroke:#000000; stroke-width:0.1200; stroke-opacity:1; 
stroke-linecap:round; stroke-linejoin:round;fill:none"
d="M 89.2745,126.6700
127.3745,126.6700
127.3745,124.1300
89.2745,124.1300
Z" /> 
</g>
<g style="fill:#000000; fill-opacity:1.0000; stroke:none;">
<circle cx="76.6045" cy="136.8300" r="1.6000" /> 
</g>
<g style="fill:#000000; fill-opacity:1.0000; stroke:none;">
<circle cx="108.6045" cy="136.8300" r="1.6000" /> 
</g>
<g style="fill:#000000; fill-opacity:1.0000; stroke:none;">
<circle cx="70.8045" cy="139.7430" r="0.3250" /> 
</g>
<g style="fill:#000000; fill-opacity:1.0000; stroke:none;">
<circle cx="70.8045" cy="133.9680" r="0.3250" /> 
</g>
<g style="fill:none; 
stroke:#000000; stroke-width:0.6000; stroke-opacity:1; 
stroke-linecap:round; stroke-linejoin:round;">
<path d="M67.6795 132.5180
L66.5795 132.5180
" />
<path d="M67.6795 141.1430
L66.5795 141.1430
" />
<path d="M71.8295 132.5180
L70.7295 132.5180
" />
<path d="M71.8295 141.1430
L70.7295 141.1430
" />
</g>
<g style="fill:#000000; fill-opacity:1.0000; stroke:none;">
<circle cx="90.5445" cy="148.2600" r="0.5000" /> 
</g>
<g style="fill:#000000; fill-opacity:1.0000; stroke:none;">
<circle cx="93.0845" cy="148.2600" r="0.5000" /> 
</g>
<g style="fill:#000000; fill-opacity:1.0000; stroke:none;">
<circle cx="95.6245" cy="148.2600" r="0.5000" /> 
</g>
<g style="fill:#000000; fill-opacity:1.0000; stroke:none;">
<circle cx="98.1645" cy="148.2600" r="0.5000" /> 
</g>
<g style="fill:#000000; fill-opacity:1.0000; stroke:none;">
<circle cx="100.7045" cy="148.2600" r="0.5000" /> 
</g>
<g style="fill:#000000; fill-opacity:1.0000; stroke:none;">
<circle cx="103.2445" cy="148.2600" r="0.5000" /> 
</g>
<g style="fill:#000000; fill-opacity:1.0000; stroke:none;">
<circle cx="105.7845" cy="148.2600" r="0.5000" /> 
</g>
<g style="fill:#000000; fill-opacity:1.0000; stroke:none;">
<circle cx="108.3245" cy="148.2600" r="0.5000" /> 
</g>
<g style="fill:#000000; fill-opacity:1.0000; stroke:none;">
<circle cx="110.8645" cy="148.2600" r="0.5000" /> 
</g>
<g style="fill:#000000; fill-opacity:1.0000; stroke:none;">
<circle cx="113.4045" cy="148.2600" r="0.5000" /> 
</g>
<g style="fill:#000000; fill-opacity:1.0000; stroke:none;">
<circle cx="115.9445" cy="148.2600" r="0.5000" /> 
</g>
<g style="fill:#000000; fill-opacity:1.0000; stroke:none;">
<circle cx="118.4845" cy="148.2600" r="0.5000" /> 
</g>
<g style="fill:#000000; fill-opacity:1.0000; stroke:none;">
<circle cx="121.0245" cy="148.2600" r="0.5000" /> 
</g>
<g style="fill:#000000; fill-opacity:1.0000; stroke:none;">
<circle cx="123.5645" cy="148.2600" r="0.5000" /> 
</g>
<g style="fill:#000000; fill-opacity:1.0000; stroke:none;">
<circle cx="126.1045" cy="148.2600" r="0.5000" /> 
</g>
<g style="fill:#000000; fill-opacity:1.0000; stroke:none;">
<circle cx="90.5445" cy="125.4000" r="0.5000" /> 
</g>
<g style="fill:#000000; fill-opacity:1.0000; stroke:none;">
<circle cx="93.0845" cy="125.4000" r="0.5000" /> 
</g>
<g style="fill:#000000; fill-opacity:1.0000; stroke:none;">
<circle cx="95.6245" cy="125.4000" r="0.5000" /> 
</g>
<g style="fill:#000000; fill-opacity:1.0000; stroke:none;">
<circle cx="98.1645" cy="125.4000" r="0.5000" /> 
</g>
<g style="fill:#000000; fill-opacity:1.0000; stroke:none;">
<circle cx="100.7045" cy="125.4000" r="0.5000" /> 
</g>
<g style="fill:#000000; fill-opacity:1.0000; stroke:none;">
<circle cx="103.2445" cy="125.4000" r="0.5000" /> 
</g>
<g style="fill:#000000; fill-opacity:1.0000; stroke:none;">
<circle cx="105.7845" cy="125.4000" r="0.5000" /> 
</g>
<g style="fill:#000000; fill-opacity:1.0000; stroke:none;">
<circle cx="108.3245" cy="125.4000" r="0.5000" /> 
</g>
<g style="fill:#000000; fill-opacity:1.0000; stroke:none;">
<circle cx="110.8645" cy="125.4000" r="0.5000" /> 
</g>
<g style="fill:#000000; fill-opacity:1.0000; stroke:none;">
<circle cx="113.4045" cy="125.4000" r="0.5000" /> 
</g>
<g style="fill:#000000; fill-opacity:1.0000; stroke:none;">
<circle cx="115.9445" cy="125.4000" r="0.5000" /> 
</g>
<g style="fill:#000000; fill-opacity:1.0000; stroke:none;">
<circle cx="118.4845" cy="125.4000" r="0.5000" /> 
</g>
<g style="fill:#000000; fill-opacity:1.0000; stroke:none;">
<circle cx="121.0245" cy="125.4000" r="0.5000" /> 
</g>
<g style="fill:#000000; fill-opacity:1.0000; stroke:none;">
<circle cx="123.5645" cy="125.4000" r="0.5000" /> 
</g>
<g style="fill:#000000; fill-opacity:1.0000; stroke:none;">
<circle cx="126.1045" cy="125.4000" r="0.5000" /> 
</g>
<g style="fill:#FFFFFF; fill-opacity:1.0000; stroke:none;">
<circle cx="76.6045" cy="136.8300" r="1.6000" /> 
</g>
<g style="fill:#FFFFFF; fill-opacity:1.0000; stroke:none;">
<circle cx="108.6045" cy="136.8300" r="1.6000" /> 
</g>
<g style="fill:#FFFFFF; fill-opacity:1.0000; stroke:none;">
<circle cx="70.8045" cy="139.7430" r="0.3250" /> 
</g>
<g style="fill:#FFFFFF; fill-opacity:1.0000; stroke:none;">
<circle cx="70.8045" cy="133.9680" r="0.3250" /> 
</g>
<g style="fill:none; 
stroke:#FFFFFF; stroke-width:0.6000; stroke-opacity:1; 
stroke-linecap:round; stroke-linejoin:round;">
<path d="M67.6795 132.5180
L66.5795 132.5180
" />
<path d="M67.6795 141.1430
L66.5795 141.1430
" />
<path d="M71.8295 132.5180
L70.7295 132.5180
" />
<path d="M71.8295 141.1430
L70.7295 141.1430
" />
</g>
<g style="fill:#FFFFFF; fill-opacity:1.0000; stroke:none;">
<circle cx="90.5445" cy="148.2600" r="0.5000" /> 
</g>
<g style="fill:#FFFFFF; fill-opacity:1.0000; stroke:none;">
<circle cx="93.0845" cy="148.2600" r="0.5000" /> 
</g>
<g style="fill:#FFFFFF; fill-opacity:1.0000; stroke:none;">
<circle cx="95.6245" cy="148.2600" r="0.5000" /> 
</g>
<g style="fill:#FFFFFF; fill-opacity:1.0000; stroke:none;">
<circle cx="98.1645" cy="148.2600" r="0.5000" /> 
</g>
<g style="fill:#FFFFFF; fill-opacity:1.0000; stroke:none;">
<circle cx="100.7045" cy="148.2600" r="0.5000" /> 
</g>
<g style="fill:#FFFFFF; fill-opacity:1.0000; stroke:none;">
<circle cx="103.2445" cy="148.2600" r="0.5000" /> 
</g>
<g style="fill:#FFFFFF; fill-opacity:1.0000; stroke:none;">
<circle cx="105.7845" cy="148.2600" r="0.5000" /> 
</g>
<g style="fill:#FFFFFF; fill-opacity:1.0000; stroke:none;">
<circle cx="108.3245" cy="148.2600" r="0.5000" /> 
</g>
<g style="fill:#FFFFFF; fill-opacity:1.0000; stroke:none;">
<circle cx="110.8645" cy="148.2600" r="0.5000" /> 
</g>
<g style="fill:#FFFFFF; fill-opacity:1.0000; stroke:none;">
<circle cx="113.4045" cy="148.2600" r="0.5000" /> 
</g>
<g style="fill:#FFFFFF; fill-opacity:1.0000; stroke:none;">
<circle cx="115.9445" cy="148.2600" r="0.5000" /> 
</g>
<g style="fill:#FFFFFF; fill-opacity:1.0000; stroke:none;">
<circle cx="118.4845" cy="148.2600" r="0.5000" /> 
</g>
<g style="fill:#FFFFFF; fill-opacity:1.0000; stroke:none;">
<circle cx="121.0245" cy="148.2600" r="0.5000" /> 
</g>
<g style="fill:#FFFFFF; fill-opacity:1.0000; stroke:none;">
<circle cx="123.5645" cy="148.2600" r="0.5000" /> 
</g>
<g style="fill:#FFFFFF; fill-opacity:1.0000; stroke:none;">
<circle cx="126.1045" cy="148.2600" r="0.5000" /> 
</g>
<g style="fill:#FFFFFF; fill-opacity:1.0000; stroke:none;">
<circle cx="90.5445" cy="125.4000" r="0.5000" /> 
</g>
<g style="fill:#FFFFFF; fill-opacity:1.0000; stroke:none;">
<circle cx="93.0845" cy="125.4000" r="0.5000" /> 
</g>
<g style="fill:#FFFFFF; fill-opacity:1.0000; stroke:none;">
<circle cx="95.6245" cy="125.4000" r="0.5000" /> 
</g>
<g style="fill:#FFFFFF; fill-opacity:1.0000; stroke:none;">
<circle cx="98.1645" cy="125.4000" r="0.5000" /> 
</g>
<g style="fill:#FFFFFF; fill-opacity:1.0000; stroke:none;">
<circle cx="100.7045" cy="125.4000" r="0.5000" /> 
</g>
<g style="fill:#FFFFFF; fill-opacity:1.0000; stroke:none;">
<circle cx="103.2445" cy="125.4000" r="0.5000" /> 
</g>
<g style="fill:#FFFFFF; fill-opacity:1.0000; stroke:none;">
<circle cx="105.7845" cy="125.4000" r="0.5000" /> 
</g>
<g style="fill:#FFFFFF; fill-opacity:1.0000; stroke:none;">
<circle cx="108.3245" cy="125.4000" r="0.5000" /> 
</g>
<g style="fill:#FFFFFF; fill-opacity:1.0000; stroke:none;">
<circle cx="110.8645" cy="125.4000" r="0.5000" /> 
</g>
<g style="fill:#FFFFFF; fill-opacity:1.0000; stroke:none;">
<circle cx="113.4045" cy="125.4000" r="0.5000" /> 
</g>
<g style="fill:#FFFFFF; fill-opacity:1.0000; stroke:none;">
<circle cx="115.9445" cy="125.4000" r="0.5000" /> 
</g>
<g style="fill:#FFFFFF; fill-opacity:1.0000; stroke:none;">
<circle cx="118.4845" cy="125.4000" r="0.5000" /> 
</g>
<g style="fill:#FFFFFF; fill-opacity:1.0000; stroke:none;">
<circle cx="121.0245" cy="125.4000" r="0.5000" /> 
</g>
<g style="fill:#FFFFFF; fill-opacity:1.0000; stroke:none;">
<circle cx="123.5645" cy="125.4000" r="0.5000" /> 
</g>
<g style="fill:#FFFFFF; fill-opacity:1.0000; stroke:none;">
<circle cx="126.1045" cy="125.4000" r="0.5000" /> 
</g> 
</svg>
