<?xml version="1.0" standalone="no"?>
 <!DOCTYPE svg PUBLIC "-//W3C//DTD SVG 1.1//EN" 
 "http://www.w3.org/Graphics/SVG/1.1/DTD/svg11.dtd"> 
<svg
  xmlns:svg="http://www.w3.org/2000/svg"
  xmlns="http://www.w3.org/2000/svg"
  xmlns:xlink="http://www.w3.org/1999/xlink"
  version="1.1"
  width="297.0022mm" height="210.0072mm" viewBox="0.0000 0.0000 297.0022 210.0072">
<title>SVG Image created as Dasduino_CONNECTPLUS_1-F_Mask.svg date 2025/07/25 16:45:46 </title>
  <desc>Image generated by PCBNEW </desc>
<g style="fill:#000000; fill-opacity:1.0000;stroke:#000000; stroke-opacity:1.0000;
stroke-linecap:round; stroke-linejoin:round;"
 transform="translate(0 0) scale(1 1)">
<path style="fill:#000000; fill-opacity:1.0000; stroke:none;fill-rule:evenodd;"
d="M 59.4450,132.8500
59.4833,132.8576
59.5157,132.8793
59.5374,132.9117
59.5450,132.9500
59.5450,133.9500
59.5374,133.9883
59.5157,134.0207
59.4833,134.0424
59.4450,134.0500
58.8050,134.0500
58.7667,134.0424
58.7343,134.0207
58.7126,133.9883
58.7050,133.9500
58.7050,132.9500
58.7126,132.9117
58.7343,132.8793
58.7667,132.8576
58.8050,132.8500
Z" /> 
<path style="fill:#000000; fill-opacity:1.0000; stroke:none;fill-rule:evenodd;"
d="M 57.8950,132.8500
57.9333,132.8576
57.9657,132.8793
57.9874,132.9117
57.9950,132.9500
57.9950,133.9500
57.9874,133.9883
57.9657,134.0207
57.9333,134.0424
57.8950,134.0500
57.2550,134.0500
57.2167,134.0424
57.1843,134.0207
57.1626,133.9883
57.1550,133.9500
57.1550,132.9500
57.1626,132.9117
57.1843,132.8793
57.2167,132.8576
57.2550,132.8500
Z" /> 
<path style="fill:#000000; fill-opacity:1.0000; stroke:none;fill-rule:evenodd;"
d="M 54.1200,133.0300
54.1583,133.0376
54.1907,133.0593
54.2124,133.0917
54.2200,133.1300
54.2200,133.7700
54.2124,133.8083
54.1907,133.8407
54.1583,133.8624
54.1200,133.8700
53.5800,133.8700
53.5417,133.8624
53.5093,133.8407
53.4876,133.8083
53.4800,133.7700
53.4800,133.1300
53.4876,133.0917
53.5093,133.0593
53.5417,133.0376
53.5800,133.0300
Z" /> 
<path style="fill:#000000; fill-opacity:1.0000; stroke:none;fill-rule:evenodd;"
d="M 53.1200,133.0300
53.1583,133.0376
53.1907,133.0593
53.2124,133.0917
53.2200,133.1300
53.2200,133.7700
53.2124,133.8083
53.1907,133.8407
53.1583,133.8624
53.1200,133.8700
52.5800,133.8700
52.5417,133.8624
52.5093,133.8407
52.4876,133.8083
52.4800,133.7700
52.4800,133.1300
52.4876,133.0917
52.5093,133.0593
52.5417,133.0376
52.5800,133.0300
Z" /> 
<path style="fill:#000000; fill-opacity:1.0000; stroke:none;fill-rule:evenodd;"
d="M 71.2750,115.2250
71.2826,115.1867
71.3043,115.1543
71.3367,115.1326
71.3750,115.1250
73.1250,115.1250
73.1633,115.1326
73.1957,115.1543
73.2174,115.1867
73.2250,115.2250
73.2250,116.2250
73.2174,116.2633
73.1957,116.2957
73.1633,116.3174
73.1250,116.3250
71.3750,116.3250
71.3367,116.3174
71.3043,116.2957
71.2826,116.2633
71.2750,116.2250
Z" /> 
<path style="fill:#000000; fill-opacity:1.0000; stroke:none;fill-rule:evenodd;"
d="M 71.2750,118.2750
71.2826,118.2367
71.3043,118.2043
71.3367,118.1826
71.3750,118.1750
73.1250,118.1750
73.1633,118.1826
73.1957,118.2043
73.2174,118.2367
73.2250,118.2750
73.2250,119.2750
73.2174,119.3133
73.1957,119.3457
73.1633,119.3674
73.1250,119.3750
71.3750,119.3750
71.3367,119.3674
71.3043,119.3457
71.2826,119.3133
71.2750,119.2750
Z" /> 
<path style="fill:#000000; fill-opacity:1.0000; stroke:none;fill-rule:evenodd;"
d="M 47.0500,130.1100
47.0424,130.1483
47.0207,130.1807
46.9883,130.2024
46.9500,130.2100
45.9500,130.2100
45.9117,130.2024
45.8793,130.1807
45.8576,130.1483
45.8500,130.1100
45.8500,128.1100
45.8576,128.0717
45.8793,128.0393
45.9117,128.0176
45.9500,128.0100
46.9500,128.0100
46.9883,128.0176
47.0207,128.0393
47.0424,128.0717
47.0500,128.1100
Z" /> 
<path style="fill:#000000; fill-opacity:1.0000; stroke:none;fill-rule:evenodd;"
d="M 44.2500,130.1100
44.2424,130.1483
44.2207,130.1807
44.1883,130.2024
44.1500,130.2100
43.1500,130.2100
43.1117,130.2024
43.0793,130.1807
43.0576,130.1483
43.0500,130.1100
43.0500,128.1100
43.0576,128.0717
43.0793,128.0393
43.1117,128.0176
43.1500,128.0100
44.1500,128.0100
44.1883,128.0176
44.2207,128.0393
44.2424,128.0717
44.2500,128.1100
Z" /> 
<path style="fill:#000000; fill-opacity:1.0000; stroke:none;fill-rule:evenodd;"
d="M 47.2400,132.7990
47.2783,132.8066
47.3107,132.8283
47.3324,132.8607
47.3400,132.8990
47.3400,133.8990
47.3324,133.9373
47.3107,133.9697
47.2783,133.9914
47.2400,133.9990
46.6000,133.9990
46.5617,133.9914
46.5293,133.9697
46.5076,133.9373
46.5000,133.8990
46.5000,132.8990
46.5076,132.8607
46.5293,132.8283
46.5617,132.8066
46.6000,132.7990
Z" /> 
<path style="fill:#000000; fill-opacity:1.0000; stroke:none;fill-rule:evenodd;"
d="M 45.6900,132.7990
45.7283,132.8066
45.7607,132.8283
45.7824,132.8607
45.7900,132.8990
45.7900,133.8990
45.7824,133.9373
45.7607,133.9697
45.7283,133.9914
45.6900,133.9990
45.0500,133.9990
45.0117,133.9914
44.9793,133.9697
44.9576,133.9373
44.9500,133.8990
44.9500,132.8990
44.9576,132.8607
44.9793,132.8283
45.0117,132.8066
45.0500,132.7990
Z" /> 
<path style="fill:#000000; fill-opacity:1.0000; stroke:none;fill-rule:evenodd;"
d="M 75.1100,126.6500
75.1024,126.6883
75.0807,126.7207
75.0483,126.7424
75.0100,126.7500
74.3500,126.7500
74.3117,126.7424
74.2793,126.7207
74.2576,126.6883
74.2500,126.6500
74.2500,125.6500
74.2576,125.6117
74.2793,125.5793
74.3117,125.5576
74.3500,125.5500
75.0100,125.5500
75.0483,125.5576
75.0807,125.5793
75.1024,125.6117
75.1100,125.6500
Z" /> 
<path style="fill:#000000; fill-opacity:1.0000; stroke:none;fill-rule:evenodd;"
d="M 73.6500,126.6500
73.6424,126.6883
73.6207,126.7207
73.5883,126.7424
73.5500,126.7500
72.8900,126.7500
72.8517,126.7424
72.8193,126.7207
72.7976,126.6883
72.7900,126.6500
72.7900,125.6500
72.7976,125.6117
72.8193,125.5793
72.8517,125.5576
72.8900,125.5500
73.5500,125.5500
73.5883,125.5576
73.6207,125.5793
73.6424,125.6117
73.6500,125.6500
Z" /> 
<path style="fill:#000000; fill-opacity:1.0000; stroke:none;fill-rule:evenodd;"
d="M 54.0550,126.6500
54.0167,126.6424
53.9843,126.6207
53.9626,126.5883
53.9550,126.5500
53.9550,125.5500
53.9626,125.5117
53.9843,125.4793
54.0167,125.4576
54.0550,125.4500
54.6950,125.4500
54.7333,125.4576
54.7657,125.4793
54.7874,125.5117
54.7950,125.5500
54.7950,126.5500
54.7874,126.5883
54.7657,126.6207
54.7333,126.6424
54.6950,126.6500
Z" /> 
<path style="fill:#000000; fill-opacity:1.0000; stroke:none;fill-rule:evenodd;"
d="M 55.6050,126.6500
55.5667,126.6424
55.5343,126.6207
55.5126,126.5883
55.5050,126.5500
55.5050,125.5500
55.5126,125.5117
55.5343,125.4793
55.5667,125.4576
55.6050,125.4500
56.2450,125.4500
56.2833,125.4576
56.3157,125.4793
56.3374,125.5117
56.3450,125.5500
56.3450,126.5500
56.3374,126.5883
56.3157,126.6207
56.2833,126.6424
56.2450,126.6500
Z" /> 
<path style="fill:#000000; fill-opacity:1.0000; stroke:none;fill-rule:evenodd;"
d="M 75.7100,119.3500
75.7024,119.3883
75.6807,119.4207
75.6483,119.4424
75.6100,119.4500
74.9500,119.4500
74.9117,119.4424
74.8793,119.4207
74.8576,119.3883
74.8500,119.3500
74.8500,118.3500
74.8576,118.3117
74.8793,118.2793
74.9117,118.2576
74.9500,118.2500
75.6100,118.2500
75.6483,118.2576
75.6807,118.2793
75.7024,118.3117
75.7100,118.3500
Z" /> 
<path style="fill:#000000; fill-opacity:1.0000; stroke:none;fill-rule:evenodd;"
d="M 74.2500,119.3500
74.2424,119.3883
74.2207,119.4207
74.1883,119.4424
74.1500,119.4500
73.4900,119.4500
73.4517,119.4424
73.4193,119.4207
73.3976,119.3883
73.3900,119.3500
73.3900,118.3500
73.3976,118.3117
73.4193,118.2793
73.4517,118.2576
73.4900,118.2500
74.1500,118.2500
74.1883,118.2576
74.2207,118.2793
74.2424,118.3117
74.2500,118.3500
Z" /> 
<path style="fill:#000000; fill-opacity:1.0000; stroke:none;fill-rule:evenodd;"
d="M 59.4450,130.3500
59.4833,130.3576
59.5157,130.3793
59.5374,130.4117
59.5450,130.4500
59.5450,131.4500
59.5374,131.4883
59.5157,131.5207
59.4833,131.5424
59.4450,131.5500
58.8050,131.5500
58.7667,131.5424
58.7343,131.5207
58.7126,131.4883
58.7050,131.4500
58.7050,130.4500
58.7126,130.4117
58.7343,130.3793
58.7667,130.3576
58.8050,130.3500
Z" /> 
<path style="fill:#000000; fill-opacity:1.0000; stroke:none;fill-rule:evenodd;"
d="M 57.8950,130.3500
57.9333,130.3576
57.9657,130.3793
57.9874,130.4117
57.9950,130.4500
57.9950,131.4500
57.9874,131.4883
57.9657,131.5207
57.9333,131.5424
57.8950,131.5500
57.2550,131.5500
57.2167,131.5424
57.1843,131.5207
57.1626,131.4883
57.1550,131.4500
57.1550,130.4500
57.1626,130.4117
57.1843,130.3793
57.2167,130.3576
57.2550,130.3500
Z" /> 
<path style="fill:#000000; fill-opacity:1.0000; stroke:none;fill-rule:evenodd;"
d="M 54.5750,131.4250
54.5367,131.4174
54.5043,131.3957
54.4826,131.3633
54.4750,131.3250
54.4750,130.5750
54.4826,130.5367
54.5043,130.5043
54.5367,130.4826
54.5750,130.4750
55.0250,130.4750
55.0633,130.4826
55.0957,130.5043
55.1174,130.5367
55.1250,130.5750
55.1250,131.3250
55.1174,131.3633
55.0957,131.3957
55.0633,131.4174
55.0250,131.4250
Z" /> 
<path style="fill:#000000; fill-opacity:1.0000; stroke:none;fill-rule:evenodd;"
d="M 55.6750,131.4250
55.6367,131.4174
55.6043,131.3957
55.5826,131.3633
55.5750,131.3250
55.5750,130.5750
55.5826,130.5367
55.6043,130.5043
55.6367,130.4826
55.6750,130.4750
56.1250,130.4750
56.1633,130.4826
56.1957,130.5043
56.2174,130.5367
56.2250,130.5750
56.2250,131.3250
56.2174,131.3633
56.1957,131.3957
56.1633,131.4174
56.1250,131.4250
Z" /> 
<path style="fill:#000000; fill-opacity:1.0000; stroke:none;fill-rule:evenodd;"
d="M 54.1200,130.5300
54.1583,130.5376
54.1907,130.5593
54.2124,130.5917
54.2200,130.6300
54.2200,131.2700
54.2124,131.3083
54.1907,131.3407
54.1583,131.3624
54.1200,131.3700
53.5800,131.3700
53.5417,131.3624
53.5093,131.3407
53.4876,131.3083
53.4800,131.2700
53.4800,130.6300
53.4876,130.5917
53.5093,130.5593
53.5417,130.5376
53.5800,130.5300
Z" /> 
<path style="fill:#000000; fill-opacity:1.0000; stroke:none;fill-rule:evenodd;"
d="M 53.1200,130.5300
53.1583,130.5376
53.1907,130.5593
53.2124,130.5917
53.2200,130.6300
53.2200,131.2700
53.2124,131.3083
53.1907,131.3407
53.1583,131.3624
53.1200,131.3700
52.5800,131.3700
52.5417,131.3624
52.5093,131.3407
52.4876,131.3083
52.4800,131.2700
52.4800,130.6300
52.4876,130.5917
52.5093,130.5593
52.5417,130.5376
52.5800,130.5300
Z" /> 
</g>
<g style="fill:#000000; fill-opacity:1.0000; stroke:none;">
<circle cx="40.6500" cy="121.5800" r="1.6000" /> 
</g>
<g style="fill:#000000; fill-opacity:1.0000; stroke:none;">
<circle cx="64.5900" cy="133.0100" r="0.9500" /> 
</g>
<g style="fill:#000000; fill-opacity:1.0000; stroke:none;">
<circle cx="67.1300" cy="133.0100" r="0.9500" /> 
</g>
<g style="fill:#000000; fill-opacity:1.0000; stroke:none;">
<circle cx="69.6700" cy="133.0100" r="0.9500" /> 
</g>
<g style="fill:#000000; fill-opacity:1.0000; stroke:none;">
<circle cx="72.2100" cy="133.0100" r="0.9500" /> 
</g>
<g style="fill:#000000; fill-opacity:1.0000; stroke:none;">
<circle cx="74.7500" cy="133.0100" r="0.9500" /> 
</g>
<g style="fill:#000000; fill-opacity:1.0000; stroke:none;">
<circle cx="77.2900" cy="133.0100" r="0.9500" /> 
</g>
<g style="fill:#000000; fill-opacity:1.0000; stroke:none;">
<circle cx="79.8300" cy="133.0100" r="0.9500" /> 
</g>
<g style="fill:#000000; fill-opacity:1.0000; stroke:none;">
<circle cx="82.3700" cy="133.0100" r="0.9500" /> 
</g>
<g style="fill:#000000; fill-opacity:1.0000; stroke:none;">
<circle cx="84.9100" cy="133.0100" r="0.9500" /> 
</g>
<g style="fill:#000000; fill-opacity:1.0000; stroke:none;">
<circle cx="87.4500" cy="133.0100" r="0.9500" /> 
</g>
<g style="fill:#000000; fill-opacity:1.0000; stroke:none;">
<circle cx="89.9900" cy="133.0100" r="0.9500" /> 
</g>
<g style="fill:#000000; fill-opacity:1.0000; stroke:none;">
<circle cx="92.5300" cy="133.0100" r="0.9500" /> 
</g>
<g style="fill:#000000; fill-opacity:1.0000; stroke:none;">
<circle cx="95.0700" cy="133.0100" r="0.9500" /> 
</g>
<g style="fill:#000000; fill-opacity:1.0000; stroke:none;">
<circle cx="97.6100" cy="133.0100" r="0.9500" /> 
</g>
<g style="fill:#000000; fill-opacity:1.0000; stroke:none;">
<circle cx="100.1500" cy="133.0100" r="0.9500" /> 
<path style="fill:#000000; fill-opacity:1.0000; stroke:none;fill-rule:evenodd;"
d="M 41.6500,129.3860
41.6883,129.3936
41.7207,129.4153
41.7424,129.4477
41.7500,129.4860
41.7500,130.4860
41.7424,130.5243
41.7207,130.5567
41.6883,130.5784
41.6500,130.5860
41.0100,130.5860
40.9717,130.5784
40.9393,130.5567
40.9176,130.5243
40.9100,130.4860
40.9100,129.4860
40.9176,129.4477
40.9393,129.4153
40.9717,129.3936
41.0100,129.3860
Z" /> 
<path style="fill:#000000; fill-opacity:1.0000; stroke:none;fill-rule:evenodd;"
d="M 40.1000,129.3860
40.1383,129.3936
40.1707,129.4153
40.1924,129.4477
40.2000,129.4860
40.2000,130.4860
40.1924,130.5243
40.1707,130.5567
40.1383,130.5784
40.1000,130.5860
39.4600,130.5860
39.4217,130.5784
39.3893,130.5567
39.3676,130.5243
39.3600,130.4860
39.3600,129.4860
39.3676,129.4477
39.3893,129.4153
39.4217,129.3936
39.4600,129.3860
Z" /> 
<path style="fill:#000000; fill-opacity:1.0000; stroke:none;fill-rule:evenodd;"
d="M 70.3480,116.7500
70.3863,116.7576
70.4187,116.7793
70.4404,116.8117
70.4480,116.8500
70.4480,117.1500
70.4404,117.1883
70.4187,117.2207
70.3863,117.2424
70.3480,117.2500
69.6480,117.2500
69.6097,117.2424
69.5773,117.2207
69.5556,117.1883
69.5480,117.1500
69.5480,116.8500
69.5556,116.8117
69.5773,116.7793
69.6097,116.7576
69.6480,116.7500
Z" /> 
<path style="fill:#000000; fill-opacity:1.0000; stroke:none;fill-rule:evenodd;"
d="M 70.3480,116.1000
70.3863,116.1076
70.4187,116.1293
70.4404,116.1617
70.4480,116.2000
70.4480,116.5000
70.4404,116.5383
70.4187,116.5707
70.3863,116.5924
70.3480,116.6000
69.6480,116.6000
69.6097,116.5924
69.5773,116.5707
69.5556,116.5383
69.5480,116.5000
69.5480,116.2000
69.5556,116.1617
69.5773,116.1293
69.6097,116.1076
69.6480,116.1000
Z" /> 
<path style="fill:#000000; fill-opacity:1.0000; stroke:none;fill-rule:evenodd;"
d="M 70.3480,115.4500
70.3863,115.4576
70.4187,115.4793
70.4404,115.5117
70.4480,115.5500
70.4480,115.8500
70.4404,115.8883
70.4187,115.9207
70.3863,115.9424
70.3480,115.9500
69.6480,115.9500
69.6097,115.9424
69.5773,115.9207
69.5556,115.8883
69.5480,115.8500
69.5480,115.5500
69.5556,115.5117
69.5773,115.4793
69.6097,115.4576
69.6480,115.4500
Z" /> 
<path style="fill:#000000; fill-opacity:1.0000; stroke:none;fill-rule:evenodd;"
d="M 68.3580,115.4500
68.3963,115.4576
68.4287,115.4793
68.4504,115.5117
68.4580,115.5500
68.4580,115.8500
68.4504,115.8883
68.4287,115.9207
68.3963,115.9424
68.3580,115.9500
67.6580,115.9500
67.6197,115.9424
67.5873,115.9207
67.5656,115.8883
67.5580,115.8500
67.5580,115.5500
67.5656,115.5117
67.5873,115.4793
67.6197,115.4576
67.6580,115.4500
Z" /> 
<path style="fill:#000000; fill-opacity:1.0000; stroke:none;fill-rule:evenodd;"
d="M 69.4480,115.4500
69.4863,115.4576
69.5187,115.4793
69.5404,115.5117
69.5480,115.5500
69.5480,117.1500
69.5404,117.1883
69.5187,117.2207
69.4863,117.2424
69.4480,117.2500
68.5580,117.2500
68.5197,117.2424
68.4873,117.2207
68.4656,117.1883
68.4580,117.1500
68.4580,115.5500
68.4656,115.5117
68.4873,115.4793
68.5197,115.4576
68.5580,115.4500
Z" /> 
<path style="fill:#000000; fill-opacity:1.0000; stroke:none;fill-rule:evenodd;"
d="M 68.3580,116.1000
68.3963,116.1076
68.4287,116.1293
68.4504,116.1617
68.4580,116.2000
68.4580,116.5000
68.4504,116.5383
68.4287,116.5707
68.3963,116.5924
68.3580,116.6000
67.6580,116.6000
67.6197,116.5924
67.5873,116.5707
67.5656,116.5383
67.5580,116.5000
67.5580,116.2000
67.5656,116.1617
67.5873,116.1293
67.6197,116.1076
67.6580,116.1000
Z" /> 
<path style="fill:#000000; fill-opacity:1.0000; stroke:none;fill-rule:evenodd;"
d="M 68.3580,116.7500
68.3963,116.7576
68.4287,116.7793
68.4504,116.8117
68.4580,116.8500
68.4580,117.1500
68.4504,117.1883
68.4287,117.2207
68.3963,117.2424
68.3580,117.2500
67.6580,117.2500
67.6197,117.2424
67.5873,117.2207
67.5656,117.1883
67.5580,117.1500
67.5580,116.8500
67.5656,116.8117
67.5873,116.7793
67.6197,116.7576
67.6580,116.7500
Z" /> 
<path style="fill:#000000; fill-opacity:1.0000; stroke:none;fill-rule:evenodd;"
d="M 54.8850,121.3800
54.8774,121.4183
54.8557,121.4507
54.8233,121.4724
54.7850,121.4800
54.0850,121.4800
54.0467,121.4724
54.0143,121.4507
53.9926,121.4183
53.9850,121.3800
53.9850,120.6800
53.9926,120.6417
54.0143,120.6093
54.0467,120.5876
54.0850,120.5800
54.7850,120.5800
54.8233,120.5876
54.8557,120.6093
54.8774,120.6417
54.8850,120.6800
Z" /> 
<path style="fill:#000000; fill-opacity:1.0000; stroke:none;fill-rule:evenodd;"
d="M 54.8850,122.4800
54.8774,122.5183
54.8557,122.5507
54.8233,122.5724
54.7850,122.5800
54.0850,122.5800
54.0467,122.5724
54.0143,122.5507
53.9926,122.5183
53.9850,122.4800
53.9850,121.7800
53.9926,121.7417
54.0143,121.7093
54.0467,121.6876
54.0850,121.6800
54.7850,121.6800
54.8233,121.6876
54.8557,121.7093
54.8774,121.7417
54.8850,121.7800
Z" /> 
<path style="fill:#000000; fill-opacity:1.0000; stroke:none;fill-rule:evenodd;"
d="M 56.7150,122.4800
56.7074,122.5183
56.6857,122.5507
56.6533,122.5724
56.6150,122.5800
55.9150,122.5800
55.8767,122.5724
55.8443,122.5507
55.8226,122.5183
55.8150,122.4800
55.8150,121.7800
55.8226,121.7417
55.8443,121.7093
55.8767,121.6876
55.9150,121.6800
56.6150,121.6800
56.6533,121.6876
56.6857,121.7093
56.7074,121.7417
56.7150,121.7800
Z" /> 
<path style="fill:#000000; fill-opacity:1.0000; stroke:none;fill-rule:evenodd;"
d="M 56.7150,121.3800
56.7074,121.4183
56.6857,121.4507
56.6533,121.4724
56.6150,121.4800
55.9150,121.4800
55.8767,121.4724
55.8443,121.4507
55.8226,121.4183
55.8150,121.3800
55.8150,120.6800
55.8226,120.6417
55.8443,120.6093
55.8767,120.5876
55.9150,120.5800
56.6150,120.5800
56.6533,120.5876
56.6857,120.6093
56.7074,120.6417
56.7150,120.6800
Z" /> 
<path style="fill:#000000; fill-opacity:1.0000; stroke:none;fill-rule:evenodd;"
d="M 51.1200,111.7300
51.1583,111.7376
51.1907,111.7593
51.2124,111.7917
51.2200,111.8300
51.2200,112.4700
51.2124,112.5083
51.1907,112.5407
51.1583,112.5624
51.1200,112.5700
50.5800,112.5700
50.5417,112.5624
50.5093,112.5407
50.4876,112.5083
50.4800,112.4700
50.4800,111.8300
50.4876,111.7917
50.5093,111.7593
50.5417,111.7376
50.5800,111.7300
Z" /> 
<path style="fill:#000000; fill-opacity:1.0000; stroke:none;fill-rule:evenodd;"
d="M 50.1200,111.7300
50.1583,111.7376
50.1907,111.7593
50.2124,111.7917
50.2200,111.8300
50.2200,112.4700
50.2124,112.5083
50.1907,112.5407
50.1583,112.5624
50.1200,112.5700
49.5800,112.5700
49.5417,112.5624
49.5093,112.5407
49.4876,112.5083
49.4800,112.4700
49.4800,111.8300
49.4876,111.7917
49.5093,111.7593
49.5417,111.7376
49.5800,111.7300
Z" /> 
<path style="fill:#000000; fill-opacity:1.0000; stroke:none;fill-rule:evenodd;"
d="M 41.1250,115.9250
41.1174,115.9633
41.0957,115.9957
41.0633,116.0174
41.0250,116.0250
40.2750,116.0250
40.2367,116.0174
40.2043,115.9957
40.1826,115.9633
40.1750,115.9250
40.1750,115.4750
40.1826,115.4367
40.2043,115.4043
40.2367,115.3826
40.2750,115.3750
41.0250,115.3750
41.0633,115.3826
41.0957,115.4043
41.1174,115.4367
41.1250,115.4750
Z" /> 
<path style="fill:#000000; fill-opacity:1.0000; stroke:none;fill-rule:evenodd;"
d="M 41.1250,114.8250
41.1174,114.8633
41.0957,114.8957
41.0633,114.9174
41.0250,114.9250
40.2750,114.9250
40.2367,114.9174
40.2043,114.8957
40.1826,114.8633
40.1750,114.8250
40.1750,114.3750
40.1826,114.3367
40.2043,114.3043
40.2367,114.2826
40.2750,114.2750
41.0250,114.2750
41.0633,114.2826
41.0957,114.3043
41.1174,114.3367
41.1250,114.3750
Z" /> 
</g>
<g style="fill:#000000; fill-opacity:1.0000; stroke:none;">
<circle cx="64.5900" cy="110.1500" r="0.9500" /> 
</g>
<g style="fill:#000000; fill-opacity:1.0000; stroke:none;">
<circle cx="67.1300" cy="110.1500" r="0.9500" /> 
</g>
<g style="fill:#000000; fill-opacity:1.0000; stroke:none;">
<circle cx="69.6700" cy="110.1500" r="0.9500" /> 
</g>
<g style="fill:#000000; fill-opacity:1.0000; stroke:none;">
<circle cx="72.2100" cy="110.1500" r="0.9500" /> 
</g>
<g style="fill:#000000; fill-opacity:1.0000; stroke:none;">
<circle cx="74.7500" cy="110.1500" r="0.9500" /> 
</g>
<g style="fill:#000000; fill-opacity:1.0000; stroke:none;">
<circle cx="77.2900" cy="110.1500" r="0.9500" /> 
</g>
<g style="fill:#000000; fill-opacity:1.0000; stroke:none;">
<circle cx="79.8300" cy="110.1500" r="0.9500" /> 
</g>
<g style="fill:#000000; fill-opacity:1.0000; stroke:none;">
<circle cx="82.3700" cy="110.1500" r="0.9500" /> 
</g>
<g style="fill:#000000; fill-opacity:1.0000; stroke:none;">
<circle cx="84.9100" cy="110.1500" r="0.9500" /> 
</g>
<g style="fill:#000000; fill-opacity:1.0000; stroke:none;">
<circle cx="87.4500" cy="110.1500" r="0.9500" /> 
</g>
<g style="fill:#000000; fill-opacity:1.0000; stroke:none;">
<circle cx="89.9900" cy="110.1500" r="0.9500" /> 
</g>
<g style="fill:#000000; fill-opacity:1.0000; stroke:none;">
<circle cx="92.5300" cy="110.1500" r="0.9500" /> 
</g>
<g style="fill:#000000; fill-opacity:1.0000; stroke:none;">
<circle cx="95.0700" cy="110.1500" r="0.9500" /> 
</g>
<g style="fill:#000000; fill-opacity:1.0000; stroke:none;">
<circle cx="97.6100" cy="110.1500" r="0.9500" /> 
</g>
<g style="fill:#000000; fill-opacity:1.0000; stroke:none;">
<circle cx="100.1500" cy="110.1500" r="0.9500" /> 
<path style="fill:#000000; fill-opacity:1.0000; stroke:none;fill-rule:evenodd;"
d="M 75.0450,122.5500
75.0833,122.5576
75.1157,122.5793
75.1374,122.6117
75.1450,122.6500
75.1450,123.6500
75.1374,123.6883
75.1157,123.7207
75.0833,123.7424
75.0450,123.7500
74.4050,123.7500
74.3667,123.7424
74.3343,123.7207
74.3126,123.6883
74.3050,123.6500
74.3050,122.6500
74.3126,122.6117
74.3343,122.5793
74.3667,122.5576
74.4050,122.5500
Z" /> 
<path style="fill:#000000; fill-opacity:1.0000; stroke:none;fill-rule:evenodd;"
d="M 73.4950,122.5500
73.5333,122.5576
73.5657,122.5793
73.5874,122.6117
73.5950,122.6500
73.5950,123.6500
73.5874,123.6883
73.5657,123.7207
73.5333,123.7424
73.4950,123.7500
72.8550,123.7500
72.8167,123.7424
72.7843,123.7207
72.7626,123.6883
72.7550,123.6500
72.7550,122.6500
72.7626,122.6117
72.7843,122.5793
72.8167,122.5576
72.8550,122.5500
Z" /> 
<path style="fill:#000000; fill-opacity:1.0000; stroke:none;fill-rule:evenodd;"
d="M 41.6500,127.6080
41.6883,127.6156
41.7207,127.6373
41.7424,127.6697
41.7500,127.7080
41.7500,128.7080
41.7424,128.7463
41.7207,128.7787
41.6883,128.8004
41.6500,128.8080
41.0100,128.8080
40.9717,128.8004
40.9393,128.7787
40.9176,128.7463
40.9100,128.7080
40.9100,127.7080
40.9176,127.6697
40.9393,127.6373
40.9717,127.6156
41.0100,127.6080
Z" /> 
<path style="fill:#000000; fill-opacity:1.0000; stroke:none;fill-rule:evenodd;"
d="M 40.1000,127.6080
40.1383,127.6156
40.1707,127.6373
40.1924,127.6697
40.2000,127.7080
40.2000,128.7080
40.1924,128.7463
40.1707,128.7787
40.1383,128.8004
40.1000,128.8080
39.4600,128.8080
39.4217,128.8004
39.3893,128.7787
39.3676,128.7463
39.3600,128.7080
39.3600,127.7080
39.3676,127.6697
39.3893,127.6373
39.4217,127.6156
39.4600,127.6080
Z" /> 
<path style="fill:#000000; fill-opacity:1.0000; stroke:none;fill-rule:evenodd;"
d="M 72.0350,120.6750
72.0733,120.6826
72.1057,120.7043
72.1274,120.7367
72.1350,120.7750
72.1350,121.8250
72.1274,121.8633
72.1057,121.8957
72.0733,121.9174
72.0350,121.9250
71.5550,121.9250
71.5167,121.9174
71.4843,121.8957
71.4626,121.8633
71.4550,121.8250
71.4550,120.7750
71.4626,120.7367
71.4843,120.7043
71.5167,120.6826
71.5550,120.6750
Z" /> 
<path style="fill:#000000; fill-opacity:1.0000; stroke:none;fill-rule:evenodd;"
d="M 70.7650,120.6750
70.8033,120.6826
70.8357,120.7043
70.8574,120.7367
70.8650,120.7750
70.8650,121.8250
70.8574,121.8633
70.8357,121.8957
70.8033,121.9174
70.7650,121.9250
70.2850,121.9250
70.2467,121.9174
70.2143,121.8957
70.1926,121.8633
70.1850,121.8250
70.1850,120.7750
70.1926,120.7367
70.2143,120.7043
70.2467,120.6826
70.2850,120.6750
Z" /> 
<path style="fill:#000000; fill-opacity:1.0000; stroke:none;fill-rule:evenodd;"
d="M 69.4950,120.6750
69.5333,120.6826
69.5657,120.7043
69.5874,120.7367
69.5950,120.7750
69.5950,121.8250
69.5874,121.8633
69.5657,121.8957
69.5333,121.9174
69.4950,121.9250
69.0150,121.9250
68.9767,121.9174
68.9443,121.8957
68.9226,121.8633
68.9150,121.8250
68.9150,120.7750
68.9226,120.7367
68.9443,120.7043
68.9767,120.6826
69.0150,120.6750
Z" /> 
<path style="fill:#000000; fill-opacity:1.0000; stroke:none;fill-rule:evenodd;"
d="M 68.2250,120.6750
68.2633,120.6826
68.2957,120.7043
68.3174,120.7367
68.3250,120.7750
68.3250,121.8250
68.3174,121.8633
68.2957,121.8957
68.2633,121.9174
68.2250,121.9250
67.7450,121.9250
67.7067,121.9174
67.6743,121.8957
67.6526,121.8633
67.6450,121.8250
67.6450,120.7750
67.6526,120.7367
67.6743,120.7043
67.7067,120.6826
67.7450,120.6750
Z" /> 
<path style="fill:#000000; fill-opacity:1.0000; stroke:none;fill-rule:evenodd;"
d="M 66.9550,120.6750
66.9933,120.6826
67.0257,120.7043
67.0474,120.7367
67.0550,120.7750
67.0550,121.8250
67.0474,121.8633
67.0257,121.8957
66.9933,121.9174
66.9550,121.9250
66.4750,121.9250
66.4367,121.9174
66.4043,121.8957
66.3826,121.8633
66.3750,121.8250
66.3750,120.7750
66.3826,120.7367
66.4043,120.7043
66.4367,120.6826
66.4750,120.6750
Z" /> 
<path style="fill:#000000; fill-opacity:1.0000; stroke:none;fill-rule:evenodd;"
d="M 65.6850,120.6750
65.7233,120.6826
65.7557,120.7043
65.7774,120.7367
65.7850,120.7750
65.7850,121.8250
65.7774,121.8633
65.7557,121.8957
65.7233,121.9174
65.6850,121.9250
65.2050,121.9250
65.1667,121.9174
65.1343,121.8957
65.1126,121.8633
65.1050,121.8250
65.1050,120.7750
65.1126,120.7367
65.1343,120.7043
65.1667,120.6826
65.2050,120.6750
Z" /> 
<path style="fill:#000000; fill-opacity:1.0000; stroke:none;fill-rule:evenodd;"
d="M 64.4150,120.6750
64.4533,120.6826
64.4857,120.7043
64.5074,120.7367
64.5150,120.7750
64.5150,121.8250
64.5074,121.8633
64.4857,121.8957
64.4533,121.9174
64.4150,121.9250
63.9350,121.9250
63.8967,121.9174
63.8643,121.8957
63.8426,121.8633
63.8350,121.8250
63.8350,120.7750
63.8426,120.7367
63.8643,120.7043
63.8967,120.6826
63.9350,120.6750
Z" /> 
<path style="fill:#000000; fill-opacity:1.0000; stroke:none;fill-rule:evenodd;"
d="M 63.1450,120.6750
63.1833,120.6826
63.2157,120.7043
63.2374,120.7367
63.2450,120.7750
63.2450,121.8250
63.2374,121.8633
63.2157,121.8957
63.1833,121.9174
63.1450,121.9250
62.6650,121.9250
62.6267,121.9174
62.5943,121.8957
62.5726,121.8633
62.5650,121.8250
62.5650,120.7750
62.5726,120.7367
62.5943,120.7043
62.6267,120.6826
62.6650,120.6750
Z" /> 
<path style="fill:#000000; fill-opacity:1.0000; stroke:none;fill-rule:evenodd;"
d="M 63.1450,126.5750
63.1833,126.5826
63.2157,126.6043
63.2374,126.6367
63.2450,126.6750
63.2450,127.7250
63.2374,127.7633
63.2157,127.7957
63.1833,127.8174
63.1450,127.8250
62.6650,127.8250
62.6267,127.8174
62.5943,127.7957
62.5726,127.7633
62.5650,127.7250
62.5650,126.6750
62.5726,126.6367
62.5943,126.6043
62.6267,126.5826
62.6650,126.5750
Z" /> 
<path style="fill:#000000; fill-opacity:1.0000; stroke:none;fill-rule:evenodd;"
d="M 64.4150,126.5750
64.4533,126.5826
64.4857,126.6043
64.5074,126.6367
64.5150,126.6750
64.5150,127.7250
64.5074,127.7633
64.4857,127.7957
64.4533,127.8174
64.4150,127.8250
63.9350,127.8250
63.8967,127.8174
63.8643,127.7957
63.8426,127.7633
63.8350,127.7250
63.8350,126.6750
63.8426,126.6367
63.8643,126.6043
63.8967,126.5826
63.9350,126.5750
Z" /> 
<path style="fill:#000000; fill-opacity:1.0000; stroke:none;fill-rule:evenodd;"
d="M 65.6850,126.5750
65.7233,126.5826
65.7557,126.6043
65.7774,126.6367
65.7850,126.6750
65.7850,127.7250
65.7774,127.7633
65.7557,127.7957
65.7233,127.8174
65.6850,127.8250
65.2050,127.8250
65.1667,127.8174
65.1343,127.7957
65.1126,127.7633
65.1050,127.7250
65.1050,126.6750
65.1126,126.6367
65.1343,126.6043
65.1667,126.5826
65.2050,126.5750
Z" /> 
<path style="fill:#000000; fill-opacity:1.0000; stroke:none;fill-rule:evenodd;"
d="M 66.9550,126.5750
66.9933,126.5826
67.0257,126.6043
67.0474,126.6367
67.0550,126.6750
67.0550,127.7250
67.0474,127.7633
67.0257,127.7957
66.9933,127.8174
66.9550,127.8250
66.4750,127.8250
66.4367,127.8174
66.4043,127.7957
66.3826,127.7633
66.3750,127.7250
66.3750,126.6750
66.3826,126.6367
66.4043,126.6043
66.4367,126.5826
66.4750,126.5750
Z" /> 
<path style="fill:#000000; fill-opacity:1.0000; stroke:none;fill-rule:evenodd;"
d="M 68.2250,126.5750
68.2633,126.5826
68.2957,126.6043
68.3174,126.6367
68.3250,126.6750
68.3250,127.7250
68.3174,127.7633
68.2957,127.7957
68.2633,127.8174
68.2250,127.8250
67.7450,127.8250
67.7067,127.8174
67.6743,127.7957
67.6526,127.7633
67.6450,127.7250
67.6450,126.6750
67.6526,126.6367
67.6743,126.6043
67.7067,126.5826
67.7450,126.5750
Z" /> 
<path style="fill:#000000; fill-opacity:1.0000; stroke:none;fill-rule:evenodd;"
d="M 69.4950,126.5750
69.5333,126.5826
69.5657,126.6043
69.5874,126.6367
69.5950,126.6750
69.5950,127.7250
69.5874,127.7633
69.5657,127.7957
69.5333,127.8174
69.4950,127.8250
69.0150,127.8250
68.9767,127.8174
68.9443,127.7957
68.9226,127.7633
68.9150,127.7250
68.9150,126.6750
68.9226,126.6367
68.9443,126.6043
68.9767,126.5826
69.0150,126.5750
Z" /> 
<path style="fill:#000000; fill-opacity:1.0000; stroke:none;fill-rule:evenodd;"
d="M 70.7650,126.5750
70.8033,126.5826
70.8357,126.6043
70.8574,126.6367
70.8650,126.6750
70.8650,127.7250
70.8574,127.7633
70.8357,127.7957
70.8033,127.8174
70.7650,127.8250
70.2850,127.8250
70.2467,127.8174
70.2143,127.7957
70.1926,127.7633
70.1850,127.7250
70.1850,126.6750
70.1926,126.6367
70.2143,126.6043
70.2467,126.5826
70.2850,126.5750
Z" /> 
<path style="fill:#000000; fill-opacity:1.0000; stroke:none;fill-rule:evenodd;"
d="M 72.0350,126.5750
72.0733,126.5826
72.1057,126.6043
72.1274,126.6367
72.1350,126.6750
72.1350,127.7250
72.1274,127.7633
72.1057,127.7957
72.0733,127.8174
72.0350,127.8250
71.5550,127.8250
71.5167,127.8174
71.4843,127.7957
71.4626,127.7633
71.4550,127.7250
71.4550,126.6750
71.4626,126.6367
71.4843,126.6043
71.5167,126.5826
71.5550,126.5750
Z" /> 
<path style="fill:#000000; fill-opacity:1.0000; stroke:none;fill-rule:evenodd;"
d="M 43.2500,113.3250
43.2576,113.2867
43.2793,113.2543
43.3117,113.2326
43.3500,113.2250
43.9500,113.2250
43.9883,113.2326
44.0207,113.2543
44.0424,113.2867
44.0500,113.3250
44.0500,114.8750
44.0424,114.9133
44.0207,114.9457
43.9883,114.9674
43.9500,114.9750
43.3500,114.9750
43.3117,114.9674
43.2793,114.9457
43.2576,114.9133
43.2500,114.8750
Z" /> 
<path style="fill:#000000; fill-opacity:1.0000; stroke:none;fill-rule:evenodd;"
d="M 44.2500,113.3250
44.2576,113.2867
44.2793,113.2543
44.3117,113.2326
44.3500,113.2250
44.9500,113.2250
44.9883,113.2326
45.0207,113.2543
45.0424,113.2867
45.0500,113.3250
45.0500,114.8750
45.0424,114.9133
45.0207,114.9457
44.9883,114.9674
44.9500,114.9750
44.3500,114.9750
44.3117,114.9674
44.2793,114.9457
44.2576,114.9133
44.2500,114.8750
Z" /> 
<path style="fill:#000000; fill-opacity:1.0000; stroke:none;fill-rule:evenodd;"
d="M 45.2500,113.3250
45.2576,113.2867
45.2793,113.2543
45.3117,113.2326
45.3500,113.2250
45.9500,113.2250
45.9883,113.2326
46.0207,113.2543
46.0424,113.2867
46.0500,113.3250
46.0500,114.8750
46.0424,114.9133
46.0207,114.9457
45.9883,114.9674
45.9500,114.9750
45.3500,114.9750
45.3117,114.9674
45.2793,114.9457
45.2576,114.9133
45.2500,114.8750
Z" /> 
<path style="fill:#000000; fill-opacity:1.0000; stroke:none;fill-rule:evenodd;"
d="M 46.2500,113.3250
46.2576,113.2867
46.2793,113.2543
46.3117,113.2326
46.3500,113.2250
46.9500,113.2250
46.9883,113.2326
47.0207,113.2543
47.0424,113.2867
47.0500,113.3250
47.0500,114.8750
47.0424,114.9133
47.0207,114.9457
46.9883,114.9674
46.9500,114.9750
46.3500,114.9750
46.3117,114.9674
46.2793,114.9457
46.2576,114.9133
46.2500,114.8750
Z" /> 
<path style="fill:#000000; fill-opacity:1.0000; stroke:none;fill-rule:evenodd;"
d="M 47.0500,108.9000
47.0576,108.8617
47.0793,108.8293
47.1117,108.8076
47.1500,108.8000
48.3500,108.8000
48.3883,108.8076
48.4207,108.8293
48.4424,108.8617
48.4500,108.9000
48.4500,110.7000
48.4424,110.7383
48.4207,110.7707
48.3883,110.7924
48.3500,110.8000
47.1500,110.8000
47.1117,110.7924
47.0793,110.7707
47.0576,110.7383
47.0500,110.7000
Z" /> 
<path style="fill:#000000; fill-opacity:1.0000; stroke:none;fill-rule:evenodd;"
d="M 41.8500,108.9000
41.8576,108.8617
41.8793,108.8293
41.9117,108.8076
41.9500,108.8000
43.1500,108.8000
43.1883,108.8076
43.2207,108.8293
43.2424,108.8617
43.2500,108.9000
43.2500,110.7000
43.2424,110.7383
43.2207,110.7707
43.1883,110.7924
43.1500,110.8000
41.9500,110.8000
41.9117,110.7924
41.8793,110.7707
41.8576,110.7383
41.8500,110.7000
Z" /> 
<path style="fill:#000000; fill-opacity:1.0000; stroke:none;fill-rule:evenodd;"
d="M 54.5750,133.9250
54.5367,133.9174
54.5043,133.8957
54.4826,133.8633
54.4750,133.8250
54.4750,133.0750
54.4826,133.0367
54.5043,133.0043
54.5367,132.9826
54.5750,132.9750
55.0250,132.9750
55.0633,132.9826
55.0957,133.0043
55.1174,133.0367
55.1250,133.0750
55.1250,133.8250
55.1174,133.8633
55.0957,133.8957
55.0633,133.9174
55.0250,133.9250
Z" /> 
<path style="fill:#000000; fill-opacity:1.0000; stroke:none;fill-rule:evenodd;"
d="M 55.6750,133.9250
55.6367,133.9174
55.6043,133.8957
55.5826,133.8633
55.5750,133.8250
55.5750,133.0750
55.5826,133.0367
55.6043,133.0043
55.6367,132.9826
55.6750,132.9750
56.1250,132.9750
56.1633,132.9826
56.1957,133.0043
56.2174,133.0367
56.2250,133.0750
56.2250,133.8250
56.2174,133.8633
56.1957,133.8957
56.1633,133.9174
56.1250,133.9250
Z" /> 
<path style="fill:#000000; fill-opacity:1.0000; stroke:none;fill-rule:evenodd;"
d="M 44.5450,132.9490
44.5833,132.9566
44.6157,132.9783
44.6374,133.0107
44.6450,133.0490
44.6450,133.6490
44.6374,133.6873
44.6157,133.7197
44.5833,133.7414
44.5450,133.7490
43.5450,133.7490
43.5067,133.7414
43.4743,133.7197
43.4526,133.6873
43.4450,133.6490
43.4450,133.0490
43.4526,133.0107
43.4743,132.9783
43.5067,132.9566
43.5450,132.9490
Z" /> 
<path style="fill:#000000; fill-opacity:1.0000; stroke:none;fill-rule:evenodd;"
d="M 44.5450,131.0490
44.5833,131.0566
44.6157,131.0783
44.6374,131.1107
44.6450,131.1490
44.6450,131.7490
44.6374,131.7873
44.6157,131.8197
44.5833,131.8414
44.5450,131.8490
43.5450,131.8490
43.5067,131.8414
43.4743,131.8197
43.4526,131.7873
43.4450,131.7490
43.4450,131.1490
43.4526,131.1107
43.4743,131.0783
43.5067,131.0566
43.5450,131.0490
Z" /> 
<path style="fill:#000000; fill-opacity:1.0000; stroke:none;fill-rule:evenodd;"
d="M 42.1450,131.9990
42.1833,132.0066
42.2157,132.0283
42.2374,132.0607
42.2450,132.0990
42.2450,132.6990
42.2374,132.7373
42.2157,132.7697
42.1833,132.7914
42.1450,132.7990
41.1450,132.7990
41.1067,132.7914
41.0743,132.7697
41.0526,132.7373
41.0450,132.6990
41.0450,132.0990
41.0526,132.0607
41.0743,132.0283
41.1067,132.0066
41.1450,131.9990
Z" /> 
<path style="fill:#000000; fill-opacity:1.0000; stroke:none;fill-rule:evenodd;"
d="M 63.5500,119.4968
63.5576,119.4585
63.5793,119.4261
63.6117,119.4044
63.6500,119.3968
64.4500,119.3968
64.4883,119.4044
64.5207,119.4261
64.5424,119.4585
64.5500,119.4968
64.5500,119.9968
64.5424,120.0351
64.5207,120.0675
64.4883,120.0892
64.4500,120.0968
63.6500,120.0968
63.6117,120.0892
63.5793,120.0675
63.5576,120.0351
63.5500,119.9968
Z" /> 
<path style="fill:#000000; fill-opacity:1.0000; stroke:none;fill-rule:evenodd;"
d="M 65.7500,119.4968
65.7576,119.4585
65.7793,119.4261
65.8117,119.4044
65.8500,119.3968
66.6500,119.3968
66.6883,119.4044
66.7207,119.4261
66.7424,119.4585
66.7500,119.4968
66.7500,119.9968
66.7424,120.0351
66.7207,120.0675
66.6883,120.0892
66.6500,120.0968
65.8500,120.0968
65.8117,120.0892
65.7793,120.0675
65.7576,120.0351
65.7500,119.9968
Z" /> 
<path style="fill:#000000; fill-opacity:1.0000; stroke:none;fill-rule:evenodd;"
d="M 70.0360,118.9500
70.0284,118.9883
70.0067,119.0207
69.9743,119.0424
69.9360,119.0500
69.2760,119.0500
69.2377,119.0424
69.2053,119.0207
69.1836,118.9883
69.1760,118.9500
69.1760,117.9500
69.1836,117.9117
69.2053,117.8793
69.2377,117.8576
69.2760,117.8500
69.9360,117.8500
69.9743,117.8576
70.0067,117.8793
70.0284,117.9117
70.0360,117.9500
Z" /> 
<path style="fill:#000000; fill-opacity:1.0000; stroke:none;fill-rule:evenodd;"
d="M 68.5760,118.9500
68.5684,118.9883
68.5467,119.0207
68.5143,119.0424
68.4760,119.0500
67.8160,119.0500
67.7777,119.0424
67.7453,119.0207
67.7236,118.9883
67.7160,118.9500
67.7160,117.9500
67.7236,117.9117
67.7453,117.8793
67.7777,117.8576
67.8160,117.8500
68.4760,117.8500
68.5143,117.8576
68.5467,117.8793
68.5684,117.9117
68.5760,117.9500
Z" /> 
<path style="fill:#000000; fill-opacity:1.0000; stroke:none;fill-rule:evenodd;"
d="M 45.0500,131.9990
45.0117,131.9914
44.9793,131.9697
44.9576,131.9373
44.9500,131.8990
44.9500,130.8990
44.9576,130.8607
44.9793,130.8283
45.0117,130.8066
45.0500,130.7990
45.6900,130.7990
45.7283,130.8066
45.7607,130.8283
45.7824,130.8607
45.7900,130.8990
45.7900,131.8990
45.7824,131.9373
45.7607,131.9697
45.7283,131.9914
45.6900,131.9990
Z" /> 
<path style="fill:#000000; fill-opacity:1.0000; stroke:none;fill-rule:evenodd;"
d="M 46.6000,131.9990
46.5617,131.9914
46.5293,131.9697
46.5076,131.9373
46.5000,131.8990
46.5000,130.8990
46.5076,130.8607
46.5293,130.8283
46.5617,130.8066
46.6000,130.7990
47.2400,130.7990
47.2783,130.8066
47.3107,130.8283
47.3324,130.8607
47.3400,130.8990
47.3400,131.8990
47.3324,131.9373
47.3107,131.9697
47.2783,131.9914
47.2400,131.9990
Z" /> 
<path style="fill:#000000; fill-opacity:1.0000; stroke:none;fill-rule:evenodd;"
d="M 40.0500,112.0500
40.0883,112.0576
40.1207,112.0793
40.1424,112.1117
40.1500,112.1500
40.1500,112.6500
40.1424,112.6883
40.1207,112.7207
40.0883,112.7424
40.0500,112.7500
39.0500,112.7500
39.0117,112.7424
38.9793,112.7207
38.9576,112.6883
38.9500,112.6500
38.9500,112.1500
38.9576,112.1117
38.9793,112.0793
39.0117,112.0576
39.0500,112.0500
Z" /> 
<path style="fill:#000000; fill-opacity:1.0000; stroke:none;fill-rule:evenodd;"
d="M 40.0500,112.7500
40.0883,112.7576
40.1207,112.7793
40.1424,112.8117
40.1500,112.8500
40.1500,113.3500
40.1424,113.3883
40.1207,113.4207
40.0883,113.4424
40.0500,113.4500
39.0500,113.4500
39.0117,113.4424
38.9793,113.4207
38.9576,113.3883
38.9500,113.3500
38.9500,112.8500
38.9576,112.8117
38.9793,112.7793
39.0117,112.7576
39.0500,112.7500
Z" /> 
<path style="fill:#000000; fill-opacity:1.0000; stroke:none;fill-rule:evenodd;"
d="M 100.5300,111.9800
100.5683,111.9876
100.6007,112.0093
100.6224,112.0417
100.6300,112.0800
100.6300,114.0800
100.6224,114.1183
100.6007,114.1507
100.5683,114.1724
100.5300,114.1800
99.6300,114.1800
99.5917,114.1724
99.5593,114.1507
99.5376,114.1183
99.5300,114.0800
99.5300,112.0800
99.5376,112.0417
99.5593,112.0093
99.5917,111.9876
99.6300,111.9800
Z" /> 
<path style="fill:#000000; fill-opacity:1.0000; stroke:none;fill-rule:evenodd;"
d="M 99.2600,111.9800
99.2983,111.9876
99.3307,112.0093
99.3524,112.0417
99.3600,112.0800
99.3600,114.0800
99.3524,114.1183
99.3307,114.1507
99.2983,114.1724
99.2600,114.1800
98.3600,114.1800
98.3217,114.1724
98.2893,114.1507
98.2676,114.1183
98.2600,114.0800
98.2600,112.0800
98.2676,112.0417
98.2893,112.0093
98.3217,111.9876
98.3600,111.9800
Z" /> 
<path style="fill:#000000; fill-opacity:1.0000; stroke:none;fill-rule:evenodd;"
d="M 97.9900,111.9800
98.0283,111.9876
98.0607,112.0093
98.0824,112.0417
98.0900,112.0800
98.0900,114.0800
98.0824,114.1183
98.0607,114.1507
98.0283,114.1724
97.9900,114.1800
97.0900,114.1800
97.0517,114.1724
97.0193,114.1507
96.9976,114.1183
96.9900,114.0800
96.9900,112.0800
96.9976,112.0417
97.0193,112.0093
97.0517,111.9876
97.0900,111.9800
Z" /> 
<path style="fill:#000000; fill-opacity:1.0000; stroke:none;fill-rule:evenodd;"
d="M 96.7200,111.9800
96.7583,111.9876
96.7907,112.0093
96.8124,112.0417
96.8200,112.0800
96.8200,114.0800
96.8124,114.1183
96.7907,114.1507
96.7583,114.1724
96.7200,114.1800
95.8200,114.1800
95.7817,114.1724
95.7493,114.1507
95.7276,114.1183
95.7200,114.0800
95.7200,112.0800
95.7276,112.0417
95.7493,112.0093
95.7817,111.9876
95.8200,111.9800
Z" /> 
<path style="fill:#000000; fill-opacity:1.0000; stroke:none;fill-rule:evenodd;"
d="M 95.4500,111.9800
95.4883,111.9876
95.5207,112.0093
95.5424,112.0417
95.5500,112.0800
95.5500,114.0800
95.5424,114.1183
95.5207,114.1507
95.4883,114.1724
95.4500,114.1800
94.5500,114.1800
94.5117,114.1724
94.4793,114.1507
94.4576,114.1183
94.4500,114.0800
94.4500,112.0800
94.4576,112.0417
94.4793,112.0093
94.5117,111.9876
94.5500,111.9800
Z" /> 
<path style="fill:#000000; fill-opacity:1.0000; stroke:none;fill-rule:evenodd;"
d="M 94.1800,111.9800
94.2183,111.9876
94.2507,112.0093
94.2724,112.0417
94.2800,112.0800
94.2800,114.0800
94.2724,114.1183
94.2507,114.1507
94.2183,114.1724
94.1800,114.1800
93.2800,114.1800
93.2417,114.1724
93.2093,114.1507
93.1876,114.1183
93.1800,114.0800
93.1800,112.0800
93.1876,112.0417
93.2093,112.0093
93.2417,111.9876
93.2800,111.9800
Z" /> 
<path style="fill:#000000; fill-opacity:1.0000; stroke:none;fill-rule:evenodd;"
d="M 92.9100,111.9800
92.9483,111.9876
92.9807,112.0093
93.0024,112.0417
93.0100,112.0800
93.0100,114.0800
93.0024,114.1183
92.9807,114.1507
92.9483,114.1724
92.9100,114.1800
92.0100,114.1800
91.9717,114.1724
91.9393,114.1507
91.9176,114.1183
91.9100,114.0800
91.9100,112.0800
91.9176,112.0417
91.9393,112.0093
91.9717,111.9876
92.0100,111.9800
Z" /> 
<path style="fill:#000000; fill-opacity:1.0000; stroke:none;fill-rule:evenodd;"
d="M 91.6400,111.9800
91.6783,111.9876
91.7107,112.0093
91.7324,112.0417
91.7400,112.0800
91.7400,114.0800
91.7324,114.1183
91.7107,114.1507
91.6783,114.1724
91.6400,114.1800
90.7400,114.1800
90.7017,114.1724
90.6693,114.1507
90.6476,114.1183
90.6400,114.0800
90.6400,112.0800
90.6476,112.0417
90.6693,112.0093
90.7017,111.9876
90.7400,111.9800
Z" /> 
<path style="fill:#000000; fill-opacity:1.0000; stroke:none;fill-rule:evenodd;"
d="M 90.3700,111.9800
90.4083,111.9876
90.4407,112.0093
90.4624,112.0417
90.4700,112.0800
90.4700,114.0800
90.4624,114.1183
90.4407,114.1507
90.4083,114.1724
90.3700,114.1800
89.4700,114.1800
89.4317,114.1724
89.3993,114.1507
89.3776,114.1183
89.3700,114.0800
89.3700,112.0800
89.3776,112.0417
89.3993,112.0093
89.4317,111.9876
89.4700,111.9800
Z" /> 
<path style="fill:#000000; fill-opacity:1.0000; stroke:none;fill-rule:evenodd;"
d="M 89.1000,111.9800
89.1383,111.9876
89.1707,112.0093
89.1924,112.0417
89.2000,112.0800
89.2000,114.0800
89.1924,114.1183
89.1707,114.1507
89.1383,114.1724
89.1000,114.1800
88.2000,114.1800
88.1617,114.1724
88.1293,114.1507
88.1076,114.1183
88.1000,114.0800
88.1000,112.0800
88.1076,112.0417
88.1293,112.0093
88.1617,111.9876
88.2000,111.9800
Z" /> 
<path style="fill:#000000; fill-opacity:1.0000; stroke:none;fill-rule:evenodd;"
d="M 87.8300,111.9800
87.8683,111.9876
87.9007,112.0093
87.9224,112.0417
87.9300,112.0800
87.9300,114.0800
87.9224,114.1183
87.9007,114.1507
87.8683,114.1724
87.8300,114.1800
86.9300,114.1800
86.8917,114.1724
86.8593,114.1507
86.8376,114.1183
86.8300,114.0800
86.8300,112.0800
86.8376,112.0417
86.8593,112.0093
86.8917,111.9876
86.9300,111.9800
Z" /> 
<path style="fill:#000000; fill-opacity:1.0000; stroke:none;fill-rule:evenodd;"
d="M 86.5600,111.9800
86.5983,111.9876
86.6307,112.0093
86.6524,112.0417
86.6600,112.0800
86.6600,114.0800
86.6524,114.1183
86.6307,114.1507
86.5983,114.1724
86.5600,114.1800
85.6600,114.1800
85.6217,114.1724
85.5893,114.1507
85.5676,114.1183
85.5600,114.0800
85.5600,112.0800
85.5676,112.0417
85.5893,112.0093
85.6217,111.9876
85.6600,111.9800
Z" /> 
<path style="fill:#000000; fill-opacity:1.0000; stroke:none;fill-rule:evenodd;"
d="M 85.2900,111.9800
85.3283,111.9876
85.3607,112.0093
85.3824,112.0417
85.3900,112.0800
85.3900,114.0800
85.3824,114.1183
85.3607,114.1507
85.3283,114.1724
85.2900,114.1800
84.3900,114.1800
84.3517,114.1724
84.3193,114.1507
84.2976,114.1183
84.2900,114.0800
84.2900,112.0800
84.2976,112.0417
84.3193,112.0093
84.3517,111.9876
84.3900,111.9800
Z" /> 
<path style="fill:#000000; fill-opacity:1.0000; stroke:none;fill-rule:evenodd;"
d="M 84.0200,111.9800
84.0583,111.9876
84.0907,112.0093
84.1124,112.0417
84.1200,112.0800
84.1200,114.0800
84.1124,114.1183
84.0907,114.1507
84.0583,114.1724
84.0200,114.1800
83.1200,114.1800
83.0817,114.1724
83.0493,114.1507
83.0276,114.1183
83.0200,114.0800
83.0200,112.0800
83.0276,112.0417
83.0493,112.0093
83.0817,111.9876
83.1200,111.9800
Z" /> 
<path style="fill:#000000; fill-opacity:1.0000; stroke:none;fill-rule:evenodd;"
d="M 82.7500,111.9800
82.7883,111.9876
82.8207,112.0093
82.8424,112.0417
82.8500,112.0800
82.8500,114.0800
82.8424,114.1183
82.8207,114.1507
82.7883,114.1724
82.7500,114.1800
81.8500,114.1800
81.8117,114.1724
81.7793,114.1507
81.7576,114.1183
81.7500,114.0800
81.7500,112.0800
81.7576,112.0417
81.7793,112.0093
81.8117,111.9876
81.8500,111.9800
Z" /> 
<path style="fill:#000000; fill-opacity:1.0000; stroke:none;fill-rule:evenodd;"
d="M 81.4800,111.9800
81.5183,111.9876
81.5507,112.0093
81.5724,112.0417
81.5800,112.0800
81.5800,114.0800
81.5724,114.1183
81.5507,114.1507
81.5183,114.1724
81.4800,114.1800
80.5800,114.1800
80.5417,114.1724
80.5093,114.1507
80.4876,114.1183
80.4800,114.0800
80.4800,112.0800
80.4876,112.0417
80.5093,112.0093
80.5417,111.9876
80.5800,111.9800
Z" /> 
<path style="fill:#000000; fill-opacity:1.0000; stroke:none;fill-rule:evenodd;"
d="M 80.2100,111.9800
80.2483,111.9876
80.2807,112.0093
80.3024,112.0417
80.3100,112.0800
80.3100,114.0800
80.3024,114.1183
80.2807,114.1507
80.2483,114.1724
80.2100,114.1800
79.3100,114.1800
79.2717,114.1724
79.2393,114.1507
79.2176,114.1183
79.2100,114.0800
79.2100,112.0800
79.2176,112.0417
79.2393,112.0093
79.2717,111.9876
79.3100,111.9800
Z" /> 
<path style="fill:#000000; fill-opacity:1.0000; stroke:none;fill-rule:evenodd;"
d="M 78.9400,111.9800
78.9783,111.9876
79.0107,112.0093
79.0324,112.0417
79.0400,112.0800
79.0400,114.0800
79.0324,114.1183
79.0107,114.1507
78.9783,114.1724
78.9400,114.1800
78.0400,114.1800
78.0017,114.1724
77.9693,114.1507
77.9476,114.1183
77.9400,114.0800
77.9400,112.0800
77.9476,112.0417
77.9693,112.0093
78.0017,111.9876
78.0400,111.9800
Z" /> 
<path style="fill:#000000; fill-opacity:1.0000; stroke:none;fill-rule:evenodd;"
d="M 77.6700,111.9800
77.7083,111.9876
77.7407,112.0093
77.7624,112.0417
77.7700,112.0800
77.7700,114.0800
77.7624,114.1183
77.7407,114.1507
77.7083,114.1724
77.6700,114.1800
76.7700,114.1800
76.7317,114.1724
76.6993,114.1507
76.6776,114.1183
76.6700,114.0800
76.6700,112.0800
76.6776,112.0417
76.6993,112.0093
76.7317,111.9876
76.7700,111.9800
Z" /> 
<path style="fill:#000000; fill-opacity:1.0000; stroke:none;fill-rule:evenodd;"
d="M 77.6700,128.9800
77.7083,128.9876
77.7407,129.0093
77.7624,129.0417
77.7700,129.0800
77.7700,131.0800
77.7624,131.1183
77.7407,131.1507
77.7083,131.1724
77.6700,131.1800
76.7700,131.1800
76.7317,131.1724
76.6993,131.1507
76.6776,131.1183
76.6700,131.0800
76.6700,129.0800
76.6776,129.0417
76.6993,129.0093
76.7317,128.9876
76.7700,128.9800
Z" /> 
<path style="fill:#000000; fill-opacity:1.0000; stroke:none;fill-rule:evenodd;"
d="M 78.9400,128.9800
78.9783,128.9876
79.0107,129.0093
79.0324,129.0417
79.0400,129.0800
79.0400,131.0800
79.0324,131.1183
79.0107,131.1507
78.9783,131.1724
78.9400,131.1800
78.0400,131.1800
78.0017,131.1724
77.9693,131.1507
77.9476,131.1183
77.9400,131.0800
77.9400,129.0800
77.9476,129.0417
77.9693,129.0093
78.0017,128.9876
78.0400,128.9800
Z" /> 
<path style="fill:#000000; fill-opacity:1.0000; stroke:none;fill-rule:evenodd;"
d="M 80.2100,128.9800
80.2483,128.9876
80.2807,129.0093
80.3024,129.0417
80.3100,129.0800
80.3100,131.0800
80.3024,131.1183
80.2807,131.1507
80.2483,131.1724
80.2100,131.1800
79.3100,131.1800
79.2717,131.1724
79.2393,131.1507
79.2176,131.1183
79.2100,131.0800
79.2100,129.0800
79.2176,129.0417
79.2393,129.0093
79.2717,128.9876
79.3100,128.9800
Z" /> 
<path style="fill:#000000; fill-opacity:1.0000; stroke:none;fill-rule:evenodd;"
d="M 81.4800,128.9800
81.5183,128.9876
81.5507,129.0093
81.5724,129.0417
81.5800,129.0800
81.5800,131.0800
81.5724,131.1183
81.5507,131.1507
81.5183,131.1724
81.4800,131.1800
80.5800,131.1800
80.5417,131.1724
80.5093,131.1507
80.4876,131.1183
80.4800,131.0800
80.4800,129.0800
80.4876,129.0417
80.5093,129.0093
80.5417,128.9876
80.5800,128.9800
Z" /> 
<path style="fill:#000000; fill-opacity:1.0000; stroke:none;fill-rule:evenodd;"
d="M 82.7500,128.9800
82.7883,128.9876
82.8207,129.0093
82.8424,129.0417
82.8500,129.0800
82.8500,131.0800
82.8424,131.1183
82.8207,131.1507
82.7883,131.1724
82.7500,131.1800
81.8500,131.1800
81.8117,131.1724
81.7793,131.1507
81.7576,131.1183
81.7500,131.0800
81.7500,129.0800
81.7576,129.0417
81.7793,129.0093
81.8117,128.9876
81.8500,128.9800
Z" /> 
<path style="fill:#000000; fill-opacity:1.0000; stroke:none;fill-rule:evenodd;"
d="M 84.0200,128.9800
84.0583,128.9876
84.0907,129.0093
84.1124,129.0417
84.1200,129.0800
84.1200,131.0800
84.1124,131.1183
84.0907,131.1507
84.0583,131.1724
84.0200,131.1800
83.1200,131.1800
83.0817,131.1724
83.0493,131.1507
83.0276,131.1183
83.0200,131.0800
83.0200,129.0800
83.0276,129.0417
83.0493,129.0093
83.0817,128.9876
83.1200,128.9800
Z" /> 
<path style="fill:#000000; fill-opacity:1.0000; stroke:none;fill-rule:evenodd;"
d="M 85.2900,128.9800
85.3283,128.9876
85.3607,129.0093
85.3824,129.0417
85.3900,129.0800
85.3900,131.0800
85.3824,131.1183
85.3607,131.1507
85.3283,131.1724
85.2900,131.1800
84.3900,131.1800
84.3517,131.1724
84.3193,131.1507
84.2976,131.1183
84.2900,131.0800
84.2900,129.0800
84.2976,129.0417
84.3193,129.0093
84.3517,128.9876
84.3900,128.9800
Z" /> 
<path style="fill:#000000; fill-opacity:1.0000; stroke:none;fill-rule:evenodd;"
d="M 86.5600,128.9800
86.5983,128.9876
86.6307,129.0093
86.6524,129.0417
86.6600,129.0800
86.6600,131.0800
86.6524,131.1183
86.6307,131.1507
86.5983,131.1724
86.5600,131.1800
85.6600,131.1800
85.6217,131.1724
85.5893,131.1507
85.5676,131.1183
85.5600,131.0800
85.5600,129.0800
85.5676,129.0417
85.5893,129.0093
85.6217,128.9876
85.6600,128.9800
Z" /> 
<path style="fill:#000000; fill-opacity:1.0000; stroke:none;fill-rule:evenodd;"
d="M 87.8300,128.9800
87.8683,128.9876
87.9007,129.0093
87.9224,129.0417
87.9300,129.0800
87.9300,131.0800
87.9224,131.1183
87.9007,131.1507
87.8683,131.1724
87.8300,131.1800
86.9300,131.1800
86.8917,131.1724
86.8593,131.1507
86.8376,131.1183
86.8300,131.0800
86.8300,129.0800
86.8376,129.0417
86.8593,129.0093
86.8917,128.9876
86.9300,128.9800
Z" /> 
<path style="fill:#000000; fill-opacity:1.0000; stroke:none;fill-rule:evenodd;"
d="M 89.1000,128.9800
89.1383,128.9876
89.1707,129.0093
89.1924,129.0417
89.2000,129.0800
89.2000,131.0800
89.1924,131.1183
89.1707,131.1507
89.1383,131.1724
89.1000,131.1800
88.2000,131.1800
88.1617,131.1724
88.1293,131.1507
88.1076,131.1183
88.1000,131.0800
88.1000,129.0800
88.1076,129.0417
88.1293,129.0093
88.1617,128.9876
88.2000,128.9800
Z" /> 
<path style="fill:#000000; fill-opacity:1.0000; stroke:none;fill-rule:evenodd;"
d="M 90.3700,128.9800
90.4083,128.9876
90.4407,129.0093
90.4624,129.0417
90.4700,129.0800
90.4700,131.0800
90.4624,131.1183
90.4407,131.1507
90.4083,131.1724
90.3700,131.1800
89.4700,131.1800
89.4317,131.1724
89.3993,131.1507
89.3776,131.1183
89.3700,131.0800
89.3700,129.0800
89.3776,129.0417
89.3993,129.0093
89.4317,128.9876
89.4700,128.9800
Z" /> 
<path style="fill:#000000; fill-opacity:1.0000; stroke:none;fill-rule:evenodd;"
d="M 91.6400,128.9800
91.6783,128.9876
91.7107,129.0093
91.7324,129.0417
91.7400,129.0800
91.7400,131.0800
91.7324,131.1183
91.7107,131.1507
91.6783,131.1724
91.6400,131.1800
90.7400,131.1800
90.7017,131.1724
90.6693,131.1507
90.6476,131.1183
90.6400,131.0800
90.6400,129.0800
90.6476,129.0417
90.6693,129.0093
90.7017,128.9876
90.7400,128.9800
Z" /> 
<path style="fill:#000000; fill-opacity:1.0000; stroke:none;fill-rule:evenodd;"
d="M 92.9100,128.9800
92.9483,128.9876
92.9807,129.0093
93.0024,129.0417
93.0100,129.0800
93.0100,131.0800
93.0024,131.1183
92.9807,131.1507
92.9483,131.1724
92.9100,131.1800
92.0100,131.1800
91.9717,131.1724
91.9393,131.1507
91.9176,131.1183
91.9100,131.0800
91.9100,129.0800
91.9176,129.0417
91.9393,129.0093
91.9717,128.9876
92.0100,128.9800
Z" /> 
<path style="fill:#000000; fill-opacity:1.0000; stroke:none;fill-rule:evenodd;"
d="M 94.1800,128.9800
94.2183,128.9876
94.2507,129.0093
94.2724,129.0417
94.2800,129.0800
94.2800,131.0800
94.2724,131.1183
94.2507,131.1507
94.2183,131.1724
94.1800,131.1800
93.2800,131.1800
93.2417,131.1724
93.2093,131.1507
93.1876,131.1183
93.1800,131.0800
93.1800,129.0800
93.1876,129.0417
93.2093,129.0093
93.2417,128.9876
93.2800,128.9800
Z" /> 
<path style="fill:#000000; fill-opacity:1.0000; stroke:none;fill-rule:evenodd;"
d="M 95.4500,128.9800
95.4883,128.9876
95.5207,129.0093
95.5424,129.0417
95.5500,129.0800
95.5500,131.0800
95.5424,131.1183
95.5207,131.1507
95.4883,131.1724
95.4500,131.1800
94.5500,131.1800
94.5117,131.1724
94.4793,131.1507
94.4576,131.1183
94.4500,131.0800
94.4500,129.0800
94.4576,129.0417
94.4793,129.0093
94.5117,128.9876
94.5500,128.9800
Z" /> 
<path style="fill:#000000; fill-opacity:1.0000; stroke:none;fill-rule:evenodd;"
d="M 96.7200,128.9800
96.7583,128.9876
96.7907,129.0093
96.8124,129.0417
96.8200,129.0800
96.8200,131.0800
96.8124,131.1183
96.7907,131.1507
96.7583,131.1724
96.7200,131.1800
95.8200,131.1800
95.7817,131.1724
95.7493,131.1507
95.7276,131.1183
95.7200,131.0800
95.7200,129.0800
95.7276,129.0417
95.7493,129.0093
95.7817,128.9876
95.8200,128.9800
Z" /> 
<path style="fill:#000000; fill-opacity:1.0000; stroke:none;fill-rule:evenodd;"
d="M 97.9900,128.9800
98.0283,128.9876
98.0607,129.0093
98.0824,129.0417
98.0900,129.0800
98.0900,131.0800
98.0824,131.1183
98.0607,131.1507
98.0283,131.1724
97.9900,131.1800
97.0900,131.1800
97.0517,131.1724
97.0193,131.1507
96.9976,131.1183
96.9900,131.0800
96.9900,129.0800
96.9976,129.0417
97.0193,129.0093
97.0517,128.9876
97.0900,128.9800
Z" /> 
<path style="fill:#000000; fill-opacity:1.0000; stroke:none;fill-rule:evenodd;"
d="M 99.2600,128.9800
99.2983,128.9876
99.3307,129.0093
99.3524,129.0417
99.3600,129.0800
99.3600,131.0800
99.3524,131.1183
99.3307,131.1507
99.2983,131.1724
99.2600,131.1800
98.3600,131.1800
98.3217,131.1724
98.2893,131.1507
98.2676,131.1183
98.2600,131.0800
98.2600,129.0800
98.2676,129.0417
98.2893,129.0093
98.3217,128.9876
98.3600,128.9800
Z" /> 
<path style="fill:#000000; fill-opacity:1.0000; stroke:none;fill-rule:evenodd;"
d="M 100.5300,128.9800
100.5683,128.9876
100.6007,129.0093
100.6224,129.0417
100.6300,129.0800
100.6300,131.0800
100.6224,131.1183
100.6007,131.1507
100.5683,131.1724
100.5300,131.1800
99.6300,131.1800
99.5917,131.1724
99.5593,131.1507
99.5376,131.1183
99.5300,131.0800
99.5300,129.0800
99.5376,129.0417
99.5593,129.0093
99.5917,128.9876
99.6300,128.9800
Z" /> 
<path style="fill:#000000; fill-opacity:1.0000; stroke:none;fill-rule:evenodd;"
d="M 93.9800,116.4800
94.0183,116.4876
94.0507,116.5093
94.0724,116.5417
94.0800,116.5800
94.0800,121.5800
94.0724,121.6183
94.0507,121.6507
94.0183,121.6724
93.9800,121.6800
88.9800,121.6800
88.9417,121.6724
88.9093,121.6507
88.8876,121.6183
88.8800,121.5800
88.8800,116.5800
88.8876,116.5417
88.9093,116.5093
88.9417,116.4876
88.9800,116.4800
Z" /> 
<path style="fill:#000000; fill-opacity:1.0000; stroke:none;fill-rule:evenodd;"
d="M 49.5750,111.3250
49.5367,111.3174
49.5043,111.2957
49.4826,111.2633
49.4750,111.2250
49.4750,110.4750
49.4826,110.4367
49.5043,110.4043
49.5367,110.3826
49.5750,110.3750
50.0250,110.3750
50.0633,110.3826
50.0957,110.4043
50.1174,110.4367
50.1250,110.4750
50.1250,111.2250
50.1174,111.2633
50.0957,111.2957
50.0633,111.3174
50.0250,111.3250
Z" /> 
<path style="fill:#000000; fill-opacity:1.0000; stroke:none;fill-rule:evenodd;"
d="M 50.6750,111.3250
50.6367,111.3174
50.6043,111.2957
50.5826,111.2633
50.5750,111.2250
50.5750,110.4750
50.5826,110.4367
50.6043,110.4043
50.6367,110.3826
50.6750,110.3750
51.1250,110.3750
51.1633,110.3826
51.1957,110.4043
51.2174,110.4367
51.2250,110.4750
51.2250,111.2250
51.2174,111.2633
51.1957,111.2957
51.1633,111.3174
51.1250,111.3250
Z" /> 
<path style="fill:#000000; fill-opacity:1.0000; stroke:none;fill-rule:evenodd;"
d="M 67.7160,119.3500
67.7236,119.3117
67.7453,119.2793
67.7777,119.2576
67.8160,119.2500
68.4760,119.2500
68.5143,119.2576
68.5467,119.2793
68.5684,119.3117
68.5760,119.3500
68.5760,120.3500
68.5684,120.3883
68.5467,120.4207
68.5143,120.4424
68.4760,120.4500
67.8160,120.4500
67.7777,120.4424
67.7453,120.4207
67.7236,120.3883
67.7160,120.3500
Z" /> 
<path style="fill:#000000; fill-opacity:1.0000; stroke:none;fill-rule:evenodd;"
d="M 69.1760,119.3500
69.1836,119.3117
69.2053,119.2793
69.2377,119.2576
69.2760,119.2500
69.9360,119.2500
69.9743,119.2576
70.0067,119.2793
70.0284,119.3117
70.0360,119.3500
70.0360,120.3500
70.0284,120.3883
70.0067,120.4207
69.9743,120.4424
69.9360,120.4500
69.2760,120.4500
69.2377,120.4424
69.2053,120.4207
69.1836,120.3883
69.1760,120.3500
Z" /> 
<path style="fill:#000000; fill-opacity:1.0000; stroke:none;fill-rule:evenodd;"
d="M 63.2500,119.7450
63.2424,119.7833
63.2207,119.8157
63.1883,119.8374
63.1500,119.8450
62.1500,119.8450
62.1117,119.8374
62.0793,119.8157
62.0576,119.7833
62.0500,119.7450
62.0500,119.1050
62.0576,119.0667
62.0793,119.0343
62.1117,119.0126
62.1500,119.0050
63.1500,119.0050
63.1883,119.0126
63.2207,119.0343
63.2424,119.0667
63.2500,119.1050
Z" /> 
<path style="fill:#000000; fill-opacity:1.0000; stroke:none;fill-rule:evenodd;"
d="M 63.2500,118.1950
63.2424,118.2333
63.2207,118.2657
63.1883,118.2874
63.1500,118.2950
62.1500,118.2950
62.1117,118.2874
62.0793,118.2657
62.0576,118.2333
62.0500,118.1950
62.0500,117.5550
62.0576,117.5167
62.0793,117.4843
62.1117,117.4626
62.1500,117.4550
63.1500,117.4550
63.1883,117.4626
63.2207,117.4843
63.2424,117.5167
63.2500,117.5550
Z" /> 
<path style="fill:#000000; fill-opacity:1.0000; stroke:none;fill-rule:evenodd;"
d="M 50.2000,118.0800
50.2076,118.0417
50.2293,118.0093
50.2617,117.9876
50.3000,117.9800
51.0000,117.9800
51.0383,117.9876
51.0707,118.0093
51.0924,118.0417
51.1000,118.0800
51.1000,118.3300
51.0924,118.3683
51.0707,118.4007
51.0383,118.4224
51.0000,118.4300
50.3000,118.4300
50.2617,118.4224
50.2293,118.4007
50.2076,118.3683
50.2000,118.3300
Z" /> 
<path style="fill:#000000; fill-opacity:1.0000; stroke:none;fill-rule:evenodd;"
d="M 50.2000,114.8300
50.2076,114.7917
50.2293,114.7593
50.2617,114.7376
50.3000,114.7300
51.0000,114.7300
51.0383,114.7376
51.0707,114.7593
51.0924,114.7917
51.1000,114.8300
51.1000,115.0800
51.0924,115.1183
51.0707,115.1507
51.0383,115.1724
51.0000,115.1800
50.3000,115.1800
50.2617,115.1724
50.2293,115.1507
50.2076,115.1183
50.2000,115.0800
Z" /> 
<path style="fill:#000000; fill-opacity:1.0000; stroke:none;fill-rule:evenodd;"
d="M 48.0500,115.2300
48.0576,115.1917
48.0793,115.1593
48.1117,115.1376
48.1500,115.1300
49.2500,115.1300
49.2883,115.1376
49.3207,115.1593
49.3424,115.1917
49.3500,115.2300
49.3500,115.9300
49.3424,115.9683
49.3207,116.0007
49.2883,116.0224
49.2500,116.0300
48.1500,116.0300
48.1117,116.0224
48.0793,116.0007
48.0576,115.9683
48.0500,115.9300
Z" /> 
<path style="fill:#000000; fill-opacity:1.0000; stroke:none;fill-rule:evenodd;"
d="M 51.9500,115.2300
51.9576,115.1917
51.9793,115.1593
52.0117,115.1376
52.0500,115.1300
53.1500,115.1300
53.1883,115.1376
53.2207,115.1593
53.2424,115.1917
53.2500,115.2300
53.2500,115.9300
53.2424,115.9683
53.2207,116.0007
53.1883,116.0224
53.1500,116.0300
52.0500,116.0300
52.0117,116.0224
51.9793,116.0007
51.9576,115.9683
51.9500,115.9300
Z" /> 
<path style="fill:#000000; fill-opacity:1.0000; stroke:none;fill-rule:evenodd;"
d="M 51.9500,117.2300
51.9576,117.1917
51.9793,117.1593
52.0117,117.1376
52.0500,117.1300
53.1500,117.1300
53.1883,117.1376
53.2207,117.1593
53.2424,117.1917
53.2500,117.2300
53.2500,117.9300
53.2424,117.9683
53.2207,118.0007
53.1883,118.0224
53.1500,118.0300
52.0500,118.0300
52.0117,118.0224
51.9793,118.0007
51.9576,117.9683
51.9500,117.9300
Z" /> 
<path style="fill:#000000; fill-opacity:1.0000; stroke:none;fill-rule:evenodd;"
d="M 48.0500,117.2300
48.0576,117.1917
48.0793,117.1593
48.1117,117.1376
48.1500,117.1300
49.2500,117.1300
49.2883,117.1376
49.3207,117.1593
49.3424,117.1917
49.3500,117.2300
49.3500,117.9300
49.3424,117.9683
49.3207,118.0007
49.2883,118.0224
49.2500,118.0300
48.1500,118.0300
48.1117,118.0224
48.0793,118.0007
48.0576,117.9683
48.0500,117.9300
Z" /> 
</g>
<g style="fill:#000000; fill-opacity:1.0000; stroke:none;">
<circle cx="50.6500" cy="121.5800" r="1.6000" /> 
<path style="fill:#000000; fill-opacity:1.0000; stroke:none;fill-rule:evenodd;"
d="M 57.5560,118.8500
57.5636,118.8117
57.5853,118.7793
57.6177,118.7576
57.6560,118.7500
58.3160,118.7500
58.3543,118.7576
58.3867,118.7793
58.4084,118.8117
58.4160,118.8500
58.4160,119.8500
58.4084,119.8883
58.3867,119.9207
58.3543,119.9424
58.3160,119.9500
57.6560,119.9500
57.6177,119.9424
57.5853,119.9207
57.5636,119.8883
57.5560,119.8500
Z" /> 
<path style="fill:#000000; fill-opacity:1.0000; stroke:none;fill-rule:evenodd;"
d="M 59.0160,118.8500
59.0236,118.8117
59.0453,118.7793
59.0777,118.7576
59.1160,118.7500
59.7760,118.7500
59.8143,118.7576
59.8467,118.7793
59.8684,118.8117
59.8760,118.8500
59.8760,119.8500
59.8684,119.8883
59.8467,119.9207
59.8143,119.9424
59.7760,119.9500
59.1160,119.9500
59.0777,119.9424
59.0453,119.9207
59.0236,119.8883
59.0160,119.8500
Z" /> 
<path style="fill:#000000; fill-opacity:1.0000; stroke:none;fill-rule:evenodd;"
d="M 56.3100,128.0500
56.3024,128.0883
56.2807,128.1207
56.2483,128.1424
56.2100,128.1500
55.5500,128.1500
55.5117,128.1424
55.4793,128.1207
55.4576,128.0883
55.4500,128.0500
55.4500,127.0500
55.4576,127.0117
55.4793,126.9793
55.5117,126.9576
55.5500,126.9500
56.2100,126.9500
56.2483,126.9576
56.2807,126.9793
56.3024,127.0117
56.3100,127.0500
Z" /> 
<path style="fill:#000000; fill-opacity:1.0000; stroke:none;fill-rule:evenodd;"
d="M 54.8500,128.0500
54.8424,128.0883
54.8207,128.1207
54.7883,128.1424
54.7500,128.1500
54.0900,128.1500
54.0517,128.1424
54.0193,128.1207
53.9976,128.0883
53.9900,128.0500
53.9900,127.0500
53.9976,127.0117
54.0193,126.9793
54.0517,126.9576
54.0900,126.9500
54.7500,126.9500
54.7883,126.9576
54.8207,126.9793
54.8424,127.0117
54.8500,127.0500
Z" /> 
<path style="fill:#000000; fill-opacity:1.0000; stroke:none;fill-rule:evenodd;"
d="M 61.4160,109.0000
61.4236,108.9617
61.4453,108.9293
61.4777,108.9076
61.5160,108.9000
62.5160,108.9000
62.5543,108.9076
62.5867,108.9293
62.6084,108.9617
62.6160,109.0000
62.6160,112.0000
62.6084,112.0383
62.5867,112.0707
62.5543,112.0924
62.5160,112.1000
61.5160,112.1000
61.4777,112.0924
61.4453,112.0707
61.4236,112.0383
61.4160,112.0000
Z" /> 
<path style="fill:#000000; fill-opacity:1.0000; stroke:none;fill-rule:evenodd;"
d="M 54.8160,109.0000
54.8236,108.9617
54.8453,108.9293
54.8777,108.9076
54.9160,108.9000
55.9160,108.9000
55.9543,108.9076
55.9867,108.9293
56.0084,108.9617
56.0160,109.0000
56.0160,112.0000
56.0084,112.0383
55.9867,112.0707
55.9543,112.0924
55.9160,112.1000
54.9160,112.1000
54.8777,112.0924
54.8453,112.0707
54.8236,112.0383
54.8160,112.0000
Z" /> 
<path style="fill:#000000; fill-opacity:1.0000; stroke:none;fill-rule:evenodd;"
d="M 59.0660,115.8000
59.0736,115.7617
59.0953,115.7293
59.1277,115.7076
59.1660,115.7000
60.2660,115.7000
60.3043,115.7076
60.3367,115.7293
60.3584,115.7617
60.3660,115.8000
60.3660,117.8000
60.3584,117.8383
60.3367,117.8707
60.3043,117.8924
60.2660,117.9000
59.1660,117.9000
59.1277,117.8924
59.0953,117.8707
59.0736,117.8383
59.0660,117.8000
Z" /> 
<path style="fill:#000000; fill-opacity:1.0000; stroke:none;fill-rule:evenodd;"
d="M 57.0660,115.8000
57.0736,115.7617
57.0953,115.7293
57.1277,115.7076
57.1660,115.7000
58.2660,115.7000
58.3043,115.7076
58.3367,115.7293
58.3584,115.7617
58.3660,115.8000
58.3660,117.8000
58.3584,117.8383
58.3367,117.8707
58.3043,117.8924
58.2660,117.9000
57.1660,117.9000
57.1277,117.8924
57.0953,117.8707
57.0736,117.8383
57.0660,117.8000
Z" /> 
<path style="fill:#000000; fill-opacity:1.0000; stroke:none;fill-rule:evenodd;"
d="M 75.7100,120.7500
75.7024,120.7883
75.6807,120.8207
75.6483,120.8424
75.6100,120.8500
74.9500,120.8500
74.9117,120.8424
74.8793,120.8207
74.8576,120.7883
74.8500,120.7500
74.8500,119.7500
74.8576,119.7117
74.8793,119.6793
74.9117,119.6576
74.9500,119.6500
75.6100,119.6500
75.6483,119.6576
75.6807,119.6793
75.7024,119.7117
75.7100,119.7500
Z" /> 
<path style="fill:#000000; fill-opacity:1.0000; stroke:none;fill-rule:evenodd;"
d="M 74.2500,120.7500
74.2424,120.7883
74.2207,120.8207
74.1883,120.8424
74.1500,120.8500
73.4900,120.8500
73.4517,120.8424
73.4193,120.8207
73.3976,120.7883
73.3900,120.7500
73.3900,119.7500
73.3976,119.7117
73.4193,119.6793
73.4517,119.6576
73.4900,119.6500
74.1500,119.6500
74.1883,119.6576
74.2207,119.6793
74.2424,119.7117
74.2500,119.7500
Z" /> 
<path style="fill:#000000; fill-opacity:1.0000; stroke:none;fill-rule:evenodd;"
d="M 72.8550,125.2500
72.8167,125.2424
72.7843,125.2207
72.7626,125.1883
72.7550,125.1500
72.7550,124.1500
72.7626,124.1117
72.7843,124.0793
72.8167,124.0576
72.8550,124.0500
73.4950,124.0500
73.5333,124.0576
73.5657,124.0793
73.5874,124.1117
73.5950,124.1500
73.5950,125.1500
73.5874,125.1883
73.5657,125.2207
73.5333,125.2424
73.4950,125.2500
Z" /> 
<path style="fill:#000000; fill-opacity:1.0000; stroke:none;fill-rule:evenodd;"
d="M 74.4050,125.2500
74.3667,125.2424
74.3343,125.2207
74.3126,125.1883
74.3050,125.1500
74.3050,124.1500
74.3126,124.1117
74.3343,124.0793
74.3667,124.0576
74.4050,124.0500
75.0450,124.0500
75.0833,124.0576
75.1157,124.0793
75.1374,124.1117
75.1450,124.1500
75.1450,125.1500
75.1374,125.1883
75.1157,125.2207
75.0833,125.2424
75.0450,125.2500
Z" /> 
<path style="fill:#000000; fill-opacity:1.0000; stroke:none;fill-rule:evenodd;"
d="M 54.0550,125.1500
54.0167,125.1424
53.9843,125.1207
53.9626,125.0883
53.9550,125.0500
53.9550,124.0500
53.9626,124.0117
53.9843,123.9793
54.0167,123.9576
54.0550,123.9500
54.6950,123.9500
54.7333,123.9576
54.7657,123.9793
54.7874,124.0117
54.7950,124.0500
54.7950,125.0500
54.7874,125.0883
54.7657,125.1207
54.7333,125.1424
54.6950,125.1500
Z" /> 
<path style="fill:#000000; fill-opacity:1.0000; stroke:none;fill-rule:evenodd;"
d="M 55.6050,125.1500
55.5667,125.1424
55.5343,125.1207
55.5126,125.0883
55.5050,125.0500
55.5050,124.0500
55.5126,124.0117
55.5343,123.9793
55.5667,123.9576
55.6050,123.9500
56.2450,123.9500
56.2833,123.9576
56.3157,123.9793
56.3374,124.0117
56.3450,124.0500
56.3450,125.0500
56.3374,125.0883
56.3157,125.1207
56.2833,125.1424
56.2450,125.1500
Z" /> 
<path style="fill:#000000; fill-opacity:1.0000; stroke:none;fill-rule:evenodd;"
d="M 75.7100,117.9500
75.7024,117.9883
75.6807,118.0207
75.6483,118.0424
75.6100,118.0500
74.9500,118.0500
74.9117,118.0424
74.8793,118.0207
74.8576,117.9883
74.8500,117.9500
74.8500,116.9500
74.8576,116.9117
74.8793,116.8793
74.9117,116.8576
74.9500,116.8500
75.6100,116.8500
75.6483,116.8576
75.6807,116.8793
75.7024,116.9117
75.7100,116.9500
Z" /> 
<path style="fill:#000000; fill-opacity:1.0000; stroke:none;fill-rule:evenodd;"
d="M 74.2500,117.9500
74.2424,117.9883
74.2207,118.0207
74.1883,118.0424
74.1500,118.0500
73.4900,118.0500
73.4517,118.0424
73.4193,118.0207
73.3976,117.9883
73.3900,117.9500
73.3900,116.9500
73.3976,116.9117
73.4193,116.8793
73.4517,116.8576
73.4900,116.8500
74.1500,116.8500
74.1883,116.8576
74.2207,116.8793
74.2424,116.9117
74.2500,116.9500
Z" /> 
<path style="fill:#000000; fill-opacity:1.0000; stroke:none;fill-rule:evenodd;"
d="M 59.1500,128.8100
59.1117,128.8024
59.0793,128.7807
59.0576,128.7483
59.0500,128.7100
59.0500,128.0500
59.0576,128.0117
59.0793,127.9793
59.1117,127.9576
59.1500,127.9500
60.1500,127.9500
60.1883,127.9576
60.2207,127.9793
60.2424,128.0117
60.2500,128.0500
60.2500,128.7100
60.2424,128.7483
60.2207,128.7807
60.1883,128.8024
60.1500,128.8100
Z" /> 
<path style="fill:#000000; fill-opacity:1.0000; stroke:none;fill-rule:evenodd;"
d="M 59.1500,127.3500
59.1117,127.3424
59.0793,127.3207
59.0576,127.2883
59.0500,127.2500
59.0500,126.5900
59.0576,126.5517
59.0793,126.5193
59.1117,126.4976
59.1500,126.4900
60.1500,126.4900
60.1883,126.4976
60.2207,126.5193
60.2424,126.5517
60.2500,126.5900
60.2500,127.2500
60.2424,127.2883
60.2207,127.3207
60.1883,127.3424
60.1500,127.3500
Z" /> 
<path style="fill:#000000; fill-opacity:1.0000; stroke:none;fill-rule:evenodd;"
d="M 57.4500,125.9000
57.4117,125.8924
57.3793,125.8707
57.3576,125.8383
57.3500,125.8000
57.3500,124.4500
57.3576,124.4117
57.3793,124.3793
57.4117,124.3576
57.4500,124.3500
57.9000,124.3500
57.9383,124.3576
57.9707,124.3793
57.9924,124.4117
58.0000,124.4500
58.0000,125.8000
57.9924,125.8383
57.9707,125.8707
57.9383,125.8924
57.9000,125.9000
Z" /> 
<path style="fill:#000000; fill-opacity:1.0000; stroke:none;fill-rule:evenodd;"
d="M 58.1000,125.9000
58.0617,125.8924
58.0293,125.8707
58.0076,125.8383
58.0000,125.8000
58.0000,124.4500
58.0076,124.4117
58.0293,124.3793
58.0617,124.3576
58.1000,124.3500
58.5500,124.3500
58.5883,124.3576
58.6207,124.3793
58.6424,124.4117
58.6500,124.4500
58.6500,125.8000
58.6424,125.8383
58.6207,125.8707
58.5883,125.8924
58.5500,125.9000
Z" /> 
<path style="fill:#000000; fill-opacity:1.0000; stroke:none;fill-rule:evenodd;"
d="M 58.7500,125.9000
58.7117,125.8924
58.6793,125.8707
58.6576,125.8383
58.6500,125.8000
58.6500,124.4500
58.6576,124.4117
58.6793,124.3793
58.7117,124.3576
58.7500,124.3500
59.2000,124.3500
59.2383,124.3576
59.2707,124.3793
59.2924,124.4117
59.3000,124.4500
59.3000,125.8000
59.2924,125.8383
59.2707,125.8707
59.2383,125.8924
59.2000,125.9000
Z" /> 
<path style="fill:#000000; fill-opacity:1.0000; stroke:none;fill-rule:evenodd;"
d="M 59.4000,125.9000
59.3617,125.8924
59.3293,125.8707
59.3076,125.8383
59.3000,125.8000
59.3000,124.4500
59.3076,124.4117
59.3293,124.3793
59.3617,124.3576
59.4000,124.3500
59.8500,124.3500
59.8883,124.3576
59.9207,124.3793
59.9424,124.4117
59.9500,124.4500
59.9500,125.8000
59.9424,125.8383
59.9207,125.8707
59.8883,125.8924
59.8500,125.9000
Z" /> 
<path style="fill:#000000; fill-opacity:1.0000; stroke:none;fill-rule:evenodd;"
d="M 59.4000,121.9500
59.3617,121.9424
59.3293,121.9207
59.3076,121.8883
59.3000,121.8500
59.3000,120.5000
59.3076,120.4617
59.3293,120.4293
59.3617,120.4076
59.4000,120.4000
59.8500,120.4000
59.8883,120.4076
59.9207,120.4293
59.9424,120.4617
59.9500,120.5000
59.9500,121.8500
59.9424,121.8883
59.9207,121.9207
59.8883,121.9424
59.8500,121.9500
Z" /> 
<path style="fill:#000000; fill-opacity:1.0000; stroke:none;fill-rule:evenodd;"
d="M 58.7500,121.9500
58.7117,121.9424
58.6793,121.9207
58.6576,121.8883
58.6500,121.8500
58.6500,120.5000
58.6576,120.4617
58.6793,120.4293
58.7117,120.4076
58.7500,120.4000
59.2000,120.4000
59.2383,120.4076
59.2707,120.4293
59.2924,120.4617
59.3000,120.5000
59.3000,121.8500
59.2924,121.8883
59.2707,121.9207
59.2383,121.9424
59.2000,121.9500
Z" /> 
<path style="fill:#000000; fill-opacity:1.0000; stroke:none;fill-rule:evenodd;"
d="M 58.1000,121.9500
58.0617,121.9424
58.0293,121.9207
58.0076,121.8883
58.0000,121.8500
58.0000,120.5000
58.0076,120.4617
58.0293,120.4293
58.0617,120.4076
58.1000,120.4000
58.5500,120.4000
58.5883,120.4076
58.6207,120.4293
58.6424,120.4617
58.6500,120.5000
58.6500,121.8500
58.6424,121.8883
58.6207,121.9207
58.5883,121.9424
58.5500,121.9500
Z" /> 
<path style="fill:#000000; fill-opacity:1.0000; stroke:none;fill-rule:evenodd;"
d="M 57.4500,121.9500
57.4117,121.9424
57.3793,121.9207
57.3576,121.8883
57.3500,121.8500
57.3500,120.5000
57.3576,120.4617
57.3793,120.4293
57.4117,120.4076
57.4500,120.4000
57.9000,120.4000
57.9383,120.4076
57.9707,120.4293
57.9924,120.4617
58.0000,120.5000
58.0000,121.8500
57.9924,121.8883
57.9707,121.9207
57.9383,121.9424
57.9000,121.9500
Z" /> 
<path style="fill:#000000; fill-opacity:1.0000; stroke:none;fill-rule:evenodd;"
d="M 57.2000,126.5550
57.2076,126.5167
57.2293,126.4843
57.2617,126.4626
57.3000,126.4550
58.3000,126.4550
58.3383,126.4626
58.3707,126.4843
58.3924,126.5167
58.4000,126.5550
58.4000,127.1950
58.3924,127.2333
58.3707,127.2657
58.3383,127.2874
58.3000,127.2950
57.3000,127.2950
57.2617,127.2874
57.2293,127.2657
57.2076,127.2333
57.2000,127.1950
Z" /> 
<path style="fill:#000000; fill-opacity:1.0000; stroke:none;fill-rule:evenodd;"
d="M 57.2000,128.1050
57.2076,128.0667
57.2293,128.0343
57.2617,128.0126
57.3000,128.0050
58.3000,128.0050
58.3383,128.0126
58.3707,128.0343
58.3924,128.0667
58.4000,128.1050
58.4000,128.7450
58.3924,128.7833
58.3707,128.8157
58.3383,128.8374
58.3000,128.8450
57.3000,128.8450
57.2617,128.8374
57.2293,128.8157
57.2076,128.7833
57.2000,128.7450
Z" /> 
<path style="fill:#000000; fill-opacity:1.0000; stroke:none;fill-rule:evenodd;"
d="M 50.2000,124.8300
50.2076,124.7917
50.2293,124.7593
50.2617,124.7376
50.3000,124.7300
51.0000,124.7300
51.0383,124.7376
51.0707,124.7593
51.0924,124.7917
51.1000,124.8300
51.1000,125.0800
51.0924,125.1183
51.0707,125.1507
51.0383,125.1724
51.0000,125.1800
50.3000,125.1800
50.2617,125.1724
50.2293,125.1507
50.2076,125.1183
50.2000,125.0800
Z" /> 
<path style="fill:#000000; fill-opacity:1.0000; stroke:none;fill-rule:evenodd;"
d="M 50.2000,128.0800
50.2076,128.0417
50.2293,128.0093
50.2617,127.9876
50.3000,127.9800
51.0000,127.9800
51.0383,127.9876
51.0707,128.0093
51.0924,128.0417
51.1000,128.0800
51.1000,128.3300
51.0924,128.3683
51.0707,128.4007
51.0383,128.4224
51.0000,128.4300
50.3000,128.4300
50.2617,128.4224
50.2293,128.4007
50.2076,128.3683
50.2000,128.3300
Z" /> 
<path style="fill:#000000; fill-opacity:1.0000; stroke:none;fill-rule:evenodd;"
d="M 51.9500,125.2300
51.9576,125.1917
51.9793,125.1593
52.0117,125.1376
52.0500,125.1300
53.1500,125.1300
53.1883,125.1376
53.2207,125.1593
53.2424,125.1917
53.2500,125.2300
53.2500,125.9300
53.2424,125.9683
53.2207,126.0007
53.1883,126.0224
53.1500,126.0300
52.0500,126.0300
52.0117,126.0224
51.9793,126.0007
51.9576,125.9683
51.9500,125.9300
Z" /> 
<path style="fill:#000000; fill-opacity:1.0000; stroke:none;fill-rule:evenodd;"
d="M 48.0500,125.2300
48.0576,125.1917
48.0793,125.1593
48.1117,125.1376
48.1500,125.1300
49.2500,125.1300
49.2883,125.1376
49.3207,125.1593
49.3424,125.1917
49.3500,125.2300
49.3500,125.9300
49.3424,125.9683
49.3207,126.0007
49.2883,126.0224
49.2500,126.0300
48.1500,126.0300
48.1117,126.0224
48.0793,126.0007
48.0576,125.9683
48.0500,125.9300
Z" /> 
<path style="fill:#000000; fill-opacity:1.0000; stroke:none;fill-rule:evenodd;"
d="M 51.9500,127.2300
51.9576,127.1917
51.9793,127.1593
52.0117,127.1376
52.0500,127.1300
53.1500,127.1300
53.1883,127.1376
53.2207,127.1593
53.2424,127.1917
53.2500,127.2300
53.2500,127.9300
53.2424,127.9683
53.2207,128.0007
53.1883,128.0224
53.1500,128.0300
52.0500,128.0300
52.0117,128.0224
51.9793,128.0007
51.9576,127.9683
51.9500,127.9300
Z" /> 
<path style="fill:#000000; fill-opacity:1.0000; stroke:none;fill-rule:evenodd;"
d="M 48.0500,127.2300
48.0576,127.1917
48.0793,127.1593
48.1117,127.1376
48.1500,127.1300
49.2500,127.1300
49.2883,127.1376
49.3207,127.1593
49.3424,127.1917
49.3500,127.2300
49.3500,127.9300
49.3424,127.9683
49.3207,128.0007
49.2883,128.0224
49.2500,128.0300
48.1500,128.0300
48.1117,128.0224
48.0793,128.0007
48.0576,127.9683
48.0500,127.9300
Z" /> 
<path style="fill:#000000; fill-opacity:1.0000; stroke:none;fill-rule:evenodd;"
d="M 56.5100,119.9500
56.5024,119.9883
56.4807,120.0207
56.4483,120.0424
56.4100,120.0500
55.7500,120.0500
55.7117,120.0424
55.6793,120.0207
55.6576,119.9883
55.6500,119.9500
55.6500,118.9500
55.6576,118.9117
55.6793,118.8793
55.7117,118.8576
55.7500,118.8500
56.4100,118.8500
56.4483,118.8576
56.4807,118.8793
56.5024,118.9117
56.5100,118.9500
Z" /> 
<path style="fill:#000000; fill-opacity:1.0000; stroke:none;fill-rule:evenodd;"
d="M 55.0500,119.9500
55.0424,119.9883
55.0207,120.0207
54.9883,120.0424
54.9500,120.0500
54.2900,120.0500
54.2517,120.0424
54.2193,120.0207
54.1976,119.9883
54.1900,119.9500
54.1900,118.9500
54.1976,118.9117
54.2193,118.8793
54.2517,118.8576
54.2900,118.8500
54.9500,118.8500
54.9883,118.8576
55.0207,118.8793
55.0424,118.9117
55.0500,118.9500
Z" /> 
<path style="fill:#000000; fill-opacity:1.0000; stroke:none;fill-rule:evenodd;"
d="M 41.4300,114.3800
41.4376,114.3417
41.4593,114.3093
41.4917,114.2876
41.5300,114.2800
42.1700,114.2800
42.2083,114.2876
42.2407,114.3093
42.2624,114.3417
42.2700,114.3800
42.2700,114.9200
42.2624,114.9583
42.2407,114.9907
42.2083,115.0124
42.1700,115.0200
41.5300,115.0200
41.4917,115.0124
41.4593,114.9907
41.4376,114.9583
41.4300,114.9200
Z" /> 
<path style="fill:#000000; fill-opacity:1.0000; stroke:none;fill-rule:evenodd;"
d="M 41.4300,115.3800
41.4376,115.3417
41.4593,115.3093
41.4917,115.2876
41.5300,115.2800
42.1700,115.2800
42.2083,115.2876
42.2407,115.3093
42.2624,115.3417
42.2700,115.3800
42.2700,115.9200
42.2624,115.9583
42.2407,115.9907
42.2083,116.0124
42.1700,116.0200
41.5300,116.0200
41.4917,116.0124
41.4593,115.9907
41.4376,115.9583
41.4300,115.9200
Z" /> 
<path style="fill:#000000; fill-opacity:1.0000; stroke:none;fill-rule:evenodd;"
d="M 64.4000,118.8500
64.3924,118.8883
64.3707,118.9207
64.3383,118.9424
64.3000,118.9500
63.7000,118.9500
63.6617,118.9424
63.6293,118.9207
63.6076,118.8883
63.6000,118.8500
63.6000,117.8500
63.6076,117.8117
63.6293,117.7793
63.6617,117.7576
63.7000,117.7500
64.3000,117.7500
64.3383,117.7576
64.3707,117.7793
64.3924,117.8117
64.4000,117.8500
Z" /> 
<path style="fill:#000000; fill-opacity:1.0000; stroke:none;fill-rule:evenodd;"
d="M 66.3000,118.8500
66.2924,118.8883
66.2707,118.9207
66.2383,118.9424
66.2000,118.9500
65.6000,118.9500
65.5617,118.9424
65.5293,118.9207
65.5076,118.8883
65.5000,118.8500
65.5000,117.8500
65.5076,117.8117
65.5293,117.7793
65.5617,117.7576
65.6000,117.7500
66.2000,117.7500
66.2383,117.7576
66.2707,117.7793
66.2924,117.8117
66.3000,117.8500
Z" /> 
<path style="fill:#000000; fill-opacity:1.0000; stroke:none;fill-rule:evenodd;"
d="M 65.3500,116.4500
65.3424,116.4883
65.3207,116.5207
65.2883,116.5424
65.2500,116.5500
64.6500,116.5500
64.6117,116.5424
64.5793,116.5207
64.5576,116.4883
64.5500,116.4500
64.5500,115.4500
64.5576,115.4117
64.5793,115.3793
64.6117,115.3576
64.6500,115.3500
65.2500,115.3500
65.2883,115.3576
65.3207,115.3793
65.3424,115.4117
65.3500,115.4500
Z" /> 
<path style="fill:#000000; fill-opacity:1.0000; stroke:none;fill-rule:evenodd;"
d="M 47.7450,131.8490
47.7067,131.8414
47.6743,131.8197
47.6526,131.7873
47.6450,131.7490
47.6450,131.1490
47.6526,131.1107
47.6743,131.0783
47.7067,131.0566
47.7450,131.0490
48.7450,131.0490
48.7833,131.0566
48.8157,131.0783
48.8374,131.1107
48.8450,131.1490
48.8450,131.7490
48.8374,131.7873
48.8157,131.8197
48.7833,131.8414
48.7450,131.8490
Z" /> 
<path style="fill:#000000; fill-opacity:1.0000; stroke:none;fill-rule:evenodd;"
d="M 47.7450,133.7490
47.7067,133.7414
47.6743,133.7197
47.6526,133.6873
47.6450,133.6490
47.6450,133.0490
47.6526,133.0107
47.6743,132.9783
47.7067,132.9566
47.7450,132.9490
48.7450,132.9490
48.7833,132.9566
48.8157,132.9783
48.8374,133.0107
48.8450,133.0490
48.8450,133.6490
48.8374,133.6873
48.8157,133.7197
48.7833,133.7414
48.7450,133.7490
Z" /> 
<path style="fill:#000000; fill-opacity:1.0000; stroke:none;fill-rule:evenodd;"
d="M 50.1450,132.7990
50.1067,132.7914
50.0743,132.7697
50.0526,132.7373
50.0450,132.6990
50.0450,132.0990
50.0526,132.0607
50.0743,132.0283
50.1067,132.0066
50.1450,131.9990
51.1450,131.9990
51.1833,132.0066
51.2157,132.0283
51.2374,132.0607
51.2450,132.0990
51.2450,132.6990
51.2374,132.7373
51.2157,132.7697
51.1833,132.7914
51.1450,132.7990
Z" /> 
</g>
<g style="fill:#000000; fill-opacity:1.0000; stroke:none;">
<circle cx="82.6500" cy="121.5800" r="1.6000" /> 
</g>
<g style="fill:#000000; fill-opacity:1.0000; stroke:none;">
<circle cx="44.8500" cy="118.7180" r="0.4250" /> 
</g>
<g style="fill:#000000; fill-opacity:1.0000; stroke:none;">
<circle cx="44.8500" cy="124.4930" r="0.4250" /> 
<path style="fill:#000000; fill-opacity:1.0000; stroke:none;fill-rule:evenodd;"
d="M 46.7000,117.9930
46.7383,118.0006
46.7707,118.0223
46.7924,118.0547
46.8000,118.0930
46.8000,118.3930
46.7924,118.4313
46.7707,118.4637
46.7383,118.4854
46.7000,118.4930
45.5500,118.4930
45.5117,118.4854
45.4793,118.4637
45.4576,118.4313
45.4500,118.3930
45.4500,118.0930
45.4576,118.0547
45.4793,118.0223
45.5117,118.0006
45.5500,117.9930
Z" /> 
<path style="fill:#000000; fill-opacity:1.0000; stroke:none;fill-rule:evenodd;"
d="M 46.7000,118.7930
46.7383,118.8006
46.7707,118.8223
46.7924,118.8547
46.8000,118.8930
46.8000,119.1930
46.7924,119.2313
46.7707,119.2637
46.7383,119.2854
46.7000,119.2930
45.5500,119.2930
45.5117,119.2854
45.4793,119.2637
45.4576,119.2313
45.4500,119.1930
45.4500,118.8930
45.4576,118.8547
45.4793,118.8223
45.5117,118.8006
45.5500,118.7930
Z" /> 
<path style="fill:#000000; fill-opacity:1.0000; stroke:none;fill-rule:evenodd;"
d="M 46.7000,120.0930
46.7383,120.1006
46.7707,120.1223
46.7924,120.1547
46.8000,120.1930
46.8000,120.4930
46.7924,120.5313
46.7707,120.5637
46.7383,120.5854
46.7000,120.5930
45.5500,120.5930
45.5117,120.5854
45.4793,120.5637
45.4576,120.5313
45.4500,120.4930
45.4500,120.1930
45.4576,120.1547
45.4793,120.1223
45.5117,120.1006
45.5500,120.0930
Z" /> 
<path style="fill:#000000; fill-opacity:1.0000; stroke:none;fill-rule:evenodd;"
d="M 46.7000,121.0930
46.7383,121.1006
46.7707,121.1223
46.7924,121.1547
46.8000,121.1930
46.8000,121.4930
46.7924,121.5313
46.7707,121.5637
46.7383,121.5854
46.7000,121.5930
45.5500,121.5930
45.5117,121.5854
45.4793,121.5637
45.4576,121.5313
45.4500,121.4930
45.4500,121.1930
45.4576,121.1547
45.4793,121.1223
45.5117,121.1006
45.5500,121.0930
Z" /> 
<path style="fill:#000000; fill-opacity:1.0000; stroke:none;fill-rule:evenodd;"
d="M 46.7000,121.5930
46.7383,121.6006
46.7707,121.6223
46.7924,121.6547
46.8000,121.6930
46.8000,121.9930
46.7924,122.0313
46.7707,122.0637
46.7383,122.0854
46.7000,122.0930
45.5500,122.0930
45.5117,122.0854
45.4793,122.0637
45.4576,122.0313
45.4500,121.9930
45.4500,121.6930
45.4576,121.6547
45.4793,121.6223
45.5117,121.6006
45.5500,121.5930
Z" /> 
<path style="fill:#000000; fill-opacity:1.0000; stroke:none;fill-rule:evenodd;"
d="M 46.7000,122.5930
46.7383,122.6006
46.7707,122.6223
46.7924,122.6547
46.8000,122.6930
46.8000,122.9930
46.7924,123.0313
46.7707,123.0637
46.7383,123.0854
46.7000,123.0930
45.5500,123.0930
45.5117,123.0854
45.4793,123.0637
45.4576,123.0313
45.4500,122.9930
45.4500,122.6930
45.4576,122.6547
45.4793,122.6223
45.5117,122.6006
45.5500,122.5930
Z" /> 
<path style="fill:#000000; fill-opacity:1.0000; stroke:none;fill-rule:evenodd;"
d="M 46.7000,123.8930
46.7383,123.9006
46.7707,123.9223
46.7924,123.9547
46.8000,123.9930
46.8000,124.2930
46.7924,124.3313
46.7707,124.3637
46.7383,124.3854
46.7000,124.3930
45.5500,124.3930
45.5117,124.3854
45.4793,124.3637
45.4576,124.3313
45.4500,124.2930
45.4500,123.9930
45.4576,123.9547
45.4793,123.9223
45.5117,123.9006
45.5500,123.8930
Z" /> 
<path style="fill:#000000; fill-opacity:1.0000; stroke:none;fill-rule:evenodd;"
d="M 46.7000,124.6680
46.7383,124.6756
46.7707,124.6973
46.7924,124.7297
46.8000,124.7680
46.8000,125.0680
46.7924,125.1063
46.7707,125.1387
46.7383,125.1604
46.7000,125.1680
45.5500,125.1680
45.5117,125.1604
45.4793,125.1387
45.4576,125.1063
45.4500,125.0680
45.4500,124.7680
45.4576,124.7297
45.4793,124.6973
45.5117,124.6756
45.5500,124.6680
Z" /> 
<path style="fill:#000000; fill-opacity:1.0000; stroke:none;fill-rule:evenodd;"
d="M 46.7000,124.4680
46.7383,124.4756
46.7707,124.4973
46.7924,124.5297
46.8000,124.5680
46.8000,124.8680
46.7924,124.9063
46.7707,124.9387
46.7383,124.9604
46.7000,124.9680
45.5500,124.9680
45.5117,124.9604
45.4793,124.9387
45.4576,124.9063
45.4500,124.8680
45.4500,124.5680
45.4576,124.5297
45.4793,124.4973
45.5117,124.4756
45.5500,124.4680
Z" /> 
<path style="fill:#000000; fill-opacity:1.0000; stroke:none;fill-rule:evenodd;"
d="M 46.7000,123.6930
46.7383,123.7006
46.7707,123.7223
46.7924,123.7547
46.8000,123.7930
46.8000,124.0930
46.7924,124.1313
46.7707,124.1637
46.7383,124.1854
46.7000,124.1930
45.5500,124.1930
45.5117,124.1854
45.4793,124.1637
45.4576,124.1313
45.4500,124.0930
45.4500,123.7930
45.4576,123.7547
45.4793,123.7223
45.5117,123.7006
45.5500,123.6930
Z" /> 
<path style="fill:#000000; fill-opacity:1.0000; stroke:none;fill-rule:evenodd;"
d="M 46.7000,123.0930
46.7383,123.1006
46.7707,123.1223
46.7924,123.1547
46.8000,123.1930
46.8000,123.4930
46.7924,123.5313
46.7707,123.5637
46.7383,123.5854
46.7000,123.5930
45.5500,123.5930
45.5117,123.5854
45.4793,123.5637
45.4576,123.5313
45.4500,123.4930
45.4500,123.1930
45.4576,123.1547
45.4793,123.1223
45.5117,123.1006
45.5500,123.0930
Z" /> 
<path style="fill:#000000; fill-opacity:1.0000; stroke:none;fill-rule:evenodd;"
d="M 46.7000,122.0930
46.7383,122.1006
46.7707,122.1223
46.7924,122.1547
46.8000,122.1930
46.8000,122.4930
46.7924,122.5313
46.7707,122.5637
46.7383,122.5854
46.7000,122.5930
45.5500,122.5930
45.5117,122.5854
45.4793,122.5637
45.4576,122.5313
45.4500,122.4930
45.4500,122.1930
45.4576,122.1547
45.4793,122.1223
45.5117,122.1006
45.5500,122.0930
Z" /> 
<path style="fill:#000000; fill-opacity:1.0000; stroke:none;fill-rule:evenodd;"
d="M 46.7000,120.5930
46.7383,120.6006
46.7707,120.6223
46.7924,120.6547
46.8000,120.6930
46.8000,120.9930
46.7924,121.0313
46.7707,121.0637
46.7383,121.0854
46.7000,121.0930
45.5500,121.0930
45.5117,121.0854
45.4793,121.0637
45.4576,121.0313
45.4500,120.9930
45.4500,120.6930
45.4576,120.6547
45.4793,120.6223
45.5117,120.6006
45.5500,120.5930
Z" /> 
<path style="fill:#000000; fill-opacity:1.0000; stroke:none;fill-rule:evenodd;"
d="M 46.7000,119.5930
46.7383,119.6006
46.7707,119.6223
46.7924,119.6547
46.8000,119.6930
46.8000,119.9930
46.7924,120.0313
46.7707,120.0637
46.7383,120.0854
46.7000,120.0930
45.5500,120.0930
45.5117,120.0854
45.4793,120.0637
45.4576,120.0313
45.4500,119.9930
45.4500,119.6930
45.4576,119.6547
45.4793,119.6223
45.5117,119.6006
45.5500,119.5930
Z" /> 
<path style="fill:#000000; fill-opacity:1.0000; stroke:none;fill-rule:evenodd;"
d="M 46.7000,118.9930
46.7383,119.0006
46.7707,119.0223
46.7924,119.0547
46.8000,119.0930
46.8000,119.3930
46.7924,119.4313
46.7707,119.4637
46.7383,119.4854
46.7000,119.4930
45.5500,119.4930
45.5117,119.4854
45.4793,119.4637
45.4576,119.4313
45.4500,119.3930
45.4500,119.0930
45.4576,119.0547
45.4793,119.0223
45.5117,119.0006
45.5500,118.9930
Z" /> 
<path style="fill:#000000; fill-opacity:1.0000; stroke:none;fill-rule:evenodd;"
d="M 46.7000,118.2180
46.7383,118.2256
46.7707,118.2473
46.7924,118.2797
46.8000,118.3180
46.8000,118.6180
46.7924,118.6563
46.7707,118.6887
46.7383,118.7104
46.7000,118.7180
45.5500,118.7180
45.5117,118.7104
45.4793,118.6887
45.4576,118.6563
45.4500,118.6180
45.4500,118.3180
45.4576,118.2797
45.4793,118.2473
45.5117,118.2256
45.5500,118.2180
Z" /> 
</g>
<g style="fill:none; 
stroke:#000000; stroke-width:1.2000; stroke-opacity:1; 
stroke-linecap:round; stroke-linejoin:round;">
<path d="M41.7250 117.2680
L40.6250 117.2680
" />
<path d="M45.8750 125.8930
L44.7750 125.8930
" />
<path d="M45.8750 117.2680
L44.7750 117.2680
" />
<path d="M41.7250 125.8930
L40.6250 125.8930
" />
</g>
<g style="fill:#FFFFFF; fill-opacity:1.0000; stroke:none;">
<circle cx="64.5900" cy="133.0100" r="0.5000" /> 
</g>
<g style="fill:#FFFFFF; fill-opacity:1.0000; stroke:none;">
<circle cx="67.1300" cy="133.0100" r="0.5000" /> 
</g>
<g style="fill:#FFFFFF; fill-opacity:1.0000; stroke:none;">
<circle cx="69.6700" cy="133.0100" r="0.5000" /> 
</g>
<g style="fill:#FFFFFF; fill-opacity:1.0000; stroke:none;">
<circle cx="72.2100" cy="133.0100" r="0.5000" /> 
</g>
<g style="fill:#FFFFFF; fill-opacity:1.0000; stroke:none;">
<circle cx="74.7500" cy="133.0100" r="0.5000" /> 
</g>
<g style="fill:#FFFFFF; fill-opacity:1.0000; stroke:none;">
<circle cx="77.2900" cy="133.0100" r="0.5000" /> 
</g>
<g style="fill:#FFFFFF; fill-opacity:1.0000; stroke:none;">
<circle cx="79.8300" cy="133.0100" r="0.5000" /> 
</g>
<g style="fill:#FFFFFF; fill-opacity:1.0000; stroke:none;">
<circle cx="82.3700" cy="133.0100" r="0.5000" /> 
</g>
<g style="fill:#FFFFFF; fill-opacity:1.0000; stroke:none;">
<circle cx="84.9100" cy="133.0100" r="0.5000" /> 
</g>
<g style="fill:#FFFFFF; fill-opacity:1.0000; stroke:none;">
<circle cx="87.4500" cy="133.0100" r="0.5000" /> 
</g>
<g style="fill:#FFFFFF; fill-opacity:1.0000; stroke:none;">
<circle cx="89.9900" cy="133.0100" r="0.5000" /> 
</g>
<g style="fill:#FFFFFF; fill-opacity:1.0000; stroke:none;">
<circle cx="92.5300" cy="133.0100" r="0.5000" /> 
</g>
<g style="fill:#FFFFFF; fill-opacity:1.0000; stroke:none;">
<circle cx="95.0700" cy="133.0100" r="0.5000" /> 
</g>
<g style="fill:#FFFFFF; fill-opacity:1.0000; stroke:none;">
<circle cx="97.6100" cy="133.0100" r="0.5000" /> 
</g>
<g style="fill:#FFFFFF; fill-opacity:1.0000; stroke:none;">
<circle cx="100.1500" cy="133.0100" r="0.5000" /> 
</g>
<g style="fill:#FFFFFF; fill-opacity:1.0000; stroke:none;">
<circle cx="64.5900" cy="110.1500" r="0.5000" /> 
</g>
<g style="fill:#FFFFFF; fill-opacity:1.0000; stroke:none;">
<circle cx="67.1300" cy="110.1500" r="0.5000" /> 
</g>
<g style="fill:#FFFFFF; fill-opacity:1.0000; stroke:none;">
<circle cx="69.6700" cy="110.1500" r="0.5000" /> 
</g>
<g style="fill:#FFFFFF; fill-opacity:1.0000; stroke:none;">
<circle cx="72.2100" cy="110.1500" r="0.5000" /> 
</g>
<g style="fill:#FFFFFF; fill-opacity:1.0000; stroke:none;">
<circle cx="74.7500" cy="110.1500" r="0.5000" /> 
</g>
<g style="fill:#FFFFFF; fill-opacity:1.0000; stroke:none;">
<circle cx="77.2900" cy="110.1500" r="0.5000" /> 
</g>
<g style="fill:#FFFFFF; fill-opacity:1.0000; stroke:none;">
<circle cx="79.8300" cy="110.1500" r="0.5000" /> 
</g>
<g style="fill:#FFFFFF; fill-opacity:1.0000; stroke:none;">
<circle cx="82.3700" cy="110.1500" r="0.5000" /> 
</g>
<g style="fill:#FFFFFF; fill-opacity:1.0000; stroke:none;">
<circle cx="84.9100" cy="110.1500" r="0.5000" /> 
</g>
<g style="fill:#FFFFFF; fill-opacity:1.0000; stroke:none;">
<circle cx="87.4500" cy="110.1500" r="0.5000" /> 
</g>
<g style="fill:#FFFFFF; fill-opacity:1.0000; stroke:none;">
<circle cx="89.9900" cy="110.1500" r="0.5000" /> 
</g>
<g style="fill:#FFFFFF; fill-opacity:1.0000; stroke:none;">
<circle cx="92.5300" cy="110.1500" r="0.5000" /> 
</g>
<g style="fill:#FFFFFF; fill-opacity:1.0000; stroke:none;">
<circle cx="95.0700" cy="110.1500" r="0.5000" /> 
</g>
<g style="fill:#FFFFFF; fill-opacity:1.0000; stroke:none;">
<circle cx="97.6100" cy="110.1500" r="0.5000" /> 
</g>
<g style="fill:#FFFFFF; fill-opacity:1.0000; stroke:none;">
<circle cx="100.1500" cy="110.1500" r="0.5000" /> 
</g>
<g style="fill:#FFFFFF; fill-opacity:1.0000; stroke:none;">
<circle cx="50.6500" cy="121.5800" r="1.6000" /> 
</g>
<g style="fill:#FFFFFF; fill-opacity:1.0000; stroke:none;">
<circle cx="82.6500" cy="121.5800" r="1.6000" /> 
</g>
<g style="fill:#FFFFFF; fill-opacity:1.0000; stroke:none;">
<circle cx="44.8500" cy="118.7180" r="0.3250" /> 
</g>
<g style="fill:#FFFFFF; fill-opacity:1.0000; stroke:none;">
<circle cx="44.8500" cy="124.4930" r="0.3250" /> 
</g>
<g style="fill:none; 
stroke:#FFFFFF; stroke-width:0.6000; stroke-opacity:1; 
stroke-linecap:round; stroke-linejoin:round;">
<path d="M41.7250 117.2680
L40.6250 117.2680
" />
<path d="M45.8750 125.8930
L44.7750 125.8930
" />
<path d="M45.8750 117.2680
L44.7750 117.2680
" />
<path d="M41.7250 125.8930
L40.6250 125.8930
" />
</g> 
</svg>
