<?xml version="1.0" standalone="no"?>
 <!DOCTYPE svg PUBLIC "-//W3C//DTD SVG 1.1//EN" 
 "http://www.w3.org/Graphics/SVG/1.1/DTD/svg11.dtd"> 
<svg
  xmlns:svg="http://www.w3.org/2000/svg"
  xmlns="http://www.w3.org/2000/svg"
  xmlns:xlink="http://www.w3.org/1999/xlink"
  version="1.1"
  width="297.0022mm" height="210.0072mm" viewBox="0.0000 0.0000 297.0022 210.0072">
<title>SVG Image created as Dasduino_CORE-F_Mask.svg date 2025/07/14 13:21:34 </title>
  <desc>Image generated by PCBNEW </desc>
<g style="fill:#000000; fill-opacity:1.0000;stroke:#000000; stroke-opacity:1.0000;
stroke-linecap:round; stroke-linejoin:round;"
 transform="translate(0 0) scale(1 1)">
<path style="fill:#000000; fill-opacity:1.0000; stroke:none;fill-rule:evenodd;"
d="M 127.0783,134.8833
127.1000,134.9158
127.1076,134.9540
127.1000,134.9923
127.0783,135.0247
126.6116,135.4914
126.5792,135.5131
126.5409,135.5207
126.5026,135.5131
126.4702,135.4914
125.7631,134.7843
125.7414,134.7519
125.7338,134.7136
125.7414,134.6753
125.7631,134.6429
126.2298,134.1762
126.2622,134.1545
126.3005,134.1469
126.3387,134.1545
126.3712,134.1762
Z" /> 
<path style="fill:#000000; fill-opacity:1.0000; stroke:none;fill-rule:evenodd;"
d="M 126.0459,135.9157
126.0676,135.9481
126.0752,135.9864
126.0676,136.0247
126.0459,136.0571
125.5792,136.5238
125.5468,136.5455
125.5085,136.5531
125.4703,136.5455
125.4378,136.5238
124.7307,135.8167
124.7090,135.7842
124.7014,135.7460
124.7090,135.7077
124.7307,135.6753
125.1974,135.2086
125.2298,135.1869
125.2681,135.1793
125.3064,135.1869
125.3388,135.2086
Z" /> 
<path style="fill:#000000; fill-opacity:1.0000; stroke:none;fill-rule:evenodd;"
d="M 89.9445,133.3000
89.9521,133.2617
89.9738,133.2293
90.0062,133.2076
90.0445,133.2000
90.7045,133.2000
90.7428,133.2076
90.7752,133.2293
90.7969,133.2617
90.8045,133.3000
90.8045,134.3000
90.7969,134.3383
90.7752,134.3707
90.7428,134.3924
90.7045,134.4000
90.0445,134.4000
90.0062,134.3924
89.9738,134.3707
89.9521,134.3383
89.9445,134.3000
Z" /> 
<path style="fill:#000000; fill-opacity:1.0000; stroke:none;fill-rule:evenodd;"
d="M 91.4045,133.3000
91.4121,133.2617
91.4338,133.2293
91.4662,133.2076
91.5045,133.2000
92.1645,133.2000
92.2028,133.2076
92.2352,133.2293
92.2569,133.2617
92.2645,133.3000
92.2645,134.3000
92.2569,134.3383
92.2352,134.3707
92.2028,134.3924
92.1645,134.4000
91.5045,134.4000
91.4662,134.3924
91.4338,134.3707
91.4121,134.3383
91.4045,134.3000
Z" /> 
<path style="fill:#000000; fill-opacity:1.0000; stroke:none;fill-rule:evenodd;"
d="M 111.9878,137.6262
112.0203,137.6045
112.0585,137.5969
112.0968,137.6045
112.1292,137.6262
112.5959,138.0929
112.6176,138.1253
112.6252,138.1636
112.6176,138.2019
112.5959,138.2343
111.8888,138.9414
111.8564,138.9631
111.8181,138.9707
111.7798,138.9631
111.7474,138.9414
111.2807,138.4747
111.2590,138.4423
111.2514,138.4040
111.2590,138.3658
111.2807,138.3333
Z" /> 
<path style="fill:#000000; fill-opacity:1.0000; stroke:none;fill-rule:evenodd;"
d="M 113.0202,138.6586
113.0526,138.6369
113.0909,138.6293
113.1292,138.6369
113.1616,138.6586
113.6283,139.1253
113.6500,139.1577
113.6576,139.1960
113.6500,139.2342
113.6283,139.2667
112.9212,139.9738
112.8887,139.9955
112.8505,140.0031
112.8122,139.9955
112.7798,139.9738
112.3131,139.5071
112.2914,139.4747
112.2838,139.4364
112.2914,139.3981
112.3131,139.3657
Z" /> 
<path style="fill:#000000; fill-opacity:1.0000; stroke:none;fill-rule:evenodd;"
d="M 126.7530,140.7000
126.7747,140.7325
126.7823,140.7707
126.7747,140.8090
126.7530,140.8414
126.0459,141.5485
126.0135,141.5702
125.9752,141.5778
125.9370,141.5702
125.9045,141.5485
125.4520,141.0960
125.4303,141.0636
125.4227,141.0253
125.4303,140.9870
125.4520,140.9546
126.1591,140.2475
126.1915,140.2258
126.2298,140.2182
126.2681,140.2258
126.3005,140.2475
Z" /> 
<path style="fill:#000000; fill-opacity:1.0000; stroke:none;fill-rule:evenodd;"
d="M 125.6570,139.6040
125.6787,139.6364
125.6863,139.6747
125.6787,139.7130
125.6570,139.7454
124.9499,140.4525
124.9175,140.4742
124.8792,140.4818
124.8409,140.4742
124.8085,140.4525
124.3560,140.0000
124.3343,139.9675
124.3267,139.9293
124.3343,139.8910
124.3560,139.8586
125.0631,139.1515
125.0955,139.1298
125.1338,139.1222
125.1720,139.1298
125.2045,139.1515
Z" /> 
<path style="fill:#000000; fill-opacity:1.0000; stroke:none;fill-rule:evenodd;"
d="M 80.0745,148.2800
80.1128,148.2876
80.1452,148.3093
80.1669,148.3417
80.1745,148.3800
80.1745,149.0200
80.1669,149.0583
80.1452,149.0907
80.1128,149.1124
80.0745,149.1200
79.5345,149.1200
79.4962,149.1124
79.4638,149.0907
79.4421,149.0583
79.4345,149.0200
79.4345,148.3800
79.4421,148.3417
79.4638,148.3093
79.4962,148.2876
79.5345,148.2800
Z" /> 
<path style="fill:#000000; fill-opacity:1.0000; stroke:none;fill-rule:evenodd;"
d="M 79.0745,148.2800
79.1128,148.2876
79.1452,148.3093
79.1669,148.3417
79.1745,148.3800
79.1745,149.0200
79.1669,149.0583
79.1452,149.0907
79.1128,149.1124
79.0745,149.1200
78.5345,149.1200
78.4962,149.1124
78.4638,149.0907
78.4421,149.0583
78.4345,149.0200
78.4345,148.3800
78.4421,148.3417
78.4638,148.3093
78.4962,148.2876
78.5345,148.2800
Z" /> 
<path style="fill:#000000; fill-opacity:1.0000; stroke:none;fill-rule:evenodd;"
d="M 73.0045,145.3600
72.9969,145.3983
72.9752,145.4307
72.9428,145.4524
72.9045,145.4600
71.9045,145.4600
71.8662,145.4524
71.8338,145.4307
71.8121,145.3983
71.8045,145.3600
71.8045,143.3600
71.8121,143.3217
71.8338,143.2893
71.8662,143.2676
71.9045,143.2600
72.9045,143.2600
72.9428,143.2676
72.9752,143.2893
72.9969,143.3217
73.0045,143.3600
Z" /> 
<path style="fill:#000000; fill-opacity:1.0000; stroke:none;fill-rule:evenodd;"
d="M 70.2045,145.3600
70.1969,145.3983
70.1752,145.4307
70.1428,145.4524
70.1045,145.4600
69.1045,145.4600
69.0662,145.4524
69.0338,145.4307
69.0121,145.3983
69.0045,145.3600
69.0045,143.3600
69.0121,143.3217
69.0338,143.2893
69.0662,143.2676
69.1045,143.2600
70.1045,143.2600
70.1428,143.2676
70.1752,143.2893
70.1969,143.3217
70.2045,143.3600
Z" /> 
<path style="fill:#000000; fill-opacity:1.0000; stroke:none;fill-rule:evenodd;"
d="M 125.9894,133.9021
125.9570,133.9238
125.9187,133.9314
125.8804,133.9238
125.8480,133.9021
124.8581,132.9121
124.8364,132.8797
124.8288,132.8414
124.8364,132.8032
124.8581,132.7707
125.7066,131.9222
125.7390,131.9005
125.7773,131.8929
125.8156,131.9005
125.8480,131.9222
126.8380,132.9121
126.8596,132.9446
126.8672,132.9828
126.8596,133.0211
126.8380,133.0536
Z" /> 
<path style="fill:#000000; fill-opacity:1.0000; stroke:none;fill-rule:evenodd;"
d="M 124.4338,132.3464
124.4013,132.3681
124.3631,132.3757
124.3248,132.3681
124.2924,132.3464
123.3024,131.3565
123.2807,131.3241
123.2731,131.2858
123.2807,131.2475
123.3024,131.2151
124.1509,130.3665
124.1834,130.3449
124.2217,130.3373
124.2599,130.3449
124.2924,130.3665
125.2823,131.3565
125.3040,131.3889
125.3116,131.4272
125.3040,131.4655
125.2823,131.4979
Z" /> 
<path style="fill:#000000; fill-opacity:1.0000; stroke:none;fill-rule:evenodd;"
d="M 123.3024,133.4778
123.2700,133.4995
123.2317,133.5071
123.1934,133.4995
123.1610,133.4778
122.1710,132.4879
122.1494,132.4554
122.1418,132.4172
122.1494,132.3789
122.1710,132.3464
123.0196,131.4979
123.0520,131.4762
123.0903,131.4686
123.1286,131.4762
123.1610,131.4979
124.1509,132.4879
124.1726,132.5203
124.1802,132.5586
124.1726,132.5968
124.1509,132.6293
Z" /> 
<path style="fill:#000000; fill-opacity:1.0000; stroke:none;fill-rule:evenodd;"
d="M 124.8581,135.0335
124.8256,135.0551
124.7873,135.0627
124.7491,135.0551
124.7166,135.0335
123.7267,134.0435
123.7050,134.0111
123.6974,133.9728
123.7050,133.9345
123.7267,133.9021
124.5752,133.0536
124.6077,133.0319
124.6459,133.0243
124.6842,133.0319
124.7166,133.0536
125.7066,134.0435
125.7283,134.0759
125.7359,134.1142
125.7283,134.1525
125.7066,134.1849
Z" /> 
<path style="fill:#000000; fill-opacity:1.0000; stroke:none;fill-rule:evenodd;"
d="M 86.4345,147.3050
86.4421,147.2667
86.4638,147.2343
86.4962,147.2126
86.5345,147.2050
87.5345,147.2050
87.5728,147.2126
87.6052,147.2343
87.6269,147.2667
87.6345,147.3050
87.6345,147.9450
87.6269,147.9833
87.6052,148.0157
87.5728,148.0374
87.5345,148.0450
86.5345,148.0450
86.4962,148.0374
86.4638,148.0157
86.4421,147.9833
86.4345,147.9450
Z" /> 
<path style="fill:#000000; fill-opacity:1.0000; stroke:none;fill-rule:evenodd;"
d="M 86.4345,148.8550
86.4421,148.8167
86.4638,148.7843
86.4962,148.7626
86.5345,148.7550
87.5345,148.7550
87.5728,148.7626
87.6052,148.7843
87.6269,148.8167
87.6345,148.8550
87.6345,149.4950
87.6269,149.5333
87.6052,149.5657
87.5728,149.5874
87.5345,149.5950
86.5345,149.5950
86.4962,149.5874
86.4638,149.5657
86.4421,149.5333
86.4345,149.4950
Z" /> 
<path style="fill:#000000; fill-opacity:1.0000; stroke:none;fill-rule:evenodd;"
d="M 99.6045,132.5400
99.6428,132.5476
99.6752,132.5693
99.6969,132.6017
99.7045,132.6400
99.7045,133.3000
99.6969,133.3383
99.6752,133.3707
99.6428,133.3924
99.6045,133.4000
98.6045,133.4000
98.5662,133.3924
98.5338,133.3707
98.5121,133.3383
98.5045,133.3000
98.5045,132.6400
98.5121,132.6017
98.5338,132.5693
98.5662,132.5476
98.6045,132.5400
Z" /> 
<path style="fill:#000000; fill-opacity:1.0000; stroke:none;fill-rule:evenodd;"
d="M 99.6045,134.0000
99.6428,134.0076
99.6752,134.0293
99.6969,134.0617
99.7045,134.1000
99.7045,134.7600
99.6969,134.7983
99.6752,134.8307
99.6428,134.8524
99.6045,134.8600
98.6045,134.8600
98.5662,134.8524
98.5338,134.8307
98.5121,134.7983
98.5045,134.7600
98.5045,134.1000
98.5121,134.0617
98.5338,134.0293
98.5662,134.0076
98.6045,134.0000
Z" /> 
<path style="fill:#000000; fill-opacity:1.0000; stroke:none;fill-rule:evenodd;"
d="M 80.0095,141.9000
79.9712,141.8924
79.9388,141.8707
79.9171,141.8383
79.9095,141.8000
79.9095,140.8000
79.9171,140.7617
79.9388,140.7293
79.9712,140.7076
80.0095,140.7000
80.6495,140.7000
80.6878,140.7076
80.7202,140.7293
80.7419,140.7617
80.7495,140.8000
80.7495,141.8000
80.7419,141.8383
80.7202,141.8707
80.6878,141.8924
80.6495,141.9000
Z" /> 
<path style="fill:#000000; fill-opacity:1.0000; stroke:none;fill-rule:evenodd;"
d="M 81.5595,141.9000
81.5212,141.8924
81.4888,141.8707
81.4671,141.8383
81.4595,141.8000
81.4595,140.8000
81.4671,140.7617
81.4888,140.7293
81.5212,140.7076
81.5595,140.7000
82.1995,140.7000
82.2378,140.7076
82.2702,140.7293
82.2919,140.7617
82.2995,140.8000
82.2995,141.8000
82.2919,141.8383
82.2702,141.8707
82.2378,141.8924
82.1995,141.9000
Z" /> 
<path style="fill:#000000; fill-opacity:1.0000; stroke:none;fill-rule:evenodd;"
d="M 96.8285,130.5185
96.8668,130.5261
96.8992,130.5478
96.9209,130.5802
96.9285,130.6185
96.9285,131.2785
96.9209,131.3168
96.8992,131.3492
96.8668,131.3709
96.8285,131.3785
95.8285,131.3785
95.7902,131.3709
95.7578,131.3492
95.7361,131.3168
95.7285,131.2785
95.7285,130.6185
95.7361,130.5802
95.7578,130.5478
95.7902,130.5261
95.8285,130.5185
Z" /> 
<path style="fill:#000000; fill-opacity:1.0000; stroke:none;fill-rule:evenodd;"
d="M 96.8285,131.9785
96.8668,131.9861
96.8992,132.0078
96.9209,132.0402
96.9285,132.0785
96.9285,132.7385
96.9209,132.7768
96.8992,132.8092
96.8668,132.8309
96.8285,132.8385
95.8285,132.8385
95.7902,132.8309
95.7578,132.8092
95.7361,132.7768
95.7285,132.7385
95.7285,132.0785
95.7361,132.0402
95.7578,132.0078
95.7902,131.9861
95.8285,131.9785
Z" /> 
<path style="fill:#000000; fill-opacity:1.0000; stroke:none;fill-rule:evenodd;"
d="M 125.8030,141.7000
125.8247,141.7325
125.8323,141.7707
125.8247,141.8090
125.8030,141.8414
125.0959,142.5485
125.0635,142.5702
125.0252,142.5778
124.9870,142.5702
124.9545,142.5485
124.5020,142.0960
124.4803,142.0636
124.4727,142.0253
124.4803,141.9870
124.5020,141.9546
125.2091,141.2475
125.2415,141.2258
125.2798,141.2182
125.3181,141.2258
125.3505,141.2475
Z" /> 
<path style="fill:#000000; fill-opacity:1.0000; stroke:none;fill-rule:evenodd;"
d="M 124.7070,140.6040
124.7287,140.6364
124.7363,140.6747
124.7287,140.7130
124.7070,140.7454
123.9999,141.4525
123.9675,141.4742
123.9292,141.4818
123.8909,141.4742
123.8585,141.4525
123.4060,141.0000
123.3843,140.9675
123.3767,140.9293
123.3843,140.8910
123.4060,140.8586
124.1131,140.1515
124.1455,140.1298
124.1838,140.1222
124.2220,140.1298
124.2545,140.1515
Z" /> 
<path style="fill:#000000; fill-opacity:1.0000; stroke:none;fill-rule:evenodd;"
d="M 80.5295,146.6750
80.4912,146.6674
80.4588,146.6457
80.4371,146.6133
80.4295,146.5750
80.4295,145.8250
80.4371,145.7867
80.4588,145.7543
80.4912,145.7326
80.5295,145.7250
80.9795,145.7250
81.0178,145.7326
81.0502,145.7543
81.0719,145.7867
81.0795,145.8250
81.0795,146.5750
81.0719,146.6133
81.0502,146.6457
81.0178,146.6674
80.9795,146.6750
Z" /> 
<path style="fill:#000000; fill-opacity:1.0000; stroke:none;fill-rule:evenodd;"
d="M 81.6295,146.6750
81.5912,146.6674
81.5588,146.6457
81.5371,146.6133
81.5295,146.5750
81.5295,145.8250
81.5371,145.7867
81.5588,145.7543
81.5912,145.7326
81.6295,145.7250
82.0795,145.7250
82.1178,145.7326
82.1502,145.7543
82.1719,145.7867
82.1795,145.8250
82.1795,146.5750
82.1719,146.6133
82.1502,146.6457
82.1178,146.6674
82.0795,146.6750
Z" /> 
<path style="fill:#000000; fill-opacity:1.0000; stroke:none;fill-rule:evenodd;"
d="M 80.0745,145.7800
80.1128,145.7876
80.1452,145.8093
80.1669,145.8417
80.1745,145.8800
80.1745,146.5200
80.1669,146.5583
80.1452,146.5907
80.1128,146.6124
80.0745,146.6200
79.5345,146.6200
79.4962,146.6124
79.4638,146.5907
79.4421,146.5583
79.4345,146.5200
79.4345,145.8800
79.4421,145.8417
79.4638,145.8093
79.4962,145.7876
79.5345,145.7800
Z" /> 
<path style="fill:#000000; fill-opacity:1.0000; stroke:none;fill-rule:evenodd;"
d="M 79.0745,145.7800
79.1128,145.7876
79.1452,145.8093
79.1669,145.8417
79.1745,145.8800
79.1745,146.5200
79.1669,146.5583
79.1452,146.5907
79.1128,146.6124
79.0745,146.6200
78.5345,146.6200
78.4962,146.6124
78.4638,146.5907
78.4421,146.5583
78.4345,146.5200
78.4345,145.8800
78.4421,145.8417
78.4638,145.8093
78.4962,145.7876
78.5345,145.7800
Z" /> 
<path style="fill:#000000; fill-opacity:1.0000; stroke:none;fill-rule:evenodd;"
d="M 67.6045,144.6360
67.6428,144.6436
67.6752,144.6653
67.6969,144.6977
67.7045,144.7360
67.7045,145.7360
67.6969,145.7743
67.6752,145.8067
67.6428,145.8284
67.6045,145.8360
66.9645,145.8360
66.9262,145.8284
66.8938,145.8067
66.8721,145.7743
66.8645,145.7360
66.8645,144.7360
66.8721,144.6977
66.8938,144.6653
66.9262,144.6436
66.9645,144.6360
Z" /> 
<path style="fill:#000000; fill-opacity:1.0000; stroke:none;fill-rule:evenodd;"
d="M 66.0545,144.6360
66.0928,144.6436
66.1252,144.6653
66.1469,144.6977
66.1545,144.7360
66.1545,145.7360
66.1469,145.7743
66.1252,145.8067
66.0928,145.8284
66.0545,145.8360
65.4145,145.8360
65.3762,145.8284
65.3438,145.8067
65.3221,145.7743
65.3145,145.7360
65.3145,144.7360
65.3221,144.6977
65.3438,144.6653
65.3762,144.6436
65.4145,144.6360
Z" /> 
<path style="fill:#000000; fill-opacity:1.0000; stroke:none;fill-rule:evenodd;"
d="M 95.4235,132.0785
95.4618,132.0861
95.4942,132.1078
95.5159,132.1402
95.5235,132.1785
95.5235,132.4785
95.5159,132.5168
95.4942,132.5492
95.4618,132.5709
95.4235,132.5785
94.7235,132.5785
94.6852,132.5709
94.6528,132.5492
94.6311,132.5168
94.6235,132.4785
94.6235,132.1785
94.6311,132.1402
94.6528,132.1078
94.6852,132.0861
94.7235,132.0785
Z" /> 
<path style="fill:#000000; fill-opacity:1.0000; stroke:none;fill-rule:evenodd;"
d="M 95.4235,131.4285
95.4618,131.4361
95.4942,131.4578
95.5159,131.4902
95.5235,131.5285
95.5235,131.8285
95.5159,131.8668
95.4942,131.8992
95.4618,131.9209
95.4235,131.9285
94.7235,131.9285
94.6852,131.9209
94.6528,131.8992
94.6311,131.8668
94.6235,131.8285
94.6235,131.5285
94.6311,131.4902
94.6528,131.4578
94.6852,131.4361
94.7235,131.4285
Z" /> 
<path style="fill:#000000; fill-opacity:1.0000; stroke:none;fill-rule:evenodd;"
d="M 95.4235,130.7785
95.4618,130.7861
95.4942,130.8078
95.5159,130.8402
95.5235,130.8785
95.5235,131.1785
95.5159,131.2168
95.4942,131.2492
95.4618,131.2709
95.4235,131.2785
94.7235,131.2785
94.6852,131.2709
94.6528,131.2492
94.6311,131.2168
94.6235,131.1785
94.6235,130.8785
94.6311,130.8402
94.6528,130.8078
94.6852,130.7861
94.7235,130.7785
Z" /> 
<path style="fill:#000000; fill-opacity:1.0000; stroke:none;fill-rule:evenodd;"
d="M 93.4335,130.7785
93.4718,130.7861
93.5042,130.8078
93.5259,130.8402
93.5335,130.8785
93.5335,131.1785
93.5259,131.2168
93.5042,131.2492
93.4718,131.2709
93.4335,131.2785
92.7335,131.2785
92.6952,131.2709
92.6628,131.2492
92.6411,131.2168
92.6335,131.1785
92.6335,130.8785
92.6411,130.8402
92.6628,130.8078
92.6952,130.7861
92.7335,130.7785
Z" /> 
<path style="fill:#000000; fill-opacity:1.0000; stroke:none;fill-rule:evenodd;"
d="M 93.4335,131.4285
93.4718,131.4361
93.5042,131.4578
93.5259,131.4902
93.5335,131.5285
93.5335,131.8285
93.5259,131.8668
93.5042,131.8992
93.4718,131.9209
93.4335,131.9285
92.7335,131.9285
92.6952,131.9209
92.6628,131.8992
92.6411,131.8668
92.6335,131.8285
92.6335,131.5285
92.6411,131.4902
92.6628,131.4578
92.6952,131.4361
92.7335,131.4285
Z" /> 
<path style="fill:#000000; fill-opacity:1.0000; stroke:none;fill-rule:evenodd;"
d="M 94.5235,130.7785
94.5618,130.7861
94.5942,130.8078
94.6159,130.8402
94.6235,130.8785
94.6235,132.4785
94.6159,132.5168
94.5942,132.5492
94.5618,132.5709
94.5235,132.5785
93.6335,132.5785
93.5952,132.5709
93.5628,132.5492
93.5411,132.5168
93.5335,132.4785
93.5335,130.8785
93.5411,130.8402
93.5628,130.8078
93.5952,130.7861
93.6335,130.7785
Z" /> 
<path style="fill:#000000; fill-opacity:1.0000; stroke:none;fill-rule:evenodd;"
d="M 93.4335,132.0785
93.4718,132.0861
93.5042,132.1078
93.5259,132.1402
93.5335,132.1785
93.5335,132.4785
93.5259,132.5168
93.5042,132.5492
93.4718,132.5709
93.4335,132.5785
92.7335,132.5785
92.6952,132.5709
92.6628,132.5492
92.6411,132.5168
92.6335,132.4785
92.6335,132.1785
92.6411,132.1402
92.6628,132.1078
92.6952,132.0861
92.7335,132.0785
Z" /> 
<path style="fill:#000000; fill-opacity:1.0000; stroke:none;fill-rule:evenodd;"
d="M 65.9545,127.4500
65.9928,127.4576
66.0252,127.4793
66.0469,127.5117
66.0545,127.5500
66.0545,128.0500
66.0469,128.0883
66.0252,128.1207
65.9928,128.1424
65.9545,128.1500
64.9545,128.1500
64.9162,128.1424
64.8838,128.1207
64.8621,128.0883
64.8545,128.0500
64.8545,127.5500
64.8621,127.5117
64.8838,127.4793
64.9162,127.4576
64.9545,127.4500
Z" /> 
<path style="fill:#000000; fill-opacity:1.0000; stroke:none;fill-rule:evenodd;"
d="M 65.9545,128.1500
65.9928,128.1576
66.0252,128.1793
66.0469,128.2117
66.0545,128.2500
66.0545,128.7500
66.0469,128.7883
66.0252,128.8207
65.9928,128.8424
65.9545,128.8500
64.9545,128.8500
64.9162,128.8424
64.8838,128.8207
64.8621,128.7883
64.8545,128.7500
64.8545,128.2500
64.8621,128.2117
64.8838,128.1793
64.9162,128.1576
64.9545,128.1500
Z" /> 
<path style="fill:#000000; fill-opacity:1.0000; stroke:none;fill-rule:evenodd;"
d="M 80.8395,136.6300
80.8319,136.6683
80.8102,136.7007
80.7778,136.7224
80.7395,136.7300
80.0395,136.7300
80.0012,136.7224
79.9688,136.7007
79.9471,136.6683
79.9395,136.6300
79.9395,135.9300
79.9471,135.8917
79.9688,135.8593
80.0012,135.8376
80.0395,135.8300
80.7395,135.8300
80.7778,135.8376
80.8102,135.8593
80.8319,135.8917
80.8395,135.9300
Z" /> 
<path style="fill:#000000; fill-opacity:1.0000; stroke:none;fill-rule:evenodd;"
d="M 80.8395,137.7300
80.8319,137.7683
80.8102,137.8007
80.7778,137.8224
80.7395,137.8300
80.0395,137.8300
80.0012,137.8224
79.9688,137.8007
79.9471,137.7683
79.9395,137.7300
79.9395,137.0300
79.9471,136.9917
79.9688,136.9593
80.0012,136.9376
80.0395,136.9300
80.7395,136.9300
80.7778,136.9376
80.8102,136.9593
80.8319,136.9917
80.8395,137.0300
Z" /> 
<path style="fill:#000000; fill-opacity:1.0000; stroke:none;fill-rule:evenodd;"
d="M 82.6695,137.7300
82.6619,137.7683
82.6402,137.8007
82.6078,137.8224
82.5695,137.8300
81.8695,137.8300
81.8312,137.8224
81.7988,137.8007
81.7771,137.7683
81.7695,137.7300
81.7695,137.0300
81.7771,136.9917
81.7988,136.9593
81.8312,136.9376
81.8695,136.9300
82.5695,136.9300
82.6078,136.9376
82.6402,136.9593
82.6619,136.9917
82.6695,137.0300
Z" /> 
<path style="fill:#000000; fill-opacity:1.0000; stroke:none;fill-rule:evenodd;"
d="M 82.6695,136.6300
82.6619,136.6683
82.6402,136.7007
82.6078,136.7224
82.5695,136.7300
81.8695,136.7300
81.8312,136.7224
81.7988,136.7007
81.7771,136.6683
81.7695,136.6300
81.7695,135.9300
81.7771,135.8917
81.7988,135.8593
81.8312,135.8376
81.8695,135.8300
82.5695,135.8300
82.6078,135.8376
82.6402,135.8593
82.6619,135.8917
82.6695,135.9300
Z" /> 
<path style="fill:#000000; fill-opacity:1.0000; stroke:none;fill-rule:evenodd;"
d="M 75.5345,127.8200
75.4962,127.8124
75.4638,127.7907
75.4421,127.7583
75.4345,127.7200
75.4345,127.0800
75.4421,127.0417
75.4638,127.0093
75.4962,126.9876
75.5345,126.9800
76.0745,126.9800
76.1128,126.9876
76.1452,127.0093
76.1669,127.0417
76.1745,127.0800
76.1745,127.7200
76.1669,127.7583
76.1452,127.7907
76.1128,127.8124
76.0745,127.8200
Z" /> 
<path style="fill:#000000; fill-opacity:1.0000; stroke:none;fill-rule:evenodd;"
d="M 76.5345,127.8200
76.4962,127.8124
76.4638,127.7907
76.4421,127.7583
76.4345,127.7200
76.4345,127.0800
76.4421,127.0417
76.4638,127.0093
76.4962,126.9876
76.5345,126.9800
77.0745,126.9800
77.1128,126.9876
77.1452,127.0093
77.1669,127.0417
77.1745,127.0800
77.1745,127.7200
77.1669,127.7583
77.1452,127.7907
77.1128,127.8124
77.0745,127.8200
Z" /> 
<path style="fill:#000000; fill-opacity:1.0000; stroke:none;fill-rule:evenodd;"
d="M 114.0878,139.8262
114.1203,139.8045
114.1585,139.7969
114.1968,139.8045
114.2292,139.8262
114.6959,140.2929
114.7176,140.3253
114.7252,140.3636
114.7176,140.4019
114.6959,140.4343
113.9888,141.1414
113.9564,141.1631
113.9181,141.1707
113.8798,141.1631
113.8474,141.1414
113.3807,140.6747
113.3590,140.6423
113.3514,140.6040
113.3590,140.5658
113.3807,140.5333
Z" /> 
<path style="fill:#000000; fill-opacity:1.0000; stroke:none;fill-rule:evenodd;"
d="M 115.1202,140.8586
115.1526,140.8369
115.1909,140.8293
115.2292,140.8369
115.2616,140.8586
115.7283,141.3253
115.7500,141.3577
115.7576,141.3960
115.7500,141.4342
115.7283,141.4667
115.0212,142.1738
114.9887,142.1955
114.9505,142.2031
114.9122,142.1955
114.8798,142.1738
114.4131,141.7071
114.3914,141.6747
114.3838,141.6364
114.3914,141.5981
114.4131,141.5657
Z" /> 
<path style="fill:#000000; fill-opacity:1.0000; stroke:none;fill-rule:evenodd;"
d="M 67.6045,142.8580
67.6428,142.8656
67.6752,142.8873
67.6969,142.9197
67.7045,142.9580
67.7045,143.9580
67.6969,143.9963
67.6752,144.0287
67.6428,144.0504
67.6045,144.0580
66.9645,144.0580
66.9262,144.0504
66.8938,144.0287
66.8721,143.9963
66.8645,143.9580
66.8645,142.9580
66.8721,142.9197
66.8938,142.8873
66.9262,142.8656
66.9645,142.8580
Z" /> 
<path style="fill:#000000; fill-opacity:1.0000; stroke:none;fill-rule:evenodd;"
d="M 66.0545,142.8580
66.0928,142.8656
66.1252,142.8873
66.1469,142.9197
66.1545,142.9580
66.1545,143.9580
66.1469,143.9963
66.1252,144.0287
66.0928,144.0504
66.0545,144.0580
65.4145,144.0580
65.3762,144.0504
65.3438,144.0287
65.3221,143.9963
65.3145,143.9580
65.3145,142.9580
65.3221,142.9197
65.3438,142.8873
65.3762,142.8656
65.4145,142.8580
Z" /> 
<path style="fill:#000000; fill-opacity:1.0000; stroke:none;fill-rule:evenodd;"
d="M 85.3495,144.6000
85.3878,144.6076
85.4202,144.6293
85.4419,144.6617
85.4495,144.7000
85.4495,145.7000
85.4419,145.7383
85.4202,145.7707
85.3878,145.7924
85.3495,145.8000
84.7095,145.8000
84.6712,145.7924
84.6388,145.7707
84.6171,145.7383
84.6095,145.7000
84.6095,144.7000
84.6171,144.6617
84.6388,144.6293
84.6712,144.6076
84.7095,144.6000
Z" /> 
<path style="fill:#000000; fill-opacity:1.0000; stroke:none;fill-rule:evenodd;"
d="M 83.7995,144.6000
83.8378,144.6076
83.8702,144.6293
83.8919,144.6617
83.8995,144.7000
83.8995,145.7000
83.8919,145.7383
83.8702,145.7707
83.8378,145.7924
83.7995,145.8000
83.1595,145.8000
83.1212,145.7924
83.0888,145.7707
83.0671,145.7383
83.0595,145.7000
83.0595,144.7000
83.0671,144.6617
83.0888,144.6293
83.1212,144.6076
83.1595,144.6000
Z" /> 
<path style="fill:#000000; fill-opacity:1.0000; stroke:none;fill-rule:evenodd;"
d="M 99.3395,135.3250
99.3778,135.3326
99.4102,135.3543
99.4319,135.3867
99.4395,135.4250
99.4395,136.4750
99.4319,136.5133
99.4102,136.5457
99.3778,136.5674
99.3395,136.5750
98.8595,136.5750
98.8212,136.5674
98.7888,136.5457
98.7671,136.5133
98.7595,136.4750
98.7595,135.4250
98.7671,135.3867
98.7888,135.3543
98.8212,135.3326
98.8595,135.3250
Z" /> 
<path style="fill:#000000; fill-opacity:1.0000; stroke:none;fill-rule:evenodd;"
d="M 98.0695,135.3250
98.1078,135.3326
98.1402,135.3543
98.1619,135.3867
98.1695,135.4250
98.1695,136.4750
98.1619,136.5133
98.1402,136.5457
98.1078,136.5674
98.0695,136.5750
97.5895,136.5750
97.5512,136.5674
97.5188,136.5457
97.4971,136.5133
97.4895,136.4750
97.4895,135.4250
97.4971,135.3867
97.5188,135.3543
97.5512,135.3326
97.5895,135.3250
Z" /> 
<path style="fill:#000000; fill-opacity:1.0000; stroke:none;fill-rule:evenodd;"
d="M 96.7995,135.3250
96.8378,135.3326
96.8702,135.3543
96.8919,135.3867
96.8995,135.4250
96.8995,136.4750
96.8919,136.5133
96.8702,136.5457
96.8378,136.5674
96.7995,136.5750
96.3195,136.5750
96.2812,136.5674
96.2488,136.5457
96.2271,136.5133
96.2195,136.4750
96.2195,135.4250
96.2271,135.3867
96.2488,135.3543
96.2812,135.3326
96.3195,135.3250
Z" /> 
<path style="fill:#000000; fill-opacity:1.0000; stroke:none;fill-rule:evenodd;"
d="M 95.5295,135.3250
95.5678,135.3326
95.6002,135.3543
95.6219,135.3867
95.6295,135.4250
95.6295,136.4750
95.6219,136.5133
95.6002,136.5457
95.5678,136.5674
95.5295,136.5750
95.0495,136.5750
95.0112,136.5674
94.9788,136.5457
94.9571,136.5133
94.9495,136.4750
94.9495,135.4250
94.9571,135.3867
94.9788,135.3543
95.0112,135.3326
95.0495,135.3250
Z" /> 
<path style="fill:#000000; fill-opacity:1.0000; stroke:none;fill-rule:evenodd;"
d="M 94.2595,135.3250
94.2978,135.3326
94.3302,135.3543
94.3519,135.3867
94.3595,135.4250
94.3595,136.4750
94.3519,136.5133
94.3302,136.5457
94.2978,136.5674
94.2595,136.5750
93.7795,136.5750
93.7412,136.5674
93.7088,136.5457
93.6871,136.5133
93.6795,136.4750
93.6795,135.4250
93.6871,135.3867
93.7088,135.3543
93.7412,135.3326
93.7795,135.3250
Z" /> 
<path style="fill:#000000; fill-opacity:1.0000; stroke:none;fill-rule:evenodd;"
d="M 92.9895,135.3250
93.0278,135.3326
93.0602,135.3543
93.0819,135.3867
93.0895,135.4250
93.0895,136.4750
93.0819,136.5133
93.0602,136.5457
93.0278,136.5674
92.9895,136.5750
92.5095,136.5750
92.4712,136.5674
92.4388,136.5457
92.4171,136.5133
92.4095,136.4750
92.4095,135.4250
92.4171,135.3867
92.4388,135.3543
92.4712,135.3326
92.5095,135.3250
Z" /> 
<path style="fill:#000000; fill-opacity:1.0000; stroke:none;fill-rule:evenodd;"
d="M 91.7195,135.3250
91.7578,135.3326
91.7902,135.3543
91.8119,135.3867
91.8195,135.4250
91.8195,136.4750
91.8119,136.5133
91.7902,136.5457
91.7578,136.5674
91.7195,136.5750
91.2395,136.5750
91.2012,136.5674
91.1688,136.5457
91.1471,136.5133
91.1395,136.4750
91.1395,135.4250
91.1471,135.3867
91.1688,135.3543
91.2012,135.3326
91.2395,135.3250
Z" /> 
<path style="fill:#000000; fill-opacity:1.0000; stroke:none;fill-rule:evenodd;"
d="M 90.4495,135.3250
90.4878,135.3326
90.5202,135.3543
90.5419,135.3867
90.5495,135.4250
90.5495,136.4750
90.5419,136.5133
90.5202,136.5457
90.4878,136.5674
90.4495,136.5750
89.9695,136.5750
89.9312,136.5674
89.8988,136.5457
89.8771,136.5133
89.8695,136.4750
89.8695,135.4250
89.8771,135.3867
89.8988,135.3543
89.9312,135.3326
89.9695,135.3250
Z" /> 
<path style="fill:#000000; fill-opacity:1.0000; stroke:none;fill-rule:evenodd;"
d="M 90.4495,141.2250
90.4878,141.2326
90.5202,141.2543
90.5419,141.2867
90.5495,141.3250
90.5495,142.3750
90.5419,142.4133
90.5202,142.4457
90.4878,142.4674
90.4495,142.4750
89.9695,142.4750
89.9312,142.4674
89.8988,142.4457
89.8771,142.4133
89.8695,142.3750
89.8695,141.3250
89.8771,141.2867
89.8988,141.2543
89.9312,141.2326
89.9695,141.2250
Z" /> 
<path style="fill:#000000; fill-opacity:1.0000; stroke:none;fill-rule:evenodd;"
d="M 91.7195,141.2250
91.7578,141.2326
91.7902,141.2543
91.8119,141.2867
91.8195,141.3250
91.8195,142.3750
91.8119,142.4133
91.7902,142.4457
91.7578,142.4674
91.7195,142.4750
91.2395,142.4750
91.2012,142.4674
91.1688,142.4457
91.1471,142.4133
91.1395,142.3750
91.1395,141.3250
91.1471,141.2867
91.1688,141.2543
91.2012,141.2326
91.2395,141.2250
Z" /> 
<path style="fill:#000000; fill-opacity:1.0000; stroke:none;fill-rule:evenodd;"
d="M 92.9895,141.2250
93.0278,141.2326
93.0602,141.2543
93.0819,141.2867
93.0895,141.3250
93.0895,142.3750
93.0819,142.4133
93.0602,142.4457
93.0278,142.4674
92.9895,142.4750
92.5095,142.4750
92.4712,142.4674
92.4388,142.4457
92.4171,142.4133
92.4095,142.3750
92.4095,141.3250
92.4171,141.2867
92.4388,141.2543
92.4712,141.2326
92.5095,141.2250
Z" /> 
<path style="fill:#000000; fill-opacity:1.0000; stroke:none;fill-rule:evenodd;"
d="M 94.2595,141.2250
94.2978,141.2326
94.3302,141.2543
94.3519,141.2867
94.3595,141.3250
94.3595,142.3750
94.3519,142.4133
94.3302,142.4457
94.2978,142.4674
94.2595,142.4750
93.7795,142.4750
93.7412,142.4674
93.7088,142.4457
93.6871,142.4133
93.6795,142.3750
93.6795,141.3250
93.6871,141.2867
93.7088,141.2543
93.7412,141.2326
93.7795,141.2250
Z" /> 
<path style="fill:#000000; fill-opacity:1.0000; stroke:none;fill-rule:evenodd;"
d="M 95.5295,141.2250
95.5678,141.2326
95.6002,141.2543
95.6219,141.2867
95.6295,141.3250
95.6295,142.3750
95.6219,142.4133
95.6002,142.4457
95.5678,142.4674
95.5295,142.4750
95.0495,142.4750
95.0112,142.4674
94.9788,142.4457
94.9571,142.4133
94.9495,142.3750
94.9495,141.3250
94.9571,141.2867
94.9788,141.2543
95.0112,141.2326
95.0495,141.2250
Z" /> 
<path style="fill:#000000; fill-opacity:1.0000; stroke:none;fill-rule:evenodd;"
d="M 96.7995,141.2250
96.8378,141.2326
96.8702,141.2543
96.8919,141.2867
96.8995,141.3250
96.8995,142.3750
96.8919,142.4133
96.8702,142.4457
96.8378,142.4674
96.7995,142.4750
96.3195,142.4750
96.2812,142.4674
96.2488,142.4457
96.2271,142.4133
96.2195,142.3750
96.2195,141.3250
96.2271,141.2867
96.2488,141.2543
96.2812,141.2326
96.3195,141.2250
Z" /> 
<path style="fill:#000000; fill-opacity:1.0000; stroke:none;fill-rule:evenodd;"
d="M 98.0695,141.2250
98.1078,141.2326
98.1402,141.2543
98.1619,141.2867
98.1695,141.3250
98.1695,142.3750
98.1619,142.4133
98.1402,142.4457
98.1078,142.4674
98.0695,142.4750
97.5895,142.4750
97.5512,142.4674
97.5188,142.4457
97.4971,142.4133
97.4895,142.3750
97.4895,141.3250
97.4971,141.2867
97.5188,141.2543
97.5512,141.2326
97.5895,141.2250
Z" /> 
<path style="fill:#000000; fill-opacity:1.0000; stroke:none;fill-rule:evenodd;"
d="M 99.3395,141.2250
99.3778,141.2326
99.4102,141.2543
99.4319,141.2867
99.4395,141.3250
99.4395,142.3750
99.4319,142.4133
99.4102,142.4457
99.3778,142.4674
99.3395,142.4750
98.8595,142.4750
98.8212,142.4674
98.7888,142.4457
98.7671,142.4133
98.7595,142.3750
98.7595,141.3250
98.7671,141.2867
98.7888,141.2543
98.8212,141.2326
98.8595,141.2250
Z" /> 
<path style="fill:#000000; fill-opacity:1.0000; stroke:none;fill-rule:evenodd;"
d="M 69.2045,128.5750
69.2121,128.5367
69.2338,128.5043
69.2662,128.4826
69.3045,128.4750
69.9045,128.4750
69.9428,128.4826
69.9752,128.5043
69.9969,128.5367
70.0045,128.5750
70.0045,130.1250
69.9969,130.1633
69.9752,130.1957
69.9428,130.2174
69.9045,130.2250
69.3045,130.2250
69.2662,130.2174
69.2338,130.1957
69.2121,130.1633
69.2045,130.1250
Z" /> 
<path style="fill:#000000; fill-opacity:1.0000; stroke:none;fill-rule:evenodd;"
d="M 70.2045,128.5750
70.2121,128.5367
70.2338,128.5043
70.2662,128.4826
70.3045,128.4750
70.9045,128.4750
70.9428,128.4826
70.9752,128.5043
70.9969,128.5367
71.0045,128.5750
71.0045,130.1250
70.9969,130.1633
70.9752,130.1957
70.9428,130.2174
70.9045,130.2250
70.3045,130.2250
70.2662,130.2174
70.2338,130.1957
70.2121,130.1633
70.2045,130.1250
Z" /> 
<path style="fill:#000000; fill-opacity:1.0000; stroke:none;fill-rule:evenodd;"
d="M 71.2045,128.5750
71.2121,128.5367
71.2338,128.5043
71.2662,128.4826
71.3045,128.4750
71.9045,128.4750
71.9428,128.4826
71.9752,128.5043
71.9969,128.5367
72.0045,128.5750
72.0045,130.1250
71.9969,130.1633
71.9752,130.1957
71.9428,130.2174
71.9045,130.2250
71.3045,130.2250
71.2662,130.2174
71.2338,130.1957
71.2121,130.1633
71.2045,130.1250
Z" /> 
<path style="fill:#000000; fill-opacity:1.0000; stroke:none;fill-rule:evenodd;"
d="M 72.2045,128.5750
72.2121,128.5367
72.2338,128.5043
72.2662,128.4826
72.3045,128.4750
72.9045,128.4750
72.9428,128.4826
72.9752,128.5043
72.9969,128.5367
73.0045,128.5750
73.0045,130.1250
72.9969,130.1633
72.9752,130.1957
72.9428,130.2174
72.9045,130.2250
72.3045,130.2250
72.2662,130.2174
72.2338,130.1957
72.2121,130.1633
72.2045,130.1250
Z" /> 
<path style="fill:#000000; fill-opacity:1.0000; stroke:none;fill-rule:evenodd;"
d="M 67.8045,124.1500
67.8121,124.1117
67.8338,124.0793
67.8662,124.0576
67.9045,124.0500
69.1045,124.0500
69.1428,124.0576
69.1752,124.0793
69.1969,124.1117
69.2045,124.1500
69.2045,125.9500
69.1969,125.9883
69.1752,126.0207
69.1428,126.0424
69.1045,126.0500
67.9045,126.0500
67.8662,126.0424
67.8338,126.0207
67.8121,125.9883
67.8045,125.9500
Z" /> 
<path style="fill:#000000; fill-opacity:1.0000; stroke:none;fill-rule:evenodd;"
d="M 73.0045,124.1500
73.0121,124.1117
73.0338,124.0793
73.0662,124.0576
73.1045,124.0500
74.3045,124.0500
74.3428,124.0576
74.3752,124.0793
74.3969,124.1117
74.4045,124.1500
74.4045,125.9500
74.3969,125.9883
74.3752,126.0207
74.3428,126.0424
74.3045,126.0500
73.1045,126.0500
73.0662,126.0424
73.0338,126.0207
73.0121,125.9883
73.0045,125.9500
Z" /> 
<path style="fill:#000000; fill-opacity:1.0000; stroke:none;fill-rule:evenodd;"
d="M 80.5295,149.1750
80.4912,149.1674
80.4588,149.1457
80.4371,149.1133
80.4295,149.0750
80.4295,148.3250
80.4371,148.2867
80.4588,148.2543
80.4912,148.2326
80.5295,148.2250
80.9795,148.2250
81.0178,148.2326
81.0502,148.2543
81.0719,148.2867
81.0795,148.3250
81.0795,149.0750
81.0719,149.1133
81.0502,149.1457
81.0178,149.1674
80.9795,149.1750
Z" /> 
<path style="fill:#000000; fill-opacity:1.0000; stroke:none;fill-rule:evenodd;"
d="M 81.6295,149.1750
81.5912,149.1674
81.5588,149.1457
81.5371,149.1133
81.5295,149.0750
81.5295,148.3250
81.5371,148.2867
81.5588,148.2543
81.5912,148.2326
81.6295,148.2250
82.0795,148.2250
82.1178,148.2326
82.1502,148.2543
82.1719,148.2867
82.1795,148.3250
82.1795,149.0750
82.1719,149.1133
82.1502,149.1457
82.1178,149.1674
82.0795,149.1750
Z" /> 
<path style="fill:#000000; fill-opacity:1.0000; stroke:none;fill-rule:evenodd;"
d="M 83.5345,146.7000
83.4962,146.6924
83.4638,146.6707
83.4421,146.6383
83.4345,146.6000
83.4345,146.3000
83.4421,146.2617
83.4638,146.2293
83.4962,146.2076
83.5345,146.2000
84.1945,146.2000
84.2328,146.2076
84.2652,146.2293
84.2869,146.2617
84.2945,146.3000
84.2945,146.6000
84.2869,146.6383
84.2652,146.6707
84.2328,146.6924
84.1945,146.7000
Z" /> 
<path style="fill:#000000; fill-opacity:1.0000; stroke:none;fill-rule:evenodd;"
d="M 83.5345,147.3500
83.4962,147.3424
83.4638,147.3207
83.4421,147.2883
83.4345,147.2500
83.4345,146.9500
83.4421,146.9117
83.4638,146.8793
83.4962,146.8576
83.5345,146.8500
84.1945,146.8500
84.2328,146.8576
84.2652,146.8793
84.2869,146.9117
84.2945,146.9500
84.2945,147.2500
84.2869,147.2883
84.2652,147.3207
84.2328,147.3424
84.1945,147.3500
Z" /> 
<path style="fill:#000000; fill-opacity:1.0000; stroke:none;fill-rule:evenodd;"
d="M 83.5345,148.0000
83.4962,147.9924
83.4638,147.9707
83.4421,147.9383
83.4345,147.9000
83.4345,147.6000
83.4421,147.5617
83.4638,147.5293
83.4962,147.5076
83.5345,147.5000
84.1945,147.5000
84.2328,147.5076
84.2652,147.5293
84.2869,147.5617
84.2945,147.6000
84.2945,147.9000
84.2869,147.9383
84.2652,147.9707
84.2328,147.9924
84.1945,148.0000
Z" /> 
<path style="fill:#000000; fill-opacity:1.0000; stroke:none;fill-rule:evenodd;"
d="M 85.3745,148.0000
85.3362,147.9924
85.3038,147.9707
85.2821,147.9383
85.2745,147.9000
85.2745,147.6000
85.2821,147.5617
85.3038,147.5293
85.3362,147.5076
85.3745,147.5000
86.0345,147.5000
86.0728,147.5076
86.1052,147.5293
86.1269,147.5617
86.1345,147.6000
86.1345,147.9000
86.1269,147.9383
86.1052,147.9707
86.0728,147.9924
86.0345,148.0000
Z" /> 
<path style="fill:#000000; fill-opacity:1.0000; stroke:none;fill-rule:evenodd;"
d="M 85.3745,147.3500
85.3362,147.3424
85.3038,147.3207
85.2821,147.2883
85.2745,147.2500
85.2745,146.9500
85.2821,146.9117
85.3038,146.8793
85.3362,146.8576
85.3745,146.8500
86.0345,146.8500
86.0728,146.8576
86.1052,146.8793
86.1269,146.9117
86.1345,146.9500
86.1345,147.2500
86.1269,147.2883
86.1052,147.3207
86.0728,147.3424
86.0345,147.3500
Z" /> 
<path style="fill:#000000; fill-opacity:1.0000; stroke:none;fill-rule:evenodd;"
d="M 85.3745,146.7000
85.3362,146.6924
85.3038,146.6707
85.2821,146.6383
85.2745,146.6000
85.2745,146.3000
85.2821,146.2617
85.3038,146.2293
85.3362,146.2076
85.3745,146.2000
86.0345,146.2000
86.0728,146.2076
86.1052,146.2293
86.1269,146.2617
86.1345,146.3000
86.1345,146.6000
86.1269,146.6383
86.1052,146.6707
86.0728,146.6924
86.0345,146.7000
Z" /> 
<path style="fill:#000000; fill-opacity:1.0000; stroke:none;fill-rule:evenodd;"
d="M 75.1545,147.7500
75.1469,147.7883
75.1252,147.8207
75.0928,147.8424
75.0545,147.8500
74.4545,147.8500
74.4162,147.8424
74.3838,147.8207
74.3621,147.7883
74.3545,147.7500
74.3545,146.7500
74.3621,146.7117
74.3838,146.6793
74.4162,146.6576
74.4545,146.6500
75.0545,146.6500
75.0928,146.6576
75.1252,146.6793
75.1469,146.7117
75.1545,146.7500
Z" /> 
<path style="fill:#000000; fill-opacity:1.0000; stroke:none;fill-rule:evenodd;"
d="M 77.0545,147.7500
77.0469,147.7883
77.0252,147.8207
76.9928,147.8424
76.9545,147.8500
76.3545,147.8500
76.3162,147.8424
76.2838,147.8207
76.2621,147.7883
76.2545,147.7500
76.2545,146.7500
76.2621,146.7117
76.2838,146.6793
76.3162,146.6576
76.3545,146.6500
76.9545,146.6500
76.9928,146.6576
77.0252,146.6793
77.0469,146.7117
77.0545,146.7500
Z" /> 
<path style="fill:#000000; fill-opacity:1.0000; stroke:none;fill-rule:evenodd;"
d="M 76.1045,145.3500
76.0969,145.3883
76.0752,145.4207
76.0428,145.4424
76.0045,145.4500
75.4045,145.4500
75.3662,145.4424
75.3338,145.4207
75.3121,145.3883
75.3045,145.3500
75.3045,144.3500
75.3121,144.3117
75.3338,144.2793
75.3662,144.2576
75.4045,144.2500
76.0045,144.2500
76.0428,144.2576
76.0752,144.2793
76.0969,144.3117
76.1045,144.3500
Z" /> 
<path style="fill:#000000; fill-opacity:1.0000; stroke:none;fill-rule:evenodd;"
d="M 92.2785,130.5185
92.3168,130.5261
92.3492,130.5478
92.3709,130.5802
92.3785,130.6185
92.3785,131.2785
92.3709,131.3168
92.3492,131.3492
92.3168,131.3709
92.2785,131.3785
91.2785,131.3785
91.2402,131.3709
91.2078,131.3492
91.1861,131.3168
91.1785,131.2785
91.1785,130.6185
91.1861,130.5802
91.2078,130.5478
91.2402,130.5261
91.2785,130.5185
Z" /> 
<path style="fill:#000000; fill-opacity:1.0000; stroke:none;fill-rule:evenodd;"
d="M 92.2785,131.9785
92.3168,131.9861
92.3492,132.0078
92.3709,132.0402
92.3785,132.0785
92.3785,132.7385
92.3709,132.7768
92.3492,132.8092
92.3168,132.8309
92.2785,132.8385
91.2785,132.8385
91.2402,132.8309
91.2078,132.8092
91.1861,132.7768
91.1785,132.7385
91.1785,132.0785
91.1861,132.0402
91.2078,132.0078
91.2402,131.9861
91.2785,131.9785
Z" /> 
<path style="fill:#000000; fill-opacity:1.0000; stroke:none;fill-rule:evenodd;"
d="M 66.3795,129.5750
66.3871,129.5367
66.4088,129.5043
66.4412,129.4826
66.4795,129.4750
67.2295,129.4750
67.2678,129.4826
67.3002,129.5043
67.3219,129.5367
67.3295,129.5750
67.3295,130.0250
67.3219,130.0633
67.3002,130.0957
67.2678,130.1174
67.2295,130.1250
66.4795,130.1250
66.4412,130.1174
66.4088,130.0957
66.3871,130.0633
66.3795,130.0250
Z" /> 
<path style="fill:#000000; fill-opacity:1.0000; stroke:none;fill-rule:evenodd;"
d="M 66.3795,130.6750
66.3871,130.6367
66.4088,130.6043
66.4412,130.5826
66.4795,130.5750
67.2295,130.5750
67.2678,130.5826
67.3002,130.6043
67.3219,130.6367
67.3295,130.6750
67.3295,131.1250
67.3219,131.1633
67.3002,131.1957
67.2678,131.2174
67.2295,131.2250
66.4795,131.2250
66.4412,131.2174
66.4088,131.1957
66.3871,131.1633
66.3795,131.1250
Z" /> 
<path style="fill:#000000; fill-opacity:1.0000; stroke:none;fill-rule:evenodd;"
d="M 124.0699,135.4865
124.0916,135.5189
124.0992,135.5572
124.0916,135.5955
124.0699,135.6279
123.0093,136.6886
122.9768,136.7103
122.9386,136.7179
122.9003,136.7103
122.8679,136.6886
122.6557,136.4764
122.6340,136.4440
122.6264,136.4057
122.6340,136.3675
122.6557,136.3350
123.7164,135.2744
123.7488,135.2527
123.7871,135.2451
123.8254,135.2527
123.8578,135.2744
Z" /> 
<path style="fill:#000000; fill-opacity:1.0000; stroke:none;fill-rule:evenodd;"
d="M 123.5042,134.9208
123.5259,134.9533
123.5335,134.9915
123.5259,135.0298
123.5042,135.0622
122.4436,136.1229
122.4111,136.1446
122.3729,136.1522
122.3346,136.1446
122.3022,136.1229
122.0900,135.9108
122.0684,135.8783
122.0607,135.8400
122.0684,135.8018
122.0900,135.7693
123.1507,134.7087
123.1831,134.6870
123.2214,134.6794
123.2597,134.6870
123.2921,134.7087
Z" /> 
<path style="fill:#000000; fill-opacity:1.0000; stroke:none;fill-rule:evenodd;"
d="M 122.9386,134.3551
122.9602,134.3876
122.9679,134.4258
122.9602,134.4641
122.9386,134.4965
121.8779,135.5572
121.8455,135.5789
121.8072,135.5865
121.7689,135.5789
121.7365,135.5572
121.5243,135.3451
121.5027,135.3126
121.4951,135.2744
121.5027,135.2361
121.5243,135.2037
122.5850,134.1430
122.6174,134.1213
122.6557,134.1137
122.6940,134.1213
122.7264,134.1430
Z" /> 
<path style="fill:#000000; fill-opacity:1.0000; stroke:none;fill-rule:evenodd;"
d="M 122.3729,133.7894
122.3946,133.8219
122.4022,133.8602
122.3946,133.8984
122.3729,133.9309
121.3122,134.9915
121.2798,135.0132
121.2415,135.0208
121.2032,135.0132
121.1708,134.9915
120.9587,134.7794
120.9370,134.7469
120.9294,134.7087
120.9370,134.6704
120.9587,134.6380
122.0193,133.5773
122.0518,133.5556
122.0900,133.5480
122.1283,133.5556
122.1607,133.5773
Z" /> 
<path style="fill:#000000; fill-opacity:1.0000; stroke:none;fill-rule:evenodd;"
d="M 121.8072,133.2238
121.8289,133.2562
121.8365,133.2945
121.8289,133.3327
121.8072,133.3652
120.7465,134.4258
120.7141,134.4475
120.6758,134.4551
120.6376,134.4475
120.6051,134.4258
120.3930,134.2137
120.3713,134.1813
120.3637,134.1430
120.3713,134.1047
120.3930,134.0723
121.4536,133.0116
121.4861,132.9899
121.5243,132.9823
121.5626,132.9899
121.5951,133.0116
Z" /> 
<path style="fill:#000000; fill-opacity:1.0000; stroke:none;fill-rule:evenodd;"
d="M 121.2415,132.6581
121.2632,132.6905
121.2708,132.7288
121.2632,132.7670
121.2415,132.7995
120.1808,133.8602
120.1484,133.8818
120.1101,133.8894
120.0719,133.8818
120.0394,133.8602
119.8273,133.6480
119.8056,133.6156
119.7980,133.5773
119.8056,133.5390
119.8273,133.5066
120.8880,132.4459
120.9204,132.4243
120.9587,132.4166
120.9969,132.4243
121.0294,132.4459
Z" /> 
<path style="fill:#000000; fill-opacity:1.0000; stroke:none;fill-rule:evenodd;"
d="M 120.6758,132.0924
120.6975,132.1248
120.7051,132.1631
120.6975,132.2014
120.6758,132.2338
119.6152,133.2945
119.5827,133.3161
119.5444,133.3238
119.5062,133.3161
119.4737,133.2945
119.2616,133.0823
119.2399,133.0499
119.2323,133.0116
119.2399,132.9734
119.2616,132.9409
120.3223,131.8803
120.3547,131.8586
120.3930,131.8510
120.4312,131.8586
120.4637,131.8803
Z" /> 
<path style="fill:#000000; fill-opacity:1.0000; stroke:none;fill-rule:evenodd;"
d="M 120.1101,131.5267
120.1318,131.5591
120.1394,131.5974
120.1318,131.6357
120.1101,131.6681
119.0495,132.7288
119.0170,132.7505
118.9788,132.7581
118.9405,132.7505
118.9081,132.7288
118.6959,132.5166
118.6742,132.4842
118.6666,132.4459
118.6742,132.4077
118.6959,132.3752
119.7566,131.3146
119.7890,131.2929
119.8273,131.2853
119.8656,131.2929
119.8980,131.3146
Z" /> 
<path style="fill:#000000; fill-opacity:1.0000; stroke:none;fill-rule:evenodd;"
d="M 117.2110,131.3146
117.2434,131.2929
117.2817,131.2853
117.3200,131.2929
117.3524,131.3146
118.4131,132.3752
118.4348,132.4077
118.4424,132.4459
118.4348,132.4842
118.4131,132.5166
118.2009,132.7288
118.1685,132.7505
118.1302,132.7581
118.0920,132.7505
118.0595,132.7288
116.9989,131.6681
116.9772,131.6357
116.9696,131.5974
116.9772,131.5591
116.9989,131.5267
Z" /> 
<path style="fill:#000000; fill-opacity:1.0000; stroke:none;fill-rule:evenodd;"
d="M 116.6453,131.8803
116.6778,131.8586
116.7160,131.8510
116.7543,131.8586
116.7867,131.8803
117.8474,132.9409
117.8691,132.9734
117.8767,133.0116
117.8691,133.0499
117.8474,133.0823
117.6353,133.2945
117.6028,133.3161
117.5645,133.3238
117.5263,133.3161
117.4938,133.2945
116.4332,132.2338
116.4115,132.2014
116.4039,132.1631
116.4115,132.1248
116.4332,132.0924
Z" /> 
<path style="fill:#000000; fill-opacity:1.0000; stroke:none;fill-rule:evenodd;"
d="M 116.0796,132.4459
116.1121,132.4243
116.1503,132.4166
116.1886,132.4243
116.2210,132.4459
117.2817,133.5066
117.3034,133.5390
117.3110,133.5773
117.3034,133.6156
117.2817,133.6480
117.0696,133.8602
117.0371,133.8818
116.9989,133.8894
116.9606,133.8818
116.9282,133.8602
115.8675,132.7995
115.8458,132.7670
115.8382,132.7288
115.8458,132.6905
115.8675,132.6581
Z" /> 
<path style="fill:#000000; fill-opacity:1.0000; stroke:none;fill-rule:evenodd;"
d="M 115.5139,133.0116
115.5464,132.9899
115.5847,132.9823
115.6229,132.9899
115.6554,133.0116
116.7160,134.0723
116.7377,134.1047
116.7453,134.1430
116.7377,134.1813
116.7160,134.2137
116.5039,134.4258
116.4714,134.4475
116.4332,134.4551
116.3949,134.4475
116.3625,134.4258
115.3018,133.3652
115.2801,133.3327
115.2725,133.2945
115.2801,133.2562
115.3018,133.2238
Z" /> 
<path style="fill:#000000; fill-opacity:1.0000; stroke:none;fill-rule:evenodd;"
d="M 114.9483,133.5773
114.9807,133.5556
115.0190,133.5480
115.0572,133.5556
115.0897,133.5773
116.1503,134.6380
116.1720,134.6704
116.1796,134.7087
116.1720,134.7469
116.1503,134.7794
115.9382,134.9915
115.9058,135.0132
115.8675,135.0208
115.8292,135.0132
115.7968,134.9915
114.7361,133.9309
114.7144,133.8984
114.7068,133.8602
114.7144,133.8219
114.7361,133.7894
Z" /> 
<path style="fill:#000000; fill-opacity:1.0000; stroke:none;fill-rule:evenodd;"
d="M 114.3826,134.1430
114.4150,134.1213
114.4533,134.1137
114.4915,134.1213
114.5240,134.1430
115.5847,135.2037
115.6063,135.2361
115.6139,135.2744
115.6063,135.3126
115.5847,135.3451
115.3725,135.5572
115.3401,135.5789
115.3018,135.5865
115.2635,135.5789
115.2311,135.5572
114.1704,134.4965
114.1488,134.4641
114.1411,134.4258
114.1488,134.3876
114.1704,134.3551
Z" /> 
<path style="fill:#000000; fill-opacity:1.0000; stroke:none;fill-rule:evenodd;"
d="M 113.8169,134.7087
113.8493,134.6870
113.8876,134.6794
113.9259,134.6870
113.9583,134.7087
115.0190,135.7693
115.0406,135.8018
115.0483,135.8400
115.0406,135.8783
115.0190,135.9108
114.8068,136.1229
114.7744,136.1446
114.7361,136.1522
114.6979,136.1446
114.6654,136.1229
113.6048,135.0622
113.5831,135.0298
113.5755,134.9915
113.5831,134.9533
113.6048,134.9208
Z" /> 
<path style="fill:#000000; fill-opacity:1.0000; stroke:none;fill-rule:evenodd;"
d="M 113.2512,135.2744
113.2836,135.2527
113.3219,135.2451
113.3602,135.2527
113.3926,135.2744
114.4533,136.3350
114.4750,136.3675
114.4826,136.4057
114.4750,136.4440
114.4533,136.4764
114.2411,136.6886
114.2087,136.7103
114.1704,136.7179
114.1322,136.7103
114.0997,136.6886
113.0391,135.6279
113.0174,135.5955
113.0098,135.5572
113.0174,135.5189
113.0391,135.4865
Z" /> 
<path style="fill:#000000; fill-opacity:1.0000; stroke:none;fill-rule:evenodd;"
d="M 114.4533,137.1836
114.4750,137.2160
114.4826,137.2543
114.4750,137.2925
114.4533,137.3250
113.3926,138.3856
113.3602,138.4073
113.3219,138.4149
113.2836,138.4073
113.2512,138.3856
113.0391,138.1735
113.0174,138.1411
113.0098,138.1028
113.0174,138.0645
113.0391,138.0321
114.0997,136.9714
114.1322,136.9497
114.1704,136.9421
114.2087,136.9497
114.2411,136.9714
Z" /> 
<path style="fill:#000000; fill-opacity:1.0000; stroke:none;fill-rule:evenodd;"
d="M 115.0190,137.7492
115.0406,137.7817
115.0483,137.8200
115.0406,137.8582
115.0190,137.8907
113.9583,138.9513
113.9259,138.9730
113.8876,138.9806
113.8493,138.9730
113.8169,138.9513
113.6048,138.7392
113.5831,138.7067
113.5755,138.6685
113.5831,138.6302
113.6048,138.5978
114.6654,137.5371
114.6979,137.5154
114.7361,137.5078
114.7744,137.5154
114.8068,137.5371
Z" /> 
<path style="fill:#000000; fill-opacity:1.0000; stroke:none;fill-rule:evenodd;"
d="M 115.5847,138.3149
115.6063,138.3474
115.6139,138.3856
115.6063,138.4239
115.5847,138.4563
114.5240,139.5170
114.4915,139.5387
114.4533,139.5463
114.4150,139.5387
114.3826,139.5170
114.1704,139.3049
114.1488,139.2724
114.1411,139.2342
114.1488,139.1959
114.1704,139.1635
115.2311,138.1028
115.2635,138.0811
115.3018,138.0735
115.3401,138.0811
115.3725,138.1028
Z" /> 
<path style="fill:#000000; fill-opacity:1.0000; stroke:none;fill-rule:evenodd;"
d="M 116.1503,138.8806
116.1720,138.9131
116.1796,138.9513
116.1720,138.9896
116.1503,139.0220
115.0897,140.0827
115.0572,140.1044
115.0190,140.1120
114.9807,140.1044
114.9483,140.0827
114.7361,139.8706
114.7144,139.8381
114.7068,139.7998
114.7144,139.7616
114.7361,139.7291
115.7968,138.6685
115.8292,138.6468
115.8675,138.6392
115.9058,138.6468
115.9382,138.6685
Z" /> 
<path style="fill:#000000; fill-opacity:1.0000; stroke:none;fill-rule:evenodd;"
d="M 116.7160,139.4463
116.7377,139.4787
116.7453,139.5170
116.7377,139.5553
116.7160,139.5877
115.6554,140.6484
115.6229,140.6701
115.5847,140.6777
115.5464,140.6701
115.5139,140.6484
115.3018,140.4362
115.2801,140.4038
115.2725,140.3655
115.2801,140.3273
115.3018,140.2948
116.3625,139.2342
116.3949,139.2125
116.4332,139.2049
116.4714,139.2125
116.5039,139.2342
Z" /> 
<path style="fill:#000000; fill-opacity:1.0000; stroke:none;fill-rule:evenodd;"
d="M 117.2817,140.0120
117.3034,140.0444
117.3110,140.0827
117.3034,140.1210
117.2817,140.1534
116.2210,141.2141
116.1886,141.2357
116.1503,141.2434
116.1121,141.2357
116.0796,141.2141
115.8675,141.0019
115.8458,140.9695
115.8382,140.9312
115.8458,140.8929
115.8675,140.8605
116.9282,139.7998
116.9606,139.7782
116.9989,139.7706
117.0371,139.7782
117.0696,139.7998
Z" /> 
<path style="fill:#000000; fill-opacity:1.0000; stroke:none;fill-rule:evenodd;"
d="M 117.8474,140.5777
117.8691,140.6101
117.8767,140.6484
117.8691,140.6866
117.8474,140.7191
116.7867,141.7797
116.7543,141.8014
116.7160,141.8090
116.6778,141.8014
116.6453,141.7797
116.4332,141.5676
116.4115,141.5352
116.4039,141.4969
116.4115,141.4586
116.4332,141.4262
117.4938,140.3655
117.5263,140.3439
117.5645,140.3362
117.6028,140.3439
117.6353,140.3655
Z" /> 
<path style="fill:#000000; fill-opacity:1.0000; stroke:none;fill-rule:evenodd;"
d="M 118.4131,141.1434
118.4348,141.1758
118.4424,141.2141
118.4348,141.2523
118.4131,141.2848
117.3524,142.3454
117.3200,142.3671
117.2817,142.3747
117.2434,142.3671
117.2110,142.3454
116.9989,142.1333
116.9772,142.1009
116.9696,142.0626
116.9772,142.0243
116.9989,141.9919
118.0595,140.9312
118.0920,140.9095
118.1302,140.9019
118.1685,140.9095
118.2009,140.9312
Z" /> 
<path style="fill:#000000; fill-opacity:1.0000; stroke:none;fill-rule:evenodd;"
d="M 118.9081,140.9312
118.9405,140.9095
118.9788,140.9019
119.0170,140.9095
119.0495,140.9312
120.1101,141.9919
120.1318,142.0243
120.1394,142.0626
120.1318,142.1009
120.1101,142.1333
119.8980,142.3454
119.8656,142.3671
119.8273,142.3747
119.7890,142.3671
119.7566,142.3454
118.6959,141.2848
118.6742,141.2523
118.6666,141.2141
118.6742,141.1758
118.6959,141.1434
Z" /> 
<path style="fill:#000000; fill-opacity:1.0000; stroke:none;fill-rule:evenodd;"
d="M 119.4737,140.3655
119.5062,140.3439
119.5444,140.3362
119.5827,140.3439
119.6152,140.3655
120.6758,141.4262
120.6975,141.4586
120.7051,141.4969
120.6975,141.5352
120.6758,141.5676
120.4637,141.7797
120.4312,141.8014
120.3930,141.8090
120.3547,141.8014
120.3223,141.7797
119.2616,140.7191
119.2399,140.6866
119.2323,140.6484
119.2399,140.6101
119.2616,140.5777
Z" /> 
<path style="fill:#000000; fill-opacity:1.0000; stroke:none;fill-rule:evenodd;"
d="M 120.0394,139.7998
120.0719,139.7782
120.1101,139.7706
120.1484,139.7782
120.1808,139.7998
121.2415,140.8605
121.2632,140.8929
121.2708,140.9312
121.2632,140.9695
121.2415,141.0019
121.0294,141.2141
120.9969,141.2357
120.9587,141.2434
120.9204,141.2357
120.8880,141.2141
119.8273,140.1534
119.8056,140.1210
119.7980,140.0827
119.8056,140.0444
119.8273,140.0120
Z" /> 
<path style="fill:#000000; fill-opacity:1.0000; stroke:none;fill-rule:evenodd;"
d="M 120.6051,139.2342
120.6376,139.2125
120.6758,139.2049
120.7141,139.2125
120.7465,139.2342
121.8072,140.2948
121.8289,140.3273
121.8365,140.3655
121.8289,140.4038
121.8072,140.4362
121.5951,140.6484
121.5626,140.6701
121.5243,140.6777
121.4861,140.6701
121.4536,140.6484
120.3930,139.5877
120.3713,139.5553
120.3637,139.5170
120.3713,139.4787
120.3930,139.4463
Z" /> 
<path style="fill:#000000; fill-opacity:1.0000; stroke:none;fill-rule:evenodd;"
d="M 121.1708,138.6685
121.2032,138.6468
121.2415,138.6392
121.2798,138.6468
121.3122,138.6685
122.3729,139.7291
122.3946,139.7616
122.4022,139.7998
122.3946,139.8381
122.3729,139.8706
122.1607,140.0827
122.1283,140.1044
122.0900,140.1120
122.0518,140.1044
122.0193,140.0827
120.9587,139.0220
120.9370,138.9896
120.9294,138.9513
120.9370,138.9131
120.9587,138.8806
Z" /> 
<path style="fill:#000000; fill-opacity:1.0000; stroke:none;fill-rule:evenodd;"
d="M 121.7365,138.1028
121.7689,138.0811
121.8072,138.0735
121.8455,138.0811
121.8779,138.1028
122.9386,139.1635
122.9602,139.1959
122.9679,139.2342
122.9602,139.2724
122.9386,139.3049
122.7264,139.5170
122.6940,139.5387
122.6557,139.5463
122.6174,139.5387
122.5850,139.5170
121.5243,138.4563
121.5027,138.4239
121.4951,138.3856
121.5027,138.3474
121.5243,138.3149
Z" /> 
<path style="fill:#000000; fill-opacity:1.0000; stroke:none;fill-rule:evenodd;"
d="M 122.3022,137.5371
122.3346,137.5154
122.3729,137.5078
122.4111,137.5154
122.4436,137.5371
123.5042,138.5978
123.5259,138.6302
123.5335,138.6685
123.5259,138.7067
123.5042,138.7392
123.2921,138.9513
123.2597,138.9730
123.2214,138.9806
123.1831,138.9730
123.1507,138.9513
122.0900,137.8907
122.0684,137.8582
122.0607,137.8200
122.0684,137.7817
122.0900,137.7492
Z" /> 
<path style="fill:#000000; fill-opacity:1.0000; stroke:none;fill-rule:evenodd;"
d="M 122.8679,136.9714
122.9003,136.9497
122.9386,136.9421
122.9768,136.9497
123.0093,136.9714
124.0699,138.0321
124.0916,138.0645
124.0992,138.1028
124.0916,138.1411
124.0699,138.1735
123.8578,138.3856
123.8254,138.4073
123.7871,138.4149
123.7488,138.4073
123.7164,138.3856
122.6557,137.3250
122.6340,137.2925
122.6264,137.2543
122.6340,137.2160
122.6557,137.1836
Z" /> 
<path style="fill:#000000; fill-opacity:1.0000; stroke:none;fill-rule:evenodd;"
d="M 73.8045,149.1450
73.7969,149.1833
73.7752,149.2157
73.7428,149.2374
73.7045,149.2450
72.7045,149.2450
72.6662,149.2374
72.6338,149.2157
72.6121,149.1833
72.6045,149.1450
72.6045,148.5050
72.6121,148.4667
72.6338,148.4343
72.6662,148.4126
72.7045,148.4050
73.7045,148.4050
73.7428,148.4126
73.7752,148.4343
73.7969,148.4667
73.8045,148.5050
Z" /> 
<path style="fill:#000000; fill-opacity:1.0000; stroke:none;fill-rule:evenodd;"
d="M 73.8045,147.5950
73.7969,147.6333
73.7752,147.6657
73.7428,147.6874
73.7045,147.6950
72.7045,147.6950
72.6662,147.6874
72.6338,147.6657
72.6121,147.6333
72.6045,147.5950
72.6045,146.9550
72.6121,146.9167
72.6338,146.8843
72.6662,146.8626
72.7045,146.8550
73.7045,146.8550
73.7428,146.8626
73.7752,146.8843
73.7969,146.9167
73.8045,146.9550
Z" /> 
<path style="fill:#000000; fill-opacity:1.0000; stroke:none;fill-rule:evenodd;"
d="M 106.4720,131.9075
106.4337,131.8999
106.4013,131.8782
106.3796,131.8458
106.3720,131.8075
106.3720,131.1675
106.3796,131.1292
106.4013,131.0968
106.4337,131.0751
106.4720,131.0675
107.0120,131.0675
107.0503,131.0751
107.0827,131.0968
107.1044,131.1292
107.1120,131.1675
107.1120,131.8075
107.1044,131.8458
107.0827,131.8782
107.0503,131.8999
107.0120,131.9075
Z" /> 
<path style="fill:#000000; fill-opacity:1.0000; stroke:none;fill-rule:evenodd;"
d="M 107.4720,131.9075
107.4337,131.8999
107.4013,131.8782
107.3796,131.8458
107.3720,131.8075
107.3720,131.1675
107.3796,131.1292
107.4013,131.0968
107.4337,131.0751
107.4720,131.0675
108.0120,131.0675
108.0503,131.0751
108.0827,131.0968
108.1044,131.1292
108.1120,131.1675
108.1120,131.8075
108.1044,131.8458
108.0827,131.8782
108.0503,131.8999
108.0120,131.9075
Z" /> 
<path style="fill:#000000; fill-opacity:1.0000; stroke:none;fill-rule:evenodd;"
d="M 85.3495,148.3500
85.3878,148.3576
85.4202,148.3793
85.4419,148.4117
85.4495,148.4500
85.4495,149.4500
85.4419,149.4883
85.4202,149.5207
85.3878,149.5424
85.3495,149.5500
84.7095,149.5500
84.6712,149.5424
84.6388,149.5207
84.6171,149.4883
84.6095,149.4500
84.6095,148.4500
84.6171,148.4117
84.6388,148.3793
84.6712,148.3576
84.7095,148.3500
Z" /> 
<path style="fill:#000000; fill-opacity:1.0000; stroke:none;fill-rule:evenodd;"
d="M 83.7995,148.3500
83.8378,148.3576
83.8702,148.3793
83.8919,148.4117
83.8995,148.4500
83.8995,149.4500
83.8919,149.4883
83.8702,149.5207
83.8378,149.5424
83.7995,149.5500
83.1595,149.5500
83.1212,149.5424
83.0888,149.5207
83.0671,149.4883
83.0595,149.4500
83.0595,148.4500
83.0671,148.4117
83.0888,148.3793
83.1212,148.3576
83.1595,148.3500
Z" /> 
<path style="fill:#000000; fill-opacity:1.0000; stroke:none;fill-rule:evenodd;"
d="M 75.5295,126.5750
75.4912,126.5674
75.4588,126.5457
75.4371,126.5133
75.4295,126.4750
75.4295,125.7250
75.4371,125.6867
75.4588,125.6543
75.4912,125.6326
75.5295,125.6250
75.9795,125.6250
76.0178,125.6326
76.0502,125.6543
76.0719,125.6867
76.0795,125.7250
76.0795,126.4750
76.0719,126.5133
76.0502,126.5457
76.0178,126.5674
75.9795,126.5750
Z" /> 
<path style="fill:#000000; fill-opacity:1.0000; stroke:none;fill-rule:evenodd;"
d="M 76.6295,126.5750
76.5912,126.5674
76.5588,126.5457
76.5371,126.5133
76.5295,126.4750
76.5295,125.7250
76.5371,125.6867
76.5588,125.6543
76.5912,125.6326
76.6295,125.6250
77.0795,125.6250
77.1178,125.6326
77.1502,125.6543
77.1719,125.6867
77.1795,125.7250
77.1795,126.4750
77.1719,126.5133
77.1502,126.5457
77.1178,126.5674
77.0795,126.5750
Z" /> 
<path style="fill:#000000; fill-opacity:1.0000; stroke:none;fill-rule:evenodd;"
d="M 94.8445,133.6500
94.8521,133.6117
94.8738,133.5793
94.9062,133.5576
94.9445,133.5500
95.6045,133.5500
95.6428,133.5576
95.6752,133.5793
95.6969,133.6117
95.7045,133.6500
95.7045,134.6500
95.6969,134.6883
95.6752,134.7207
95.6428,134.7424
95.6045,134.7500
94.9445,134.7500
94.9062,134.7424
94.8738,134.7207
94.8521,134.6883
94.8445,134.6500
Z" /> 
<path style="fill:#000000; fill-opacity:1.0000; stroke:none;fill-rule:evenodd;"
d="M 96.3045,133.6500
96.3121,133.6117
96.3338,133.5793
96.3662,133.5576
96.4045,133.5500
97.0645,133.5500
97.1028,133.5576
97.1352,133.5793
97.1569,133.6117
97.1645,133.6500
97.1645,134.6500
97.1569,134.6883
97.1352,134.7207
97.1028,134.7424
97.0645,134.7500
96.4045,134.7500
96.3662,134.7424
96.3338,134.7207
96.3121,134.6883
96.3045,134.6500
Z" /> 
<path style="fill:#000000; fill-opacity:1.0000; stroke:none;fill-rule:evenodd;"
d="M 87.6545,146.8450
87.6469,146.8833
87.6252,146.9157
87.5928,146.9374
87.5545,146.9450
86.5545,146.9450
86.5162,146.9374
86.4838,146.9157
86.4621,146.8833
86.4545,146.8450
86.4545,146.2050
86.4621,146.1667
86.4838,146.1343
86.5162,146.1126
86.5545,146.1050
87.5545,146.1050
87.5928,146.1126
87.6252,146.1343
87.6469,146.1667
87.6545,146.2050
Z" /> 
<path style="fill:#000000; fill-opacity:1.0000; stroke:none;fill-rule:evenodd;"
d="M 87.6545,145.2950
87.6469,145.3333
87.6252,145.3657
87.5928,145.3874
87.5545,145.3950
86.5545,145.3950
86.5162,145.3874
86.4838,145.3657
86.4621,145.3333
86.4545,145.2950
86.4545,144.6550
86.4621,144.6167
86.4838,144.5843
86.5162,144.5626
86.5545,144.5550
87.5545,144.5550
87.5928,144.5626
87.6252,144.5843
87.6469,144.6167
87.6545,144.6550
Z" /> 
<path style="fill:#000000; fill-opacity:1.0000; stroke:none;fill-rule:evenodd;"
d="M 80.1545,143.7000
80.1469,143.7383
80.1252,143.7707
80.0928,143.7924
80.0545,143.8000
79.5545,143.8000
79.5162,143.7924
79.4838,143.7707
79.4621,143.7383
79.4545,143.7000
79.4545,142.7000
79.4621,142.6617
79.4838,142.6293
79.5162,142.6076
79.5545,142.6000
80.0545,142.6000
80.0928,142.6076
80.1252,142.6293
80.1469,142.6617
80.1545,142.7000
Z" /> 
<path style="fill:#000000; fill-opacity:1.0000; stroke:none;fill-rule:evenodd;"
d="M 80.1957,143.7809
80.1594,143.7309
80.1545,143.7000
80.1545,142.7000
80.1736,142.6412
80.2236,142.6049
80.2545,142.6000
80.7545,142.6000
80.8133,142.6191
80.8496,142.6691
80.8545,142.7000
80.8545,143.7000
80.8354,143.7588
80.7854,143.7951
80.7545,143.8000
80.2545,143.8000
Z" /> 
<path style="fill:#000000; fill-opacity:1.0000; stroke:none;fill-rule:evenodd;"
d="M 81.5545,143.7000
81.5469,143.7383
81.5252,143.7707
81.4928,143.7924
81.4545,143.8000
80.9545,143.8000
80.9162,143.7924
80.8838,143.7707
80.8621,143.7383
80.8545,143.7000
80.8545,142.7000
80.8621,142.6617
80.8838,142.6293
80.9162,142.6076
80.9545,142.6000
81.4545,142.6000
81.4928,142.6076
81.5252,142.6293
81.5469,142.6617
81.5545,142.7000
Z" /> 
<path style="fill:#000000; fill-opacity:1.0000; stroke:none;fill-rule:evenodd;"
d="M 76.1545,130.0800
76.1621,130.0417
76.1838,130.0093
76.2162,129.9876
76.2545,129.9800
76.9545,129.9800
76.9928,129.9876
77.0252,130.0093
77.0469,130.0417
77.0545,130.0800
77.0545,130.3300
77.0469,130.3683
77.0252,130.4007
76.9928,130.4224
76.9545,130.4300
76.2545,130.4300
76.2162,130.4224
76.1838,130.4007
76.1621,130.3683
76.1545,130.3300
Z" /> 
<path style="fill:#000000; fill-opacity:1.0000; stroke:none;fill-rule:evenodd;"
d="M 76.1545,133.3300
76.1621,133.2917
76.1838,133.2593
76.2162,133.2376
76.2545,133.2300
76.9545,133.2300
76.9928,133.2376
77.0252,133.2593
77.0469,133.2917
77.0545,133.3300
77.0545,133.5800
77.0469,133.6183
77.0252,133.6507
76.9928,133.6724
76.9545,133.6800
76.2545,133.6800
76.2162,133.6724
76.1838,133.6507
76.1621,133.6183
76.1545,133.5800
Z" /> 
<path style="fill:#000000; fill-opacity:1.0000; stroke:none;fill-rule:evenodd;"
d="M 77.9045,130.4800
77.9121,130.4417
77.9338,130.4093
77.9662,130.3876
78.0045,130.3800
79.1045,130.3800
79.1428,130.3876
79.1752,130.4093
79.1969,130.4417
79.2045,130.4800
79.2045,131.1800
79.1969,131.2183
79.1752,131.2507
79.1428,131.2724
79.1045,131.2800
78.0045,131.2800
77.9662,131.2724
77.9338,131.2507
77.9121,131.2183
77.9045,131.1800
Z" /> 
<path style="fill:#000000; fill-opacity:1.0000; stroke:none;fill-rule:evenodd;"
d="M 74.0045,130.4800
74.0121,130.4417
74.0338,130.4093
74.0662,130.3876
74.1045,130.3800
75.2045,130.3800
75.2428,130.3876
75.2752,130.4093
75.2969,130.4417
75.3045,130.4800
75.3045,131.1800
75.2969,131.2183
75.2752,131.2507
75.2428,131.2724
75.2045,131.2800
74.1045,131.2800
74.0662,131.2724
74.0338,131.2507
74.0121,131.2183
74.0045,131.1800
Z" /> 
<path style="fill:#000000; fill-opacity:1.0000; stroke:none;fill-rule:evenodd;"
d="M 74.0045,132.4800
74.0121,132.4417
74.0338,132.4093
74.0662,132.3876
74.1045,132.3800
75.2045,132.3800
75.2428,132.3876
75.2752,132.4093
75.2969,132.4417
75.3045,132.4800
75.3045,133.1800
75.2969,133.2183
75.2752,133.2507
75.2428,133.2724
75.2045,133.2800
74.1045,133.2800
74.0662,133.2724
74.0338,133.2507
74.0121,133.2183
74.0045,133.1800
Z" /> 
<path style="fill:#000000; fill-opacity:1.0000; stroke:none;fill-rule:evenodd;"
d="M 77.9045,132.4800
77.9121,132.4417
77.9338,132.4093
77.9662,132.3876
78.0045,132.3800
79.1045,132.3800
79.1428,132.3876
79.1752,132.4093
79.1969,132.4417
79.2045,132.4800
79.2045,133.1800
79.1969,133.2183
79.1752,133.2507
79.1428,133.2724
79.1045,133.2800
78.0045,133.2800
77.9662,133.2724
77.9338,133.2507
77.9121,133.2183
77.9045,133.1800
Z" /> 
<path style="fill:#000000; fill-opacity:1.0000; stroke:none;fill-rule:evenodd;"
d="M 89.0545,146.1000
89.0928,146.1076
89.1252,146.1293
89.1469,146.1617
89.1545,146.2000
89.1545,146.7000
89.1469,146.7383
89.1252,146.7707
89.0928,146.7924
89.0545,146.8000
88.0545,146.8000
88.0162,146.7924
87.9838,146.7707
87.9621,146.7383
87.9545,146.7000
87.9545,146.2000
87.9621,146.1617
87.9838,146.1293
88.0162,146.1076
88.0545,146.1000
Z" /> 
<path style="fill:#000000; fill-opacity:1.0000; stroke:none;fill-rule:evenodd;"
d="M 89.1354,146.0588
89.0854,146.0951
89.0545,146.1000
88.0545,146.1000
87.9957,146.0809
87.9594,146.0309
87.9545,146.0000
87.9545,145.5000
87.9736,145.4412
88.0236,145.4049
88.0545,145.4000
89.0545,145.4000
89.1133,145.4191
89.1496,145.4691
89.1545,145.5000
89.1545,146.0000
Z" /> 
<path style="fill:#000000; fill-opacity:1.0000; stroke:none;fill-rule:evenodd;"
d="M 89.0545,144.7000
89.0928,144.7076
89.1252,144.7293
89.1469,144.7617
89.1545,144.8000
89.1545,145.3000
89.1469,145.3383
89.1252,145.3707
89.0928,145.3924
89.0545,145.4000
88.0545,145.4000
88.0162,145.3924
87.9838,145.3707
87.9621,145.3383
87.9545,145.3000
87.9545,144.8000
87.9621,144.7617
87.9838,144.7293
88.0162,144.7076
88.0545,144.7000
Z" /> 
</g>
<g style="fill:#000000; fill-opacity:1.0000; stroke:none;">
<circle cx="76.6045" cy="136.8300" r="1.6000" /> 
<path style="fill:#000000; fill-opacity:1.0000; stroke:none;fill-rule:evenodd;"
d="M 83.8105,134.1000
83.8181,134.0617
83.8398,134.0293
83.8722,134.0076
83.9105,134.0000
84.5705,134.0000
84.6088,134.0076
84.6412,134.0293
84.6629,134.0617
84.6705,134.1000
84.6705,135.1000
84.6629,135.1383
84.6412,135.1707
84.6088,135.1924
84.5705,135.2000
83.9105,135.2000
83.8722,135.1924
83.8398,135.1707
83.8181,135.1383
83.8105,135.1000
Z" /> 
<path style="fill:#000000; fill-opacity:1.0000; stroke:none;fill-rule:evenodd;"
d="M 85.2705,134.1000
85.2781,134.0617
85.2998,134.0293
85.3322,134.0076
85.3705,134.0000
86.0305,134.0000
86.0688,134.0076
86.1012,134.0293
86.1229,134.0617
86.1305,134.1000
86.1305,135.1000
86.1229,135.1383
86.1012,135.1707
86.0688,135.1924
86.0305,135.2000
85.3705,135.2000
85.3322,135.1924
85.2998,135.1707
85.2781,135.1383
85.2705,135.1000
Z" /> 
<path style="fill:#000000; fill-opacity:1.0000; stroke:none;fill-rule:evenodd;"
d="M 80.7705,124.2500
80.7781,124.2117
80.7998,124.1793
80.8322,124.1576
80.8705,124.1500
81.8705,124.1500
81.9088,124.1576
81.9412,124.1793
81.9629,124.2117
81.9705,124.2500
81.9705,127.2500
81.9629,127.2883
81.9412,127.3207
81.9088,127.3424
81.8705,127.3500
80.8705,127.3500
80.8322,127.3424
80.7998,127.3207
80.7781,127.2883
80.7705,127.2500
Z" /> 
<path style="fill:#000000; fill-opacity:1.0000; stroke:none;fill-rule:evenodd;"
d="M 87.3705,124.2500
87.3781,124.2117
87.3998,124.1793
87.4322,124.1576
87.4705,124.1500
88.4705,124.1500
88.5088,124.1576
88.5412,124.1793
88.5629,124.2117
88.5705,124.2500
88.5705,127.2500
88.5629,127.2883
88.5412,127.3207
88.5088,127.3424
88.4705,127.3500
87.4705,127.3500
87.4322,127.3424
87.3998,127.3207
87.3781,127.2883
87.3705,127.2500
Z" /> 
<path style="fill:#000000; fill-opacity:1.0000; stroke:none;fill-rule:evenodd;"
d="M 85.0205,131.0500
85.0281,131.0117
85.0498,130.9793
85.0822,130.9576
85.1205,130.9500
86.2205,130.9500
86.2588,130.9576
86.2912,130.9793
86.3129,131.0117
86.3205,131.0500
86.3205,133.0500
86.3129,133.0883
86.2912,133.1207
86.2588,133.1424
86.2205,133.1500
85.1205,133.1500
85.0822,133.1424
85.0498,133.1207
85.0281,133.0883
85.0205,133.0500
Z" /> 
<path style="fill:#000000; fill-opacity:1.0000; stroke:none;fill-rule:evenodd;"
d="M 83.0205,131.0500
83.0281,131.0117
83.0498,130.9793
83.0822,130.9576
83.1205,130.9500
84.2205,130.9500
84.2588,130.9576
84.2912,130.9793
84.3129,131.0117
84.3205,131.0500
84.3205,133.0500
84.3129,133.0883
84.2912,133.1207
84.2588,133.1424
84.2205,133.1500
83.1205,133.1500
83.0822,133.1424
83.0498,133.1207
83.0281,133.0883
83.0205,133.0500
Z" /> 
<path style="fill:#000000; fill-opacity:1.0000; stroke:none;fill-rule:evenodd;"
d="M 82.1995,139.2000
82.2378,139.2076
82.2702,139.2293
82.2919,139.2617
82.2995,139.3000
82.2995,140.3000
82.2919,140.3383
82.2702,140.3707
82.2378,140.3924
82.1995,140.4000
81.5595,140.4000
81.5212,140.3924
81.4888,140.3707
81.4671,140.3383
81.4595,140.3000
81.4595,139.3000
81.4671,139.2617
81.4888,139.2293
81.5212,139.2076
81.5595,139.2000
Z" /> 
<path style="fill:#000000; fill-opacity:1.0000; stroke:none;fill-rule:evenodd;"
d="M 80.6495,139.2000
80.6878,139.2076
80.7202,139.2293
80.7419,139.2617
80.7495,139.3000
80.7495,140.3000
80.7419,140.3383
80.7202,140.3707
80.6878,140.3924
80.6495,140.4000
80.0095,140.4000
79.9712,140.3924
79.9388,140.3707
79.9171,140.3383
79.9095,140.3000
79.9095,139.3000
79.9171,139.2617
79.9388,139.2293
79.9712,139.2076
80.0095,139.2000
Z" /> 
<path style="fill:#000000; fill-opacity:1.0000; stroke:none;fill-rule:evenodd;"
d="M 85.4045,144.0600
85.3662,144.0524
85.3338,144.0307
85.3121,143.9983
85.3045,143.9600
85.3045,143.3000
85.3121,143.2617
85.3338,143.2293
85.3662,143.2076
85.4045,143.2000
86.4045,143.2000
86.4428,143.2076
86.4752,143.2293
86.4969,143.2617
86.5045,143.3000
86.5045,143.9600
86.4969,143.9983
86.4752,144.0307
86.4428,144.0524
86.4045,144.0600
Z" /> 
<path style="fill:#000000; fill-opacity:1.0000; stroke:none;fill-rule:evenodd;"
d="M 85.4045,142.6000
85.3662,142.5924
85.3338,142.5707
85.3121,142.5383
85.3045,142.5000
85.3045,141.8400
85.3121,141.8017
85.3338,141.7693
85.3662,141.7476
85.4045,141.7400
86.4045,141.7400
86.4428,141.7476
86.4752,141.7693
86.4969,141.8017
86.5045,141.8400
86.5045,142.5000
86.4969,142.5383
86.4752,142.5707
86.4428,142.5924
86.4045,142.6000
Z" /> 
<path style="fill:#000000; fill-opacity:1.0000; stroke:none;fill-rule:evenodd;"
d="M 127.3783,136.6833
127.4000,136.7158
127.4076,136.7540
127.4000,136.7923
127.3783,136.8247
126.9116,137.2914
126.8792,137.3131
126.8409,137.3207
126.8026,137.3131
126.7702,137.2914
126.0631,136.5843
126.0414,136.5519
126.0338,136.5136
126.0414,136.4753
126.0631,136.4429
126.5298,135.9762
126.5622,135.9545
126.6005,135.9469
126.6387,135.9545
126.6712,135.9762
Z" /> 
<path style="fill:#000000; fill-opacity:1.0000; stroke:none;fill-rule:evenodd;"
d="M 126.3459,137.7157
126.3676,137.7481
126.3752,137.7864
126.3676,137.8247
126.3459,137.8571
125.8792,138.3238
125.8468,138.3455
125.8085,138.3531
125.7703,138.3455
125.7378,138.3238
125.0307,137.6167
125.0090,137.5842
125.0014,137.5460
125.0090,137.5077
125.0307,137.4753
125.4974,137.0086
125.5298,136.9869
125.5681,136.9793
125.6064,136.9869
125.6388,137.0086
Z" /> 
<path style="fill:#000000; fill-opacity:1.0000; stroke:none;fill-rule:evenodd;"
d="M 123.1783,130.4333
123.2000,130.4658
123.2076,130.5040
123.2000,130.5423
123.1783,130.5747
122.7116,131.0414
122.6792,131.0631
122.6409,131.0707
122.6026,131.0631
122.5702,131.0414
121.8631,130.3343
121.8414,130.3019
121.8338,130.2636
121.8414,130.2253
121.8631,130.1929
122.3298,129.7262
122.3622,129.7045
122.4005,129.6969
122.4387,129.7045
122.4712,129.7262
Z" /> 
<path style="fill:#000000; fill-opacity:1.0000; stroke:none;fill-rule:evenodd;"
d="M 122.1459,131.4657
122.1676,131.4981
122.1752,131.5364
122.1676,131.5747
122.1459,131.6071
121.6792,132.0738
121.6468,132.0955
121.6085,132.1031
121.5703,132.0955
121.5378,132.0738
120.8307,131.3667
120.8090,131.3342
120.8014,131.2960
120.8090,131.2577
120.8307,131.2253
121.2974,130.7586
121.3298,130.7369
121.3681,130.7293
121.4064,130.7369
121.4388,130.7586
Z" /> 
<path style="fill:#000000; fill-opacity:1.0000; stroke:none;fill-rule:evenodd;"
d="M 68.4745,131.1200
68.4669,131.1583
68.4452,131.1907
68.4128,131.2124
68.3745,131.2200
67.7345,131.2200
67.6962,131.2124
67.6638,131.1907
67.6421,131.1583
67.6345,131.1200
67.6345,130.5800
67.6421,130.5417
67.6638,130.5093
67.6962,130.4876
67.7345,130.4800
68.3745,130.4800
68.4128,130.4876
68.4452,130.5093
68.4669,130.5417
68.4745,130.5800
Z" /> 
<path style="fill:#000000; fill-opacity:1.0000; stroke:none;fill-rule:evenodd;"
d="M 68.4745,130.1200
68.4669,130.1583
68.4452,130.1907
68.4128,130.2124
68.3745,130.2200
67.7345,130.2200
67.6962,130.2124
67.6638,130.1907
67.6421,130.1583
67.6345,130.1200
67.6345,129.5800
67.6421,129.5417
67.6638,129.5093
67.6962,129.4876
67.7345,129.4800
68.3745,129.4800
68.4128,129.4876
68.4452,129.5093
68.4669,129.5417
68.4745,129.5800
Z" /> 
<path style="fill:#000000; fill-opacity:1.0000; stroke:none;fill-rule:evenodd;"
d="M 83.7045,141.1500
83.6662,141.1424
83.6338,141.1207
83.6121,141.0883
83.6045,141.0500
83.6045,139.7000
83.6121,139.6617
83.6338,139.6293
83.6662,139.6076
83.7045,139.6000
84.1545,139.6000
84.1928,139.6076
84.2252,139.6293
84.2469,139.6617
84.2545,139.7000
84.2545,141.0500
84.2469,141.0883
84.2252,141.1207
84.1928,141.1424
84.1545,141.1500
Z" /> 
<path style="fill:#000000; fill-opacity:1.0000; stroke:none;fill-rule:evenodd;"
d="M 84.3545,141.1500
84.3162,141.1424
84.2838,141.1207
84.2621,141.0883
84.2545,141.0500
84.2545,139.7000
84.2621,139.6617
84.2838,139.6293
84.3162,139.6076
84.3545,139.6000
84.8045,139.6000
84.8428,139.6076
84.8752,139.6293
84.8969,139.6617
84.9045,139.7000
84.9045,141.0500
84.8969,141.0883
84.8752,141.1207
84.8428,141.1424
84.8045,141.1500
Z" /> 
<path style="fill:#000000; fill-opacity:1.0000; stroke:none;fill-rule:evenodd;"
d="M 85.0045,141.1500
84.9662,141.1424
84.9338,141.1207
84.9121,141.0883
84.9045,141.0500
84.9045,139.7000
84.9121,139.6617
84.9338,139.6293
84.9662,139.6076
85.0045,139.6000
85.4545,139.6000
85.4928,139.6076
85.5252,139.6293
85.5469,139.6617
85.5545,139.7000
85.5545,141.0500
85.5469,141.0883
85.5252,141.1207
85.4928,141.1424
85.4545,141.1500
Z" /> 
<path style="fill:#000000; fill-opacity:1.0000; stroke:none;fill-rule:evenodd;"
d="M 85.6545,141.1500
85.6162,141.1424
85.5838,141.1207
85.5621,141.0883
85.5545,141.0500
85.5545,139.7000
85.5621,139.6617
85.5838,139.6293
85.6162,139.6076
85.6545,139.6000
86.1045,139.6000
86.1428,139.6076
86.1752,139.6293
86.1969,139.6617
86.2045,139.7000
86.2045,141.0500
86.1969,141.0883
86.1752,141.1207
86.1428,141.1424
86.1045,141.1500
Z" /> 
<path style="fill:#000000; fill-opacity:1.0000; stroke:none;fill-rule:evenodd;"
d="M 85.6545,137.2000
85.6162,137.1924
85.5838,137.1707
85.5621,137.1383
85.5545,137.1000
85.5545,135.7500
85.5621,135.7117
85.5838,135.6793
85.6162,135.6576
85.6545,135.6500
86.1045,135.6500
86.1428,135.6576
86.1752,135.6793
86.1969,135.7117
86.2045,135.7500
86.2045,137.1000
86.1969,137.1383
86.1752,137.1707
86.1428,137.1924
86.1045,137.2000
Z" /> 
<path style="fill:#000000; fill-opacity:1.0000; stroke:none;fill-rule:evenodd;"
d="M 85.0045,137.2000
84.9662,137.1924
84.9338,137.1707
84.9121,137.1383
84.9045,137.1000
84.9045,135.7500
84.9121,135.7117
84.9338,135.6793
84.9662,135.6576
85.0045,135.6500
85.4545,135.6500
85.4928,135.6576
85.5252,135.6793
85.5469,135.7117
85.5545,135.7500
85.5545,137.1000
85.5469,137.1383
85.5252,137.1707
85.4928,137.1924
85.4545,137.2000
Z" /> 
<path style="fill:#000000; fill-opacity:1.0000; stroke:none;fill-rule:evenodd;"
d="M 84.3545,137.2000
84.3162,137.1924
84.2838,137.1707
84.2621,137.1383
84.2545,137.1000
84.2545,135.7500
84.2621,135.7117
84.2838,135.6793
84.3162,135.6576
84.3545,135.6500
84.8045,135.6500
84.8428,135.6576
84.8752,135.6793
84.8969,135.7117
84.9045,135.7500
84.9045,137.1000
84.8969,137.1383
84.8752,137.1707
84.8428,137.1924
84.8045,137.2000
Z" /> 
<path style="fill:#000000; fill-opacity:1.0000; stroke:none;fill-rule:evenodd;"
d="M 83.7045,137.2000
83.6662,137.1924
83.6338,137.1707
83.6121,137.1383
83.6045,137.1000
83.6045,135.7500
83.6121,135.7117
83.6338,135.6793
83.6662,135.6576
83.7045,135.6500
84.1545,135.6500
84.1928,135.6576
84.2252,135.6793
84.2469,135.7117
84.2545,135.7500
84.2545,137.1000
84.2469,137.1383
84.2252,137.1707
84.1928,137.1924
84.1545,137.2000
Z" /> 
<path style="fill:#000000; fill-opacity:1.0000; stroke:none;fill-rule:evenodd;"
d="M 83.4545,141.8050
83.4621,141.7667
83.4838,141.7343
83.5162,141.7126
83.5545,141.7050
84.5545,141.7050
84.5928,141.7126
84.6252,141.7343
84.6469,141.7667
84.6545,141.8050
84.6545,142.4450
84.6469,142.4833
84.6252,142.5157
84.5928,142.5374
84.5545,142.5450
83.5545,142.5450
83.5162,142.5374
83.4838,142.5157
83.4621,142.4833
83.4545,142.4450
Z" /> 
<path style="fill:#000000; fill-opacity:1.0000; stroke:none;fill-rule:evenodd;"
d="M 83.4545,143.3550
83.4621,143.3167
83.4838,143.2843
83.5162,143.2626
83.5545,143.2550
84.5545,143.2550
84.5928,143.2626
84.6252,143.2843
84.6469,143.3167
84.6545,143.3550
84.6545,143.9950
84.6469,144.0333
84.6252,144.0657
84.5928,144.0874
84.5545,144.0950
83.5545,144.0950
83.5162,144.0874
83.4838,144.0657
83.4621,144.0333
83.4545,143.9950
Z" /> 
<path style="fill:#000000; fill-opacity:1.0000; stroke:none;fill-rule:evenodd;"
d="M 76.1545,143.3300
76.1621,143.2917
76.1838,143.2593
76.2162,143.2376
76.2545,143.2300
76.9545,143.2300
76.9928,143.2376
77.0252,143.2593
77.0469,143.2917
77.0545,143.3300
77.0545,143.5800
77.0469,143.6183
77.0252,143.6507
76.9928,143.6724
76.9545,143.6800
76.2545,143.6800
76.2162,143.6724
76.1838,143.6507
76.1621,143.6183
76.1545,143.5800
Z" /> 
<path style="fill:#000000; fill-opacity:1.0000; stroke:none;fill-rule:evenodd;"
d="M 76.1545,140.0800
76.1621,140.0417
76.1838,140.0093
76.2162,139.9876
76.2545,139.9800
76.9545,139.9800
76.9928,139.9876
77.0252,140.0093
77.0469,140.0417
77.0545,140.0800
77.0545,140.3300
77.0469,140.3683
77.0252,140.4007
76.9928,140.4224
76.9545,140.4300
76.2545,140.4300
76.2162,140.4224
76.1838,140.4007
76.1621,140.3683
76.1545,140.3300
Z" /> 
<path style="fill:#000000; fill-opacity:1.0000; stroke:none;fill-rule:evenodd;"
d="M 74.0045,140.4800
74.0121,140.4417
74.0338,140.4093
74.0662,140.3876
74.1045,140.3800
75.2045,140.3800
75.2428,140.3876
75.2752,140.4093
75.2969,140.4417
75.3045,140.4800
75.3045,141.1800
75.2969,141.2183
75.2752,141.2507
75.2428,141.2724
75.2045,141.2800
74.1045,141.2800
74.0662,141.2724
74.0338,141.2507
74.0121,141.2183
74.0045,141.1800
Z" /> 
<path style="fill:#000000; fill-opacity:1.0000; stroke:none;fill-rule:evenodd;"
d="M 77.9045,140.4800
77.9121,140.4417
77.9338,140.4093
77.9662,140.3876
78.0045,140.3800
79.1045,140.3800
79.1428,140.3876
79.1752,140.4093
79.1969,140.4417
79.2045,140.4800
79.2045,141.1800
79.1969,141.2183
79.1752,141.2507
79.1428,141.2724
79.1045,141.2800
78.0045,141.2800
77.9662,141.2724
77.9338,141.2507
77.9121,141.2183
77.9045,141.1800
Z" /> 
<path style="fill:#000000; fill-opacity:1.0000; stroke:none;fill-rule:evenodd;"
d="M 74.0045,142.4800
74.0121,142.4417
74.0338,142.4093
74.0662,142.3876
74.1045,142.3800
75.2045,142.3800
75.2428,142.3876
75.2752,142.4093
75.2969,142.4417
75.3045,142.4800
75.3045,143.1800
75.2969,143.2183
75.2752,143.2507
75.2428,143.2724
75.2045,143.2800
74.1045,143.2800
74.0662,143.2724
74.0338,143.2507
74.0121,143.2183
74.0045,143.1800
Z" /> 
<path style="fill:#000000; fill-opacity:1.0000; stroke:none;fill-rule:evenodd;"
d="M 77.9045,142.4800
77.9121,142.4417
77.9338,142.4093
77.9662,142.3876
78.0045,142.3800
79.1045,142.3800
79.1428,142.3876
79.1752,142.4093
79.1969,142.4417
79.2045,142.4800
79.2045,143.1800
79.1969,143.2183
79.1752,143.2507
79.1428,143.2724
79.1045,143.2800
78.0045,143.2800
77.9662,143.2724
77.9338,143.2507
77.9121,143.2183
77.9045,143.1800
Z" /> 
<path style="fill:#000000; fill-opacity:1.0000; stroke:none;fill-rule:evenodd;"
d="M 82.4645,135.2000
82.4569,135.2383
82.4352,135.2707
82.4028,135.2924
82.3645,135.3000
81.7045,135.3000
81.6662,135.2924
81.6338,135.2707
81.6121,135.2383
81.6045,135.2000
81.6045,134.2000
81.6121,134.1617
81.6338,134.1293
81.6662,134.1076
81.7045,134.1000
82.3645,134.1000
82.4028,134.1076
82.4352,134.1293
82.4569,134.1617
82.4645,134.2000
Z" /> 
<path style="fill:#000000; fill-opacity:1.0000; stroke:none;fill-rule:evenodd;"
d="M 81.0045,135.2000
80.9969,135.2383
80.9752,135.2707
80.9428,135.2924
80.9045,135.3000
80.2445,135.3000
80.2062,135.2924
80.1738,135.2707
80.1521,135.2383
80.1445,135.2000
80.1445,134.2000
80.1521,134.1617
80.1738,134.1293
80.2062,134.1076
80.2445,134.1000
80.9045,134.1000
80.9428,134.1076
80.9752,134.1293
80.9969,134.1617
81.0045,134.2000
Z" /> 
<path style="fill:#000000; fill-opacity:1.0000; stroke:none;fill-rule:evenodd;"
d="M 74.3545,148.5500
74.3621,148.5117
74.3838,148.4793
74.4162,148.4576
74.4545,148.4500
75.2545,148.4500
75.2928,148.4576
75.3252,148.4793
75.3469,148.5117
75.3545,148.5500
75.3545,149.0500
75.3469,149.0883
75.3252,149.1207
75.2928,149.1424
75.2545,149.1500
74.4545,149.1500
74.4162,149.1424
74.3838,149.1207
74.3621,149.0883
74.3545,149.0500
Z" /> 
<path style="fill:#000000; fill-opacity:1.0000; stroke:none;fill-rule:evenodd;"
d="M 76.5545,148.5500
76.5621,148.5117
76.5838,148.4793
76.6162,148.4576
76.6545,148.4500
77.4545,148.4500
77.4928,148.4576
77.5252,148.4793
77.5469,148.5117
77.5545,148.5500
77.5545,149.0500
77.5469,149.0883
77.5252,149.1207
77.4928,149.1424
77.4545,149.1500
76.6545,149.1500
76.6162,149.1424
76.5838,149.1207
76.5621,149.0883
76.5545,149.0500
Z" /> 
<path style="fill:#000000; fill-opacity:1.0000; stroke:none;fill-rule:evenodd;"
d="M 108.4795,131.9750
108.4412,131.9674
108.4088,131.9457
108.3871,131.9133
108.3795,131.8750
108.3795,131.1250
108.3871,131.0867
108.4088,131.0543
108.4412,131.0326
108.4795,131.0250
108.9295,131.0250
108.9678,131.0326
109.0002,131.0543
109.0219,131.0867
109.0295,131.1250
109.0295,131.8750
109.0219,131.9133
109.0002,131.9457
108.9678,131.9674
108.9295,131.9750
Z" /> 
<path style="fill:#000000; fill-opacity:1.0000; stroke:none;fill-rule:evenodd;"
d="M 109.5795,131.9750
109.5412,131.9674
109.5088,131.9457
109.4871,131.9133
109.4795,131.8750
109.4795,131.1250
109.4871,131.0867
109.5088,131.0543
109.5412,131.0326
109.5795,131.0250
110.0295,131.0250
110.0678,131.0326
110.1002,131.0543
110.1219,131.0867
110.1295,131.1250
110.1295,131.8750
110.1219,131.9133
110.1002,131.9457
110.0678,131.9674
110.0295,131.9750
Z" /> 
</g>
<g style="fill:#000000; fill-opacity:1.0000; stroke:none;">
<circle cx="108.6045" cy="136.8300" r="1.6000" /> 
</g>
<g style="fill:#000000; fill-opacity:1.0000; stroke:none;">
<circle cx="70.8045" cy="139.7430" r="0.4250" /> 
</g>
<g style="fill:#000000; fill-opacity:1.0000; stroke:none;">
<circle cx="70.8045" cy="133.9680" r="0.4250" /> 
<path style="fill:#000000; fill-opacity:1.0000; stroke:none;fill-rule:evenodd;"
d="M 72.6545,133.2430
72.6928,133.2506
72.7252,133.2723
72.7469,133.3047
72.7545,133.3430
72.7545,133.6430
72.7469,133.6813
72.7252,133.7137
72.6928,133.7354
72.6545,133.7430
71.5045,133.7430
71.4662,133.7354
71.4338,133.7137
71.4121,133.6813
71.4045,133.6430
71.4045,133.3430
71.4121,133.3047
71.4338,133.2723
71.4662,133.2506
71.5045,133.2430
Z" /> 
<path style="fill:#000000; fill-opacity:1.0000; stroke:none;fill-rule:evenodd;"
d="M 72.6545,134.0430
72.6928,134.0506
72.7252,134.0723
72.7469,134.1047
72.7545,134.1430
72.7545,134.4430
72.7469,134.4813
72.7252,134.5137
72.6928,134.5354
72.6545,134.5430
71.5045,134.5430
71.4662,134.5354
71.4338,134.5137
71.4121,134.4813
71.4045,134.4430
71.4045,134.1430
71.4121,134.1047
71.4338,134.0723
71.4662,134.0506
71.5045,134.0430
Z" /> 
<path style="fill:#000000; fill-opacity:1.0000; stroke:none;fill-rule:evenodd;"
d="M 72.6545,135.3430
72.6928,135.3506
72.7252,135.3723
72.7469,135.4047
72.7545,135.4430
72.7545,135.7430
72.7469,135.7813
72.7252,135.8137
72.6928,135.8354
72.6545,135.8430
71.5045,135.8430
71.4662,135.8354
71.4338,135.8137
71.4121,135.7813
71.4045,135.7430
71.4045,135.4430
71.4121,135.4047
71.4338,135.3723
71.4662,135.3506
71.5045,135.3430
Z" /> 
<path style="fill:#000000; fill-opacity:1.0000; stroke:none;fill-rule:evenodd;"
d="M 72.6545,136.3430
72.6928,136.3506
72.7252,136.3723
72.7469,136.4047
72.7545,136.4430
72.7545,136.7430
72.7469,136.7813
72.7252,136.8137
72.6928,136.8354
72.6545,136.8430
71.5045,136.8430
71.4662,136.8354
71.4338,136.8137
71.4121,136.7813
71.4045,136.7430
71.4045,136.4430
71.4121,136.4047
71.4338,136.3723
71.4662,136.3506
71.5045,136.3430
Z" /> 
<path style="fill:#000000; fill-opacity:1.0000; stroke:none;fill-rule:evenodd;"
d="M 72.6545,136.8430
72.6928,136.8506
72.7252,136.8723
72.7469,136.9047
72.7545,136.9430
72.7545,137.2430
72.7469,137.2813
72.7252,137.3137
72.6928,137.3354
72.6545,137.3430
71.5045,137.3430
71.4662,137.3354
71.4338,137.3137
71.4121,137.2813
71.4045,137.2430
71.4045,136.9430
71.4121,136.9047
71.4338,136.8723
71.4662,136.8506
71.5045,136.8430
Z" /> 
<path style="fill:#000000; fill-opacity:1.0000; stroke:none;fill-rule:evenodd;"
d="M 72.6545,137.8430
72.6928,137.8506
72.7252,137.8723
72.7469,137.9047
72.7545,137.9430
72.7545,138.2430
72.7469,138.2813
72.7252,138.3137
72.6928,138.3354
72.6545,138.3430
71.5045,138.3430
71.4662,138.3354
71.4338,138.3137
71.4121,138.2813
71.4045,138.2430
71.4045,137.9430
71.4121,137.9047
71.4338,137.8723
71.4662,137.8506
71.5045,137.8430
Z" /> 
<path style="fill:#000000; fill-opacity:1.0000; stroke:none;fill-rule:evenodd;"
d="M 72.6545,139.1430
72.6928,139.1506
72.7252,139.1723
72.7469,139.2047
72.7545,139.2430
72.7545,139.5430
72.7469,139.5813
72.7252,139.6137
72.6928,139.6354
72.6545,139.6430
71.5045,139.6430
71.4662,139.6354
71.4338,139.6137
71.4121,139.5813
71.4045,139.5430
71.4045,139.2430
71.4121,139.2047
71.4338,139.1723
71.4662,139.1506
71.5045,139.1430
Z" /> 
<path style="fill:#000000; fill-opacity:1.0000; stroke:none;fill-rule:evenodd;"
d="M 72.6545,139.9180
72.6928,139.9256
72.7252,139.9473
72.7469,139.9797
72.7545,140.0180
72.7545,140.3180
72.7469,140.3563
72.7252,140.3887
72.6928,140.4104
72.6545,140.4180
71.5045,140.4180
71.4662,140.4104
71.4338,140.3887
71.4121,140.3563
71.4045,140.3180
71.4045,140.0180
71.4121,139.9797
71.4338,139.9473
71.4662,139.9256
71.5045,139.9180
Z" /> 
<path style="fill:#000000; fill-opacity:1.0000; stroke:none;fill-rule:evenodd;"
d="M 72.6545,139.7180
72.6928,139.7256
72.7252,139.7473
72.7469,139.7797
72.7545,139.8180
72.7545,140.1180
72.7469,140.1563
72.7252,140.1887
72.6928,140.2104
72.6545,140.2180
71.5045,140.2180
71.4662,140.2104
71.4338,140.1887
71.4121,140.1563
71.4045,140.1180
71.4045,139.8180
71.4121,139.7797
71.4338,139.7473
71.4662,139.7256
71.5045,139.7180
Z" /> 
<path style="fill:#000000; fill-opacity:1.0000; stroke:none;fill-rule:evenodd;"
d="M 72.6545,138.9430
72.6928,138.9506
72.7252,138.9723
72.7469,139.0047
72.7545,139.0430
72.7545,139.3430
72.7469,139.3813
72.7252,139.4137
72.6928,139.4354
72.6545,139.4430
71.5045,139.4430
71.4662,139.4354
71.4338,139.4137
71.4121,139.3813
71.4045,139.3430
71.4045,139.0430
71.4121,139.0047
71.4338,138.9723
71.4662,138.9506
71.5045,138.9430
Z" /> 
<path style="fill:#000000; fill-opacity:1.0000; stroke:none;fill-rule:evenodd;"
d="M 72.6545,138.3430
72.6928,138.3506
72.7252,138.3723
72.7469,138.4047
72.7545,138.4430
72.7545,138.7430
72.7469,138.7813
72.7252,138.8137
72.6928,138.8354
72.6545,138.8430
71.5045,138.8430
71.4662,138.8354
71.4338,138.8137
71.4121,138.7813
71.4045,138.7430
71.4045,138.4430
71.4121,138.4047
71.4338,138.3723
71.4662,138.3506
71.5045,138.3430
Z" /> 
<path style="fill:#000000; fill-opacity:1.0000; stroke:none;fill-rule:evenodd;"
d="M 72.6545,137.3430
72.6928,137.3506
72.7252,137.3723
72.7469,137.4047
72.7545,137.4430
72.7545,137.7430
72.7469,137.7813
72.7252,137.8137
72.6928,137.8354
72.6545,137.8430
71.5045,137.8430
71.4662,137.8354
71.4338,137.8137
71.4121,137.7813
71.4045,137.7430
71.4045,137.4430
71.4121,137.4047
71.4338,137.3723
71.4662,137.3506
71.5045,137.3430
Z" /> 
<path style="fill:#000000; fill-opacity:1.0000; stroke:none;fill-rule:evenodd;"
d="M 72.6545,135.8430
72.6928,135.8506
72.7252,135.8723
72.7469,135.9047
72.7545,135.9430
72.7545,136.2430
72.7469,136.2813
72.7252,136.3137
72.6928,136.3354
72.6545,136.3430
71.5045,136.3430
71.4662,136.3354
71.4338,136.3137
71.4121,136.2813
71.4045,136.2430
71.4045,135.9430
71.4121,135.9047
71.4338,135.8723
71.4662,135.8506
71.5045,135.8430
Z" /> 
<path style="fill:#000000; fill-opacity:1.0000; stroke:none;fill-rule:evenodd;"
d="M 72.6545,134.8430
72.6928,134.8506
72.7252,134.8723
72.7469,134.9047
72.7545,134.9430
72.7545,135.2430
72.7469,135.2813
72.7252,135.3137
72.6928,135.3354
72.6545,135.3430
71.5045,135.3430
71.4662,135.3354
71.4338,135.3137
71.4121,135.2813
71.4045,135.2430
71.4045,134.9430
71.4121,134.9047
71.4338,134.8723
71.4662,134.8506
71.5045,134.8430
Z" /> 
<path style="fill:#000000; fill-opacity:1.0000; stroke:none;fill-rule:evenodd;"
d="M 72.6545,134.2430
72.6928,134.2506
72.7252,134.2723
72.7469,134.3047
72.7545,134.3430
72.7545,134.6430
72.7469,134.6813
72.7252,134.7137
72.6928,134.7354
72.6545,134.7430
71.5045,134.7430
71.4662,134.7354
71.4338,134.7137
71.4121,134.6813
71.4045,134.6430
71.4045,134.3430
71.4121,134.3047
71.4338,134.2723
71.4662,134.2506
71.5045,134.2430
Z" /> 
<path style="fill:#000000; fill-opacity:1.0000; stroke:none;fill-rule:evenodd;"
d="M 72.6545,133.4680
72.6928,133.4756
72.7252,133.4973
72.7469,133.5297
72.7545,133.5680
72.7545,133.8680
72.7469,133.9063
72.7252,133.9387
72.6928,133.9604
72.6545,133.9680
71.5045,133.9680
71.4662,133.9604
71.4338,133.9387
71.4121,133.9063
71.4045,133.8680
71.4045,133.5680
71.4121,133.5297
71.4338,133.4973
71.4662,133.4756
71.5045,133.4680
Z" /> 
</g>
<g style="fill:none; 
stroke:#000000; stroke-width:1.2000; stroke-opacity:1; 
stroke-linecap:round; stroke-linejoin:round;">
<path d="M67.6795 132.5180
L66.5795 132.5180
" />
<path d="M67.6795 141.1430
L66.5795 141.1430
" />
<path d="M71.8295 132.5180
L70.7295 132.5180
" />
<path d="M71.8295 141.1430
L70.7295 141.1430
" />
</g>
<g style="fill:#000000; fill-opacity:1.0000; stroke:none;">
<circle cx="66.6045" cy="136.8000" r="1.6000" /> 
</g>
<g style="fill:#000000; fill-opacity:1.0000; stroke:none;">
<circle cx="90.5445" cy="148.2600" r="0.9500" /> 
</g>
<g style="fill:#000000; fill-opacity:1.0000; stroke:none;">
<circle cx="93.0845" cy="148.2600" r="0.9500" /> 
</g>
<g style="fill:#000000; fill-opacity:1.0000; stroke:none;">
<circle cx="95.6245" cy="148.2600" r="0.9500" /> 
</g>
<g style="fill:#000000; fill-opacity:1.0000; stroke:none;">
<circle cx="98.1645" cy="148.2600" r="0.9500" /> 
</g>
<g style="fill:#000000; fill-opacity:1.0000; stroke:none;">
<circle cx="100.7045" cy="148.2600" r="0.9500" /> 
</g>
<g style="fill:#000000; fill-opacity:1.0000; stroke:none;">
<circle cx="103.2445" cy="148.2600" r="0.9500" /> 
</g>
<g style="fill:#000000; fill-opacity:1.0000; stroke:none;">
<circle cx="105.7845" cy="148.2600" r="0.9500" /> 
</g>
<g style="fill:#000000; fill-opacity:1.0000; stroke:none;">
<circle cx="108.3245" cy="148.2600" r="0.9500" /> 
</g>
<g style="fill:#000000; fill-opacity:1.0000; stroke:none;">
<circle cx="110.8645" cy="148.2600" r="0.9500" /> 
</g>
<g style="fill:#000000; fill-opacity:1.0000; stroke:none;">
<circle cx="113.4045" cy="148.2600" r="0.9500" /> 
</g>
<g style="fill:#000000; fill-opacity:1.0000; stroke:none;">
<circle cx="115.9445" cy="148.2600" r="0.9500" /> 
</g>
<g style="fill:#000000; fill-opacity:1.0000; stroke:none;">
<circle cx="118.4845" cy="148.2600" r="0.9500" /> 
</g>
<g style="fill:#000000; fill-opacity:1.0000; stroke:none;">
<circle cx="121.0245" cy="148.2600" r="0.9500" /> 
</g>
<g style="fill:#000000; fill-opacity:1.0000; stroke:none;">
<circle cx="123.5645" cy="148.2600" r="0.9500" /> 
</g>
<g style="fill:#000000; fill-opacity:1.0000; stroke:none;">
<circle cx="126.1045" cy="148.2600" r="0.9500" /> 
</g>
<g style="fill:#000000; fill-opacity:1.0000; stroke:none;">
<circle cx="90.5445" cy="125.4000" r="0.9500" /> 
</g>
<g style="fill:#000000; fill-opacity:1.0000; stroke:none;">
<circle cx="93.0845" cy="125.4000" r="0.9500" /> 
</g>
<g style="fill:#000000; fill-opacity:1.0000; stroke:none;">
<circle cx="95.6245" cy="125.4000" r="0.9500" /> 
</g>
<g style="fill:#000000; fill-opacity:1.0000; stroke:none;">
<circle cx="98.1645" cy="125.4000" r="0.9500" /> 
</g>
<g style="fill:#000000; fill-opacity:1.0000; stroke:none;">
<circle cx="100.7045" cy="125.4000" r="0.9500" /> 
</g>
<g style="fill:#000000; fill-opacity:1.0000; stroke:none;">
<circle cx="103.2445" cy="125.4000" r="0.9500" /> 
</g>
<g style="fill:#000000; fill-opacity:1.0000; stroke:none;">
<circle cx="105.7845" cy="125.4000" r="0.9500" /> 
</g>
<g style="fill:#000000; fill-opacity:1.0000; stroke:none;">
<circle cx="108.3245" cy="125.4000" r="0.9500" /> 
</g>
<g style="fill:#000000; fill-opacity:1.0000; stroke:none;">
<circle cx="110.8645" cy="125.4000" r="0.9500" /> 
</g>
<g style="fill:#000000; fill-opacity:1.0000; stroke:none;">
<circle cx="113.4045" cy="125.4000" r="0.9500" /> 
</g>
<g style="fill:#000000; fill-opacity:1.0000; stroke:none;">
<circle cx="115.9445" cy="125.4000" r="0.9500" /> 
</g>
<g style="fill:#000000; fill-opacity:1.0000; stroke:none;">
<circle cx="118.4845" cy="125.4000" r="0.9500" /> 
</g>
<g style="fill:#000000; fill-opacity:1.0000; stroke:none;">
<circle cx="121.0245" cy="125.4000" r="0.9500" /> 
</g>
<g style="fill:#000000; fill-opacity:1.0000; stroke:none;">
<circle cx="123.5645" cy="125.4000" r="0.9500" /> 
</g>
<g style="fill:#000000; fill-opacity:1.0000; stroke:none;">
<circle cx="126.1045" cy="125.4000" r="0.9500" /> 
</g>
<g style="fill:#FFFFFF; fill-opacity:1.0000; stroke:none;">
<circle cx="76.6045" cy="136.8300" r="1.6000" /> 
</g>
<g style="fill:#FFFFFF; fill-opacity:1.0000; stroke:none;">
<circle cx="108.6045" cy="136.8300" r="1.6000" /> 
</g>
<g style="fill:#FFFFFF; fill-opacity:1.0000; stroke:none;">
<circle cx="70.8045" cy="139.7430" r="0.3250" /> 
</g>
<g style="fill:#FFFFFF; fill-opacity:1.0000; stroke:none;">
<circle cx="70.8045" cy="133.9680" r="0.3250" /> 
</g>
<g style="fill:none; 
stroke:#FFFFFF; stroke-width:0.6000; stroke-opacity:1; 
stroke-linecap:round; stroke-linejoin:round;">
<path d="M67.6795 132.5180
L66.5795 132.5180
" />
<path d="M67.6795 141.1430
L66.5795 141.1430
" />
<path d="M71.8295 132.5180
L70.7295 132.5180
" />
<path d="M71.8295 141.1430
L70.7295 141.1430
" />
</g>
<g style="fill:#FFFFFF; fill-opacity:1.0000; stroke:none;">
<circle cx="90.5445" cy="148.2600" r="0.5000" /> 
</g>
<g style="fill:#FFFFFF; fill-opacity:1.0000; stroke:none;">
<circle cx="93.0845" cy="148.2600" r="0.5000" /> 
</g>
<g style="fill:#FFFFFF; fill-opacity:1.0000; stroke:none;">
<circle cx="95.6245" cy="148.2600" r="0.5000" /> 
</g>
<g style="fill:#FFFFFF; fill-opacity:1.0000; stroke:none;">
<circle cx="98.1645" cy="148.2600" r="0.5000" /> 
</g>
<g style="fill:#FFFFFF; fill-opacity:1.0000; stroke:none;">
<circle cx="100.7045" cy="148.2600" r="0.5000" /> 
</g>
<g style="fill:#FFFFFF; fill-opacity:1.0000; stroke:none;">
<circle cx="103.2445" cy="148.2600" r="0.5000" /> 
</g>
<g style="fill:#FFFFFF; fill-opacity:1.0000; stroke:none;">
<circle cx="105.7845" cy="148.2600" r="0.5000" /> 
</g>
<g style="fill:#FFFFFF; fill-opacity:1.0000; stroke:none;">
<circle cx="108.3245" cy="148.2600" r="0.5000" /> 
</g>
<g style="fill:#FFFFFF; fill-opacity:1.0000; stroke:none;">
<circle cx="110.8645" cy="148.2600" r="0.5000" /> 
</g>
<g style="fill:#FFFFFF; fill-opacity:1.0000; stroke:none;">
<circle cx="113.4045" cy="148.2600" r="0.5000" /> 
</g>
<g style="fill:#FFFFFF; fill-opacity:1.0000; stroke:none;">
<circle cx="115.9445" cy="148.2600" r="0.5000" /> 
</g>
<g style="fill:#FFFFFF; fill-opacity:1.0000; stroke:none;">
<circle cx="118.4845" cy="148.2600" r="0.5000" /> 
</g>
<g style="fill:#FFFFFF; fill-opacity:1.0000; stroke:none;">
<circle cx="121.0245" cy="148.2600" r="0.5000" /> 
</g>
<g style="fill:#FFFFFF; fill-opacity:1.0000; stroke:none;">
<circle cx="123.5645" cy="148.2600" r="0.5000" /> 
</g>
<g style="fill:#FFFFFF; fill-opacity:1.0000; stroke:none;">
<circle cx="126.1045" cy="148.2600" r="0.5000" /> 
</g>
<g style="fill:#FFFFFF; fill-opacity:1.0000; stroke:none;">
<circle cx="90.5445" cy="125.4000" r="0.5000" /> 
</g>
<g style="fill:#FFFFFF; fill-opacity:1.0000; stroke:none;">
<circle cx="93.0845" cy="125.4000" r="0.5000" /> 
</g>
<g style="fill:#FFFFFF; fill-opacity:1.0000; stroke:none;">
<circle cx="95.6245" cy="125.4000" r="0.5000" /> 
</g>
<g style="fill:#FFFFFF; fill-opacity:1.0000; stroke:none;">
<circle cx="98.1645" cy="125.4000" r="0.5000" /> 
</g>
<g style="fill:#FFFFFF; fill-opacity:1.0000; stroke:none;">
<circle cx="100.7045" cy="125.4000" r="0.5000" /> 
</g>
<g style="fill:#FFFFFF; fill-opacity:1.0000; stroke:none;">
<circle cx="103.2445" cy="125.4000" r="0.5000" /> 
</g>
<g style="fill:#FFFFFF; fill-opacity:1.0000; stroke:none;">
<circle cx="105.7845" cy="125.4000" r="0.5000" /> 
</g>
<g style="fill:#FFFFFF; fill-opacity:1.0000; stroke:none;">
<circle cx="108.3245" cy="125.4000" r="0.5000" /> 
</g>
<g style="fill:#FFFFFF; fill-opacity:1.0000; stroke:none;">
<circle cx="110.8645" cy="125.4000" r="0.5000" /> 
</g>
<g style="fill:#FFFFFF; fill-opacity:1.0000; stroke:none;">
<circle cx="113.4045" cy="125.4000" r="0.5000" /> 
</g>
<g style="fill:#FFFFFF; fill-opacity:1.0000; stroke:none;">
<circle cx="115.9445" cy="125.4000" r="0.5000" /> 
</g>
<g style="fill:#FFFFFF; fill-opacity:1.0000; stroke:none;">
<circle cx="118.4845" cy="125.4000" r="0.5000" /> 
</g>
<g style="fill:#FFFFFF; fill-opacity:1.0000; stroke:none;">
<circle cx="121.0245" cy="125.4000" r="0.5000" /> 
</g>
<g style="fill:#FFFFFF; fill-opacity:1.0000; stroke:none;">
<circle cx="123.5645" cy="125.4000" r="0.5000" /> 
</g>
<g style="fill:#FFFFFF; fill-opacity:1.0000; stroke:none;">
<circle cx="126.1045" cy="125.4000" r="0.5000" /> 
</g> 
</svg>
