<?xml version="1.0" standalone="no"?>
 <!DOCTYPE svg PUBLIC "-//W3C//DTD SVG 1.1//EN" 
 "http://www.w3.org/Graphics/SVG/1.1/DTD/svg11.dtd"> 
<svg
  xmlns:svg="http://www.w3.org/2000/svg"
  xmlns="http://www.w3.org/2000/svg"
  xmlns:xlink="http://www.w3.org/1999/xlink"
  version="1.1"
  width="297.0022mm" height="210.0072mm" viewBox="0.0000 0.0000 297.0022 210.0072">
<title>SVG Image created as Dasduino_CONNECTPLUS-F_Mask.svg date 2025/07/25 10:35:57 </title>
  <desc>Image generated by PCBNEW </desc>
<g style="fill:#000000; fill-opacity:1.0000;stroke:#000000; stroke-opacity:1.0000;
stroke-linecap:round; stroke-linejoin:round;"
 transform="translate(0 0) scale(1 1)">
<path style="fill:#000000; fill-opacity:1.0000; stroke:none;fill-rule:evenodd;"
d="M 88.7000,129.2050
88.7076,129.1667
88.7293,129.1343
88.7617,129.1126
88.8000,129.1050
89.8000,129.1050
89.8383,129.1126
89.8707,129.1343
89.8924,129.1667
89.9000,129.2050
89.9000,129.8450
89.8924,129.8833
89.8707,129.9157
89.8383,129.9374
89.8000,129.9450
88.8000,129.9450
88.7617,129.9374
88.7293,129.9157
88.7076,129.8833
88.7000,129.8450
Z" /> 
<path style="fill:#000000; fill-opacity:1.0000; stroke:none;fill-rule:evenodd;"
d="M 88.7000,130.7550
88.7076,130.7167
88.7293,130.6843
88.7617,130.6626
88.8000,130.6550
89.8000,130.6550
89.8383,130.6626
89.8707,130.6843
89.8924,130.7167
89.9000,130.7550
89.9000,131.3950
89.8924,131.4333
89.8707,131.4657
89.8383,131.4874
89.8000,131.4950
88.8000,131.4950
88.7617,131.4874
88.7293,131.4657
88.7076,131.4333
88.7000,131.3950
Z" /> 
<path style="fill:#000000; fill-opacity:1.0000; stroke:none;fill-rule:evenodd;"
d="M 88.8800,134.5300
88.8876,134.4917
88.9093,134.4593
88.9417,134.4376
88.9800,134.4300
89.6200,134.4300
89.6583,134.4376
89.6907,134.4593
89.7124,134.4917
89.7200,134.5300
89.7200,135.0700
89.7124,135.1083
89.6907,135.1407
89.6583,135.1624
89.6200,135.1700
88.9800,135.1700
88.9417,135.1624
88.9093,135.1407
88.8876,135.1083
88.8800,135.0700
Z" /> 
<path style="fill:#000000; fill-opacity:1.0000; stroke:none;fill-rule:evenodd;"
d="M 88.8800,135.5300
88.8876,135.4917
88.9093,135.4593
88.9417,135.4376
88.9800,135.4300
89.6200,135.4300
89.6583,135.4376
89.6907,135.4593
89.7124,135.4917
89.7200,135.5300
89.7200,136.0700
89.7124,136.1083
89.6907,136.1407
89.6583,136.1624
89.6200,136.1700
88.9800,136.1700
88.9417,136.1624
88.9093,136.1407
88.8876,136.1083
88.8800,136.0700
Z" /> 
<path style="fill:#000000; fill-opacity:1.0000; stroke:none;fill-rule:evenodd;"
d="M 71.0750,117.3750
71.0367,117.3674
71.0043,117.3457
70.9826,117.3133
70.9750,117.2750
70.9750,115.5250
70.9826,115.4867
71.0043,115.4543
71.0367,115.4326
71.0750,115.4250
72.0750,115.4250
72.1133,115.4326
72.1457,115.4543
72.1674,115.4867
72.1750,115.5250
72.1750,117.2750
72.1674,117.3133
72.1457,117.3457
72.1133,117.3674
72.0750,117.3750
Z" /> 
<path style="fill:#000000; fill-opacity:1.0000; stroke:none;fill-rule:evenodd;"
d="M 74.1250,117.3750
74.0867,117.3674
74.0543,117.3457
74.0326,117.3133
74.0250,117.2750
74.0250,115.5250
74.0326,115.4867
74.0543,115.4543
74.0867,115.4326
74.1250,115.4250
75.1250,115.4250
75.1633,115.4326
75.1957,115.4543
75.2174,115.4867
75.2250,115.5250
75.2250,117.2750
75.2174,117.3133
75.1957,117.3457
75.1633,117.3674
75.1250,117.3750
Z" /> 
<path style="fill:#000000; fill-opacity:1.0000; stroke:none;fill-rule:evenodd;"
d="M 85.9600,141.6000
85.9983,141.6076
86.0307,141.6293
86.0524,141.6617
86.0600,141.7000
86.0600,142.7000
86.0524,142.7383
86.0307,142.7707
85.9983,142.7924
85.9600,142.8000
83.9600,142.8000
83.9217,142.7924
83.8893,142.7707
83.8676,142.7383
83.8600,142.7000
83.8600,141.7000
83.8676,141.6617
83.8893,141.6293
83.9217,141.6076
83.9600,141.6000
Z" /> 
<path style="fill:#000000; fill-opacity:1.0000; stroke:none;fill-rule:evenodd;"
d="M 85.9600,144.4000
85.9983,144.4076
86.0307,144.4293
86.0524,144.4617
86.0600,144.5000
86.0600,145.5000
86.0524,145.5383
86.0307,145.5707
85.9983,145.5924
85.9600,145.6000
83.9600,145.6000
83.9217,145.5924
83.8893,145.5707
83.8676,145.5383
83.8600,145.5000
83.8600,144.5000
83.8676,144.4617
83.8893,144.4293
83.9217,144.4076
83.9600,144.4000
Z" /> 
<path style="fill:#000000; fill-opacity:1.0000; stroke:none;fill-rule:evenodd;"
d="M 88.6490,141.4100
88.6566,141.3717
88.6783,141.3393
88.7107,141.3176
88.7490,141.3100
89.7490,141.3100
89.7873,141.3176
89.8197,141.3393
89.8414,141.3717
89.8490,141.4100
89.8490,142.0500
89.8414,142.0883
89.8197,142.1207
89.7873,142.1424
89.7490,142.1500
88.7490,142.1500
88.7107,142.1424
88.6783,142.1207
88.6566,142.0883
88.6490,142.0500
Z" /> 
<path style="fill:#000000; fill-opacity:1.0000; stroke:none;fill-rule:evenodd;"
d="M 88.6490,142.9600
88.6566,142.9217
88.6783,142.8893
88.7107,142.8676
88.7490,142.8600
89.7490,142.8600
89.7873,142.8676
89.8197,142.8893
89.8414,142.9217
89.8490,142.9600
89.8490,143.6000
89.8414,143.6383
89.8197,143.6707
89.7873,143.6924
89.7490,143.7000
88.7490,143.7000
88.7107,143.6924
88.6783,143.6707
88.6566,143.6383
88.6490,143.6000
Z" /> 
<path style="fill:#000000; fill-opacity:1.0000; stroke:none;fill-rule:evenodd;"
d="M 82.5000,113.5400
82.5383,113.5476
82.5707,113.5693
82.5924,113.6017
82.6000,113.6400
82.6000,114.3000
82.5924,114.3383
82.5707,114.3707
82.5383,114.3924
82.5000,114.4000
81.5000,114.4000
81.4617,114.3924
81.4293,114.3707
81.4076,114.3383
81.4000,114.3000
81.4000,113.6400
81.4076,113.6017
81.4293,113.5693
81.4617,113.5476
81.5000,113.5400
Z" /> 
<path style="fill:#000000; fill-opacity:1.0000; stroke:none;fill-rule:evenodd;"
d="M 82.5000,115.0000
82.5383,115.0076
82.5707,115.0293
82.5924,115.0617
82.6000,115.1000
82.6000,115.7600
82.5924,115.7983
82.5707,115.8307
82.5383,115.8524
82.5000,115.8600
81.5000,115.8600
81.4617,115.8524
81.4293,115.8307
81.4076,115.7983
81.4000,115.7600
81.4000,115.1000
81.4076,115.0617
81.4293,115.0293
81.4617,115.0076
81.5000,115.0000
Z" /> 
<path style="fill:#000000; fill-opacity:1.0000; stroke:none;fill-rule:evenodd;"
d="M 82.5000,134.5950
82.4924,134.6333
82.4707,134.6657
82.4383,134.6874
82.4000,134.6950
81.4000,134.6950
81.3617,134.6874
81.3293,134.6657
81.3076,134.6333
81.3000,134.5950
81.3000,133.9550
81.3076,133.9167
81.3293,133.8843
81.3617,133.8626
81.4000,133.8550
82.4000,133.8550
82.4383,133.8626
82.4707,133.8843
82.4924,133.9167
82.5000,133.9550
Z" /> 
<path style="fill:#000000; fill-opacity:1.0000; stroke:none;fill-rule:evenodd;"
d="M 82.5000,133.0450
82.4924,133.0833
82.4707,133.1157
82.4383,133.1374
82.4000,133.1450
81.4000,133.1450
81.3617,133.1374
81.3293,133.1157
81.3076,133.0833
81.3000,133.0450
81.3000,132.4050
81.3076,132.3667
81.3293,132.3343
81.3617,132.3126
81.4000,132.3050
82.4000,132.3050
82.4383,132.3126
82.4707,132.3343
82.4924,132.3667
82.5000,132.4050
Z" /> 
<path style="fill:#000000; fill-opacity:1.0000; stroke:none;fill-rule:evenodd;"
d="M 75.2000,112.9400
75.2383,112.9476
75.2707,112.9693
75.2924,113.0017
75.3000,113.0400
75.3000,113.7000
75.2924,113.7383
75.2707,113.7707
75.2383,113.7924
75.2000,113.8000
74.2000,113.8000
74.1617,113.7924
74.1293,113.7707
74.1076,113.7383
74.1000,113.7000
74.1000,113.0400
74.1076,113.0017
74.1293,112.9693
74.1617,112.9476
74.2000,112.9400
Z" /> 
<path style="fill:#000000; fill-opacity:1.0000; stroke:none;fill-rule:evenodd;"
d="M 75.2000,114.4000
75.2383,114.4076
75.2707,114.4293
75.2924,114.4617
75.3000,114.5000
75.3000,115.1600
75.2924,115.1983
75.2707,115.2307
75.2383,115.2524
75.2000,115.2600
74.2000,115.2600
74.1617,115.2524
74.1293,115.2307
74.1076,115.1983
74.1000,115.1600
74.1000,114.5000
74.1076,114.4617
74.1293,114.4293
74.1617,114.4076
74.2000,114.4000
Z" /> 
<path style="fill:#000000; fill-opacity:1.0000; stroke:none;fill-rule:evenodd;"
d="M 86.2000,129.2050
86.2076,129.1667
86.2293,129.1343
86.2617,129.1126
86.3000,129.1050
87.3000,129.1050
87.3383,129.1126
87.3707,129.1343
87.3924,129.1667
87.4000,129.2050
87.4000,129.8450
87.3924,129.8833
87.3707,129.9157
87.3383,129.9374
87.3000,129.9450
86.3000,129.9450
86.2617,129.9374
86.2293,129.9157
86.2076,129.8833
86.2000,129.8450
Z" /> 
<path style="fill:#000000; fill-opacity:1.0000; stroke:none;fill-rule:evenodd;"
d="M 86.2000,130.7550
86.2076,130.7167
86.2293,130.6843
86.2617,130.6626
86.3000,130.6550
87.3000,130.6550
87.3383,130.6626
87.3707,130.6843
87.3924,130.7167
87.4000,130.7550
87.4000,131.3950
87.3924,131.4333
87.3707,131.4657
87.3383,131.4874
87.3000,131.4950
86.3000,131.4950
86.2617,131.4874
86.2293,131.4657
86.2076,131.4333
86.2000,131.3950
Z" /> 
<path style="fill:#000000; fill-opacity:1.0000; stroke:none;fill-rule:evenodd;"
d="M 87.2750,134.0750
87.2674,134.1133
87.2457,134.1457
87.2133,134.1674
87.1750,134.1750
86.4250,134.1750
86.3867,134.1674
86.3543,134.1457
86.3326,134.1133
86.3250,134.0750
86.3250,133.6250
86.3326,133.5867
86.3543,133.5543
86.3867,133.5326
86.4250,133.5250
87.1750,133.5250
87.2133,133.5326
87.2457,133.5543
87.2674,133.5867
87.2750,133.6250
Z" /> 
<path style="fill:#000000; fill-opacity:1.0000; stroke:none;fill-rule:evenodd;"
d="M 87.2750,132.9750
87.2674,133.0133
87.2457,133.0457
87.2133,133.0674
87.1750,133.0750
86.4250,133.0750
86.3867,133.0674
86.3543,133.0457
86.3326,133.0133
86.3250,132.9750
86.3250,132.5250
86.3326,132.4867
86.3543,132.4543
86.3867,132.4326
86.4250,132.4250
87.1750,132.4250
87.2133,132.4326
87.2457,132.4543
87.2674,132.4867
87.2750,132.5250
Z" /> 
<path style="fill:#000000; fill-opacity:1.0000; stroke:none;fill-rule:evenodd;"
d="M 86.3800,134.5300
86.3876,134.4917
86.4093,134.4593
86.4417,134.4376
86.4800,134.4300
87.1200,134.4300
87.1583,134.4376
87.1907,134.4593
87.2124,134.4917
87.2200,134.5300
87.2200,135.0700
87.2124,135.1083
87.1907,135.1407
87.1583,135.1624
87.1200,135.1700
86.4800,135.1700
86.4417,135.1624
86.4093,135.1407
86.3876,135.1083
86.3800,135.0700
Z" /> 
<path style="fill:#000000; fill-opacity:1.0000; stroke:none;fill-rule:evenodd;"
d="M 86.3800,135.5300
86.3876,135.4917
86.4093,135.4593
86.4417,135.4376
86.4800,135.4300
87.1200,135.4300
87.1583,135.4376
87.1907,135.4593
87.2124,135.4917
87.2200,135.5300
87.2200,136.0700
87.2124,136.1083
87.1907,136.1407
87.1583,136.1624
87.1200,136.1700
86.4800,136.1700
86.4417,136.1624
86.4093,136.1407
86.3876,136.1083
86.3800,136.0700
Z" /> 
<path style="fill:#000000; fill-opacity:1.0000; stroke:none;fill-rule:evenodd;"
d="M 67.1000,148.7000
67.1076,148.6617
67.1293,148.6293
67.1617,148.6076
67.2000,148.6000
67.7000,148.6000
67.7383,148.6076
67.7707,148.6293
67.7924,148.6617
67.8000,148.7000
67.8000,149.7000
67.7924,149.7383
67.7707,149.7707
67.7383,149.7924
67.7000,149.8000
67.2000,149.8000
67.1617,149.7924
67.1293,149.7707
67.1076,149.7383
67.1000,149.7000
Z" /> 
<path style="fill:#000000; fill-opacity:1.0000; stroke:none;fill-rule:evenodd;"
d="M 67.8000,148.7000
67.8076,148.6617
67.8293,148.6293
67.8617,148.6076
67.9000,148.6000
68.4000,148.6000
68.4383,148.6076
68.4707,148.6293
68.4924,148.6617
68.5000,148.7000
68.5000,149.7000
68.4924,149.7383
68.4707,149.7707
68.4383,149.7924
68.4000,149.8000
67.9000,149.8000
67.8617,149.7924
67.8293,149.7707
67.8076,149.7383
67.8000,149.7000
Z" /> 
</g>
<g style="fill:#000000; fill-opacity:1.0000; stroke:none;">
<circle cx="88.8600" cy="124.0600" r="0.9500" /> 
</g>
<g style="fill:#000000; fill-opacity:1.0000; stroke:none;">
<circle cx="88.8600" cy="121.5200" r="0.9500" /> 
</g>
<g style="fill:#000000; fill-opacity:1.0000; stroke:none;">
<circle cx="88.8600" cy="118.9800" r="0.9500" /> 
</g>
<g style="fill:#000000; fill-opacity:1.0000; stroke:none;">
<circle cx="88.8600" cy="116.4400" r="0.9500" /> 
</g>
<g style="fill:#000000; fill-opacity:1.0000; stroke:none;">
<circle cx="88.8600" cy="113.9000" r="0.9500" /> 
</g>
<g style="fill:#000000; fill-opacity:1.0000; stroke:none;">
<circle cx="88.8600" cy="111.3600" r="0.9500" /> 
</g>
<g style="fill:#000000; fill-opacity:1.0000; stroke:none;">
<circle cx="88.8600" cy="108.8200" r="0.9500" /> 
</g>
<g style="fill:#000000; fill-opacity:1.0000; stroke:none;">
<circle cx="88.8600" cy="106.2800" r="0.9500" /> 
</g>
<g style="fill:#000000; fill-opacity:1.0000; stroke:none;">
<circle cx="88.8600" cy="103.7400" r="0.9500" /> 
</g>
<g style="fill:#000000; fill-opacity:1.0000; stroke:none;">
<circle cx="88.8600" cy="101.2000" r="0.9500" /> 
</g>
<g style="fill:#000000; fill-opacity:1.0000; stroke:none;">
<circle cx="88.8600" cy="98.6600" r="0.9500" /> 
</g>
<g style="fill:#000000; fill-opacity:1.0000; stroke:none;">
<circle cx="88.8600" cy="96.1200" r="0.9500" /> 
</g>
<g style="fill:#000000; fill-opacity:1.0000; stroke:none;">
<circle cx="88.8600" cy="93.5800" r="0.9500" /> 
</g>
<g style="fill:#000000; fill-opacity:1.0000; stroke:none;">
<circle cx="88.8600" cy="91.0400" r="0.9500" /> 
</g>
<g style="fill:#000000; fill-opacity:1.0000; stroke:none;">
<circle cx="88.8600" cy="88.5000" r="0.9500" /> 
<path style="fill:#000000; fill-opacity:1.0000; stroke:none;fill-rule:evenodd;"
d="M 85.2360,147.0000
85.2436,146.9617
85.2653,146.9293
85.2977,146.9076
85.3360,146.9000
86.3360,146.9000
86.3743,146.9076
86.4067,146.9293
86.4284,146.9617
86.4360,147.0000
86.4360,147.6400
86.4284,147.6783
86.4067,147.7107
86.3743,147.7324
86.3360,147.7400
85.3360,147.7400
85.2977,147.7324
85.2653,147.7107
85.2436,147.6783
85.2360,147.6400
Z" /> 
<path style="fill:#000000; fill-opacity:1.0000; stroke:none;fill-rule:evenodd;"
d="M 85.2360,148.5500
85.2436,148.5117
85.2653,148.4793
85.2977,148.4576
85.3360,148.4500
86.3360,148.4500
86.3743,148.4576
86.4067,148.4793
86.4284,148.5117
86.4360,148.5500
86.4360,149.1900
86.4284,149.2283
86.4067,149.2607
86.3743,149.2824
86.3360,149.2900
85.3360,149.2900
85.2977,149.2824
85.2653,149.2607
85.2436,149.2283
85.2360,149.1900
Z" /> 
<path style="fill:#000000; fill-opacity:1.0000; stroke:none;fill-rule:evenodd;"
d="M 72.6000,118.3020
72.6076,118.2637
72.6293,118.2313
72.6617,118.2096
72.7000,118.2020
73.0000,118.2020
73.0383,118.2096
73.0707,118.2313
73.0924,118.2637
73.1000,118.3020
73.1000,119.0020
73.0924,119.0403
73.0707,119.0727
73.0383,119.0944
73.0000,119.1020
72.7000,119.1020
72.6617,119.0944
72.6293,119.0727
72.6076,119.0403
72.6000,119.0020
Z" /> 
<path style="fill:#000000; fill-opacity:1.0000; stroke:none;fill-rule:evenodd;"
d="M 71.9500,118.3020
71.9576,118.2637
71.9793,118.2313
72.0117,118.2096
72.0500,118.2020
72.3500,118.2020
72.3883,118.2096
72.4207,118.2313
72.4424,118.2637
72.4500,118.3020
72.4500,119.0020
72.4424,119.0403
72.4207,119.0727
72.3883,119.0944
72.3500,119.1020
72.0500,119.1020
72.0117,119.0944
71.9793,119.0727
71.9576,119.0403
71.9500,119.0020
Z" /> 
<path style="fill:#000000; fill-opacity:1.0000; stroke:none;fill-rule:evenodd;"
d="M 71.3000,118.3020
71.3076,118.2637
71.3293,118.2313
71.3617,118.2096
71.4000,118.2020
71.7000,118.2020
71.7383,118.2096
71.7707,118.2313
71.7924,118.2637
71.8000,118.3020
71.8000,119.0020
71.7924,119.0403
71.7707,119.0727
71.7383,119.0944
71.7000,119.1020
71.4000,119.1020
71.3617,119.0944
71.3293,119.0727
71.3076,119.0403
71.3000,119.0020
Z" /> 
<path style="fill:#000000; fill-opacity:1.0000; stroke:none;fill-rule:evenodd;"
d="M 71.3000,120.2920
71.3076,120.2537
71.3293,120.2213
71.3617,120.1996
71.4000,120.1920
71.7000,120.1920
71.7383,120.1996
71.7707,120.2213
71.7924,120.2537
71.8000,120.2920
71.8000,120.9920
71.7924,121.0303
71.7707,121.0627
71.7383,121.0844
71.7000,121.0920
71.4000,121.0920
71.3617,121.0844
71.3293,121.0627
71.3076,121.0303
71.3000,120.9920
Z" /> 
<path style="fill:#000000; fill-opacity:1.0000; stroke:none;fill-rule:evenodd;"
d="M 71.3000,119.2020
71.3076,119.1637
71.3293,119.1313
71.3617,119.1096
71.4000,119.1020
73.0000,119.1020
73.0383,119.1096
73.0707,119.1313
73.0924,119.1637
73.1000,119.2020
73.1000,120.0920
73.0924,120.1303
73.0707,120.1627
73.0383,120.1844
73.0000,120.1920
71.4000,120.1920
71.3617,120.1844
71.3293,120.1627
71.3076,120.1303
71.3000,120.0920
Z" /> 
<path style="fill:#000000; fill-opacity:1.0000; stroke:none;fill-rule:evenodd;"
d="M 71.9500,120.2920
71.9576,120.2537
71.9793,120.2213
72.0117,120.1996
72.0500,120.1920
72.3500,120.1920
72.3883,120.1996
72.4207,120.2213
72.4424,120.2537
72.4500,120.2920
72.4500,120.9920
72.4424,121.0303
72.4207,121.0627
72.3883,121.0844
72.3500,121.0920
72.0500,121.0920
72.0117,121.0844
71.9793,121.0627
71.9576,121.0303
71.9500,120.9920
Z" /> 
<path style="fill:#000000; fill-opacity:1.0000; stroke:none;fill-rule:evenodd;"
d="M 72.6000,120.2920
72.6076,120.2537
72.6293,120.2213
72.6617,120.1996
72.7000,120.1920
73.0000,120.1920
73.0383,120.1996
73.0707,120.2213
73.0924,120.2537
73.1000,120.2920
73.1000,120.9920
73.0924,121.0303
73.0707,121.0627
73.0383,121.0844
73.0000,121.0920
72.7000,121.0920
72.6617,121.0844
72.6293,121.0627
72.6076,121.0303
72.6000,120.9920
Z" /> 
<path style="fill:#000000; fill-opacity:1.0000; stroke:none;fill-rule:evenodd;"
d="M 77.2300,133.7650
77.2683,133.7726
77.3007,133.7943
77.3224,133.8267
77.3300,133.8650
77.3300,134.5650
77.3224,134.6033
77.3007,134.6357
77.2683,134.6574
77.2300,134.6650
76.5300,134.6650
76.4917,134.6574
76.4593,134.6357
76.4376,134.6033
76.4300,134.5650
76.4300,133.8650
76.4376,133.8267
76.4593,133.7943
76.4917,133.7726
76.5300,133.7650
Z" /> 
<path style="fill:#000000; fill-opacity:1.0000; stroke:none;fill-rule:evenodd;"
d="M 78.3300,133.7650
78.3683,133.7726
78.4007,133.7943
78.4224,133.8267
78.4300,133.8650
78.4300,134.5650
78.4224,134.6033
78.4007,134.6357
78.3683,134.6574
78.3300,134.6650
77.6300,134.6650
77.5917,134.6574
77.5593,134.6357
77.5376,134.6033
77.5300,134.5650
77.5300,133.8650
77.5376,133.8267
77.5593,133.7943
77.5917,133.7726
77.6300,133.7650
Z" /> 
<path style="fill:#000000; fill-opacity:1.0000; stroke:none;fill-rule:evenodd;"
d="M 78.3300,131.9350
78.3683,131.9426
78.4007,131.9643
78.4224,131.9967
78.4300,132.0350
78.4300,132.7350
78.4224,132.7733
78.4007,132.8057
78.3683,132.8274
78.3300,132.8350
77.6300,132.8350
77.5917,132.8274
77.5593,132.8057
77.5376,132.7733
77.5300,132.7350
77.5300,132.0350
77.5376,131.9967
77.5593,131.9643
77.5917,131.9426
77.6300,131.9350
Z" /> 
<path style="fill:#000000; fill-opacity:1.0000; stroke:none;fill-rule:evenodd;"
d="M 77.2300,131.9350
77.2683,131.9426
77.3007,131.9643
77.3224,131.9967
77.3300,132.0350
77.3300,132.7350
77.3224,132.7733
77.3007,132.8057
77.2683,132.8274
77.2300,132.8350
76.5300,132.8350
76.4917,132.8274
76.4593,132.8057
76.4376,132.7733
76.4300,132.7350
76.4300,132.0350
76.4376,131.9967
76.4593,131.9643
76.4917,131.9426
76.5300,131.9350
Z" /> 
<path style="fill:#000000; fill-opacity:1.0000; stroke:none;fill-rule:evenodd;"
d="M 67.5800,137.5300
67.5876,137.4917
67.6093,137.4593
67.6417,137.4376
67.6800,137.4300
68.3200,137.4300
68.3583,137.4376
68.3907,137.4593
68.4124,137.4917
68.4200,137.5300
68.4200,138.0700
68.4124,138.1083
68.3907,138.1407
68.3583,138.1624
68.3200,138.1700
67.6800,138.1700
67.6417,138.1624
67.6093,138.1407
67.5876,138.1083
67.5800,138.0700
Z" /> 
<path style="fill:#000000; fill-opacity:1.0000; stroke:none;fill-rule:evenodd;"
d="M 67.5800,138.5300
67.5876,138.4917
67.6093,138.4593
67.6417,138.4376
67.6800,138.4300
68.3200,138.4300
68.3583,138.4376
68.3907,138.4593
68.4124,138.4917
68.4200,138.5300
68.4200,139.0700
68.4124,139.1083
68.3907,139.1407
68.3583,139.1624
68.3200,139.1700
67.6800,139.1700
67.6417,139.1624
67.6093,139.1407
67.5876,139.1083
67.5800,139.0700
Z" /> 
<path style="fill:#000000; fill-opacity:1.0000; stroke:none;fill-rule:evenodd;"
d="M 71.7750,147.5250
71.8133,147.5326
71.8457,147.5543
71.8674,147.5867
71.8750,147.6250
71.8750,148.3750
71.8674,148.4133
71.8457,148.4457
71.8133,148.4674
71.7750,148.4750
71.3250,148.4750
71.2867,148.4674
71.2543,148.4457
71.2326,148.4133
71.2250,148.3750
71.2250,147.6250
71.2326,147.5867
71.2543,147.5543
71.2867,147.5326
71.3250,147.5250
Z" /> 
<path style="fill:#000000; fill-opacity:1.0000; stroke:none;fill-rule:evenodd;"
d="M 70.6750,147.5250
70.7133,147.5326
70.7457,147.5543
70.7674,147.5867
70.7750,147.6250
70.7750,148.3750
70.7674,148.4133
70.7457,148.4457
70.7133,148.4674
70.6750,148.4750
70.2250,148.4750
70.1867,148.4674
70.1543,148.4457
70.1326,148.4133
70.1250,148.3750
70.1250,147.6250
70.1326,147.5867
70.1543,147.5543
70.1867,147.5326
70.2250,147.5250
Z" /> 
</g>
<g style="fill:#000000; fill-opacity:1.0000; stroke:none;">
<circle cx="66.0000" cy="124.0600" r="0.9500" /> 
</g>
<g style="fill:#000000; fill-opacity:1.0000; stroke:none;">
<circle cx="66.0000" cy="121.5200" r="0.9500" /> 
</g>
<g style="fill:#000000; fill-opacity:1.0000; stroke:none;">
<circle cx="66.0000" cy="118.9800" r="0.9500" /> 
</g>
<g style="fill:#000000; fill-opacity:1.0000; stroke:none;">
<circle cx="66.0000" cy="116.4400" r="0.9500" /> 
</g>
<g style="fill:#000000; fill-opacity:1.0000; stroke:none;">
<circle cx="66.0000" cy="113.9000" r="0.9500" /> 
</g>
<g style="fill:#000000; fill-opacity:1.0000; stroke:none;">
<circle cx="66.0000" cy="111.3600" r="0.9500" /> 
</g>
<g style="fill:#000000; fill-opacity:1.0000; stroke:none;">
<circle cx="66.0000" cy="108.8200" r="0.9500" /> 
</g>
<g style="fill:#000000; fill-opacity:1.0000; stroke:none;">
<circle cx="66.0000" cy="106.2800" r="0.9500" /> 
</g>
<g style="fill:#000000; fill-opacity:1.0000; stroke:none;">
<circle cx="66.0000" cy="103.7400" r="0.9500" /> 
</g>
<g style="fill:#000000; fill-opacity:1.0000; stroke:none;">
<circle cx="66.0000" cy="101.2000" r="0.9500" /> 
</g>
<g style="fill:#000000; fill-opacity:1.0000; stroke:none;">
<circle cx="66.0000" cy="98.6600" r="0.9500" /> 
</g>
<g style="fill:#000000; fill-opacity:1.0000; stroke:none;">
<circle cx="66.0000" cy="96.1200" r="0.9500" /> 
</g>
<g style="fill:#000000; fill-opacity:1.0000; stroke:none;">
<circle cx="66.0000" cy="93.5800" r="0.9500" /> 
</g>
<g style="fill:#000000; fill-opacity:1.0000; stroke:none;">
<circle cx="66.0000" cy="91.0400" r="0.9500" /> 
</g>
<g style="fill:#000000; fill-opacity:1.0000; stroke:none;">
<circle cx="66.0000" cy="88.5000" r="0.9500" /> 
<path style="fill:#000000; fill-opacity:1.0000; stroke:none;fill-rule:evenodd;"
d="M 78.4000,113.6050
78.4076,113.5667
78.4293,113.5343
78.4617,113.5126
78.5000,113.5050
79.5000,113.5050
79.5383,113.5126
79.5707,113.5343
79.5924,113.5667
79.6000,113.6050
79.6000,114.2450
79.5924,114.2833
79.5707,114.3157
79.5383,114.3374
79.5000,114.3450
78.5000,114.3450
78.4617,114.3374
78.4293,114.3157
78.4076,114.2833
78.4000,114.2450
Z" /> 
<path style="fill:#000000; fill-opacity:1.0000; stroke:none;fill-rule:evenodd;"
d="M 78.4000,115.1550
78.4076,115.1167
78.4293,115.0843
78.4617,115.0626
78.5000,115.0550
79.5000,115.0550
79.5383,115.0626
79.5707,115.0843
79.5924,115.1167
79.6000,115.1550
79.6000,115.7950
79.5924,115.8333
79.5707,115.8657
79.5383,115.8874
79.5000,115.8950
78.5000,115.8950
78.4617,115.8874
78.4293,115.8657
78.4076,115.8333
78.4000,115.7950
Z" /> 
<path style="fill:#000000; fill-opacity:1.0000; stroke:none;fill-rule:evenodd;"
d="M 83.4580,147.0000
83.4656,146.9617
83.4873,146.9293
83.5197,146.9076
83.5580,146.9000
84.5580,146.9000
84.5963,146.9076
84.6287,146.9293
84.6504,146.9617
84.6580,147.0000
84.6580,147.6400
84.6504,147.6783
84.6287,147.7107
84.5963,147.7324
84.5580,147.7400
83.5580,147.7400
83.5197,147.7324
83.4873,147.7107
83.4656,147.6783
83.4580,147.6400
Z" /> 
<path style="fill:#000000; fill-opacity:1.0000; stroke:none;fill-rule:evenodd;"
d="M 83.4580,148.5500
83.4656,148.5117
83.4873,148.4793
83.5197,148.4576
83.5580,148.4500
84.5580,148.4500
84.5963,148.4576
84.6287,148.4793
84.6504,148.5117
84.6580,148.5500
84.6580,149.1900
84.6504,149.2283
84.6287,149.2607
84.5963,149.2824
84.5580,149.2900
83.5580,149.2900
83.5197,149.2824
83.4873,149.2607
83.4656,149.2283
83.4580,149.1900
Z" /> 
<path style="fill:#000000; fill-opacity:1.0000; stroke:none;fill-rule:evenodd;"
d="M 76.5250,116.6150
76.5326,116.5767
76.5543,116.5443
76.5867,116.5226
76.6250,116.5150
77.6750,116.5150
77.7133,116.5226
77.7457,116.5443
77.7674,116.5767
77.7750,116.6150
77.7750,117.0950
77.7674,117.1333
77.7457,117.1657
77.7133,117.1874
77.6750,117.1950
76.6250,117.1950
76.5867,117.1874
76.5543,117.1657
76.5326,117.1333
76.5250,117.0950
Z" /> 
<path style="fill:#000000; fill-opacity:1.0000; stroke:none;fill-rule:evenodd;"
d="M 76.5250,117.8850
76.5326,117.8467
76.5543,117.8143
76.5867,117.7926
76.6250,117.7850
77.6750,117.7850
77.7133,117.7926
77.7457,117.8143
77.7674,117.8467
77.7750,117.8850
77.7750,118.3650
77.7674,118.4033
77.7457,118.4357
77.7133,118.4574
77.6750,118.4650
76.6250,118.4650
76.5867,118.4574
76.5543,118.4357
76.5326,118.4033
76.5250,118.3650
Z" /> 
<path style="fill:#000000; fill-opacity:1.0000; stroke:none;fill-rule:evenodd;"
d="M 76.5250,119.1550
76.5326,119.1167
76.5543,119.0843
76.5867,119.0626
76.6250,119.0550
77.6750,119.0550
77.7133,119.0626
77.7457,119.0843
77.7674,119.1167
77.7750,119.1550
77.7750,119.6350
77.7674,119.6733
77.7457,119.7057
77.7133,119.7274
77.6750,119.7350
76.6250,119.7350
76.5867,119.7274
76.5543,119.7057
76.5326,119.6733
76.5250,119.6350
Z" /> 
<path style="fill:#000000; fill-opacity:1.0000; stroke:none;fill-rule:evenodd;"
d="M 76.5250,120.4250
76.5326,120.3867
76.5543,120.3543
76.5867,120.3326
76.6250,120.3250
77.6750,120.3250
77.7133,120.3326
77.7457,120.3543
77.7674,120.3867
77.7750,120.4250
77.7750,120.9050
77.7674,120.9433
77.7457,120.9757
77.7133,120.9974
77.6750,121.0050
76.6250,121.0050
76.5867,120.9974
76.5543,120.9757
76.5326,120.9433
76.5250,120.9050
Z" /> 
<path style="fill:#000000; fill-opacity:1.0000; stroke:none;fill-rule:evenodd;"
d="M 76.5250,121.6950
76.5326,121.6567
76.5543,121.6243
76.5867,121.6026
76.6250,121.5950
77.6750,121.5950
77.7133,121.6026
77.7457,121.6243
77.7674,121.6567
77.7750,121.6950
77.7750,122.1750
77.7674,122.2133
77.7457,122.2457
77.7133,122.2674
77.6750,122.2750
76.6250,122.2750
76.5867,122.2674
76.5543,122.2457
76.5326,122.2133
76.5250,122.1750
Z" /> 
<path style="fill:#000000; fill-opacity:1.0000; stroke:none;fill-rule:evenodd;"
d="M 76.5250,122.9650
76.5326,122.9267
76.5543,122.8943
76.5867,122.8726
76.6250,122.8650
77.6750,122.8650
77.7133,122.8726
77.7457,122.8943
77.7674,122.9267
77.7750,122.9650
77.7750,123.4450
77.7674,123.4833
77.7457,123.5157
77.7133,123.5374
77.6750,123.5450
76.6250,123.5450
76.5867,123.5374
76.5543,123.5157
76.5326,123.4833
76.5250,123.4450
Z" /> 
<path style="fill:#000000; fill-opacity:1.0000; stroke:none;fill-rule:evenodd;"
d="M 76.5250,124.2350
76.5326,124.1967
76.5543,124.1643
76.5867,124.1426
76.6250,124.1350
77.6750,124.1350
77.7133,124.1426
77.7457,124.1643
77.7674,124.1967
77.7750,124.2350
77.7750,124.7150
77.7674,124.7533
77.7457,124.7857
77.7133,124.8074
77.6750,124.8150
76.6250,124.8150
76.5867,124.8074
76.5543,124.7857
76.5326,124.7533
76.5250,124.7150
Z" /> 
<path style="fill:#000000; fill-opacity:1.0000; stroke:none;fill-rule:evenodd;"
d="M 76.5250,125.5050
76.5326,125.4667
76.5543,125.4343
76.5867,125.4126
76.6250,125.4050
77.6750,125.4050
77.7133,125.4126
77.7457,125.4343
77.7674,125.4667
77.7750,125.5050
77.7750,125.9850
77.7674,126.0233
77.7457,126.0557
77.7133,126.0774
77.6750,126.0850
76.6250,126.0850
76.5867,126.0774
76.5543,126.0557
76.5326,126.0233
76.5250,125.9850
Z" /> 
<path style="fill:#000000; fill-opacity:1.0000; stroke:none;fill-rule:evenodd;"
d="M 82.4250,125.5050
82.4326,125.4667
82.4543,125.4343
82.4867,125.4126
82.5250,125.4050
83.5750,125.4050
83.6133,125.4126
83.6457,125.4343
83.6674,125.4667
83.6750,125.5050
83.6750,125.9850
83.6674,126.0233
83.6457,126.0557
83.6133,126.0774
83.5750,126.0850
82.5250,126.0850
82.4867,126.0774
82.4543,126.0557
82.4326,126.0233
82.4250,125.9850
Z" /> 
<path style="fill:#000000; fill-opacity:1.0000; stroke:none;fill-rule:evenodd;"
d="M 82.4250,124.2350
82.4326,124.1967
82.4543,124.1643
82.4867,124.1426
82.5250,124.1350
83.5750,124.1350
83.6133,124.1426
83.6457,124.1643
83.6674,124.1967
83.6750,124.2350
83.6750,124.7150
83.6674,124.7533
83.6457,124.7857
83.6133,124.8074
83.5750,124.8150
82.5250,124.8150
82.4867,124.8074
82.4543,124.7857
82.4326,124.7533
82.4250,124.7150
Z" /> 
<path style="fill:#000000; fill-opacity:1.0000; stroke:none;fill-rule:evenodd;"
d="M 82.4250,122.9650
82.4326,122.9267
82.4543,122.8943
82.4867,122.8726
82.5250,122.8650
83.5750,122.8650
83.6133,122.8726
83.6457,122.8943
83.6674,122.9267
83.6750,122.9650
83.6750,123.4450
83.6674,123.4833
83.6457,123.5157
83.6133,123.5374
83.5750,123.5450
82.5250,123.5450
82.4867,123.5374
82.4543,123.5157
82.4326,123.4833
82.4250,123.4450
Z" /> 
<path style="fill:#000000; fill-opacity:1.0000; stroke:none;fill-rule:evenodd;"
d="M 82.4250,121.6950
82.4326,121.6567
82.4543,121.6243
82.4867,121.6026
82.5250,121.5950
83.5750,121.5950
83.6133,121.6026
83.6457,121.6243
83.6674,121.6567
83.6750,121.6950
83.6750,122.1750
83.6674,122.2133
83.6457,122.2457
83.6133,122.2674
83.5750,122.2750
82.5250,122.2750
82.4867,122.2674
82.4543,122.2457
82.4326,122.2133
82.4250,122.1750
Z" /> 
<path style="fill:#000000; fill-opacity:1.0000; stroke:none;fill-rule:evenodd;"
d="M 82.4250,120.4250
82.4326,120.3867
82.4543,120.3543
82.4867,120.3326
82.5250,120.3250
83.5750,120.3250
83.6133,120.3326
83.6457,120.3543
83.6674,120.3867
83.6750,120.4250
83.6750,120.9050
83.6674,120.9433
83.6457,120.9757
83.6133,120.9974
83.5750,121.0050
82.5250,121.0050
82.4867,120.9974
82.4543,120.9757
82.4326,120.9433
82.4250,120.9050
Z" /> 
<path style="fill:#000000; fill-opacity:1.0000; stroke:none;fill-rule:evenodd;"
d="M 82.4250,119.1550
82.4326,119.1167
82.4543,119.0843
82.4867,119.0626
82.5250,119.0550
83.5750,119.0550
83.6133,119.0626
83.6457,119.0843
83.6674,119.1167
83.6750,119.1550
83.6750,119.6350
83.6674,119.6733
83.6457,119.7057
83.6133,119.7274
83.5750,119.7350
82.5250,119.7350
82.4867,119.7274
82.4543,119.7057
82.4326,119.6733
82.4250,119.6350
Z" /> 
<path style="fill:#000000; fill-opacity:1.0000; stroke:none;fill-rule:evenodd;"
d="M 82.4250,117.8850
82.4326,117.8467
82.4543,117.8143
82.4867,117.7926
82.5250,117.7850
83.5750,117.7850
83.6133,117.7926
83.6457,117.8143
83.6674,117.8467
83.6750,117.8850
83.6750,118.3650
83.6674,118.4033
83.6457,118.4357
83.6133,118.4574
83.5750,118.4650
82.5250,118.4650
82.4867,118.4574
82.4543,118.4357
82.4326,118.4033
82.4250,118.3650
Z" /> 
<path style="fill:#000000; fill-opacity:1.0000; stroke:none;fill-rule:evenodd;"
d="M 82.4250,116.6150
82.4326,116.5767
82.4543,116.5443
82.4867,116.5226
82.5250,116.5150
83.5750,116.5150
83.6133,116.5226
83.6457,116.5443
83.6674,116.5767
83.6750,116.6150
83.6750,117.0950
83.6674,117.1333
83.6457,117.1657
83.6133,117.1874
83.5750,117.1950
82.5250,117.1950
82.4867,117.1874
82.4543,117.1657
82.4326,117.1333
82.4250,117.0950
Z" /> 
<path style="fill:#000000; fill-opacity:1.0000; stroke:none;fill-rule:evenodd;"
d="M 69.1750,145.4000
69.1367,145.3924
69.1043,145.3707
69.0826,145.3383
69.0750,145.3000
69.0750,144.7000
69.0826,144.6617
69.1043,144.6293
69.1367,144.6076
69.1750,144.6000
70.7250,144.6000
70.7633,144.6076
70.7957,144.6293
70.8174,144.6617
70.8250,144.7000
70.8250,145.3000
70.8174,145.3383
70.7957,145.3707
70.7633,145.3924
70.7250,145.4000
Z" /> 
<path style="fill:#000000; fill-opacity:1.0000; stroke:none;fill-rule:evenodd;"
d="M 69.1750,144.4000
69.1367,144.3924
69.1043,144.3707
69.0826,144.3383
69.0750,144.3000
69.0750,143.7000
69.0826,143.6617
69.1043,143.6293
69.1367,143.6076
69.1750,143.6000
70.7250,143.6000
70.7633,143.6076
70.7957,143.6293
70.8174,143.6617
70.8250,143.7000
70.8250,144.3000
70.8174,144.3383
70.7957,144.3707
70.7633,144.3924
70.7250,144.4000
Z" /> 
<path style="fill:#000000; fill-opacity:1.0000; stroke:none;fill-rule:evenodd;"
d="M 69.1750,143.4000
69.1367,143.3924
69.1043,143.3707
69.0826,143.3383
69.0750,143.3000
69.0750,142.7000
69.0826,142.6617
69.1043,142.6293
69.1367,142.6076
69.1750,142.6000
70.7250,142.6000
70.7633,142.6076
70.7957,142.6293
70.8174,142.6617
70.8250,142.7000
70.8250,143.3000
70.8174,143.3383
70.7957,143.3707
70.7633,143.3924
70.7250,143.4000
Z" /> 
<path style="fill:#000000; fill-opacity:1.0000; stroke:none;fill-rule:evenodd;"
d="M 69.1750,142.4000
69.1367,142.3924
69.1043,142.3707
69.0826,142.3383
69.0750,142.3000
69.0750,141.7000
69.0826,141.6617
69.1043,141.6293
69.1367,141.6076
69.1750,141.6000
70.7250,141.6000
70.7633,141.6076
70.7957,141.6293
70.8174,141.6617
70.8250,141.7000
70.8250,142.3000
70.8174,142.3383
70.7957,142.3707
70.7633,142.3924
70.7250,142.4000
Z" /> 
<path style="fill:#000000; fill-opacity:1.0000; stroke:none;fill-rule:evenodd;"
d="M 64.7500,141.6000
64.7117,141.5924
64.6793,141.5707
64.6576,141.5383
64.6500,141.5000
64.6500,140.3000
64.6576,140.2617
64.6793,140.2293
64.7117,140.2076
64.7500,140.2000
66.5500,140.2000
66.5883,140.2076
66.6207,140.2293
66.6424,140.2617
66.6500,140.3000
66.6500,141.5000
66.6424,141.5383
66.6207,141.5707
66.5883,141.5924
66.5500,141.6000
Z" /> 
<path style="fill:#000000; fill-opacity:1.0000; stroke:none;fill-rule:evenodd;"
d="M 64.7500,146.8000
64.7117,146.7924
64.6793,146.7707
64.6576,146.7383
64.6500,146.7000
64.6500,145.5000
64.6576,145.4617
64.6793,145.4293
64.7117,145.4076
64.7500,145.4000
66.5500,145.4000
66.5883,145.4076
66.6207,145.4293
66.6424,145.4617
66.6500,145.5000
66.6500,146.7000
66.6424,146.7383
66.6207,146.7707
66.5883,146.7924
66.5500,146.8000
Z" /> 
<path style="fill:#000000; fill-opacity:1.0000; stroke:none;fill-rule:evenodd;"
d="M 89.7750,134.0750
89.7674,134.1133
89.7457,134.1457
89.7133,134.1674
89.6750,134.1750
88.9250,134.1750
88.8867,134.1674
88.8543,134.1457
88.8326,134.1133
88.8250,134.0750
88.8250,133.6250
88.8326,133.5867
88.8543,133.5543
88.8867,133.5326
88.9250,133.5250
89.6750,133.5250
89.7133,133.5326
89.7457,133.5543
89.7674,133.5867
89.7750,133.6250
Z" /> 
<path style="fill:#000000; fill-opacity:1.0000; stroke:none;fill-rule:evenodd;"
d="M 89.7750,132.9750
89.7674,133.0133
89.7457,133.0457
89.7133,133.0674
89.6750,133.0750
88.9250,133.0750
88.8867,133.0674
88.8543,133.0457
88.8326,133.0133
88.8250,132.9750
88.8250,132.5250
88.8326,132.4867
88.8543,132.4543
88.8867,132.4326
88.9250,132.4250
89.6750,132.4250
89.7133,132.4326
89.7457,132.4543
89.7674,132.4867
89.7750,132.5250
Z" /> 
<path style="fill:#000000; fill-opacity:1.0000; stroke:none;fill-rule:evenodd;"
d="M 88.7990,144.1050
88.8066,144.0667
88.8283,144.0343
88.8607,144.0126
88.8990,144.0050
89.4990,144.0050
89.5373,144.0126
89.5697,144.0343
89.5914,144.0667
89.5990,144.1050
89.5990,145.1050
89.5914,145.1433
89.5697,145.1757
89.5373,145.1974
89.4990,145.2050
88.8990,145.2050
88.8607,145.1974
88.8283,145.1757
88.8066,145.1433
88.7990,145.1050
Z" /> 
<path style="fill:#000000; fill-opacity:1.0000; stroke:none;fill-rule:evenodd;"
d="M 86.8990,144.1050
86.9066,144.0667
86.9283,144.0343
86.9607,144.0126
86.9990,144.0050
87.5990,144.0050
87.6373,144.0126
87.6697,144.0343
87.6914,144.0667
87.6990,144.1050
87.6990,145.1050
87.6914,145.1433
87.6697,145.1757
87.6373,145.1974
87.5990,145.2050
86.9990,145.2050
86.9607,145.1974
86.9283,145.1757
86.9066,145.1433
86.8990,145.1050
Z" /> 
<path style="fill:#000000; fill-opacity:1.0000; stroke:none;fill-rule:evenodd;"
d="M 87.8490,146.5050
87.8566,146.4667
87.8783,146.4343
87.9107,146.4126
87.9490,146.4050
88.5490,146.4050
88.5873,146.4126
88.6197,146.4343
88.6414,146.4667
88.6490,146.5050
88.6490,147.5050
88.6414,147.5433
88.6197,147.5757
88.5873,147.5974
88.5490,147.6050
87.9490,147.6050
87.9107,147.5974
87.8783,147.5757
87.8566,147.5433
87.8490,147.5050
Z" /> 
<path style="fill:#000000; fill-opacity:1.0000; stroke:none;fill-rule:evenodd;"
d="M 75.3468,125.1000
75.3085,125.0924
75.2761,125.0707
75.2544,125.0383
75.2468,125.0000
75.2468,124.2000
75.2544,124.1617
75.2761,124.1293
75.3085,124.1076
75.3468,124.1000
75.8468,124.1000
75.8851,124.1076
75.9175,124.1293
75.9392,124.1617
75.9468,124.2000
75.9468,125.0000
75.9392,125.0383
75.9175,125.0707
75.8851,125.0924
75.8468,125.1000
Z" /> 
<path style="fill:#000000; fill-opacity:1.0000; stroke:none;fill-rule:evenodd;"
d="M 75.3468,122.9000
75.3085,122.8924
75.2761,122.8707
75.2544,122.8383
75.2468,122.8000
75.2468,122.0000
75.2544,121.9617
75.2761,121.9293
75.3085,121.9076
75.3468,121.9000
75.8468,121.9000
75.8851,121.9076
75.9175,121.9293
75.9392,121.9617
75.9468,122.0000
75.9468,122.8000
75.9392,122.8383
75.9175,122.8707
75.8851,122.8924
75.8468,122.9000
Z" /> 
<path style="fill:#000000; fill-opacity:1.0000; stroke:none;fill-rule:evenodd;"
d="M 74.8000,118.6140
74.8383,118.6216
74.8707,118.6433
74.8924,118.6757
74.9000,118.7140
74.9000,119.3740
74.8924,119.4123
74.8707,119.4447
74.8383,119.4664
74.8000,119.4740
73.8000,119.4740
73.7617,119.4664
73.7293,119.4447
73.7076,119.4123
73.7000,119.3740
73.7000,118.7140
73.7076,118.6757
73.7293,118.6433
73.7617,118.6216
73.8000,118.6140
Z" /> 
<path style="fill:#000000; fill-opacity:1.0000; stroke:none;fill-rule:evenodd;"
d="M 74.8000,120.0740
74.8383,120.0816
74.8707,120.1033
74.8924,120.1357
74.9000,120.1740
74.9000,120.8340
74.8924,120.8723
74.8707,120.9047
74.8383,120.9264
74.8000,120.9340
73.8000,120.9340
73.7617,120.9264
73.7293,120.9047
73.7076,120.8723
73.7000,120.8340
73.7000,120.1740
73.7076,120.1357
73.7293,120.1033
73.7617,120.0816
73.8000,120.0740
Z" /> 
<path style="fill:#000000; fill-opacity:1.0000; stroke:none;fill-rule:evenodd;"
d="M 87.8490,143.6000
87.8414,143.6383
87.8197,143.6707
87.7873,143.6924
87.7490,143.7000
86.7490,143.7000
86.7107,143.6924
86.6783,143.6707
86.6566,143.6383
86.6490,143.6000
86.6490,142.9600
86.6566,142.9217
86.6783,142.8893
86.7107,142.8676
86.7490,142.8600
87.7490,142.8600
87.7873,142.8676
87.8197,142.8893
87.8414,142.9217
87.8490,142.9600
Z" /> 
<path style="fill:#000000; fill-opacity:1.0000; stroke:none;fill-rule:evenodd;"
d="M 87.8490,142.0500
87.8414,142.0883
87.8197,142.1207
87.7873,142.1424
87.7490,142.1500
86.7490,142.1500
86.7107,142.1424
86.6783,142.1207
86.6566,142.0883
86.6490,142.0500
86.6490,141.4100
86.6566,141.3717
86.6783,141.3393
86.7107,141.3176
86.7490,141.3100
87.7490,141.3100
87.7873,141.3176
87.8197,141.3393
87.8414,141.3717
87.8490,141.4100
Z" /> 
</g>
<g style="fill:#000000; fill-opacity:1.0000; stroke:none;">
<circle cx="74.2000" cy="149.1000" r="0.5000" /> 
<path style="fill:#000000; fill-opacity:1.0000; stroke:none;fill-rule:evenodd;"
d="M 67.8300,88.1200
67.8376,88.0817
67.8593,88.0493
67.8917,88.0276
67.9300,88.0200
69.9300,88.0200
69.9683,88.0276
70.0007,88.0493
70.0224,88.0817
70.0300,88.1200
70.0300,89.0200
70.0224,89.0583
70.0007,89.0907
69.9683,89.1124
69.9300,89.1200
67.9300,89.1200
67.8917,89.1124
67.8593,89.0907
67.8376,89.0583
67.8300,89.0200
Z" /> 
<path style="fill:#000000; fill-opacity:1.0000; stroke:none;fill-rule:evenodd;"
d="M 67.8300,89.3900
67.8376,89.3517
67.8593,89.3193
67.8917,89.2976
67.9300,89.2900
69.9300,89.2900
69.9683,89.2976
70.0007,89.3193
70.0224,89.3517
70.0300,89.3900
70.0300,90.2900
70.0224,90.3283
70.0007,90.3607
69.9683,90.3824
69.9300,90.3900
67.9300,90.3900
67.8917,90.3824
67.8593,90.3607
67.8376,90.3283
67.8300,90.2900
Z" /> 
<path style="fill:#000000; fill-opacity:1.0000; stroke:none;fill-rule:evenodd;"
d="M 67.8300,90.6600
67.8376,90.6217
67.8593,90.5893
67.8917,90.5676
67.9300,90.5600
69.9300,90.5600
69.9683,90.5676
70.0007,90.5893
70.0224,90.6217
70.0300,90.6600
70.0300,91.5600
70.0224,91.5983
70.0007,91.6307
69.9683,91.6524
69.9300,91.6600
67.9300,91.6600
67.8917,91.6524
67.8593,91.6307
67.8376,91.5983
67.8300,91.5600
Z" /> 
<path style="fill:#000000; fill-opacity:1.0000; stroke:none;fill-rule:evenodd;"
d="M 67.8300,91.9300
67.8376,91.8917
67.8593,91.8593
67.8917,91.8376
67.9300,91.8300
69.9300,91.8300
69.9683,91.8376
70.0007,91.8593
70.0224,91.8917
70.0300,91.9300
70.0300,92.8300
70.0224,92.8683
70.0007,92.9007
69.9683,92.9224
69.9300,92.9300
67.9300,92.9300
67.8917,92.9224
67.8593,92.9007
67.8376,92.8683
67.8300,92.8300
Z" /> 
<path style="fill:#000000; fill-opacity:1.0000; stroke:none;fill-rule:evenodd;"
d="M 67.8300,93.2000
67.8376,93.1617
67.8593,93.1293
67.8917,93.1076
67.9300,93.1000
69.9300,93.1000
69.9683,93.1076
70.0007,93.1293
70.0224,93.1617
70.0300,93.2000
70.0300,94.1000
70.0224,94.1383
70.0007,94.1707
69.9683,94.1924
69.9300,94.2000
67.9300,94.2000
67.8917,94.1924
67.8593,94.1707
67.8376,94.1383
67.8300,94.1000
Z" /> 
<path style="fill:#000000; fill-opacity:1.0000; stroke:none;fill-rule:evenodd;"
d="M 67.8300,94.4700
67.8376,94.4317
67.8593,94.3993
67.8917,94.3776
67.9300,94.3700
69.9300,94.3700
69.9683,94.3776
70.0007,94.3993
70.0224,94.4317
70.0300,94.4700
70.0300,95.3700
70.0224,95.4083
70.0007,95.4407
69.9683,95.4624
69.9300,95.4700
67.9300,95.4700
67.8917,95.4624
67.8593,95.4407
67.8376,95.4083
67.8300,95.3700
Z" /> 
<path style="fill:#000000; fill-opacity:1.0000; stroke:none;fill-rule:evenodd;"
d="M 67.8300,95.7400
67.8376,95.7017
67.8593,95.6693
67.8917,95.6476
67.9300,95.6400
69.9300,95.6400
69.9683,95.6476
70.0007,95.6693
70.0224,95.7017
70.0300,95.7400
70.0300,96.6400
70.0224,96.6783
70.0007,96.7107
69.9683,96.7324
69.9300,96.7400
67.9300,96.7400
67.8917,96.7324
67.8593,96.7107
67.8376,96.6783
67.8300,96.6400
Z" /> 
<path style="fill:#000000; fill-opacity:1.0000; stroke:none;fill-rule:evenodd;"
d="M 67.8300,97.0100
67.8376,96.9717
67.8593,96.9393
67.8917,96.9176
67.9300,96.9100
69.9300,96.9100
69.9683,96.9176
70.0007,96.9393
70.0224,96.9717
70.0300,97.0100
70.0300,97.9100
70.0224,97.9483
70.0007,97.9807
69.9683,98.0024
69.9300,98.0100
67.9300,98.0100
67.8917,98.0024
67.8593,97.9807
67.8376,97.9483
67.8300,97.9100
Z" /> 
<path style="fill:#000000; fill-opacity:1.0000; stroke:none;fill-rule:evenodd;"
d="M 67.8300,98.2800
67.8376,98.2417
67.8593,98.2093
67.8917,98.1876
67.9300,98.1800
69.9300,98.1800
69.9683,98.1876
70.0007,98.2093
70.0224,98.2417
70.0300,98.2800
70.0300,99.1800
70.0224,99.2183
70.0007,99.2507
69.9683,99.2724
69.9300,99.2800
67.9300,99.2800
67.8917,99.2724
67.8593,99.2507
67.8376,99.2183
67.8300,99.1800
Z" /> 
<path style="fill:#000000; fill-opacity:1.0000; stroke:none;fill-rule:evenodd;"
d="M 67.8300,99.5500
67.8376,99.5117
67.8593,99.4793
67.8917,99.4576
67.9300,99.4500
69.9300,99.4500
69.9683,99.4576
70.0007,99.4793
70.0224,99.5117
70.0300,99.5500
70.0300,100.4500
70.0224,100.4883
70.0007,100.5207
69.9683,100.5424
69.9300,100.5500
67.9300,100.5500
67.8917,100.5424
67.8593,100.5207
67.8376,100.4883
67.8300,100.4500
Z" /> 
<path style="fill:#000000; fill-opacity:1.0000; stroke:none;fill-rule:evenodd;"
d="M 67.8300,100.8200
67.8376,100.7817
67.8593,100.7493
67.8917,100.7276
67.9300,100.7200
69.9300,100.7200
69.9683,100.7276
70.0007,100.7493
70.0224,100.7817
70.0300,100.8200
70.0300,101.7200
70.0224,101.7583
70.0007,101.7907
69.9683,101.8124
69.9300,101.8200
67.9300,101.8200
67.8917,101.8124
67.8593,101.7907
67.8376,101.7583
67.8300,101.7200
Z" /> 
<path style="fill:#000000; fill-opacity:1.0000; stroke:none;fill-rule:evenodd;"
d="M 67.8300,102.0900
67.8376,102.0517
67.8593,102.0193
67.8917,101.9976
67.9300,101.9900
69.9300,101.9900
69.9683,101.9976
70.0007,102.0193
70.0224,102.0517
70.0300,102.0900
70.0300,102.9900
70.0224,103.0283
70.0007,103.0607
69.9683,103.0824
69.9300,103.0900
67.9300,103.0900
67.8917,103.0824
67.8593,103.0607
67.8376,103.0283
67.8300,102.9900
Z" /> 
<path style="fill:#000000; fill-opacity:1.0000; stroke:none;fill-rule:evenodd;"
d="M 67.8300,103.3600
67.8376,103.3217
67.8593,103.2893
67.8917,103.2676
67.9300,103.2600
69.9300,103.2600
69.9683,103.2676
70.0007,103.2893
70.0224,103.3217
70.0300,103.3600
70.0300,104.2600
70.0224,104.2983
70.0007,104.3307
69.9683,104.3524
69.9300,104.3600
67.9300,104.3600
67.8917,104.3524
67.8593,104.3307
67.8376,104.2983
67.8300,104.2600
Z" /> 
<path style="fill:#000000; fill-opacity:1.0000; stroke:none;fill-rule:evenodd;"
d="M 67.8300,104.6300
67.8376,104.5917
67.8593,104.5593
67.8917,104.5376
67.9300,104.5300
69.9300,104.5300
69.9683,104.5376
70.0007,104.5593
70.0224,104.5917
70.0300,104.6300
70.0300,105.5300
70.0224,105.5683
70.0007,105.6007
69.9683,105.6224
69.9300,105.6300
67.9300,105.6300
67.8917,105.6224
67.8593,105.6007
67.8376,105.5683
67.8300,105.5300
Z" /> 
<path style="fill:#000000; fill-opacity:1.0000; stroke:none;fill-rule:evenodd;"
d="M 67.8300,105.9000
67.8376,105.8617
67.8593,105.8293
67.8917,105.8076
67.9300,105.8000
69.9300,105.8000
69.9683,105.8076
70.0007,105.8293
70.0224,105.8617
70.0300,105.9000
70.0300,106.8000
70.0224,106.8383
70.0007,106.8707
69.9683,106.8924
69.9300,106.9000
67.9300,106.9000
67.8917,106.8924
67.8593,106.8707
67.8376,106.8383
67.8300,106.8000
Z" /> 
<path style="fill:#000000; fill-opacity:1.0000; stroke:none;fill-rule:evenodd;"
d="M 67.8300,107.1700
67.8376,107.1317
67.8593,107.0993
67.8917,107.0776
67.9300,107.0700
69.9300,107.0700
69.9683,107.0776
70.0007,107.0993
70.0224,107.1317
70.0300,107.1700
70.0300,108.0700
70.0224,108.1083
70.0007,108.1407
69.9683,108.1624
69.9300,108.1700
67.9300,108.1700
67.8917,108.1624
67.8593,108.1407
67.8376,108.1083
67.8300,108.0700
Z" /> 
<path style="fill:#000000; fill-opacity:1.0000; stroke:none;fill-rule:evenodd;"
d="M 67.8300,108.4400
67.8376,108.4017
67.8593,108.3693
67.8917,108.3476
67.9300,108.3400
69.9300,108.3400
69.9683,108.3476
70.0007,108.3693
70.0224,108.4017
70.0300,108.4400
70.0300,109.3400
70.0224,109.3783
70.0007,109.4107
69.9683,109.4324
69.9300,109.4400
67.9300,109.4400
67.8917,109.4324
67.8593,109.4107
67.8376,109.3783
67.8300,109.3400
Z" /> 
<path style="fill:#000000; fill-opacity:1.0000; stroke:none;fill-rule:evenodd;"
d="M 67.8300,109.7100
67.8376,109.6717
67.8593,109.6393
67.8917,109.6176
67.9300,109.6100
69.9300,109.6100
69.9683,109.6176
70.0007,109.6393
70.0224,109.6717
70.0300,109.7100
70.0300,110.6100
70.0224,110.6483
70.0007,110.6807
69.9683,110.7024
69.9300,110.7100
67.9300,110.7100
67.8917,110.7024
67.8593,110.6807
67.8376,110.6483
67.8300,110.6100
Z" /> 
<path style="fill:#000000; fill-opacity:1.0000; stroke:none;fill-rule:evenodd;"
d="M 67.8300,110.9800
67.8376,110.9417
67.8593,110.9093
67.8917,110.8876
67.9300,110.8800
69.9300,110.8800
69.9683,110.8876
70.0007,110.9093
70.0224,110.9417
70.0300,110.9800
70.0300,111.8800
70.0224,111.9183
70.0007,111.9507
69.9683,111.9724
69.9300,111.9800
67.9300,111.9800
67.8917,111.9724
67.8593,111.9507
67.8376,111.9183
67.8300,111.8800
Z" /> 
<path style="fill:#000000; fill-opacity:1.0000; stroke:none;fill-rule:evenodd;"
d="M 84.8300,110.9800
84.8376,110.9417
84.8593,110.9093
84.8917,110.8876
84.9300,110.8800
86.9300,110.8800
86.9683,110.8876
87.0007,110.9093
87.0224,110.9417
87.0300,110.9800
87.0300,111.8800
87.0224,111.9183
87.0007,111.9507
86.9683,111.9724
86.9300,111.9800
84.9300,111.9800
84.8917,111.9724
84.8593,111.9507
84.8376,111.9183
84.8300,111.8800
Z" /> 
<path style="fill:#000000; fill-opacity:1.0000; stroke:none;fill-rule:evenodd;"
d="M 84.8300,109.7100
84.8376,109.6717
84.8593,109.6393
84.8917,109.6176
84.9300,109.6100
86.9300,109.6100
86.9683,109.6176
87.0007,109.6393
87.0224,109.6717
87.0300,109.7100
87.0300,110.6100
87.0224,110.6483
87.0007,110.6807
86.9683,110.7024
86.9300,110.7100
84.9300,110.7100
84.8917,110.7024
84.8593,110.6807
84.8376,110.6483
84.8300,110.6100
Z" /> 
<path style="fill:#000000; fill-opacity:1.0000; stroke:none;fill-rule:evenodd;"
d="M 84.8300,108.4400
84.8376,108.4017
84.8593,108.3693
84.8917,108.3476
84.9300,108.3400
86.9300,108.3400
86.9683,108.3476
87.0007,108.3693
87.0224,108.4017
87.0300,108.4400
87.0300,109.3400
87.0224,109.3783
87.0007,109.4107
86.9683,109.4324
86.9300,109.4400
84.9300,109.4400
84.8917,109.4324
84.8593,109.4107
84.8376,109.3783
84.8300,109.3400
Z" /> 
<path style="fill:#000000; fill-opacity:1.0000; stroke:none;fill-rule:evenodd;"
d="M 84.8300,107.1700
84.8376,107.1317
84.8593,107.0993
84.8917,107.0776
84.9300,107.0700
86.9300,107.0700
86.9683,107.0776
87.0007,107.0993
87.0224,107.1317
87.0300,107.1700
87.0300,108.0700
87.0224,108.1083
87.0007,108.1407
86.9683,108.1624
86.9300,108.1700
84.9300,108.1700
84.8917,108.1624
84.8593,108.1407
84.8376,108.1083
84.8300,108.0700
Z" /> 
<path style="fill:#000000; fill-opacity:1.0000; stroke:none;fill-rule:evenodd;"
d="M 84.8300,105.9000
84.8376,105.8617
84.8593,105.8293
84.8917,105.8076
84.9300,105.8000
86.9300,105.8000
86.9683,105.8076
87.0007,105.8293
87.0224,105.8617
87.0300,105.9000
87.0300,106.8000
87.0224,106.8383
87.0007,106.8707
86.9683,106.8924
86.9300,106.9000
84.9300,106.9000
84.8917,106.8924
84.8593,106.8707
84.8376,106.8383
84.8300,106.8000
Z" /> 
<path style="fill:#000000; fill-opacity:1.0000; stroke:none;fill-rule:evenodd;"
d="M 84.8300,104.6300
84.8376,104.5917
84.8593,104.5593
84.8917,104.5376
84.9300,104.5300
86.9300,104.5300
86.9683,104.5376
87.0007,104.5593
87.0224,104.5917
87.0300,104.6300
87.0300,105.5300
87.0224,105.5683
87.0007,105.6007
86.9683,105.6224
86.9300,105.6300
84.9300,105.6300
84.8917,105.6224
84.8593,105.6007
84.8376,105.5683
84.8300,105.5300
Z" /> 
<path style="fill:#000000; fill-opacity:1.0000; stroke:none;fill-rule:evenodd;"
d="M 84.8300,103.3600
84.8376,103.3217
84.8593,103.2893
84.8917,103.2676
84.9300,103.2600
86.9300,103.2600
86.9683,103.2676
87.0007,103.2893
87.0224,103.3217
87.0300,103.3600
87.0300,104.2600
87.0224,104.2983
87.0007,104.3307
86.9683,104.3524
86.9300,104.3600
84.9300,104.3600
84.8917,104.3524
84.8593,104.3307
84.8376,104.2983
84.8300,104.2600
Z" /> 
<path style="fill:#000000; fill-opacity:1.0000; stroke:none;fill-rule:evenodd;"
d="M 84.8300,102.0900
84.8376,102.0517
84.8593,102.0193
84.8917,101.9976
84.9300,101.9900
86.9300,101.9900
86.9683,101.9976
87.0007,102.0193
87.0224,102.0517
87.0300,102.0900
87.0300,102.9900
87.0224,103.0283
87.0007,103.0607
86.9683,103.0824
86.9300,103.0900
84.9300,103.0900
84.8917,103.0824
84.8593,103.0607
84.8376,103.0283
84.8300,102.9900
Z" /> 
<path style="fill:#000000; fill-opacity:1.0000; stroke:none;fill-rule:evenodd;"
d="M 84.8300,100.8200
84.8376,100.7817
84.8593,100.7493
84.8917,100.7276
84.9300,100.7200
86.9300,100.7200
86.9683,100.7276
87.0007,100.7493
87.0224,100.7817
87.0300,100.8200
87.0300,101.7200
87.0224,101.7583
87.0007,101.7907
86.9683,101.8124
86.9300,101.8200
84.9300,101.8200
84.8917,101.8124
84.8593,101.7907
84.8376,101.7583
84.8300,101.7200
Z" /> 
<path style="fill:#000000; fill-opacity:1.0000; stroke:none;fill-rule:evenodd;"
d="M 84.8300,99.5500
84.8376,99.5117
84.8593,99.4793
84.8917,99.4576
84.9300,99.4500
86.9300,99.4500
86.9683,99.4576
87.0007,99.4793
87.0224,99.5117
87.0300,99.5500
87.0300,100.4500
87.0224,100.4883
87.0007,100.5207
86.9683,100.5424
86.9300,100.5500
84.9300,100.5500
84.8917,100.5424
84.8593,100.5207
84.8376,100.4883
84.8300,100.4500
Z" /> 
<path style="fill:#000000; fill-opacity:1.0000; stroke:none;fill-rule:evenodd;"
d="M 84.8300,98.2800
84.8376,98.2417
84.8593,98.2093
84.8917,98.1876
84.9300,98.1800
86.9300,98.1800
86.9683,98.1876
87.0007,98.2093
87.0224,98.2417
87.0300,98.2800
87.0300,99.1800
87.0224,99.2183
87.0007,99.2507
86.9683,99.2724
86.9300,99.2800
84.9300,99.2800
84.8917,99.2724
84.8593,99.2507
84.8376,99.2183
84.8300,99.1800
Z" /> 
<path style="fill:#000000; fill-opacity:1.0000; stroke:none;fill-rule:evenodd;"
d="M 84.8300,97.0100
84.8376,96.9717
84.8593,96.9393
84.8917,96.9176
84.9300,96.9100
86.9300,96.9100
86.9683,96.9176
87.0007,96.9393
87.0224,96.9717
87.0300,97.0100
87.0300,97.9100
87.0224,97.9483
87.0007,97.9807
86.9683,98.0024
86.9300,98.0100
84.9300,98.0100
84.8917,98.0024
84.8593,97.9807
84.8376,97.9483
84.8300,97.9100
Z" /> 
<path style="fill:#000000; fill-opacity:1.0000; stroke:none;fill-rule:evenodd;"
d="M 84.8300,95.7400
84.8376,95.7017
84.8593,95.6693
84.8917,95.6476
84.9300,95.6400
86.9300,95.6400
86.9683,95.6476
87.0007,95.6693
87.0224,95.7017
87.0300,95.7400
87.0300,96.6400
87.0224,96.6783
87.0007,96.7107
86.9683,96.7324
86.9300,96.7400
84.9300,96.7400
84.8917,96.7324
84.8593,96.7107
84.8376,96.6783
84.8300,96.6400
Z" /> 
<path style="fill:#000000; fill-opacity:1.0000; stroke:none;fill-rule:evenodd;"
d="M 84.8300,94.4700
84.8376,94.4317
84.8593,94.3993
84.8917,94.3776
84.9300,94.3700
86.9300,94.3700
86.9683,94.3776
87.0007,94.3993
87.0224,94.4317
87.0300,94.4700
87.0300,95.3700
87.0224,95.4083
87.0007,95.4407
86.9683,95.4624
86.9300,95.4700
84.9300,95.4700
84.8917,95.4624
84.8593,95.4407
84.8376,95.4083
84.8300,95.3700
Z" /> 
<path style="fill:#000000; fill-opacity:1.0000; stroke:none;fill-rule:evenodd;"
d="M 84.8300,93.2000
84.8376,93.1617
84.8593,93.1293
84.8917,93.1076
84.9300,93.1000
86.9300,93.1000
86.9683,93.1076
87.0007,93.1293
87.0224,93.1617
87.0300,93.2000
87.0300,94.1000
87.0224,94.1383
87.0007,94.1707
86.9683,94.1924
86.9300,94.2000
84.9300,94.2000
84.8917,94.1924
84.8593,94.1707
84.8376,94.1383
84.8300,94.1000
Z" /> 
<path style="fill:#000000; fill-opacity:1.0000; stroke:none;fill-rule:evenodd;"
d="M 84.8300,91.9300
84.8376,91.8917
84.8593,91.8593
84.8917,91.8376
84.9300,91.8300
86.9300,91.8300
86.9683,91.8376
87.0007,91.8593
87.0224,91.8917
87.0300,91.9300
87.0300,92.8300
87.0224,92.8683
87.0007,92.9007
86.9683,92.9224
86.9300,92.9300
84.9300,92.9300
84.8917,92.9224
84.8593,92.9007
84.8376,92.8683
84.8300,92.8300
Z" /> 
<path style="fill:#000000; fill-opacity:1.0000; stroke:none;fill-rule:evenodd;"
d="M 84.8300,90.6600
84.8376,90.6217
84.8593,90.5893
84.8917,90.5676
84.9300,90.5600
86.9300,90.5600
86.9683,90.5676
87.0007,90.5893
87.0224,90.6217
87.0300,90.6600
87.0300,91.5600
87.0224,91.5983
87.0007,91.6307
86.9683,91.6524
86.9300,91.6600
84.9300,91.6600
84.8917,91.6524
84.8593,91.6307
84.8376,91.5983
84.8300,91.5600
Z" /> 
<path style="fill:#000000; fill-opacity:1.0000; stroke:none;fill-rule:evenodd;"
d="M 84.8300,89.3900
84.8376,89.3517
84.8593,89.3193
84.8917,89.2976
84.9300,89.2900
86.9300,89.2900
86.9683,89.2976
87.0007,89.3193
87.0224,89.3517
87.0300,89.3900
87.0300,90.2900
87.0224,90.3283
87.0007,90.3607
86.9683,90.3824
86.9300,90.3900
84.9300,90.3900
84.8917,90.3824
84.8593,90.3607
84.8376,90.3283
84.8300,90.2900
Z" /> 
<path style="fill:#000000; fill-opacity:1.0000; stroke:none;fill-rule:evenodd;"
d="M 84.8300,88.1200
84.8376,88.0817
84.8593,88.0493
84.8917,88.0276
84.9300,88.0200
86.9300,88.0200
86.9683,88.0276
87.0007,88.0493
87.0224,88.0817
87.0300,88.1200
87.0300,89.0200
87.0224,89.0583
87.0007,89.0907
86.9683,89.1124
86.9300,89.1200
84.9300,89.1200
84.8917,89.1124
84.8593,89.0907
84.8376,89.0583
84.8300,89.0200
Z" /> 
<path style="fill:#000000; fill-opacity:1.0000; stroke:none;fill-rule:evenodd;"
d="M 72.3300,94.6700
72.3376,94.6317
72.3593,94.5993
72.3917,94.5776
72.4300,94.5700
77.4300,94.5700
77.4683,94.5776
77.5007,94.5993
77.5224,94.6317
77.5300,94.6700
77.5300,99.6700
77.5224,99.7083
77.5007,99.7407
77.4683,99.7624
77.4300,99.7700
72.4300,99.7700
72.3917,99.7624
72.3593,99.7407
72.3376,99.7083
72.3300,99.6700
Z" /> 
<path style="fill:#000000; fill-opacity:1.0000; stroke:none;fill-rule:evenodd;"
d="M 67.1750,139.0750
67.1674,139.1133
67.1457,139.1457
67.1133,139.1674
67.0750,139.1750
66.3250,139.1750
66.2867,139.1674
66.2543,139.1457
66.2326,139.1133
66.2250,139.0750
66.2250,138.6250
66.2326,138.5867
66.2543,138.5543
66.2867,138.5326
66.3250,138.5250
67.0750,138.5250
67.1133,138.5326
67.1457,138.5543
67.1674,138.5867
67.1750,138.6250
Z" /> 
<path style="fill:#000000; fill-opacity:1.0000; stroke:none;fill-rule:evenodd;"
d="M 67.1750,137.9750
67.1674,138.0133
67.1457,138.0457
67.1133,138.0674
67.0750,138.0750
66.3250,138.0750
66.2867,138.0674
66.2543,138.0457
66.2326,138.0133
66.2250,137.9750
66.2250,137.5250
66.2326,137.4867
66.2543,137.4543
66.2867,137.4326
66.3250,137.4250
67.0750,137.4250
67.1133,137.4326
67.1457,137.4543
67.1674,137.4867
67.1750,137.5250
Z" /> 
<path style="fill:#000000; fill-opacity:1.0000; stroke:none;fill-rule:evenodd;"
d="M 75.2000,120.9340
75.1617,120.9264
75.1293,120.9047
75.1076,120.8723
75.1000,120.8340
75.1000,120.1740
75.1076,120.1357
75.1293,120.1033
75.1617,120.0816
75.2000,120.0740
76.2000,120.0740
76.2383,120.0816
76.2707,120.1033
76.2924,120.1357
76.3000,120.1740
76.3000,120.8340
76.2924,120.8723
76.2707,120.9047
76.2383,120.9264
76.2000,120.9340
Z" /> 
<path style="fill:#000000; fill-opacity:1.0000; stroke:none;fill-rule:evenodd;"
d="M 75.2000,119.4740
75.1617,119.4664
75.1293,119.4447
75.1076,119.4123
75.1000,119.3740
75.1000,118.7140
75.1076,118.6757
75.1293,118.6433
75.1617,118.6216
75.2000,118.6140
76.2000,118.6140
76.2383,118.6216
76.2707,118.6433
76.2924,118.6757
76.3000,118.7140
76.3000,119.3740
76.2924,119.4123
76.2707,119.4447
76.2383,119.4664
76.2000,119.4740
Z" /> 
<path style="fill:#000000; fill-opacity:1.0000; stroke:none;fill-rule:evenodd;"
d="M 75.5950,125.4000
75.6333,125.4076
75.6657,125.4293
75.6874,125.4617
75.6950,125.5000
75.6950,126.5000
75.6874,126.5383
75.6657,126.5707
75.6333,126.5924
75.5950,126.6000
74.9550,126.6000
74.9167,126.5924
74.8843,126.5707
74.8626,126.5383
74.8550,126.5000
74.8550,125.5000
74.8626,125.4617
74.8843,125.4293
74.9167,125.4076
74.9550,125.4000
Z" /> 
<path style="fill:#000000; fill-opacity:1.0000; stroke:none;fill-rule:evenodd;"
d="M 74.0450,125.4000
74.0833,125.4076
74.1157,125.4293
74.1374,125.4617
74.1450,125.5000
74.1450,126.5000
74.1374,126.5383
74.1157,126.5707
74.0833,126.5924
74.0450,126.6000
73.4050,126.6000
73.3667,126.5924
73.3343,126.5707
73.3126,126.5383
73.3050,126.5000
73.3050,125.5000
73.3126,125.4617
73.3343,125.4293
73.3667,125.4076
73.4050,125.4000
Z" /> 
<path style="fill:#000000; fill-opacity:1.0000; stroke:none;fill-rule:evenodd;"
d="M 73.9300,138.4500
73.8917,138.4424
73.8593,138.4207
73.8376,138.3883
73.8300,138.3500
73.8300,137.6500
73.8376,137.6117
73.8593,137.5793
73.8917,137.5576
73.9300,137.5500
74.1800,137.5500
74.2183,137.5576
74.2507,137.5793
74.2724,137.6117
74.2800,137.6500
74.2800,138.3500
74.2724,138.3883
74.2507,138.4207
74.2183,138.4424
74.1800,138.4500
Z" /> 
<path style="fill:#000000; fill-opacity:1.0000; stroke:none;fill-rule:evenodd;"
d="M 70.6800,138.4500
70.6417,138.4424
70.6093,138.4207
70.5876,138.3883
70.5800,138.3500
70.5800,137.6500
70.5876,137.6117
70.6093,137.5793
70.6417,137.5576
70.6800,137.5500
70.9300,137.5500
70.9683,137.5576
71.0007,137.5793
71.0224,137.6117
71.0300,137.6500
71.0300,138.3500
71.0224,138.3883
71.0007,138.4207
70.9683,138.4424
70.9300,138.4500
Z" /> 
<path style="fill:#000000; fill-opacity:1.0000; stroke:none;fill-rule:evenodd;"
d="M 71.0800,140.6000
71.0417,140.5924
71.0093,140.5707
70.9876,140.5383
70.9800,140.5000
70.9800,139.4000
70.9876,139.3617
71.0093,139.3293
71.0417,139.3076
71.0800,139.3000
71.7800,139.3000
71.8183,139.3076
71.8507,139.3293
71.8724,139.3617
71.8800,139.4000
71.8800,140.5000
71.8724,140.5383
71.8507,140.5707
71.8183,140.5924
71.7800,140.6000
Z" /> 
<path style="fill:#000000; fill-opacity:1.0000; stroke:none;fill-rule:evenodd;"
d="M 71.0800,136.7000
71.0417,136.6924
71.0093,136.6707
70.9876,136.6383
70.9800,136.6000
70.9800,135.5000
70.9876,135.4617
71.0093,135.4293
71.0417,135.4076
71.0800,135.4000
71.7800,135.4000
71.8183,135.4076
71.8507,135.4293
71.8724,135.4617
71.8800,135.5000
71.8800,136.6000
71.8724,136.6383
71.8507,136.6707
71.8183,136.6924
71.7800,136.7000
Z" /> 
<path style="fill:#000000; fill-opacity:1.0000; stroke:none;fill-rule:evenodd;"
d="M 73.0800,136.7000
73.0417,136.6924
73.0093,136.6707
72.9876,136.6383
72.9800,136.6000
72.9800,135.5000
72.9876,135.4617
73.0093,135.4293
73.0417,135.4076
73.0800,135.4000
73.7800,135.4000
73.8183,135.4076
73.8507,135.4293
73.8724,135.4617
73.8800,135.5000
73.8800,136.6000
73.8724,136.6383
73.8507,136.6707
73.8183,136.6924
73.7800,136.7000
Z" /> 
<path style="fill:#000000; fill-opacity:1.0000; stroke:none;fill-rule:evenodd;"
d="M 73.0800,140.6000
73.0417,140.5924
73.0093,140.5707
72.9876,140.5383
72.9800,140.5000
72.9800,139.4000
72.9876,139.3617
73.0093,139.3293
73.0417,139.3076
73.0800,139.3000
73.7800,139.3000
73.8183,139.3076
73.8507,139.3293
73.8724,139.3617
73.8800,139.4000
73.8800,140.5000
73.8724,140.5383
73.8507,140.5707
73.8183,140.5924
73.7800,140.6000
Z" /> 
</g>
<g style="fill:#000000; fill-opacity:1.0000; stroke:none;">
<circle cx="77.4300" cy="138.0000" r="1.6000" /> 
<path style="fill:#000000; fill-opacity:1.0000; stroke:none;fill-rule:evenodd;"
d="M 74.7000,131.0940
74.6617,131.0864
74.6293,131.0647
74.6076,131.0323
74.6000,130.9940
74.6000,130.3340
74.6076,130.2957
74.6293,130.2633
74.6617,130.2416
74.7000,130.2340
75.7000,130.2340
75.7383,130.2416
75.7707,130.2633
75.7924,130.2957
75.8000,130.3340
75.8000,130.9940
75.7924,131.0323
75.7707,131.0647
75.7383,131.0864
75.7000,131.0940
Z" /> 
<path style="fill:#000000; fill-opacity:1.0000; stroke:none;fill-rule:evenodd;"
d="M 74.7000,129.6340
74.6617,129.6264
74.6293,129.6047
74.6076,129.5723
74.6000,129.5340
74.6000,128.8740
74.6076,128.8357
74.6293,128.8033
74.6617,128.7816
74.7000,128.7740
75.7000,128.7740
75.7383,128.7816
75.7707,128.8033
75.7924,128.8357
75.8000,128.8740
75.8000,129.5340
75.7924,129.5723
75.7707,129.6047
75.7383,129.6264
75.7000,129.6340
Z" /> 
<path style="fill:#000000; fill-opacity:1.0000; stroke:none;fill-rule:evenodd;"
d="M 83.9000,132.3400
83.9383,132.3476
83.9707,132.3693
83.9924,132.4017
84.0000,132.4400
84.0000,133.1000
83.9924,133.1383
83.9707,133.1707
83.9383,133.1924
83.9000,133.2000
82.9000,133.2000
82.8617,133.1924
82.8293,133.1707
82.8076,133.1383
82.8000,133.1000
82.8000,132.4400
82.8076,132.4017
82.8293,132.3693
82.8617,132.3476
82.9000,132.3400
Z" /> 
<path style="fill:#000000; fill-opacity:1.0000; stroke:none;fill-rule:evenodd;"
d="M 83.9000,133.8000
83.9383,133.8076
83.9707,133.8293
83.9924,133.8617
84.0000,133.9000
84.0000,134.5600
83.9924,134.5983
83.9707,134.6307
83.9383,134.6524
83.9000,134.6600
82.9000,134.6600
82.8617,134.6524
82.8293,134.6307
82.8076,134.5983
82.8000,134.5600
82.8000,133.9000
82.8076,133.8617
82.8293,133.8293
82.8617,133.8076
82.9000,133.8000
Z" /> 
<path style="fill:#000000; fill-opacity:1.0000; stroke:none;fill-rule:evenodd;"
d="M 64.8500,127.2340
64.8117,127.2264
64.7793,127.2047
64.7576,127.1723
64.7500,127.1340
64.7500,126.1340
64.7576,126.0957
64.7793,126.0633
64.8117,126.0416
64.8500,126.0340
67.8500,126.0340
67.8883,126.0416
67.9207,126.0633
67.9424,126.0957
67.9500,126.1340
67.9500,127.1340
67.9424,127.1723
67.9207,127.2047
67.8883,127.2264
67.8500,127.2340
Z" /> 
<path style="fill:#000000; fill-opacity:1.0000; stroke:none;fill-rule:evenodd;"
d="M 64.8500,133.8340
64.8117,133.8264
64.7793,133.8047
64.7576,133.7723
64.7500,133.7340
64.7500,132.7340
64.7576,132.6957
64.7793,132.6633
64.8117,132.6416
64.8500,132.6340
67.8500,132.6340
67.8883,132.6416
67.9207,132.6633
67.9424,132.6957
67.9500,132.7340
67.9500,133.7340
67.9424,133.7723
67.9207,133.8047
67.8883,133.8264
67.8500,133.8340
Z" /> 
<path style="fill:#000000; fill-opacity:1.0000; stroke:none;fill-rule:evenodd;"
d="M 71.6500,129.5840
71.6117,129.5764
71.5793,129.5547
71.5576,129.5223
71.5500,129.4840
71.5500,128.3840
71.5576,128.3457
71.5793,128.3133
71.6117,128.2916
71.6500,128.2840
73.6500,128.2840
73.6883,128.2916
73.7207,128.3133
73.7424,128.3457
73.7500,128.3840
73.7500,129.4840
73.7424,129.5223
73.7207,129.5547
73.6883,129.5764
73.6500,129.5840
Z" /> 
<path style="fill:#000000; fill-opacity:1.0000; stroke:none;fill-rule:evenodd;"
d="M 71.6500,131.5840
71.6117,131.5764
71.5793,131.5547
71.5576,131.5223
71.5500,131.4840
71.5500,130.3840
71.5576,130.3457
71.5793,130.3133
71.6117,130.2916
71.6500,130.2840
73.6500,130.2840
73.6883,130.2916
73.7207,130.3133
73.7424,130.3457
73.7500,130.3840
73.7500,131.4840
73.7424,131.5223
73.7207,131.5547
73.6883,131.5764
73.6500,131.5840
Z" /> 
<path style="fill:#000000; fill-opacity:1.0000; stroke:none;fill-rule:evenodd;"
d="M 76.6000,112.9400
76.6383,112.9476
76.6707,112.9693
76.6924,113.0017
76.7000,113.0400
76.7000,113.7000
76.6924,113.7383
76.6707,113.7707
76.6383,113.7924
76.6000,113.8000
75.6000,113.8000
75.5617,113.7924
75.5293,113.7707
75.5076,113.7383
75.5000,113.7000
75.5000,113.0400
75.5076,113.0017
75.5293,112.9693
75.5617,112.9476
75.6000,112.9400
Z" /> 
<path style="fill:#000000; fill-opacity:1.0000; stroke:none;fill-rule:evenodd;"
d="M 76.6000,114.4000
76.6383,114.4076
76.6707,114.4293
76.6924,114.4617
76.7000,114.5000
76.7000,115.1600
76.6924,115.1983
76.6707,115.2307
76.6383,115.2524
76.6000,115.2600
75.6000,115.2600
75.5617,115.2524
75.5293,115.2307
75.5076,115.1983
75.5000,115.1600
75.5000,114.5000
75.5076,114.4617
75.5293,114.4293
75.5617,114.4076
75.6000,114.4000
Z" /> 
<path style="fill:#000000; fill-opacity:1.0000; stroke:none;fill-rule:evenodd;"
d="M 81.1000,115.7950
81.0924,115.8333
81.0707,115.8657
81.0383,115.8874
81.0000,115.8950
80.0000,115.8950
79.9617,115.8874
79.9293,115.8657
79.9076,115.8333
79.9000,115.7950
79.9000,115.1550
79.9076,115.1167
79.9293,115.0843
79.9617,115.0626
80.0000,115.0550
81.0000,115.0550
81.0383,115.0626
81.0707,115.0843
81.0924,115.1167
81.1000,115.1550
Z" /> 
<path style="fill:#000000; fill-opacity:1.0000; stroke:none;fill-rule:evenodd;"
d="M 81.1000,114.2450
81.0924,114.2833
81.0707,114.3157
81.0383,114.3374
81.0000,114.3450
80.0000,114.3450
79.9617,114.3374
79.9293,114.3157
79.9076,114.2833
79.9000,114.2450
79.9000,113.6050
79.9076,113.5667
79.9293,113.5343
79.9617,113.5126
80.0000,113.5050
81.0000,113.5050
81.0383,113.5126
81.0707,113.5343
81.0924,113.5667
81.1000,113.6050
Z" /> 
<path style="fill:#000000; fill-opacity:1.0000; stroke:none;fill-rule:evenodd;"
d="M 81.0000,134.5950
80.9924,134.6333
80.9707,134.6657
80.9383,134.6874
80.9000,134.6950
79.9000,134.6950
79.8617,134.6874
79.8293,134.6657
79.8076,134.6333
79.8000,134.5950
79.8000,133.9550
79.8076,133.9167
79.8293,133.8843
79.8617,133.8626
79.9000,133.8550
80.9000,133.8550
80.9383,133.8626
80.9707,133.8843
80.9924,133.9167
81.0000,133.9550
Z" /> 
<path style="fill:#000000; fill-opacity:1.0000; stroke:none;fill-rule:evenodd;"
d="M 81.0000,133.0450
80.9924,133.0833
80.9707,133.1157
80.9383,133.1374
80.9000,133.1450
79.9000,133.1450
79.8617,133.1374
79.8293,133.1157
79.8076,133.0833
79.8000,133.0450
79.8000,132.4050
79.8076,132.3667
79.8293,132.3343
79.8617,132.3126
79.9000,132.3050
80.9000,132.3050
80.9383,132.3126
80.9707,132.3343
80.9924,132.3667
81.0000,132.4050
Z" /> 
<path style="fill:#000000; fill-opacity:1.0000; stroke:none;fill-rule:evenodd;"
d="M 73.8000,112.9400
73.8383,112.9476
73.8707,112.9693
73.8924,113.0017
73.9000,113.0400
73.9000,113.7000
73.8924,113.7383
73.8707,113.7707
73.8383,113.7924
73.8000,113.8000
72.8000,113.8000
72.7617,113.7924
72.7293,113.7707
72.7076,113.7383
72.7000,113.7000
72.7000,113.0400
72.7076,113.0017
72.7293,112.9693
72.7617,112.9476
72.8000,112.9400
Z" /> 
<path style="fill:#000000; fill-opacity:1.0000; stroke:none;fill-rule:evenodd;"
d="M 73.8000,114.4000
73.8383,114.4076
73.8707,114.4293
73.8924,114.4617
73.9000,114.5000
73.9000,115.1600
73.8924,115.1983
73.8707,115.2307
73.8383,115.2524
73.8000,115.2600
72.8000,115.2600
72.7617,115.2524
72.7293,115.2307
72.7076,115.1983
72.7000,115.1600
72.7000,114.5000
72.7076,114.4617
72.7293,114.4293
72.7617,114.4076
72.8000,114.4000
Z" /> 
<path style="fill:#000000; fill-opacity:1.0000; stroke:none;fill-rule:evenodd;"
d="M 84.6600,129.5000
84.6524,129.5383
84.6307,129.5707
84.5983,129.5924
84.5600,129.6000
83.9000,129.6000
83.8617,129.5924
83.8293,129.5707
83.8076,129.5383
83.8000,129.5000
83.8000,128.5000
83.8076,128.4617
83.8293,128.4293
83.8617,128.4076
83.9000,128.4000
84.5600,128.4000
84.5983,128.4076
84.6307,128.4293
84.6524,128.4617
84.6600,128.5000
Z" /> 
<path style="fill:#000000; fill-opacity:1.0000; stroke:none;fill-rule:evenodd;"
d="M 83.2000,129.5000
83.1924,129.5383
83.1707,129.5707
83.1383,129.5924
83.1000,129.6000
82.4400,129.6000
82.4017,129.5924
82.3693,129.5707
82.3476,129.5383
82.3400,129.5000
82.3400,128.5000
82.3476,128.4617
82.3693,128.4293
82.4017,128.4076
82.4400,128.4000
83.1000,128.4000
83.1383,128.4076
83.1707,128.4293
83.1924,128.4617
83.2000,128.5000
Z" /> 
<path style="fill:#000000; fill-opacity:1.0000; stroke:none;fill-rule:evenodd;"
d="M 81.7500,131.2000
81.7424,131.2383
81.7207,131.2707
81.6883,131.2924
81.6500,131.3000
80.3000,131.3000
80.2617,131.2924
80.2293,131.2707
80.2076,131.2383
80.2000,131.2000
80.2000,130.7500
80.2076,130.7117
80.2293,130.6793
80.2617,130.6576
80.3000,130.6500
81.6500,130.6500
81.6883,130.6576
81.7207,130.6793
81.7424,130.7117
81.7500,130.7500
Z" /> 
<path style="fill:#000000; fill-opacity:1.0000; stroke:none;fill-rule:evenodd;"
d="M 81.7500,130.5500
81.7424,130.5883
81.7207,130.6207
81.6883,130.6424
81.6500,130.6500
80.3000,130.6500
80.2617,130.6424
80.2293,130.6207
80.2076,130.5883
80.2000,130.5500
80.2000,130.1000
80.2076,130.0617
80.2293,130.0293
80.2617,130.0076
80.3000,130.0000
81.6500,130.0000
81.6883,130.0076
81.7207,130.0293
81.7424,130.0617
81.7500,130.1000
Z" /> 
<path style="fill:#000000; fill-opacity:1.0000; stroke:none;fill-rule:evenodd;"
d="M 81.7500,129.9000
81.7424,129.9383
81.7207,129.9707
81.6883,129.9924
81.6500,130.0000
80.3000,130.0000
80.2617,129.9924
80.2293,129.9707
80.2076,129.9383
80.2000,129.9000
80.2000,129.4500
80.2076,129.4117
80.2293,129.3793
80.2617,129.3576
80.3000,129.3500
81.6500,129.3500
81.6883,129.3576
81.7207,129.3793
81.7424,129.4117
81.7500,129.4500
Z" /> 
<path style="fill:#000000; fill-opacity:1.0000; stroke:none;fill-rule:evenodd;"
d="M 81.7500,129.2500
81.7424,129.2883
81.7207,129.3207
81.6883,129.3424
81.6500,129.3500
80.3000,129.3500
80.2617,129.3424
80.2293,129.3207
80.2076,129.2883
80.2000,129.2500
80.2000,128.8000
80.2076,128.7617
80.2293,128.7293
80.2617,128.7076
80.3000,128.7000
81.6500,128.7000
81.6883,128.7076
81.7207,128.7293
81.7424,128.7617
81.7500,128.8000
Z" /> 
<path style="fill:#000000; fill-opacity:1.0000; stroke:none;fill-rule:evenodd;"
d="M 77.8000,129.2500
77.7924,129.2883
77.7707,129.3207
77.7383,129.3424
77.7000,129.3500
76.3500,129.3500
76.3117,129.3424
76.2793,129.3207
76.2576,129.2883
76.2500,129.2500
76.2500,128.8000
76.2576,128.7617
76.2793,128.7293
76.3117,128.7076
76.3500,128.7000
77.7000,128.7000
77.7383,128.7076
77.7707,128.7293
77.7924,128.7617
77.8000,128.8000
Z" /> 
<path style="fill:#000000; fill-opacity:1.0000; stroke:none;fill-rule:evenodd;"
d="M 77.8000,129.9000
77.7924,129.9383
77.7707,129.9707
77.7383,129.9924
77.7000,130.0000
76.3500,130.0000
76.3117,129.9924
76.2793,129.9707
76.2576,129.9383
76.2500,129.9000
76.2500,129.4500
76.2576,129.4117
76.2793,129.3793
76.3117,129.3576
76.3500,129.3500
77.7000,129.3500
77.7383,129.3576
77.7707,129.3793
77.7924,129.4117
77.8000,129.4500
Z" /> 
<path style="fill:#000000; fill-opacity:1.0000; stroke:none;fill-rule:evenodd;"
d="M 77.8000,130.5500
77.7924,130.5883
77.7707,130.6207
77.7383,130.6424
77.7000,130.6500
76.3500,130.6500
76.3117,130.6424
76.2793,130.6207
76.2576,130.5883
76.2500,130.5500
76.2500,130.1000
76.2576,130.0617
76.2793,130.0293
76.3117,130.0076
76.3500,130.0000
77.7000,130.0000
77.7383,130.0076
77.7707,130.0293
77.7924,130.0617
77.8000,130.1000
Z" /> 
<path style="fill:#000000; fill-opacity:1.0000; stroke:none;fill-rule:evenodd;"
d="M 77.8000,131.2000
77.7924,131.2383
77.7707,131.2707
77.7383,131.2924
77.7000,131.3000
76.3500,131.3000
76.3117,131.2924
76.2793,131.2707
76.2576,131.2383
76.2500,131.2000
76.2500,130.7500
76.2576,130.7117
76.2793,130.6793
76.3117,130.6576
76.3500,130.6500
77.7000,130.6500
77.7383,130.6576
77.7707,130.6793
77.7924,130.7117
77.8000,130.7500
Z" /> 
<path style="fill:#000000; fill-opacity:1.0000; stroke:none;fill-rule:evenodd;"
d="M 82.4050,131.4500
82.3667,131.4424
82.3343,131.4207
82.3126,131.3883
82.3050,131.3500
82.3050,130.3500
82.3126,130.3117
82.3343,130.2793
82.3667,130.2576
82.4050,130.2500
83.0450,130.2500
83.0833,130.2576
83.1157,130.2793
83.1374,130.3117
83.1450,130.3500
83.1450,131.3500
83.1374,131.3883
83.1157,131.4207
83.0833,131.4424
83.0450,131.4500
Z" /> 
<path style="fill:#000000; fill-opacity:1.0000; stroke:none;fill-rule:evenodd;"
d="M 83.9550,131.4500
83.9167,131.4424
83.8843,131.4207
83.8626,131.3883
83.8550,131.3500
83.8550,130.3500
83.8626,130.3117
83.8843,130.2793
83.9167,130.2576
83.9550,130.2500
84.5950,130.2500
84.6333,130.2576
84.6657,130.2793
84.6874,130.3117
84.6950,130.3500
84.6950,131.3500
84.6874,131.3883
84.6657,131.4207
84.6333,131.4424
84.5950,131.4500
Z" /> 
<path style="fill:#000000; fill-opacity:1.0000; stroke:none;fill-rule:evenodd;"
d="M 80.6800,138.4500
80.6417,138.4424
80.6093,138.4207
80.5876,138.3883
80.5800,138.3500
80.5800,137.6500
80.5876,137.6117
80.6093,137.5793
80.6417,137.5576
80.6800,137.5500
80.9300,137.5500
80.9683,137.5576
81.0007,137.5793
81.0224,137.6117
81.0300,137.6500
81.0300,138.3500
81.0224,138.3883
81.0007,138.4207
80.9683,138.4424
80.9300,138.4500
Z" /> 
<path style="fill:#000000; fill-opacity:1.0000; stroke:none;fill-rule:evenodd;"
d="M 83.9300,138.4500
83.8917,138.4424
83.8593,138.4207
83.8376,138.3883
83.8300,138.3500
83.8300,137.6500
83.8376,137.6117
83.8593,137.5793
83.8917,137.5576
83.9300,137.5500
84.1800,137.5500
84.2183,137.5576
84.2507,137.5793
84.2724,137.6117
84.2800,137.6500
84.2800,138.3500
84.2724,138.3883
84.2507,138.4207
84.2183,138.4424
84.1800,138.4500
Z" /> 
<path style="fill:#000000; fill-opacity:1.0000; stroke:none;fill-rule:evenodd;"
d="M 81.0800,136.7000
81.0417,136.6924
81.0093,136.6707
80.9876,136.6383
80.9800,136.6000
80.9800,135.5000
80.9876,135.4617
81.0093,135.4293
81.0417,135.4076
81.0800,135.4000
81.7800,135.4000
81.8183,135.4076
81.8507,135.4293
81.8724,135.4617
81.8800,135.5000
81.8800,136.6000
81.8724,136.6383
81.8507,136.6707
81.8183,136.6924
81.7800,136.7000
Z" /> 
<path style="fill:#000000; fill-opacity:1.0000; stroke:none;fill-rule:evenodd;"
d="M 81.0800,140.6000
81.0417,140.5924
81.0093,140.5707
80.9876,140.5383
80.9800,140.5000
80.9800,139.4000
80.9876,139.3617
81.0093,139.3293
81.0417,139.3076
81.0800,139.3000
81.7800,139.3000
81.8183,139.3076
81.8507,139.3293
81.8724,139.3617
81.8800,139.4000
81.8800,140.5000
81.8724,140.5383
81.8507,140.5707
81.8183,140.5924
81.7800,140.6000
Z" /> 
<path style="fill:#000000; fill-opacity:1.0000; stroke:none;fill-rule:evenodd;"
d="M 83.0800,136.7000
83.0417,136.6924
83.0093,136.6707
82.9876,136.6383
82.9800,136.6000
82.9800,135.5000
82.9876,135.4617
83.0093,135.4293
83.0417,135.4076
83.0800,135.4000
83.7800,135.4000
83.8183,135.4076
83.8507,135.4293
83.8724,135.4617
83.8800,135.5000
83.8800,136.6000
83.8724,136.6383
83.8507,136.6707
83.8183,136.6924
83.7800,136.7000
Z" /> 
<path style="fill:#000000; fill-opacity:1.0000; stroke:none;fill-rule:evenodd;"
d="M 83.0800,140.6000
83.0417,140.5924
83.0093,140.5707
82.9876,140.5383
82.9800,140.5000
82.9800,139.4000
82.9876,139.3617
83.0093,139.3293
83.0417,139.3076
83.0800,139.3000
83.7800,139.3000
83.8183,139.3076
83.8507,139.3293
83.8724,139.3617
83.8800,139.4000
83.8800,140.5000
83.8724,140.5383
83.8507,140.5707
83.8183,140.5924
83.7800,140.6000
Z" /> 
<path style="fill:#000000; fill-opacity:1.0000; stroke:none;fill-rule:evenodd;"
d="M 75.8000,132.1400
75.8383,132.1476
75.8707,132.1693
75.8924,132.2017
75.9000,132.2400
75.9000,132.9000
75.8924,132.9383
75.8707,132.9707
75.8383,132.9924
75.8000,133.0000
74.8000,133.0000
74.7617,132.9924
74.7293,132.9707
74.7076,132.9383
74.7000,132.9000
74.7000,132.2400
74.7076,132.2017
74.7293,132.1693
74.7617,132.1476
74.8000,132.1400
Z" /> 
<path style="fill:#000000; fill-opacity:1.0000; stroke:none;fill-rule:evenodd;"
d="M 75.8000,133.6000
75.8383,133.6076
75.8707,133.6293
75.8924,133.6617
75.9000,133.7000
75.9000,134.3600
75.8924,134.3983
75.8707,134.4307
75.8383,134.4524
75.8000,134.4600
74.8000,134.4600
74.7617,134.4524
74.7293,134.4307
74.7076,134.3983
74.7000,134.3600
74.7000,133.7000
74.7076,133.6617
74.7293,133.6293
74.7617,133.6076
74.8000,133.6000
Z" /> 
<path style="fill:#000000; fill-opacity:1.0000; stroke:none;fill-rule:evenodd;"
d="M 70.2300,147.2200
70.1917,147.2124
70.1593,147.1907
70.1376,147.1583
70.1300,147.1200
70.1300,146.4800
70.1376,146.4417
70.1593,146.4093
70.1917,146.3876
70.2300,146.3800
70.7700,146.3800
70.8083,146.3876
70.8407,146.4093
70.8624,146.4417
70.8700,146.4800
70.8700,147.1200
70.8624,147.1583
70.8407,147.1907
70.8083,147.2124
70.7700,147.2200
Z" /> 
<path style="fill:#000000; fill-opacity:1.0000; stroke:none;fill-rule:evenodd;"
d="M 71.2300,147.2200
71.1917,147.2124
71.1593,147.1907
71.1376,147.1583
71.1300,147.1200
71.1300,146.4800
71.1376,146.4417
71.1593,146.4093
71.1917,146.3876
71.2300,146.3800
71.7700,146.3800
71.8083,146.3876
71.8407,146.4093
71.8624,146.4417
71.8700,146.4800
71.8700,147.1200
71.8624,147.1583
71.8407,147.1907
71.8083,147.2124
71.7700,147.2200
Z" /> 
<path style="fill:#000000; fill-opacity:1.0000; stroke:none;fill-rule:evenodd;"
d="M 74.7000,124.2500
74.7383,124.2576
74.7707,124.2793
74.7924,124.3117
74.8000,124.3500
74.8000,124.9500
74.7924,124.9883
74.7707,125.0207
74.7383,125.0424
74.7000,125.0500
73.7000,125.0500
73.6617,125.0424
73.6293,125.0207
73.6076,124.9883
73.6000,124.9500
73.6000,124.3500
73.6076,124.3117
73.6293,124.2793
73.6617,124.2576
73.7000,124.2500
Z" /> 
<path style="fill:#000000; fill-opacity:1.0000; stroke:none;fill-rule:evenodd;"
d="M 74.7000,122.3500
74.7383,122.3576
74.7707,122.3793
74.7924,122.4117
74.8000,122.4500
74.8000,123.0500
74.7924,123.0883
74.7707,123.1207
74.7383,123.1424
74.7000,123.1500
73.7000,123.1500
73.6617,123.1424
73.6293,123.1207
73.6076,123.0883
73.6000,123.0500
73.6000,122.4500
73.6076,122.4117
73.6293,122.3793
73.6617,122.3576
73.7000,122.3500
Z" /> 
<path style="fill:#000000; fill-opacity:1.0000; stroke:none;fill-rule:evenodd;"
d="M 72.3000,123.3000
72.3383,123.3076
72.3707,123.3293
72.3924,123.3617
72.4000,123.4000
72.4000,124.0000
72.3924,124.0383
72.3707,124.0707
72.3383,124.0924
72.3000,124.1000
71.3000,124.1000
71.2617,124.0924
71.2293,124.0707
71.2076,124.0383
71.2000,124.0000
71.2000,123.4000
71.2076,123.3617
71.2293,123.3293
71.2617,123.3076
71.3000,123.3000
Z" /> 
<path style="fill:#000000; fill-opacity:1.0000; stroke:none;fill-rule:evenodd;"
d="M 87.6990,140.9050
87.6914,140.9433
87.6697,140.9757
87.6373,140.9974
87.5990,141.0050
86.9990,141.0050
86.9607,140.9974
86.9283,140.9757
86.9066,140.9433
86.8990,140.9050
86.8990,139.9050
86.9066,139.8667
86.9283,139.8343
86.9607,139.8126
86.9990,139.8050
87.5990,139.8050
87.6373,139.8126
87.6697,139.8343
87.6914,139.8667
87.6990,139.9050
Z" /> 
<path style="fill:#000000; fill-opacity:1.0000; stroke:none;fill-rule:evenodd;"
d="M 89.5990,140.9050
89.5914,140.9433
89.5697,140.9757
89.5373,140.9974
89.4990,141.0050
88.8990,141.0050
88.8607,140.9974
88.8283,140.9757
88.8066,140.9433
88.7990,140.9050
88.7990,139.9050
88.8066,139.8667
88.8283,139.8343
88.8607,139.8126
88.8990,139.8050
89.4990,139.8050
89.5373,139.8126
89.5697,139.8343
89.5914,139.8667
89.5990,139.9050
Z" /> 
<path style="fill:#000000; fill-opacity:1.0000; stroke:none;fill-rule:evenodd;"
d="M 88.6490,138.5050
88.6414,138.5433
88.6197,138.5757
88.5873,138.5974
88.5490,138.6050
87.9490,138.6050
87.9107,138.5974
87.8783,138.5757
87.8566,138.5433
87.8490,138.5050
87.8490,137.5050
87.8566,137.4667
87.8783,137.4343
87.9107,137.4126
87.9490,137.4050
88.5490,137.4050
88.5873,137.4126
88.6197,137.4343
88.6414,137.4667
88.6490,137.5050
Z" /> 
</g>
<g style="fill:#000000; fill-opacity:1.0000; stroke:none;">
<circle cx="77.4300" cy="106.0000" r="1.6000" /> 
</g>
<g style="fill:#000000; fill-opacity:1.0000; stroke:none;">
<circle cx="74.5680" cy="143.8000" r="0.4250" /> 
</g>
<g style="fill:#000000; fill-opacity:1.0000; stroke:none;">
<circle cx="80.3430" cy="143.8000" r="0.4250" /> 
<path style="fill:#000000; fill-opacity:1.0000; stroke:none;fill-rule:evenodd;"
d="M 73.8430,141.9500
73.8506,141.9117
73.8723,141.8793
73.9047,141.8576
73.9430,141.8500
74.2430,141.8500
74.2813,141.8576
74.3137,141.8793
74.3354,141.9117
74.3430,141.9500
74.3430,143.1000
74.3354,143.1383
74.3137,143.1707
74.2813,143.1924
74.2430,143.2000
73.9430,143.2000
73.9047,143.1924
73.8723,143.1707
73.8506,143.1383
73.8430,143.1000
Z" /> 
<path style="fill:#000000; fill-opacity:1.0000; stroke:none;fill-rule:evenodd;"
d="M 74.6430,141.9500
74.6506,141.9117
74.6723,141.8793
74.7047,141.8576
74.7430,141.8500
75.0430,141.8500
75.0813,141.8576
75.1137,141.8793
75.1354,141.9117
75.1430,141.9500
75.1430,143.1000
75.1354,143.1383
75.1137,143.1707
75.0813,143.1924
75.0430,143.2000
74.7430,143.2000
74.7047,143.1924
74.6723,143.1707
74.6506,143.1383
74.6430,143.1000
Z" /> 
<path style="fill:#000000; fill-opacity:1.0000; stroke:none;fill-rule:evenodd;"
d="M 75.9430,141.9500
75.9506,141.9117
75.9723,141.8793
76.0047,141.8576
76.0430,141.8500
76.3430,141.8500
76.3813,141.8576
76.4137,141.8793
76.4354,141.9117
76.4430,141.9500
76.4430,143.1000
76.4354,143.1383
76.4137,143.1707
76.3813,143.1924
76.3430,143.2000
76.0430,143.2000
76.0047,143.1924
75.9723,143.1707
75.9506,143.1383
75.9430,143.1000
Z" /> 
<path style="fill:#000000; fill-opacity:1.0000; stroke:none;fill-rule:evenodd;"
d="M 76.9430,141.9500
76.9506,141.9117
76.9723,141.8793
77.0047,141.8576
77.0430,141.8500
77.3430,141.8500
77.3813,141.8576
77.4137,141.8793
77.4354,141.9117
77.4430,141.9500
77.4430,143.1000
77.4354,143.1383
77.4137,143.1707
77.3813,143.1924
77.3430,143.2000
77.0430,143.2000
77.0047,143.1924
76.9723,143.1707
76.9506,143.1383
76.9430,143.1000
Z" /> 
<path style="fill:#000000; fill-opacity:1.0000; stroke:none;fill-rule:evenodd;"
d="M 77.4430,141.9500
77.4506,141.9117
77.4723,141.8793
77.5047,141.8576
77.5430,141.8500
77.8430,141.8500
77.8813,141.8576
77.9137,141.8793
77.9354,141.9117
77.9430,141.9500
77.9430,143.1000
77.9354,143.1383
77.9137,143.1707
77.8813,143.1924
77.8430,143.2000
77.5430,143.2000
77.5047,143.1924
77.4723,143.1707
77.4506,143.1383
77.4430,143.1000
Z" /> 
<path style="fill:#000000; fill-opacity:1.0000; stroke:none;fill-rule:evenodd;"
d="M 78.4430,141.9500
78.4506,141.9117
78.4723,141.8793
78.5047,141.8576
78.5430,141.8500
78.8430,141.8500
78.8813,141.8576
78.9137,141.8793
78.9354,141.9117
78.9430,141.9500
78.9430,143.1000
78.9354,143.1383
78.9137,143.1707
78.8813,143.1924
78.8430,143.2000
78.5430,143.2000
78.5047,143.1924
78.4723,143.1707
78.4506,143.1383
78.4430,143.1000
Z" /> 
<path style="fill:#000000; fill-opacity:1.0000; stroke:none;fill-rule:evenodd;"
d="M 79.7430,141.9500
79.7506,141.9117
79.7723,141.8793
79.8047,141.8576
79.8430,141.8500
80.1430,141.8500
80.1813,141.8576
80.2137,141.8793
80.2354,141.9117
80.2430,141.9500
80.2430,143.1000
80.2354,143.1383
80.2137,143.1707
80.1813,143.1924
80.1430,143.2000
79.8430,143.2000
79.8047,143.1924
79.7723,143.1707
79.7506,143.1383
79.7430,143.1000
Z" /> 
<path style="fill:#000000; fill-opacity:1.0000; stroke:none;fill-rule:evenodd;"
d="M 80.5180,141.9500
80.5256,141.9117
80.5473,141.8793
80.5797,141.8576
80.6180,141.8500
80.9180,141.8500
80.9563,141.8576
80.9887,141.8793
81.0104,141.9117
81.0180,141.9500
81.0180,143.1000
81.0104,143.1383
80.9887,143.1707
80.9563,143.1924
80.9180,143.2000
80.6180,143.2000
80.5797,143.1924
80.5473,143.1707
80.5256,143.1383
80.5180,143.1000
Z" /> 
<path style="fill:#000000; fill-opacity:1.0000; stroke:none;fill-rule:evenodd;"
d="M 80.3180,141.9500
80.3256,141.9117
80.3473,141.8793
80.3797,141.8576
80.4180,141.8500
80.7180,141.8500
80.7563,141.8576
80.7887,141.8793
80.8104,141.9117
80.8180,141.9500
80.8180,143.1000
80.8104,143.1383
80.7887,143.1707
80.7563,143.1924
80.7180,143.2000
80.4180,143.2000
80.3797,143.1924
80.3473,143.1707
80.3256,143.1383
80.3180,143.1000
Z" /> 
<path style="fill:#000000; fill-opacity:1.0000; stroke:none;fill-rule:evenodd;"
d="M 79.5430,141.9500
79.5506,141.9117
79.5723,141.8793
79.6047,141.8576
79.6430,141.8500
79.9430,141.8500
79.9813,141.8576
80.0137,141.8793
80.0354,141.9117
80.0430,141.9500
80.0430,143.1000
80.0354,143.1383
80.0137,143.1707
79.9813,143.1924
79.9430,143.2000
79.6430,143.2000
79.6047,143.1924
79.5723,143.1707
79.5506,143.1383
79.5430,143.1000
Z" /> 
<path style="fill:#000000; fill-opacity:1.0000; stroke:none;fill-rule:evenodd;"
d="M 78.9430,141.9500
78.9506,141.9117
78.9723,141.8793
79.0047,141.8576
79.0430,141.8500
79.3430,141.8500
79.3813,141.8576
79.4137,141.8793
79.4354,141.9117
79.4430,141.9500
79.4430,143.1000
79.4354,143.1383
79.4137,143.1707
79.3813,143.1924
79.3430,143.2000
79.0430,143.2000
79.0047,143.1924
78.9723,143.1707
78.9506,143.1383
78.9430,143.1000
Z" /> 
<path style="fill:#000000; fill-opacity:1.0000; stroke:none;fill-rule:evenodd;"
d="M 77.9430,141.9500
77.9506,141.9117
77.9723,141.8793
78.0047,141.8576
78.0430,141.8500
78.3430,141.8500
78.3813,141.8576
78.4137,141.8793
78.4354,141.9117
78.4430,141.9500
78.4430,143.1000
78.4354,143.1383
78.4137,143.1707
78.3813,143.1924
78.3430,143.2000
78.0430,143.2000
78.0047,143.1924
77.9723,143.1707
77.9506,143.1383
77.9430,143.1000
Z" /> 
<path style="fill:#000000; fill-opacity:1.0000; stroke:none;fill-rule:evenodd;"
d="M 76.4430,141.9500
76.4506,141.9117
76.4723,141.8793
76.5047,141.8576
76.5430,141.8500
76.8430,141.8500
76.8813,141.8576
76.9137,141.8793
76.9354,141.9117
76.9430,141.9500
76.9430,143.1000
76.9354,143.1383
76.9137,143.1707
76.8813,143.1924
76.8430,143.2000
76.5430,143.2000
76.5047,143.1924
76.4723,143.1707
76.4506,143.1383
76.4430,143.1000
Z" /> 
<path style="fill:#000000; fill-opacity:1.0000; stroke:none;fill-rule:evenodd;"
d="M 75.4430,141.9500
75.4506,141.9117
75.4723,141.8793
75.5047,141.8576
75.5430,141.8500
75.8430,141.8500
75.8813,141.8576
75.9137,141.8793
75.9354,141.9117
75.9430,141.9500
75.9430,143.1000
75.9354,143.1383
75.9137,143.1707
75.8813,143.1924
75.8430,143.2000
75.5430,143.2000
75.5047,143.1924
75.4723,143.1707
75.4506,143.1383
75.4430,143.1000
Z" /> 
<path style="fill:#000000; fill-opacity:1.0000; stroke:none;fill-rule:evenodd;"
d="M 74.8430,141.9500
74.8506,141.9117
74.8723,141.8793
74.9047,141.8576
74.9430,141.8500
75.2430,141.8500
75.2813,141.8576
75.3137,141.8793
75.3354,141.9117
75.3430,141.9500
75.3430,143.1000
75.3354,143.1383
75.3137,143.1707
75.2813,143.1924
75.2430,143.2000
74.9430,143.2000
74.9047,143.1924
74.8723,143.1707
74.8506,143.1383
74.8430,143.1000
Z" /> 
<path style="fill:#000000; fill-opacity:1.0000; stroke:none;fill-rule:evenodd;"
d="M 74.0680,141.9500
74.0756,141.9117
74.0973,141.8793
74.1297,141.8576
74.1680,141.8500
74.4680,141.8500
74.5063,141.8576
74.5387,141.8793
74.5604,141.9117
74.5680,141.9500
74.5680,143.1000
74.5604,143.1383
74.5387,143.1707
74.5063,143.1924
74.4680,143.2000
74.1680,143.2000
74.1297,143.1924
74.0973,143.1707
74.0756,143.1383
74.0680,143.1000
Z" /> 
</g>
<g style="fill:none; 
stroke:#000000; stroke-width:1.2000; stroke-opacity:1; 
stroke-linecap:round; stroke-linejoin:round;">
<path d="M73.1180 146.9250
L73.1180 148.0250
" />
<path d="M81.7430 142.7750
L81.7430 143.8750
" />
<path d="M73.1180 142.7750
L73.1180 143.8750
" />
<path d="M81.7430 146.9250
L81.7430 148.0250
" />
</g>
<g style="fill:#FFFFFF; fill-opacity:1.0000; stroke:none;">
<circle cx="88.8600" cy="124.0600" r="0.5000" /> 
</g>
<g style="fill:#FFFFFF; fill-opacity:1.0000; stroke:none;">
<circle cx="88.8600" cy="121.5200" r="0.5000" /> 
</g>
<g style="fill:#FFFFFF; fill-opacity:1.0000; stroke:none;">
<circle cx="88.8600" cy="118.9800" r="0.5000" /> 
</g>
<g style="fill:#FFFFFF; fill-opacity:1.0000; stroke:none;">
<circle cx="88.8600" cy="116.4400" r="0.5000" /> 
</g>
<g style="fill:#FFFFFF; fill-opacity:1.0000; stroke:none;">
<circle cx="88.8600" cy="113.9000" r="0.5000" /> 
</g>
<g style="fill:#FFFFFF; fill-opacity:1.0000; stroke:none;">
<circle cx="88.8600" cy="111.3600" r="0.5000" /> 
</g>
<g style="fill:#FFFFFF; fill-opacity:1.0000; stroke:none;">
<circle cx="88.8600" cy="108.8200" r="0.5000" /> 
</g>
<g style="fill:#FFFFFF; fill-opacity:1.0000; stroke:none;">
<circle cx="88.8600" cy="106.2800" r="0.5000" /> 
</g>
<g style="fill:#FFFFFF; fill-opacity:1.0000; stroke:none;">
<circle cx="88.8600" cy="103.7400" r="0.5000" /> 
</g>
<g style="fill:#FFFFFF; fill-opacity:1.0000; stroke:none;">
<circle cx="88.8600" cy="101.2000" r="0.5000" /> 
</g>
<g style="fill:#FFFFFF; fill-opacity:1.0000; stroke:none;">
<circle cx="88.8600" cy="98.6600" r="0.5000" /> 
</g>
<g style="fill:#FFFFFF; fill-opacity:1.0000; stroke:none;">
<circle cx="88.8600" cy="96.1200" r="0.5000" /> 
</g>
<g style="fill:#FFFFFF; fill-opacity:1.0000; stroke:none;">
<circle cx="88.8600" cy="93.5800" r="0.5000" /> 
</g>
<g style="fill:#FFFFFF; fill-opacity:1.0000; stroke:none;">
<circle cx="88.8600" cy="91.0400" r="0.5000" /> 
</g>
<g style="fill:#FFFFFF; fill-opacity:1.0000; stroke:none;">
<circle cx="88.8600" cy="88.5000" r="0.5000" /> 
</g>
<g style="fill:#FFFFFF; fill-opacity:1.0000; stroke:none;">
<circle cx="66.0000" cy="124.0600" r="0.5000" /> 
</g>
<g style="fill:#FFFFFF; fill-opacity:1.0000; stroke:none;">
<circle cx="66.0000" cy="121.5200" r="0.5000" /> 
</g>
<g style="fill:#FFFFFF; fill-opacity:1.0000; stroke:none;">
<circle cx="66.0000" cy="118.9800" r="0.5000" /> 
</g>
<g style="fill:#FFFFFF; fill-opacity:1.0000; stroke:none;">
<circle cx="66.0000" cy="116.4400" r="0.5000" /> 
</g>
<g style="fill:#FFFFFF; fill-opacity:1.0000; stroke:none;">
<circle cx="66.0000" cy="113.9000" r="0.5000" /> 
</g>
<g style="fill:#FFFFFF; fill-opacity:1.0000; stroke:none;">
<circle cx="66.0000" cy="111.3600" r="0.5000" /> 
</g>
<g style="fill:#FFFFFF; fill-opacity:1.0000; stroke:none;">
<circle cx="66.0000" cy="108.8200" r="0.5000" /> 
</g>
<g style="fill:#FFFFFF; fill-opacity:1.0000; stroke:none;">
<circle cx="66.0000" cy="106.2800" r="0.5000" /> 
</g>
<g style="fill:#FFFFFF; fill-opacity:1.0000; stroke:none;">
<circle cx="66.0000" cy="103.7400" r="0.5000" /> 
</g>
<g style="fill:#FFFFFF; fill-opacity:1.0000; stroke:none;">
<circle cx="66.0000" cy="101.2000" r="0.5000" /> 
</g>
<g style="fill:#FFFFFF; fill-opacity:1.0000; stroke:none;">
<circle cx="66.0000" cy="98.6600" r="0.5000" /> 
</g>
<g style="fill:#FFFFFF; fill-opacity:1.0000; stroke:none;">
<circle cx="66.0000" cy="96.1200" r="0.5000" /> 
</g>
<g style="fill:#FFFFFF; fill-opacity:1.0000; stroke:none;">
<circle cx="66.0000" cy="93.5800" r="0.5000" /> 
</g>
<g style="fill:#FFFFFF; fill-opacity:1.0000; stroke:none;">
<circle cx="66.0000" cy="91.0400" r="0.5000" /> 
</g>
<g style="fill:#FFFFFF; fill-opacity:1.0000; stroke:none;">
<circle cx="66.0000" cy="88.5000" r="0.5000" /> 
</g>
<g style="fill:#FFFFFF; fill-opacity:1.0000; stroke:none;">
<circle cx="77.4300" cy="138.0000" r="1.6000" /> 
</g>
<g style="fill:#FFFFFF; fill-opacity:1.0000; stroke:none;">
<circle cx="77.4300" cy="106.0000" r="1.6000" /> 
</g>
<g style="fill:#FFFFFF; fill-opacity:1.0000; stroke:none;">
<circle cx="74.5680" cy="143.8000" r="0.3250" /> 
</g>
<g style="fill:#FFFFFF; fill-opacity:1.0000; stroke:none;">
<circle cx="80.3430" cy="143.8000" r="0.3250" /> 
</g>
<g style="fill:none; 
stroke:#FFFFFF; stroke-width:0.6000; stroke-opacity:1; 
stroke-linecap:round; stroke-linejoin:round;">
<path d="M73.1180 146.9250
L73.1180 148.0250
" />
<path d="M81.7430 142.7750
L81.7430 143.8750
" />
<path d="M73.1180 142.7750
L73.1180 143.8750
" />
<path d="M81.7430 146.9250
L81.7430 148.0250
" />
</g> 
</svg>
