<?xml version="1.0" standalone="no"?>
 <!DOCTYPE svg PUBLIC "-//W3C//DTD SVG 1.1//EN" 
 "http://www.w3.org/Graphics/SVG/1.1/DTD/svg11.dtd"> 
<svg
  xmlns:svg="http://www.w3.org/2000/svg"
  xmlns="http://www.w3.org/2000/svg"
  xmlns:xlink="http://www.w3.org/1999/xlink"
  version="1.1"
  width="297.0022mm" height="210.0072mm" viewBox="0.0000 0.0000 297.0022 210.0072">
<title>SVG Image created as Dasduino_CONNECTPLUS_1-User_Drawings.svg date 2025/07/28 11:49:46 </title>
  <desc>Image generated by PCBNEW </desc>
<g style="fill:#000000; fill-opacity:1.0000;stroke:#000000; stroke-opacity:1.0000;
stroke-linecap:round; stroke-linejoin:round;"
 transform="translate(0 0) scale(1 1)">
</g>
<g style="fill:none; 
stroke:#000000; stroke-width:0.1200; stroke-opacity:1; 
stroke-linecap:round; stroke-linejoin:round;">
<path d="M59.1500 133.8500
L57.5500 133.8500
" />
<path d="M59.1500 133.0500
L59.1500 133.8500
" />
<path d="M57.5500 133.0500
L59.1500 133.0500
" />
<path d="M57.5500 133.8500
L57.5500 133.0500
" />
<path d="M53.8500 133.1500
L53.8500 133.7500
" />
<path d="M52.8500 133.7500
L52.8500 133.1500
" />
<path d="M52.8500 133.1500
L53.8500 133.1500
" />
<path d="M53.8500 133.7500
L52.8500 133.7500
" />
<path d="M73.0500 118.8500
L71.4500 118.8500
" />
<path d="M73.0500 115.6500
L73.0500 118.8500
" />
<path d="M71.4500 115.6500
L73.0500 115.6500
" />
<path d="M71.4500 118.8500
L71.4500 115.6500
" />
<path d="M47.0500 130.3100
L43.0500 130.3100
" />
<path d="M47.0500 127.9100
L47.0500 130.3100
" />
<path d="M43.0500 130.3100
L43.0500 127.9100
" />
<path d="M43.0500 127.9100
L47.0500 127.9100
" />
<path d="M46.9450 132.9990
L46.9450 133.7990
" />
<path d="M45.3450 133.7990
L45.3450 132.9990
" />
<path d="M46.9450 133.7990
L45.3450 133.7990
" />
<path d="M45.3450 132.9990
L46.9450 132.9990
" />
<path d="M74.6500 125.7500
L74.6500 126.5500
" />
<path d="M73.1500 126.5500
L73.1500 125.7500
" />
<path d="M73.1500 125.7500
L74.6500 125.7500
" />
<path d="M74.6500 126.5500
L73.1500 126.5500
" />
<path d="M55.9500 125.6500
L55.9500 126.4500
" />
<path d="M54.3500 125.6500
L55.9500 125.6500
" />
<path d="M54.3500 126.4500
L54.3500 125.6500
" />
<path d="M55.9500 126.4500
L54.3500 126.4500
" />
<path d="M75.2500 118.4500
L75.2500 119.2500
" />
<path d="M75.2500 119.2500
L73.7500 119.2500
" />
<path d="M73.7500 118.4500
L75.2500 118.4500
" />
<path d="M73.7500 119.2500
L73.7500 118.4500
" />
<path d="M59.1500 130.5500
L59.1500 131.3500
" />
<path d="M57.5500 130.5500
L59.1500 130.5500
" />
<path d="M59.1500 131.3500
L57.5500 131.3500
" />
<path d="M57.5500 131.3500
L57.5500 130.5500
" />
<path d="M55.8500 130.6500
L55.8500 131.2500
" />
<path d="M55.8500 131.2500
L54.8500 131.2500
" />
<path d="M54.8500 130.6500
L55.8500 130.6500
" />
<path d="M54.8500 131.2500
L54.8500 130.6500
" />
<path d="M53.8500 130.6500
L53.8500 131.2500
" />
<path d="M53.8500 131.2500
L52.8500 131.2500
" />
<path d="M52.8500 131.2500
L52.8500 130.6500
" />
<path d="M52.8500 130.6500
L53.8500 130.6500
" />
<path style="fill:none; 
stroke:#000000; stroke-width:0.1200; stroke-opacity:1; 
stroke-linecap:round; stroke-linejoin:round;fill:none"
d="M 63.3200,131.7400
101.4200,131.7400
101.4200,134.2800
63.3200,134.2800
Z" /> 
<path d="M41.3550 129.5860
L41.3550 130.3860
" />
<path d="M39.7550 129.5860
L41.3550 129.5860
" />
<path d="M41.3550 130.3860
L39.7550 130.3860
" />
<path d="M39.7550 130.3860
L39.7550 129.5860
" />
<path d="M70.1030 115.2500
L67.9030 115.2500
" />
<path d="M67.9030 115.2500
L67.9030 117.4500
" />
<path d="M67.9030 117.4500
L70.1030 117.4500
" />
<path d="M70.1030 117.4500
L70.1030 115.2500
" />
<circle cx="69.6030" cy="116.9500" r="0.2236" /> 
<path d="M56.4500 122.5800
L54.2500 122.5800
" />
<path d="M56.4500 120.5800
L56.4500 122.5800
" />
<path d="M54.2500 122.5800
L54.2500 120.5800
" />
<path d="M54.2500 120.5800
L56.4500 120.5800
" />
<path d="M55.0500 120.5800
L55.0500 122.5800
" />
</g>
<g style="fill:none; 
stroke:#000000; stroke-width:0.2000; stroke-opacity:1; 
stroke-linecap:round; stroke-linejoin:round;">
<circle cx="53.8500" cy="120.6800" r="0.1000" /> 
</g>
<g style="fill:none; 
stroke:#000000; stroke-width:0.1200; stroke-opacity:1; 
stroke-linecap:round; stroke-linejoin:round;">
<path d="M49.8500 111.8500
L50.8500 111.8500
" />
<path d="M49.8500 112.4500
L49.8500 111.8500
" />
<path d="M50.8500 112.4500
L49.8500 112.4500
" />
<path d="M50.8500 111.8500
L50.8500 112.4500
" />
<path d="M40.9500 115.6500
L40.3500 115.6500
" />
<path d="M40.3500 114.6500
L40.9500 114.6500
" />
<path d="M40.3500 115.6500
L40.3500 114.6500
" />
<path d="M40.9500 114.6500
L40.9500 115.6500
" />
<path style="fill:none; 
stroke:#000000; stroke-width:0.1200; stroke-opacity:1; 
stroke-linecap:round; stroke-linejoin:round;fill:none"
d="M 63.3200,108.8800
101.4200,108.8800
101.4200,111.4200
63.3200,111.4200
Z" /> 
<path d="M73.1500 123.5500
L73.1500 122.7500
" />
<path d="M73.1500 122.7500
L74.7500 122.7500
" />
<path d="M74.7500 123.5500
L73.1500 123.5500
" />
<path d="M74.7500 122.7500
L74.7500 123.5500
" />
<path d="M41.3550 127.8080
L41.3550 128.6080
" />
<path d="M39.7550 128.6080
L39.7550 127.8080
" />
<path d="M41.3550 128.6080
L39.7550 128.6080
" />
<path d="M39.7550 127.8080
L41.3550 127.8080
" />
<path d="M54.8500 133.7500
L54.8500 133.1500
" />
<path d="M54.8500 133.1500
L55.8500 133.1500
" />
<path d="M55.8500 133.7500
L54.8500 133.7500
" />
<path d="M55.8500 133.1500
L55.8500 133.7500
" />
<path d="M42.1450 133.9190
L42.1450 130.8790
" />
<path d="M43.5450 130.8790
L43.5450 133.9190
" />
<path d="M43.5450 133.9190
L42.1450 133.9190
" />
<path d="M42.1450 130.8790
L43.5450 130.8790
" />
<circle cx="43.2450" cy="133.2990" r="0.1414" /> 
<path style="fill:none; 
stroke:#000000; stroke-width:0.1200; stroke-opacity:1; 
stroke-linecap:round; stroke-linejoin:round;fill:none"
d="M 64.6420,119.3658
65.6580,119.3658
65.6580,120.1278
64.6420,120.1278
Z" /> 
<circle cx="65.9120" cy="119.1118" r="0.1796" /> 
<path d="M68.0760 118.0500
L69.5760 118.0500
" />
<path d="M69.5760 118.8500
L68.0760 118.8500
" />
<path d="M68.0760 118.8500
L68.0760 118.0500
" />
<path d="M69.5760 118.0500
L69.5760 118.8500
" />
<path d="M45.3450 130.9990
L46.9450 130.9990
" />
<path d="M45.3450 131.7990
L45.3450 130.9990
" />
<path d="M46.9450 130.9990
L46.9450 131.7990
" />
<path d="M46.9450 131.7990
L45.3450 131.7990
" />
<path d="M107.4800 130.5800
L107.4800 112.5800
" />
<path d="M101.1800 112.5800
L101.1800 130.5800
" />
<path d="M107.4800 112.5800
L76.1800 112.5800
" />
<path d="M76.1800 112.5800
L76.1800 130.5800
" />
<path d="M76.1800 130.5800
L107.4800 130.5800
" />
<path d="M50.8500 111.1500
L49.8500 111.1500
" />
<path d="M49.8500 111.1500
L49.8500 110.5500
" />
<path d="M50.8500 110.5500
L50.8500 111.1500
" />
<path d="M49.8500 110.5500
L50.8500 110.5500
" />
<path d="M69.6760 120.2500
L68.1760 120.2500
" />
<path d="M69.6760 119.4500
L69.6760 120.2500
" />
<path d="M68.1760 120.2500
L68.1760 119.4500
" />
<path d="M68.1760 119.4500
L69.6760 119.4500
" />
<path d="M63.0500 117.8500
L63.0500 119.4500
" />
<path d="M62.2500 119.4500
L62.2500 117.8500
" />
<path d="M62.2500 117.8500
L63.0500 117.8500
" />
<path d="M63.0500 119.4500
L62.2500 119.4500
" />
<path style="fill:none; 
stroke:#000000; stroke-width:0.1200; stroke-opacity:1; 
stroke-linecap:round; stroke-linejoin:round;fill:none"
d="M 48.9750,114.9050
52.3250,114.9050
52.3250,118.2550
48.9750,118.2550
Z" /> 
<path d="M58.0160 118.9500
L59.5160 118.9500
" />
<path d="M58.0160 119.7500
L58.0160 118.9500
" />
<path d="M59.5160 119.7500
L58.0160 119.7500
" />
<path d="M59.5160 118.9500
L59.5160 119.7500
" />
<path d="M55.8500 127.1500
L55.8500 127.9500
" />
<path d="M55.8500 127.9500
L54.3500 127.9500
" />
<path d="M54.3500 127.9500
L54.3500 127.1500
" />
<path d="M54.3500 127.1500
L55.8500 127.1500
" />
<path d="M61.7160 116.6500
L62.7160 116.6500
" />
<path d="M62.7160 116.6500
L62.7160 108.8500
" />
<path d="M55.7160 116.6500
L55.7160 115.2500
" />
<path d="M54.7160 116.6500
L55.7160 116.6500
" />
<path d="M54.7160 108.8500
L54.7160 116.6500
" />
<path d="M61.7160 115.2500
L61.7160 116.6500
" />
<path d="M55.7160 115.2500
L61.7160 115.2500
" />
<path d="M62.7160 108.8500
L54.7160 108.8500
" />
<path d="M75.2500 119.8500
L75.2500 120.6500
" />
<path d="M73.7500 120.6500
L73.7500 119.8500
" />
<path d="M75.2500 120.6500
L73.7500 120.6500
" />
<path d="M73.7500 119.8500
L75.2500 119.8500
" />
<path d="M73.1500 125.0500
L73.1500 124.2500
" />
<path d="M74.7500 125.0500
L73.1500 125.0500
" />
<path d="M73.1500 124.2500
L74.7500 124.2500
" />
<path d="M74.7500 124.2500
L74.7500 125.0500
" />
<path d="M55.9500 124.9500
L54.3500 124.9500
" />
<path d="M54.3500 124.1500
L55.9500 124.1500
" />
<path d="M54.3500 124.9500
L54.3500 124.1500
" />
<path d="M55.9500 124.1500
L55.9500 124.9500
" />
<path d="M73.7500 117.0500
L75.2500 117.0500
" />
<path d="M75.2500 117.8500
L73.7500 117.8500
" />
<path d="M73.7500 117.8500
L73.7500 117.0500
" />
<path d="M75.2500 117.0500
L75.2500 117.8500
" />
<path d="M59.2500 128.3500
L59.2500 126.8500
" />
<path d="M60.0500 128.3500
L59.2500 128.3500
" />
<path d="M60.0500 126.8500
L60.0500 128.3500
" />
<path d="M59.2500 126.8500
L60.0500 126.8500
" />
<path d="M57.1500 121.6500
L57.1500 124.6500
" />
<path d="M60.1500 124.6500
L60.1500 121.6500
" />
<path d="M60.1500 121.6500
L57.1500 121.6500
" />
<path d="M57.1500 124.6500
L60.1500 124.6500
" />
<circle cx="57.7500" cy="123.9500" r="0.2828" /> 
<path d="M58.2000 128.4500
L57.4000 128.4500
" />
<path d="M57.4000 126.8500
L58.2000 126.8500
" />
<path d="M57.4000 128.4500
L57.4000 126.8500
" />
<path d="M58.2000 126.8500
L58.2000 128.4500
" />
<path style="fill:none; 
stroke:#000000; stroke-width:0.1200; stroke-opacity:1; 
stroke-linecap:round; stroke-linejoin:round;fill:none"
d="M 48.9750,124.9050
52.3250,124.9050
52.3250,128.2550
48.9750,128.2550
Z" /> 
<path d="M54.5500 119.0500
L56.0500 119.0500
" />
<path d="M56.0500 119.0500
L56.0500 119.8500
" />
<path d="M56.0500 119.8500
L54.5500 119.8500
" />
<path d="M54.5500 119.8500
L54.5500 119.0500
" />
<path d="M42.1500 115.6500
L41.5500 115.6500
" />
<path d="M41.5500 114.6500
L42.1500 114.6500
" />
<path d="M41.5500 115.6500
L41.5500 114.6500
" />
<path d="M42.1500 114.6500
L42.1500 115.6500
" />
<path d="M66.4700 116.4500
L66.4700 117.8500
" />
<path d="M66.4700 117.8500
L63.4300 117.8500
" />
<path d="M63.4300 117.8500
L63.4300 116.4500
" />
<path d="M63.4300 116.4500
L66.4700 116.4500
" />
<circle cx="64.0500" cy="117.5500" r="0.1414" /> 
<path d="M50.1450 133.9190
L48.7450 133.9190
" />
<path d="M48.7450 130.8790
L50.1450 130.8790
" />
<path d="M50.1450 130.8790
L50.1450 133.9190
" />
<path d="M48.7450 133.9190
L48.7450 130.8790
" />
<circle cx="49.0450" cy="131.4990" r="0.1414" /> 
</g>
<g style="fill:#000000; fill-opacity:1.0000; stroke:none;">
<circle cx="64.5900" cy="133.0100" r="0.5000" /> 
</g>
<g style="fill:#000000; fill-opacity:1.0000; stroke:none;">
<circle cx="67.1300" cy="133.0100" r="0.5000" /> 
</g>
<g style="fill:#000000; fill-opacity:1.0000; stroke:none;">
<circle cx="69.6700" cy="133.0100" r="0.5000" /> 
</g>
<g style="fill:#000000; fill-opacity:1.0000; stroke:none;">
<circle cx="72.2100" cy="133.0100" r="0.5000" /> 
</g>
<g style="fill:#000000; fill-opacity:1.0000; stroke:none;">
<circle cx="74.7500" cy="133.0100" r="0.5000" /> 
</g>
<g style="fill:#000000; fill-opacity:1.0000; stroke:none;">
<circle cx="77.2900" cy="133.0100" r="0.5000" /> 
</g>
<g style="fill:#000000; fill-opacity:1.0000; stroke:none;">
<circle cx="79.8300" cy="133.0100" r="0.5000" /> 
</g>
<g style="fill:#000000; fill-opacity:1.0000; stroke:none;">
<circle cx="82.3700" cy="133.0100" r="0.5000" /> 
</g>
<g style="fill:#000000; fill-opacity:1.0000; stroke:none;">
<circle cx="84.9100" cy="133.0100" r="0.5000" /> 
</g>
<g style="fill:#000000; fill-opacity:1.0000; stroke:none;">
<circle cx="87.4500" cy="133.0100" r="0.5000" /> 
</g>
<g style="fill:#000000; fill-opacity:1.0000; stroke:none;">
<circle cx="89.9900" cy="133.0100" r="0.5000" /> 
</g>
<g style="fill:#000000; fill-opacity:1.0000; stroke:none;">
<circle cx="92.5300" cy="133.0100" r="0.5000" /> 
</g>
<g style="fill:#000000; fill-opacity:1.0000; stroke:none;">
<circle cx="95.0700" cy="133.0100" r="0.5000" /> 
</g>
<g style="fill:#000000; fill-opacity:1.0000; stroke:none;">
<circle cx="97.6100" cy="133.0100" r="0.5000" /> 
</g>
<g style="fill:#000000; fill-opacity:1.0000; stroke:none;">
<circle cx="100.1500" cy="133.0100" r="0.5000" /> 
</g>
<g style="fill:#000000; fill-opacity:1.0000; stroke:none;">
<circle cx="64.5900" cy="110.1500" r="0.5000" /> 
</g>
<g style="fill:#000000; fill-opacity:1.0000; stroke:none;">
<circle cx="67.1300" cy="110.1500" r="0.5000" /> 
</g>
<g style="fill:#000000; fill-opacity:1.0000; stroke:none;">
<circle cx="69.6700" cy="110.1500" r="0.5000" /> 
</g>
<g style="fill:#000000; fill-opacity:1.0000; stroke:none;">
<circle cx="72.2100" cy="110.1500" r="0.5000" /> 
</g>
<g style="fill:#000000; fill-opacity:1.0000; stroke:none;">
<circle cx="74.7500" cy="110.1500" r="0.5000" /> 
</g>
<g style="fill:#000000; fill-opacity:1.0000; stroke:none;">
<circle cx="77.2900" cy="110.1500" r="0.5000" /> 
</g>
<g style="fill:#000000; fill-opacity:1.0000; stroke:none;">
<circle cx="79.8300" cy="110.1500" r="0.5000" /> 
</g>
<g style="fill:#000000; fill-opacity:1.0000; stroke:none;">
<circle cx="82.3700" cy="110.1500" r="0.5000" /> 
</g>
<g style="fill:#000000; fill-opacity:1.0000; stroke:none;">
<circle cx="84.9100" cy="110.1500" r="0.5000" /> 
</g>
<g style="fill:#000000; fill-opacity:1.0000; stroke:none;">
<circle cx="87.4500" cy="110.1500" r="0.5000" /> 
</g>
<g style="fill:#000000; fill-opacity:1.0000; stroke:none;">
<circle cx="89.9900" cy="110.1500" r="0.5000" /> 
</g>
<g style="fill:#000000; fill-opacity:1.0000; stroke:none;">
<circle cx="92.5300" cy="110.1500" r="0.5000" /> 
</g>
<g style="fill:#000000; fill-opacity:1.0000; stroke:none;">
<circle cx="95.0700" cy="110.1500" r="0.5000" /> 
</g>
<g style="fill:#000000; fill-opacity:1.0000; stroke:none;">
<circle cx="97.6100" cy="110.1500" r="0.5000" /> 
</g>
<g style="fill:#000000; fill-opacity:1.0000; stroke:none;">
<circle cx="100.1500" cy="110.1500" r="0.5000" /> 
</g>
<g style="fill:#000000; fill-opacity:1.0000; stroke:none;">
<circle cx="50.6500" cy="121.5800" r="1.6000" /> 
</g>
<g style="fill:#000000; fill-opacity:1.0000; stroke:none;">
<circle cx="82.6500" cy="121.5800" r="1.6000" /> 
</g>
<g style="fill:#000000; fill-opacity:1.0000; stroke:none;">
<circle cx="44.8500" cy="118.7180" r="0.3250" /> 
</g>
<g style="fill:#000000; fill-opacity:1.0000; stroke:none;">
<circle cx="44.8500" cy="124.4930" r="0.3250" /> 
</g>
<g style="fill:none; 
stroke:#000000; stroke-width:0.6000; stroke-opacity:1; 
stroke-linecap:round; stroke-linejoin:round;">
<path d="M41.7250 117.2680
L40.6250 117.2680
" />
<path d="M45.8750 125.8930
L44.7750 125.8930
" />
<path d="M45.8750 117.2680
L44.7750 117.2680
" />
<path d="M41.7250 125.8930
L40.6250 125.8930
" />
</g>
<g style="fill:#FFFFFF; fill-opacity:1.0000; stroke:none;">
<circle cx="64.5900" cy="133.0100" r="0.5000" /> 
</g>
<g style="fill:#FFFFFF; fill-opacity:1.0000; stroke:none;">
<circle cx="67.1300" cy="133.0100" r="0.5000" /> 
</g>
<g style="fill:#FFFFFF; fill-opacity:1.0000; stroke:none;">
<circle cx="69.6700" cy="133.0100" r="0.5000" /> 
</g>
<g style="fill:#FFFFFF; fill-opacity:1.0000; stroke:none;">
<circle cx="72.2100" cy="133.0100" r="0.5000" /> 
</g>
<g style="fill:#FFFFFF; fill-opacity:1.0000; stroke:none;">
<circle cx="74.7500" cy="133.0100" r="0.5000" /> 
</g>
<g style="fill:#FFFFFF; fill-opacity:1.0000; stroke:none;">
<circle cx="77.2900" cy="133.0100" r="0.5000" /> 
</g>
<g style="fill:#FFFFFF; fill-opacity:1.0000; stroke:none;">
<circle cx="79.8300" cy="133.0100" r="0.5000" /> 
</g>
<g style="fill:#FFFFFF; fill-opacity:1.0000; stroke:none;">
<circle cx="82.3700" cy="133.0100" r="0.5000" /> 
</g>
<g style="fill:#FFFFFF; fill-opacity:1.0000; stroke:none;">
<circle cx="84.9100" cy="133.0100" r="0.5000" /> 
</g>
<g style="fill:#FFFFFF; fill-opacity:1.0000; stroke:none;">
<circle cx="87.4500" cy="133.0100" r="0.5000" /> 
</g>
<g style="fill:#FFFFFF; fill-opacity:1.0000; stroke:none;">
<circle cx="89.9900" cy="133.0100" r="0.5000" /> 
</g>
<g style="fill:#FFFFFF; fill-opacity:1.0000; stroke:none;">
<circle cx="92.5300" cy="133.0100" r="0.5000" /> 
</g>
<g style="fill:#FFFFFF; fill-opacity:1.0000; stroke:none;">
<circle cx="95.0700" cy="133.0100" r="0.5000" /> 
</g>
<g style="fill:#FFFFFF; fill-opacity:1.0000; stroke:none;">
<circle cx="97.6100" cy="133.0100" r="0.5000" /> 
</g>
<g style="fill:#FFFFFF; fill-opacity:1.0000; stroke:none;">
<circle cx="100.1500" cy="133.0100" r="0.5000" /> 
</g>
<g style="fill:#FFFFFF; fill-opacity:1.0000; stroke:none;">
<circle cx="64.5900" cy="110.1500" r="0.5000" /> 
</g>
<g style="fill:#FFFFFF; fill-opacity:1.0000; stroke:none;">
<circle cx="67.1300" cy="110.1500" r="0.5000" /> 
</g>
<g style="fill:#FFFFFF; fill-opacity:1.0000; stroke:none;">
<circle cx="69.6700" cy="110.1500" r="0.5000" /> 
</g>
<g style="fill:#FFFFFF; fill-opacity:1.0000; stroke:none;">
<circle cx="72.2100" cy="110.1500" r="0.5000" /> 
</g>
<g style="fill:#FFFFFF; fill-opacity:1.0000; stroke:none;">
<circle cx="74.7500" cy="110.1500" r="0.5000" /> 
</g>
<g style="fill:#FFFFFF; fill-opacity:1.0000; stroke:none;">
<circle cx="77.2900" cy="110.1500" r="0.5000" /> 
</g>
<g style="fill:#FFFFFF; fill-opacity:1.0000; stroke:none;">
<circle cx="79.8300" cy="110.1500" r="0.5000" /> 
</g>
<g style="fill:#FFFFFF; fill-opacity:1.0000; stroke:none;">
<circle cx="82.3700" cy="110.1500" r="0.5000" /> 
</g>
<g style="fill:#FFFFFF; fill-opacity:1.0000; stroke:none;">
<circle cx="84.9100" cy="110.1500" r="0.5000" /> 
</g>
<g style="fill:#FFFFFF; fill-opacity:1.0000; stroke:none;">
<circle cx="87.4500" cy="110.1500" r="0.5000" /> 
</g>
<g style="fill:#FFFFFF; fill-opacity:1.0000; stroke:none;">
<circle cx="89.9900" cy="110.1500" r="0.5000" /> 
</g>
<g style="fill:#FFFFFF; fill-opacity:1.0000; stroke:none;">
<circle cx="92.5300" cy="110.1500" r="0.5000" /> 
</g>
<g style="fill:#FFFFFF; fill-opacity:1.0000; stroke:none;">
<circle cx="95.0700" cy="110.1500" r="0.5000" /> 
</g>
<g style="fill:#FFFFFF; fill-opacity:1.0000; stroke:none;">
<circle cx="97.6100" cy="110.1500" r="0.5000" /> 
</g>
<g style="fill:#FFFFFF; fill-opacity:1.0000; stroke:none;">
<circle cx="100.1500" cy="110.1500" r="0.5000" /> 
</g>
<g style="fill:#FFFFFF; fill-opacity:1.0000; stroke:none;">
<circle cx="50.6500" cy="121.5800" r="1.6000" /> 
</g>
<g style="fill:#FFFFFF; fill-opacity:1.0000; stroke:none;">
<circle cx="82.6500" cy="121.5800" r="1.6000" /> 
</g>
<g style="fill:#FFFFFF; fill-opacity:1.0000; stroke:none;">
<circle cx="44.8500" cy="118.7180" r="0.3250" /> 
</g>
<g style="fill:#FFFFFF; fill-opacity:1.0000; stroke:none;">
<circle cx="44.8500" cy="124.4930" r="0.3250" /> 
</g>
<g style="fill:none; 
stroke:#FFFFFF; stroke-width:0.6000; stroke-opacity:1; 
stroke-linecap:round; stroke-linejoin:round;">
<path d="M41.7250 117.2680
L40.6250 117.2680
" />
<path d="M45.8750 125.8930
L44.7750 125.8930
" />
<path d="M45.8750 117.2680
L44.7750 117.2680
" />
<path d="M41.7250 125.8930
L40.6250 125.8930
" />
</g> 
</svg>
