<?xml version="1.0" standalone="no"?>
 <!DOCTYPE svg PUBLIC "-//W3C//DTD SVG 1.1//EN" 
 "http://www.w3.org/Graphics/SVG/1.1/DTD/svg11.dtd"> 
<svg
  xmlns:svg="http://www.w3.org/2000/svg"
  xmlns="http://www.w3.org/2000/svg"
  xmlns:xlink="http://www.w3.org/1999/xlink"
  version="1.1"
  width="297.0022mm" height="210.0072mm" viewBox="0.0000 0.0000 297.0022 210.0072">
<title>SVG Image created as Dasduino_CONNECTPLUS-User_Drawings.svg date 2025/07/25 10:35:57 </title>
  <desc>Image generated by PCBNEW </desc>
<g style="fill:#000000; fill-opacity:1.0000;stroke:#000000; stroke-opacity:1.0000;
stroke-linecap:round; stroke-linejoin:round;"
 transform="translate(0 0) scale(1 1)">
</g>
<g style="fill:none; 
stroke:#000000; stroke-width:0.1200; stroke-opacity:1; 
stroke-linecap:round; stroke-linejoin:round;">
<path d="M89.7000 129.5000
L89.7000 131.1000
" />
<path d="M88.9000 129.5000
L89.7000 129.5000
" />
<path d="M88.9000 131.1000
L88.9000 129.5000
" />
<path d="M89.7000 131.1000
L88.9000 131.1000
" />
<path d="M89.0000 134.8000
L89.6000 134.8000
" />
<path d="M89.6000 135.8000
L89.0000 135.8000
" />
<path d="M89.0000 135.8000
L89.0000 134.8000
" />
<path d="M89.6000 134.8000
L89.6000 135.8000
" />
<path d="M74.7000 115.6000
L74.7000 117.2000
" />
<path d="M71.5000 115.6000
L74.7000 115.6000
" />
<path d="M71.5000 117.2000
L71.5000 115.6000
" />
<path d="M74.7000 117.2000
L71.5000 117.2000
" />
<path d="M86.1600 141.6000
L86.1600 145.6000
" />
<path d="M83.7600 141.6000
L86.1600 141.6000
" />
<path d="M86.1600 145.6000
L83.7600 145.6000
" />
<path d="M83.7600 145.6000
L83.7600 141.6000
" />
<path d="M88.8490 141.7050
L89.6490 141.7050
" />
<path d="M89.6490 143.3050
L88.8490 143.3050
" />
<path d="M89.6490 141.7050
L89.6490 143.3050
" />
<path d="M88.8490 143.3050
L88.8490 141.7050
" />
<path d="M81.6000 114.0000
L82.4000 114.0000
" />
<path d="M82.4000 115.5000
L81.6000 115.5000
" />
<path d="M81.6000 115.5000
L81.6000 114.0000
" />
<path d="M82.4000 114.0000
L82.4000 115.5000
" />
<path d="M81.5000 132.7000
L82.3000 132.7000
" />
<path d="M81.5000 134.3000
L81.5000 132.7000
" />
<path d="M82.3000 134.3000
L81.5000 134.3000
" />
<path d="M82.3000 132.7000
L82.3000 134.3000
" />
<path d="M74.3000 113.4000
L75.1000 113.4000
" />
<path d="M75.1000 113.4000
L75.1000 114.9000
" />
<path d="M74.3000 114.9000
L74.3000 113.4000
" />
<path d="M75.1000 114.9000
L74.3000 114.9000
" />
<path d="M86.4000 129.5000
L87.2000 129.5000
" />
<path d="M86.4000 131.1000
L86.4000 129.5000
" />
<path d="M87.2000 129.5000
L87.2000 131.1000
" />
<path d="M87.2000 131.1000
L86.4000 131.1000
" />
<path d="M86.5000 132.8000
L87.1000 132.8000
" />
<path d="M87.1000 132.8000
L87.1000 133.8000
" />
<path d="M86.5000 133.8000
L86.5000 132.8000
" />
<path d="M87.1000 133.8000
L86.5000 133.8000
" />
<path d="M86.5000 134.8000
L87.1000 134.8000
" />
<path d="M87.1000 134.8000
L87.1000 135.8000
" />
<path d="M87.1000 135.8000
L86.5000 135.8000
" />
<path d="M86.5000 135.8000
L86.5000 134.8000
" />
<path style="fill:none; 
stroke:#000000; stroke-width:0.1200; stroke-opacity:1; 
stroke-linecap:round; stroke-linejoin:round;fill:none"
d="M 87.5900,125.3300
90.1300,125.3300
90.1300,87.2300
87.5900,87.2300
Z" /> 
<path d="M85.4360 147.2950
L86.2360 147.2950
" />
<path d="M85.4360 148.8950
L85.4360 147.2950
" />
<path d="M86.2360 147.2950
L86.2360 148.8950
" />
<path d="M86.2360 148.8950
L85.4360 148.8950
" />
<path d="M71.1000 118.5470
L71.1000 120.7470
" />
<path d="M71.1000 120.7470
L73.3000 120.7470
" />
<path d="M73.3000 120.7470
L73.3000 118.5470
" />
<path d="M73.3000 118.5470
L71.1000 118.5470
" />
<circle cx="72.8000" cy="119.0470" r="0.2236" /> 
<path d="M78.4300 132.2000
L78.4300 134.4000
" />
<path d="M76.4300 132.2000
L78.4300 132.2000
" />
<path d="M78.4300 134.4000
L76.4300 134.4000
" />
<path d="M76.4300 134.4000
L76.4300 132.2000
" />
<path d="M76.4300 133.6000
L78.4300 133.6000
" />
</g>
<g style="fill:none; 
stroke:#000000; stroke-width:0.2000; stroke-opacity:1; 
stroke-linecap:round; stroke-linejoin:round;">
<circle cx="76.5300" cy="134.8000" r="0.1000" /> 
</g>
<g style="fill:none; 
stroke:#000000; stroke-width:0.1200; stroke-opacity:1; 
stroke-linecap:round; stroke-linejoin:round;">
<path d="M67.7000 138.8000
L67.7000 137.8000
" />
<path d="M68.3000 138.8000
L67.7000 138.8000
" />
<path d="M68.3000 137.8000
L68.3000 138.8000
" />
<path d="M67.7000 137.8000
L68.3000 137.8000
" />
<path d="M71.5000 147.7000
L71.5000 148.3000
" />
<path d="M70.5000 148.3000
L70.5000 147.7000
" />
<path d="M71.5000 148.3000
L70.5000 148.3000
" />
<path d="M70.5000 147.7000
L71.5000 147.7000
" />
<path style="fill:none; 
stroke:#000000; stroke-width:0.1200; stroke-opacity:1; 
stroke-linecap:round; stroke-linejoin:round;fill:none"
d="M 64.7300,125.3300
67.2700,125.3300
67.2700,87.2300
64.7300,87.2300
Z" /> 
<path d="M79.4000 115.5000
L78.6000 115.5000
" />
<path d="M78.6000 115.5000
L78.6000 113.9000
" />
<path d="M79.4000 113.9000
L79.4000 115.5000
" />
<path d="M78.6000 113.9000
L79.4000 113.9000
" />
<path d="M83.6580 147.2950
L84.4580 147.2950
" />
<path d="M84.4580 148.8950
L83.6580 148.8950
" />
<path d="M84.4580 147.2950
L84.4580 148.8950
" />
<path d="M83.6580 148.8950
L83.6580 147.2950
" />
<path d="M89.6000 133.8000
L89.0000 133.8000
" />
<path d="M89.0000 133.8000
L89.0000 132.8000
" />
<path d="M89.6000 132.8000
L89.6000 133.8000
" />
<path d="M89.0000 132.8000
L89.6000 132.8000
" />
<path d="M89.7690 146.5050
L86.7290 146.5050
" />
<path d="M86.7290 145.1050
L89.7690 145.1050
" />
<path d="M89.7690 145.1050
L89.7690 146.5050
" />
<path d="M86.7290 146.5050
L86.7290 145.1050
" />
<circle cx="89.1490" cy="145.4050" r="0.1414" /> 
<path style="fill:none; 
stroke:#000000; stroke-width:0.1200; stroke-opacity:1; 
stroke-linecap:round; stroke-linejoin:round;fill:none"
d="M 75.2158,124.0080
75.9778,124.0080
75.9778,122.9920
75.2158,122.9920
Z" /> 
<circle cx="74.9618" cy="122.7380" r="0.1796" /> 
<path d="M73.9000 120.5740
L73.9000 119.0740
" />
<path d="M74.7000 119.0740
L74.7000 120.5740
" />
<path d="M74.7000 120.5740
L73.9000 120.5740
" />
<path d="M73.9000 119.0740
L74.7000 119.0740
" />
<path d="M86.8490 143.3050
L86.8490 141.7050
" />
<path d="M87.6490 143.3050
L86.8490 143.3050
" />
<path d="M86.8490 141.7050
L87.6490 141.7050
" />
<path d="M87.6490 141.7050
L87.6490 143.3050
" />
<path d="M86.4300 81.1700
L68.4300 81.1700
" />
<path d="M68.4300 87.4700
L86.4300 87.4700
" />
<path d="M68.4300 81.1700
L68.4300 112.4700
" />
<path d="M68.4300 112.4700
L86.4300 112.4700
" />
<path d="M86.4300 112.4700
L86.4300 81.1700
" />
<path d="M67.0000 137.8000
L67.0000 138.8000
" />
<path d="M67.0000 138.8000
L66.4000 138.8000
" />
<path d="M66.4000 137.8000
L67.0000 137.8000
" />
<path d="M66.4000 138.8000
L66.4000 137.8000
" />
<path d="M76.1000 118.9740
L76.1000 120.4740
" />
<path d="M75.3000 118.9740
L76.1000 118.9740
" />
<path d="M76.1000 120.4740
L75.3000 120.4740
" />
<path d="M75.3000 120.4740
L75.3000 118.9740
" />
<path d="M73.7000 125.6000
L75.3000 125.6000
" />
<path d="M75.3000 126.4000
L73.7000 126.4000
" />
<path d="M73.7000 126.4000
L73.7000 125.6000
" />
<path d="M75.3000 125.6000
L75.3000 126.4000
" />
<path style="fill:none; 
stroke:#000000; stroke-width:0.1200; stroke-opacity:1; 
stroke-linecap:round; stroke-linejoin:round;fill:none"
d="M 70.7550,139.6750
74.1050,139.6750
74.1050,136.3250
70.7550,136.3250
Z" /> 
<path d="M74.8000 130.6340
L74.8000 129.1340
" />
<path d="M75.6000 130.6340
L74.8000 130.6340
" />
<path d="M75.6000 129.1340
L75.6000 130.6340
" />
<path d="M74.8000 129.1340
L75.6000 129.1340
" />
<path d="M83.0000 132.8000
L83.8000 132.8000
" />
<path d="M83.8000 132.8000
L83.8000 134.3000
" />
<path d="M83.8000 134.3000
L83.0000 134.3000
" />
<path d="M83.0000 134.3000
L83.0000 132.8000
" />
<path d="M72.5000 126.9340
L72.5000 125.9340
" />
<path d="M72.5000 125.9340
L64.7000 125.9340
" />
<path d="M72.5000 132.9340
L71.1000 132.9340
" />
<path d="M72.5000 133.9340
L72.5000 132.9340
" />
<path d="M64.7000 133.9340
L72.5000 133.9340
" />
<path d="M71.1000 126.9340
L72.5000 126.9340
" />
<path d="M71.1000 132.9340
L71.1000 126.9340
" />
<path d="M64.7000 125.9340
L64.7000 133.9340
" />
<path d="M75.7000 113.4000
L76.5000 113.4000
" />
<path d="M76.5000 114.9000
L75.7000 114.9000
" />
<path d="M76.5000 113.4000
L76.5000 114.9000
" />
<path d="M75.7000 114.9000
L75.7000 113.4000
" />
<path d="M80.9000 115.5000
L80.1000 115.5000
" />
<path d="M80.9000 113.9000
L80.9000 115.5000
" />
<path d="M80.1000 115.5000
L80.1000 113.9000
" />
<path d="M80.1000 113.9000
L80.9000 113.9000
" />
<path d="M80.8000 132.7000
L80.8000 134.3000
" />
<path d="M80.0000 134.3000
L80.0000 132.7000
" />
<path d="M80.8000 134.3000
L80.0000 134.3000
" />
<path d="M80.0000 132.7000
L80.8000 132.7000
" />
<path d="M72.9000 114.9000
L72.9000 113.4000
" />
<path d="M73.7000 113.4000
L73.7000 114.9000
" />
<path d="M73.7000 114.9000
L72.9000 114.9000
" />
<path d="M72.9000 113.4000
L73.7000 113.4000
" />
<path d="M84.2000 129.4000
L82.7000 129.4000
" />
<path d="M84.2000 128.6000
L84.2000 129.4000
" />
<path d="M82.7000 128.6000
L84.2000 128.6000
" />
<path d="M82.7000 129.4000
L82.7000 128.6000
" />
<path d="M77.5000 131.5000
L80.5000 131.5000
" />
<path d="M80.5000 128.5000
L77.5000 128.5000
" />
<path d="M77.5000 128.5000
L77.5000 131.5000
" />
<path d="M80.5000 131.5000
L80.5000 128.5000
" />
<circle cx="79.8000" cy="130.9000" r="0.2828" /> 
<path d="M84.3000 130.4500
L84.3000 131.2500
" />
<path d="M82.7000 131.2500
L82.7000 130.4500
" />
<path d="M84.3000 131.2500
L82.7000 131.2500
" />
<path d="M82.7000 130.4500
L84.3000 130.4500
" />
<path style="fill:none; 
stroke:#000000; stroke-width:0.1200; stroke-opacity:1; 
stroke-linecap:round; stroke-linejoin:round;fill:none"
d="M 80.7550,139.6750
84.1050,139.6750
84.1050,136.3250
80.7550,136.3250
Z" /> 
<path d="M74.9000 134.1000
L74.9000 132.6000
" />
<path d="M74.9000 132.6000
L75.7000 132.6000
" />
<path d="M75.7000 132.6000
L75.7000 134.1000
" />
<path d="M75.7000 134.1000
L74.9000 134.1000
" />
<path d="M71.5000 146.5000
L71.5000 147.1000
" />
<path d="M70.5000 147.1000
L70.5000 146.5000
" />
<path d="M71.5000 147.1000
L70.5000 147.1000
" />
<path d="M70.5000 146.5000
L71.5000 146.5000
" />
<path d="M72.3000 122.1800
L73.7000 122.1800
" />
<path d="M73.7000 122.1800
L73.7000 125.2200
" />
<path d="M73.7000 125.2200
L72.3000 125.2200
" />
<path d="M72.3000 125.2200
L72.3000 122.1800
" />
<circle cx="73.4000" cy="124.6000" r="0.1414" /> 
<path d="M89.7690 138.5050
L89.7690 139.9050
" />
<path d="M86.7290 139.9050
L86.7290 138.5050
" />
<path d="M86.7290 138.5050
L89.7690 138.5050
" />
<path d="M89.7690 139.9050
L86.7290 139.9050
" />
<circle cx="87.3490" cy="139.6050" r="0.1414" /> 
</g>
<g style="fill:#000000; fill-opacity:1.0000; stroke:none;">
<circle cx="88.8600" cy="124.0600" r="0.5000" /> 
</g>
<g style="fill:#000000; fill-opacity:1.0000; stroke:none;">
<circle cx="88.8600" cy="121.5200" r="0.5000" /> 
</g>
<g style="fill:#000000; fill-opacity:1.0000; stroke:none;">
<circle cx="88.8600" cy="118.9800" r="0.5000" /> 
</g>
<g style="fill:#000000; fill-opacity:1.0000; stroke:none;">
<circle cx="88.8600" cy="116.4400" r="0.5000" /> 
</g>
<g style="fill:#000000; fill-opacity:1.0000; stroke:none;">
<circle cx="88.8600" cy="113.9000" r="0.5000" /> 
</g>
<g style="fill:#000000; fill-opacity:1.0000; stroke:none;">
<circle cx="88.8600" cy="111.3600" r="0.5000" /> 
</g>
<g style="fill:#000000; fill-opacity:1.0000; stroke:none;">
<circle cx="88.8600" cy="108.8200" r="0.5000" /> 
</g>
<g style="fill:#000000; fill-opacity:1.0000; stroke:none;">
<circle cx="88.8600" cy="106.2800" r="0.5000" /> 
</g>
<g style="fill:#000000; fill-opacity:1.0000; stroke:none;">
<circle cx="88.8600" cy="103.7400" r="0.5000" /> 
</g>
<g style="fill:#000000; fill-opacity:1.0000; stroke:none;">
<circle cx="88.8600" cy="101.2000" r="0.5000" /> 
</g>
<g style="fill:#000000; fill-opacity:1.0000; stroke:none;">
<circle cx="88.8600" cy="98.6600" r="0.5000" /> 
</g>
<g style="fill:#000000; fill-opacity:1.0000; stroke:none;">
<circle cx="88.8600" cy="96.1200" r="0.5000" /> 
</g>
<g style="fill:#000000; fill-opacity:1.0000; stroke:none;">
<circle cx="88.8600" cy="93.5800" r="0.5000" /> 
</g>
<g style="fill:#000000; fill-opacity:1.0000; stroke:none;">
<circle cx="88.8600" cy="91.0400" r="0.5000" /> 
</g>
<g style="fill:#000000; fill-opacity:1.0000; stroke:none;">
<circle cx="88.8600" cy="88.5000" r="0.5000" /> 
</g>
<g style="fill:#000000; fill-opacity:1.0000; stroke:none;">
<circle cx="66.0000" cy="124.0600" r="0.5000" /> 
</g>
<g style="fill:#000000; fill-opacity:1.0000; stroke:none;">
<circle cx="66.0000" cy="121.5200" r="0.5000" /> 
</g>
<g style="fill:#000000; fill-opacity:1.0000; stroke:none;">
<circle cx="66.0000" cy="118.9800" r="0.5000" /> 
</g>
<g style="fill:#000000; fill-opacity:1.0000; stroke:none;">
<circle cx="66.0000" cy="116.4400" r="0.5000" /> 
</g>
<g style="fill:#000000; fill-opacity:1.0000; stroke:none;">
<circle cx="66.0000" cy="113.9000" r="0.5000" /> 
</g>
<g style="fill:#000000; fill-opacity:1.0000; stroke:none;">
<circle cx="66.0000" cy="111.3600" r="0.5000" /> 
</g>
<g style="fill:#000000; fill-opacity:1.0000; stroke:none;">
<circle cx="66.0000" cy="108.8200" r="0.5000" /> 
</g>
<g style="fill:#000000; fill-opacity:1.0000; stroke:none;">
<circle cx="66.0000" cy="106.2800" r="0.5000" /> 
</g>
<g style="fill:#000000; fill-opacity:1.0000; stroke:none;">
<circle cx="66.0000" cy="103.7400" r="0.5000" /> 
</g>
<g style="fill:#000000; fill-opacity:1.0000; stroke:none;">
<circle cx="66.0000" cy="101.2000" r="0.5000" /> 
</g>
<g style="fill:#000000; fill-opacity:1.0000; stroke:none;">
<circle cx="66.0000" cy="98.6600" r="0.5000" /> 
</g>
<g style="fill:#000000; fill-opacity:1.0000; stroke:none;">
<circle cx="66.0000" cy="96.1200" r="0.5000" /> 
</g>
<g style="fill:#000000; fill-opacity:1.0000; stroke:none;">
<circle cx="66.0000" cy="93.5800" r="0.5000" /> 
</g>
<g style="fill:#000000; fill-opacity:1.0000; stroke:none;">
<circle cx="66.0000" cy="91.0400" r="0.5000" /> 
</g>
<g style="fill:#000000; fill-opacity:1.0000; stroke:none;">
<circle cx="66.0000" cy="88.5000" r="0.5000" /> 
</g>
<g style="fill:#000000; fill-opacity:1.0000; stroke:none;">
<circle cx="77.4300" cy="138.0000" r="1.6000" /> 
</g>
<g style="fill:#000000; fill-opacity:1.0000; stroke:none;">
<circle cx="77.4300" cy="106.0000" r="1.6000" /> 
</g>
<g style="fill:#000000; fill-opacity:1.0000; stroke:none;">
<circle cx="74.5680" cy="143.8000" r="0.3250" /> 
</g>
<g style="fill:#000000; fill-opacity:1.0000; stroke:none;">
<circle cx="80.3430" cy="143.8000" r="0.3250" /> 
</g>
<g style="fill:none; 
stroke:#000000; stroke-width:0.6000; stroke-opacity:1; 
stroke-linecap:round; stroke-linejoin:round;">
<path d="M73.1180 146.9250
L73.1180 148.0250
" />
<path d="M81.7430 142.7750
L81.7430 143.8750
" />
<path d="M73.1180 142.7750
L73.1180 143.8750
" />
<path d="M81.7430 146.9250
L81.7430 148.0250
" />
</g>
<g style="fill:#FFFFFF; fill-opacity:1.0000; stroke:none;">
<circle cx="88.8600" cy="124.0600" r="0.5000" /> 
</g>
<g style="fill:#FFFFFF; fill-opacity:1.0000; stroke:none;">
<circle cx="88.8600" cy="121.5200" r="0.5000" /> 
</g>
<g style="fill:#FFFFFF; fill-opacity:1.0000; stroke:none;">
<circle cx="88.8600" cy="118.9800" r="0.5000" /> 
</g>
<g style="fill:#FFFFFF; fill-opacity:1.0000; stroke:none;">
<circle cx="88.8600" cy="116.4400" r="0.5000" /> 
</g>
<g style="fill:#FFFFFF; fill-opacity:1.0000; stroke:none;">
<circle cx="88.8600" cy="113.9000" r="0.5000" /> 
</g>
<g style="fill:#FFFFFF; fill-opacity:1.0000; stroke:none;">
<circle cx="88.8600" cy="111.3600" r="0.5000" /> 
</g>
<g style="fill:#FFFFFF; fill-opacity:1.0000; stroke:none;">
<circle cx="88.8600" cy="108.8200" r="0.5000" /> 
</g>
<g style="fill:#FFFFFF; fill-opacity:1.0000; stroke:none;">
<circle cx="88.8600" cy="106.2800" r="0.5000" /> 
</g>
<g style="fill:#FFFFFF; fill-opacity:1.0000; stroke:none;">
<circle cx="88.8600" cy="103.7400" r="0.5000" /> 
</g>
<g style="fill:#FFFFFF; fill-opacity:1.0000; stroke:none;">
<circle cx="88.8600" cy="101.2000" r="0.5000" /> 
</g>
<g style="fill:#FFFFFF; fill-opacity:1.0000; stroke:none;">
<circle cx="88.8600" cy="98.6600" r="0.5000" /> 
</g>
<g style="fill:#FFFFFF; fill-opacity:1.0000; stroke:none;">
<circle cx="88.8600" cy="96.1200" r="0.5000" /> 
</g>
<g style="fill:#FFFFFF; fill-opacity:1.0000; stroke:none;">
<circle cx="88.8600" cy="93.5800" r="0.5000" /> 
</g>
<g style="fill:#FFFFFF; fill-opacity:1.0000; stroke:none;">
<circle cx="88.8600" cy="91.0400" r="0.5000" /> 
</g>
<g style="fill:#FFFFFF; fill-opacity:1.0000; stroke:none;">
<circle cx="88.8600" cy="88.5000" r="0.5000" /> 
</g>
<g style="fill:#FFFFFF; fill-opacity:1.0000; stroke:none;">
<circle cx="66.0000" cy="124.0600" r="0.5000" /> 
</g>
<g style="fill:#FFFFFF; fill-opacity:1.0000; stroke:none;">
<circle cx="66.0000" cy="121.5200" r="0.5000" /> 
</g>
<g style="fill:#FFFFFF; fill-opacity:1.0000; stroke:none;">
<circle cx="66.0000" cy="118.9800" r="0.5000" /> 
</g>
<g style="fill:#FFFFFF; fill-opacity:1.0000; stroke:none;">
<circle cx="66.0000" cy="116.4400" r="0.5000" /> 
</g>
<g style="fill:#FFFFFF; fill-opacity:1.0000; stroke:none;">
<circle cx="66.0000" cy="113.9000" r="0.5000" /> 
</g>
<g style="fill:#FFFFFF; fill-opacity:1.0000; stroke:none;">
<circle cx="66.0000" cy="111.3600" r="0.5000" /> 
</g>
<g style="fill:#FFFFFF; fill-opacity:1.0000; stroke:none;">
<circle cx="66.0000" cy="108.8200" r="0.5000" /> 
</g>
<g style="fill:#FFFFFF; fill-opacity:1.0000; stroke:none;">
<circle cx="66.0000" cy="106.2800" r="0.5000" /> 
</g>
<g style="fill:#FFFFFF; fill-opacity:1.0000; stroke:none;">
<circle cx="66.0000" cy="103.7400" r="0.5000" /> 
</g>
<g style="fill:#FFFFFF; fill-opacity:1.0000; stroke:none;">
<circle cx="66.0000" cy="101.2000" r="0.5000" /> 
</g>
<g style="fill:#FFFFFF; fill-opacity:1.0000; stroke:none;">
<circle cx="66.0000" cy="98.6600" r="0.5000" /> 
</g>
<g style="fill:#FFFFFF; fill-opacity:1.0000; stroke:none;">
<circle cx="66.0000" cy="96.1200" r="0.5000" /> 
</g>
<g style="fill:#FFFFFF; fill-opacity:1.0000; stroke:none;">
<circle cx="66.0000" cy="93.5800" r="0.5000" /> 
</g>
<g style="fill:#FFFFFF; fill-opacity:1.0000; stroke:none;">
<circle cx="66.0000" cy="91.0400" r="0.5000" /> 
</g>
<g style="fill:#FFFFFF; fill-opacity:1.0000; stroke:none;">
<circle cx="66.0000" cy="88.5000" r="0.5000" /> 
</g>
<g style="fill:#FFFFFF; fill-opacity:1.0000; stroke:none;">
<circle cx="77.4300" cy="138.0000" r="1.6000" /> 
</g>
<g style="fill:#FFFFFF; fill-opacity:1.0000; stroke:none;">
<circle cx="77.4300" cy="106.0000" r="1.6000" /> 
</g>
<g style="fill:#FFFFFF; fill-opacity:1.0000; stroke:none;">
<circle cx="74.5680" cy="143.8000" r="0.3250" /> 
</g>
<g style="fill:#FFFFFF; fill-opacity:1.0000; stroke:none;">
<circle cx="80.3430" cy="143.8000" r="0.3250" /> 
</g>
<g style="fill:none; 
stroke:#FFFFFF; stroke-width:0.6000; stroke-opacity:1; 
stroke-linecap:round; stroke-linejoin:round;">
<path d="M73.1180 146.9250
L73.1180 148.0250
" />
<path d="M81.7430 142.7750
L81.7430 143.8750
" />
<path d="M73.1180 142.7750
L73.1180 143.8750
" />
<path d="M81.7430 146.9250
L81.7430 148.0250
" />
</g> 
</svg>
